<?xml version="1.0" encoding="utf-8" standalone="no"?>
<!DOCTYPE svg PUBLIC "-//W3C//DTD SVG 1.1//EN"
  "http://www.w3.org/Graphics/SVG/1.1/DTD/svg11.dtd">
<svg xmlns:xlink="http://www.w3.org/1999/xlink" width="1378.08pt" height="706.32pt" viewBox="0 0 1378.08 706.32" xmlns="http://www.w3.org/2000/svg" version="1.1">
 <metadata>
  <rdf:RDF xmlns:dc="http://purl.org/dc/elements/1.1/" xmlns:cc="http://creativecommons.org/ns#" xmlns:rdf="http://www.w3.org/1999/02/22-rdf-syntax-ns#">
   <cc:Work>
    <dc:type rdf:resource="http://purl.org/dc/dcmitype/StillImage"/>
    <dc:date>2023-11-06T13:19:48.706835</dc:date>
    <dc:format>image/svg+xml</dc:format>
    <dc:creator>
     <cc:Agent>
      <dc:title>Matplotlib v3.8.0, https://matplotlib.org/</dc:title>
     </cc:Agent>
    </dc:creator>
   </cc:Work>
  </rdf:RDF>
 </metadata>
 <defs>
  <style type="text/css">*{stroke-linejoin: round; stroke-linecap: butt}</style>
 </defs>
 <g id="figure_1">
  <g id="patch_1">
   <path d="M 0 706.32 
L 1378.08 706.32 
L 1378.08 0 
L 0 0 
z
" style="fill: #ffffff"/>
  </g>
  <g id="axes_1">
   <g id="patch_2">
    <path d="M 172.26 628.6248 
L 1240.272 628.6248 
L 1240.272 84.7584 
L 172.26 84.7584 
z
" style="fill: #ffffff"/>
   </g>
   <g id="matplotlib.axis_1">
    <g id="xtick_1">
     <g id="line2d_1">
      <defs>
       <path id="m595160a867" d="M 0 0 
L 0 3.5 
" style="stroke: #000000; stroke-width: 0.8"/>
      </defs>
      <g>
       <use xlink:href="#m595160a867" x="323.962541" y="628.6248" style="stroke: #000000; stroke-width: 0.8"/>
      </g>
     </g>
     <g id="text_1">
      <!-- 20600 -->
      <g transform="translate(308.056291 643.223238) scale(0.1 -0.1)">
       <defs>
        <path id="DejaVuSans-32" d="M 1228 531 
L 3431 531 
L 3431 0 
L 469 0 
L 469 531 
Q 828 903 1448 1529 
Q 2069 2156 2228 2338 
Q 2531 2678 2651 2914 
Q 2772 3150 2772 3378 
Q 2772 3750 2511 3984 
Q 2250 4219 1831 4219 
Q 1534 4219 1204 4116 
Q 875 4013 500 3803 
L 500 4441 
Q 881 4594 1212 4672 
Q 1544 4750 1819 4750 
Q 2544 4750 2975 4387 
Q 3406 4025 3406 3419 
Q 3406 3131 3298 2873 
Q 3191 2616 2906 2266 
Q 2828 2175 2409 1742 
Q 1991 1309 1228 531 
z
" transform="scale(0.015625)"/>
        <path id="DejaVuSans-30" d="M 2034 4250 
Q 1547 4250 1301 3770 
Q 1056 3291 1056 2328 
Q 1056 1369 1301 889 
Q 1547 409 2034 409 
Q 2525 409 2770 889 
Q 3016 1369 3016 2328 
Q 3016 3291 2770 3770 
Q 2525 4250 2034 4250 
z
M 2034 4750 
Q 2819 4750 3233 4129 
Q 3647 3509 3647 2328 
Q 3647 1150 3233 529 
Q 2819 -91 2034 -91 
Q 1250 -91 836 529 
Q 422 1150 422 2328 
Q 422 3509 836 4129 
Q 1250 4750 2034 4750 
z
" transform="scale(0.015625)"/>
        <path id="DejaVuSans-36" d="M 2113 2584 
Q 1688 2584 1439 2293 
Q 1191 2003 1191 1497 
Q 1191 994 1439 701 
Q 1688 409 2113 409 
Q 2538 409 2786 701 
Q 3034 994 3034 1497 
Q 3034 2003 2786 2293 
Q 2538 2584 2113 2584 
z
M 3366 4563 
L 3366 3988 
Q 3128 4100 2886 4159 
Q 2644 4219 2406 4219 
Q 1781 4219 1451 3797 
Q 1122 3375 1075 2522 
Q 1259 2794 1537 2939 
Q 1816 3084 2150 3084 
Q 2853 3084 3261 2657 
Q 3669 2231 3669 1497 
Q 3669 778 3244 343 
Q 2819 -91 2113 -91 
Q 1303 -91 875 529 
Q 447 1150 447 2328 
Q 447 3434 972 4092 
Q 1497 4750 2381 4750 
Q 2619 4750 2861 4703 
Q 3103 4656 3366 4563 
z
" transform="scale(0.015625)"/>
       </defs>
       <use xlink:href="#DejaVuSans-32"/>
       <use xlink:href="#DejaVuSans-30" x="63.623047"/>
       <use xlink:href="#DejaVuSans-36" x="127.246094"/>
       <use xlink:href="#DejaVuSans-30" x="190.869141"/>
       <use xlink:href="#DejaVuSans-30" x="254.492188"/>
      </g>
     </g>
    </g>
    <g id="xtick_2">
     <g id="line2d_2">
      <g>
       <use xlink:href="#m595160a867" x="554.077036" y="628.6248" style="stroke: #000000; stroke-width: 0.8"/>
      </g>
     </g>
     <g id="text_2">
      <!-- 20800 -->
      <g transform="translate(538.170786 643.223238) scale(0.1 -0.1)">
       <defs>
        <path id="DejaVuSans-38" d="M 2034 2216 
Q 1584 2216 1326 1975 
Q 1069 1734 1069 1313 
Q 1069 891 1326 650 
Q 1584 409 2034 409 
Q 2484 409 2743 651 
Q 3003 894 3003 1313 
Q 3003 1734 2745 1975 
Q 2488 2216 2034 2216 
z
M 1403 2484 
Q 997 2584 770 2862 
Q 544 3141 544 3541 
Q 544 4100 942 4425 
Q 1341 4750 2034 4750 
Q 2731 4750 3128 4425 
Q 3525 4100 3525 3541 
Q 3525 3141 3298 2862 
Q 3072 2584 2669 2484 
Q 3125 2378 3379 2068 
Q 3634 1759 3634 1313 
Q 3634 634 3220 271 
Q 2806 -91 2034 -91 
Q 1263 -91 848 271 
Q 434 634 434 1313 
Q 434 1759 690 2068 
Q 947 2378 1403 2484 
z
M 1172 3481 
Q 1172 3119 1398 2916 
Q 1625 2713 2034 2713 
Q 2441 2713 2670 2916 
Q 2900 3119 2900 3481 
Q 2900 3844 2670 4047 
Q 2441 4250 2034 4250 
Q 1625 4250 1398 4047 
Q 1172 3844 1172 3481 
z
" transform="scale(0.015625)"/>
       </defs>
       <use xlink:href="#DejaVuSans-32"/>
       <use xlink:href="#DejaVuSans-30" x="63.623047"/>
       <use xlink:href="#DejaVuSans-38" x="127.246094"/>
       <use xlink:href="#DejaVuSans-30" x="190.869141"/>
       <use xlink:href="#DejaVuSans-30" x="254.492188"/>
      </g>
     </g>
    </g>
    <g id="xtick_3">
     <g id="line2d_3">
      <g>
       <use xlink:href="#m595160a867" x="784.191532" y="628.6248" style="stroke: #000000; stroke-width: 0.8"/>
      </g>
     </g>
     <g id="text_3">
      <!-- 21000 -->
      <g transform="translate(768.285282 643.223238) scale(0.1 -0.1)">
       <defs>
        <path id="DejaVuSans-31" d="M 794 531 
L 1825 531 
L 1825 4091 
L 703 3866 
L 703 4441 
L 1819 4666 
L 2450 4666 
L 2450 531 
L 3481 531 
L 3481 0 
L 794 0 
L 794 531 
z
" transform="scale(0.015625)"/>
       </defs>
       <use xlink:href="#DejaVuSans-32"/>
       <use xlink:href="#DejaVuSans-31" x="63.623047"/>
       <use xlink:href="#DejaVuSans-30" x="127.246094"/>
       <use xlink:href="#DejaVuSans-30" x="190.869141"/>
       <use xlink:href="#DejaVuSans-30" x="254.492188"/>
      </g>
     </g>
    </g>
    <g id="xtick_4">
     <g id="line2d_4">
      <g>
       <use xlink:href="#m595160a867" x="1014.306027" y="628.6248" style="stroke: #000000; stroke-width: 0.8"/>
      </g>
     </g>
     <g id="text_4">
      <!-- 21200 -->
      <g transform="translate(998.399777 643.223238) scale(0.1 -0.1)">
       <use xlink:href="#DejaVuSans-32"/>
       <use xlink:href="#DejaVuSans-31" x="63.623047"/>
       <use xlink:href="#DejaVuSans-32" x="127.246094"/>
       <use xlink:href="#DejaVuSans-30" x="190.869141"/>
       <use xlink:href="#DejaVuSans-30" x="254.492188"/>
      </g>
     </g>
    </g>
    <g id="text_5">
     <!-- Sample -->
     <g transform="translate(687.517562 656.901363) scale(0.1 -0.1)">
      <defs>
       <path id="DejaVuSans-53" d="M 3425 4513 
L 3425 3897 
Q 3066 4069 2747 4153 
Q 2428 4238 2131 4238 
Q 1616 4238 1336 4038 
Q 1056 3838 1056 3469 
Q 1056 3159 1242 3001 
Q 1428 2844 1947 2747 
L 2328 2669 
Q 3034 2534 3370 2195 
Q 3706 1856 3706 1288 
Q 3706 609 3251 259 
Q 2797 -91 1919 -91 
Q 1588 -91 1214 -16 
Q 841 59 441 206 
L 441 856 
Q 825 641 1194 531 
Q 1563 422 1919 422 
Q 2459 422 2753 634 
Q 3047 847 3047 1241 
Q 3047 1584 2836 1778 
Q 2625 1972 2144 2069 
L 1759 2144 
Q 1053 2284 737 2584 
Q 422 2884 422 3419 
Q 422 4038 858 4394 
Q 1294 4750 2059 4750 
Q 2388 4750 2728 4690 
Q 3069 4631 3425 4513 
z
" transform="scale(0.015625)"/>
       <path id="DejaVuSans-61" d="M 2194 1759 
Q 1497 1759 1228 1600 
Q 959 1441 959 1056 
Q 959 750 1161 570 
Q 1363 391 1709 391 
Q 2188 391 2477 730 
Q 2766 1069 2766 1631 
L 2766 1759 
L 2194 1759 
z
M 3341 1997 
L 3341 0 
L 2766 0 
L 2766 531 
Q 2569 213 2275 61 
Q 1981 -91 1556 -91 
Q 1019 -91 701 211 
Q 384 513 384 1019 
Q 384 1609 779 1909 
Q 1175 2209 1959 2209 
L 2766 2209 
L 2766 2266 
Q 2766 2663 2505 2880 
Q 2244 3097 1772 3097 
Q 1472 3097 1187 3025 
Q 903 2953 641 2809 
L 641 3341 
Q 956 3463 1253 3523 
Q 1550 3584 1831 3584 
Q 2591 3584 2966 3190 
Q 3341 2797 3341 1997 
z
" transform="scale(0.015625)"/>
       <path id="DejaVuSans-6d" d="M 3328 2828 
Q 3544 3216 3844 3400 
Q 4144 3584 4550 3584 
Q 5097 3584 5394 3201 
Q 5691 2819 5691 2113 
L 5691 0 
L 5113 0 
L 5113 2094 
Q 5113 2597 4934 2840 
Q 4756 3084 4391 3084 
Q 3944 3084 3684 2787 
Q 3425 2491 3425 1978 
L 3425 0 
L 2847 0 
L 2847 2094 
Q 2847 2600 2669 2842 
Q 2491 3084 2119 3084 
Q 1678 3084 1418 2786 
Q 1159 2488 1159 1978 
L 1159 0 
L 581 0 
L 581 3500 
L 1159 3500 
L 1159 2956 
Q 1356 3278 1631 3431 
Q 1906 3584 2284 3584 
Q 2666 3584 2933 3390 
Q 3200 3197 3328 2828 
z
" transform="scale(0.015625)"/>
       <path id="DejaVuSans-70" d="M 1159 525 
L 1159 -1331 
L 581 -1331 
L 581 3500 
L 1159 3500 
L 1159 2969 
Q 1341 3281 1617 3432 
Q 1894 3584 2278 3584 
Q 2916 3584 3314 3078 
Q 3713 2572 3713 1747 
Q 3713 922 3314 415 
Q 2916 -91 2278 -91 
Q 1894 -91 1617 61 
Q 1341 213 1159 525 
z
M 3116 1747 
Q 3116 2381 2855 2742 
Q 2594 3103 2138 3103 
Q 1681 3103 1420 2742 
Q 1159 2381 1159 1747 
Q 1159 1113 1420 752 
Q 1681 391 2138 391 
Q 2594 391 2855 752 
Q 3116 1113 3116 1747 
z
" transform="scale(0.015625)"/>
       <path id="DejaVuSans-6c" d="M 603 4863 
L 1178 4863 
L 1178 0 
L 603 0 
L 603 4863 
z
" transform="scale(0.015625)"/>
       <path id="DejaVuSans-65" d="M 3597 1894 
L 3597 1613 
L 953 1613 
Q 991 1019 1311 708 
Q 1631 397 2203 397 
Q 2534 397 2845 478 
Q 3156 559 3463 722 
L 3463 178 
Q 3153 47 2828 -22 
Q 2503 -91 2169 -91 
Q 1331 -91 842 396 
Q 353 884 353 1716 
Q 353 2575 817 3079 
Q 1281 3584 2069 3584 
Q 2775 3584 3186 3129 
Q 3597 2675 3597 1894 
z
M 3022 2063 
Q 3016 2534 2758 2815 
Q 2500 3097 2075 3097 
Q 1594 3097 1305 2825 
Q 1016 2553 972 2059 
L 3022 2063 
z
" transform="scale(0.015625)"/>
      </defs>
      <use xlink:href="#DejaVuSans-53"/>
      <use xlink:href="#DejaVuSans-61" x="63.476562"/>
      <use xlink:href="#DejaVuSans-6d" x="124.755859"/>
      <use xlink:href="#DejaVuSans-70" x="222.167969"/>
      <use xlink:href="#DejaVuSans-6c" x="285.644531"/>
      <use xlink:href="#DejaVuSans-65" x="313.427734"/>
     </g>
    </g>
   </g>
   <g id="matplotlib.axis_2">
    <g id="ytick_1">
     <g id="line2d_5">
      <defs>
       <path id="mb373b299f0" d="M 0 0 
L -3.5 0 
" style="stroke: #000000; stroke-width: 0.8"/>
      </defs>
      <g>
       <use xlink:href="#mb373b299f0" x="172.26" y="542.89432" style="stroke: #000000; stroke-width: 0.8"/>
      </g>
     </g>
     <g id="text_6">
      <!-- −0.2 -->
      <g transform="translate(140.977187 546.693539) scale(0.1 -0.1)">
       <defs>
        <path id="DejaVuSans-2212" d="M 678 2272 
L 4684 2272 
L 4684 1741 
L 678 1741 
L 678 2272 
z
" transform="scale(0.015625)"/>
        <path id="DejaVuSans-2e" d="M 684 794 
L 1344 794 
L 1344 0 
L 684 0 
L 684 794 
z
" transform="scale(0.015625)"/>
       </defs>
       <use xlink:href="#DejaVuSans-2212"/>
       <use xlink:href="#DejaVuSans-30" x="83.789062"/>
       <use xlink:href="#DejaVuSans-2e" x="147.412109"/>
       <use xlink:href="#DejaVuSans-32" x="179.199219"/>
      </g>
     </g>
    </g>
    <g id="ytick_2">
     <g id="line2d_6">
      <g>
       <use xlink:href="#mb373b299f0" x="172.26" y="454.629921" style="stroke: #000000; stroke-width: 0.8"/>
      </g>
     </g>
     <g id="text_7">
      <!-- 0.0 -->
      <g transform="translate(149.356875 458.429139) scale(0.1 -0.1)">
       <use xlink:href="#DejaVuSans-30"/>
       <use xlink:href="#DejaVuSans-2e" x="63.623047"/>
       <use xlink:href="#DejaVuSans-30" x="95.410156"/>
      </g>
     </g>
    </g>
    <g id="ytick_3">
     <g id="line2d_7">
      <g>
       <use xlink:href="#mb373b299f0" x="172.26" y="366.365521" style="stroke: #000000; stroke-width: 0.8"/>
      </g>
     </g>
     <g id="text_8">
      <!-- 0.2 -->
      <g transform="translate(149.356875 370.16474) scale(0.1 -0.1)">
       <use xlink:href="#DejaVuSans-30"/>
       <use xlink:href="#DejaVuSans-2e" x="63.623047"/>
       <use xlink:href="#DejaVuSans-32" x="95.410156"/>
      </g>
     </g>
    </g>
    <g id="ytick_4">
     <g id="line2d_8">
      <g>
       <use xlink:href="#mb373b299f0" x="172.26" y="278.101121" style="stroke: #000000; stroke-width: 0.8"/>
      </g>
     </g>
     <g id="text_9">
      <!-- 0.4 -->
      <g transform="translate(149.356875 281.90034) scale(0.1 -0.1)">
       <defs>
        <path id="DejaVuSans-34" d="M 2419 4116 
L 825 1625 
L 2419 1625 
L 2419 4116 
z
M 2253 4666 
L 3047 4666 
L 3047 1625 
L 3713 1625 
L 3713 1100 
L 3047 1100 
L 3047 0 
L 2419 0 
L 2419 1100 
L 313 1100 
L 313 1709 
L 2253 4666 
z
" transform="scale(0.015625)"/>
       </defs>
       <use xlink:href="#DejaVuSans-30"/>
       <use xlink:href="#DejaVuSans-2e" x="63.623047"/>
       <use xlink:href="#DejaVuSans-34" x="95.410156"/>
      </g>
     </g>
    </g>
    <g id="ytick_5">
     <g id="line2d_9">
      <g>
       <use xlink:href="#mb373b299f0" x="172.26" y="189.836722" style="stroke: #000000; stroke-width: 0.8"/>
      </g>
     </g>
     <g id="text_10">
      <!-- 0.6 -->
      <g transform="translate(149.356875 193.63594) scale(0.1 -0.1)">
       <use xlink:href="#DejaVuSans-30"/>
       <use xlink:href="#DejaVuSans-2e" x="63.623047"/>
       <use xlink:href="#DejaVuSans-36" x="95.410156"/>
      </g>
     </g>
    </g>
    <g id="ytick_6">
     <g id="line2d_10">
      <g>
       <use xlink:href="#mb373b299f0" x="172.26" y="101.572322" style="stroke: #000000; stroke-width: 0.8"/>
      </g>
     </g>
     <g id="text_11">
      <!-- 0.8 -->
      <g transform="translate(149.356875 105.371541) scale(0.1 -0.1)">
       <use xlink:href="#DejaVuSans-30"/>
       <use xlink:href="#DejaVuSans-2e" x="63.623047"/>
       <use xlink:href="#DejaVuSans-38" x="95.410156"/>
      </g>
     </g>
    </g>
    <g id="text_12">
     <!-- Amplitude -->
     <g transform="translate(134.8975 382.314256) rotate(-90) scale(0.1 -0.1)">
      <defs>
       <path id="DejaVuSans-41" d="M 2188 4044 
L 1331 1722 
L 3047 1722 
L 2188 4044 
z
M 1831 4666 
L 2547 4666 
L 4325 0 
L 3669 0 
L 3244 1197 
L 1141 1197 
L 716 0 
L 50 0 
L 1831 4666 
z
" transform="scale(0.015625)"/>
       <path id="DejaVuSans-69" d="M 603 3500 
L 1178 3500 
L 1178 0 
L 603 0 
L 603 3500 
z
M 603 4863 
L 1178 4863 
L 1178 4134 
L 603 4134 
L 603 4863 
z
" transform="scale(0.015625)"/>
       <path id="DejaVuSans-74" d="M 1172 4494 
L 1172 3500 
L 2356 3500 
L 2356 3053 
L 1172 3053 
L 1172 1153 
Q 1172 725 1289 603 
Q 1406 481 1766 481 
L 2356 481 
L 2356 0 
L 1766 0 
Q 1100 0 847 248 
Q 594 497 594 1153 
L 594 3053 
L 172 3053 
L 172 3500 
L 594 3500 
L 594 4494 
L 1172 4494 
z
" transform="scale(0.015625)"/>
       <path id="DejaVuSans-75" d="M 544 1381 
L 544 3500 
L 1119 3500 
L 1119 1403 
Q 1119 906 1312 657 
Q 1506 409 1894 409 
Q 2359 409 2629 706 
Q 2900 1003 2900 1516 
L 2900 3500 
L 3475 3500 
L 3475 0 
L 2900 0 
L 2900 538 
Q 2691 219 2414 64 
Q 2138 -91 1772 -91 
Q 1169 -91 856 284 
Q 544 659 544 1381 
z
M 1991 3584 
L 1991 3584 
z
" transform="scale(0.015625)"/>
       <path id="DejaVuSans-64" d="M 2906 2969 
L 2906 4863 
L 3481 4863 
L 3481 0 
L 2906 0 
L 2906 525 
Q 2725 213 2448 61 
Q 2172 -91 1784 -91 
Q 1150 -91 751 415 
Q 353 922 353 1747 
Q 353 2572 751 3078 
Q 1150 3584 1784 3584 
Q 2172 3584 2448 3432 
Q 2725 3281 2906 2969 
z
M 947 1747 
Q 947 1113 1208 752 
Q 1469 391 1925 391 
Q 2381 391 2643 752 
Q 2906 1113 2906 1747 
Q 2906 2381 2643 2742 
Q 2381 3103 1925 3103 
Q 1469 3103 1208 2742 
Q 947 2381 947 1747 
z
" transform="scale(0.015625)"/>
      </defs>
      <use xlink:href="#DejaVuSans-41"/>
      <use xlink:href="#DejaVuSans-6d" x="68.408203"/>
      <use xlink:href="#DejaVuSans-70" x="165.820312"/>
      <use xlink:href="#DejaVuSans-6c" x="229.296875"/>
      <use xlink:href="#DejaVuSans-69" x="257.080078"/>
      <use xlink:href="#DejaVuSans-74" x="284.863281"/>
      <use xlink:href="#DejaVuSans-75" x="324.072266"/>
      <use xlink:href="#DejaVuSans-64" x="387.451172"/>
      <use xlink:href="#DejaVuSans-65" x="450.927734"/>
     </g>
    </g>
   </g>
   <g id="line2d_11">
    <path d="M 172.086974 478.460876 
L 173.237547 462.360246 
L 174.388119 429.762437 
L 175.538692 461.08705 
L 176.689264 472.149184 
L 177.839837 434.621778 
L 178.990409 476.795086 
L 180.140982 445.784409 
L 181.291554 422.303012 
L 182.442127 493.203317 
L 183.592699 419.109895 
L 185.893844 481.667488 
L 187.044417 437.251357 
L 188.194989 440.517124 
L 189.345562 465.966638 
L 190.496134 431.909259 
L 191.646707 471.066439 
L 192.797279 462.458057 
L 193.947851 430.582632 
L 195.098424 474.625522 
L 196.248996 430.560994 
L 197.399569 445.035155 
L 198.550141 455.985974 
L 200.851286 431.991015 
L 202.001859 455.56891 
L 203.152431 443.115654 
L 205.453576 460.428561 
L 206.604149 450.278206 
L 207.754721 463.537552 
L 210.055866 473.514309 
L 211.206439 444.946503 
L 212.357011 478.636244 
L 213.507584 451.464109 
L 214.658156 447.815682 
L 215.808729 469.410373 
L 216.959301 440.995599 
L 218.109873 467.359364 
L 219.260446 459.483566 
L 220.411018 432.733036 
L 221.561591 460.116192 
L 222.712163 465.472322 
L 223.862736 414.045126 
L 225.013308 464.32797 
L 226.163881 434.585522 
L 227.314453 429.463635 
L 228.465026 477.999102 
L 229.615598 425.065208 
L 230.766171 463.807781 
L 231.916743 480.864513 
L 233.067316 448.213898 
L 234.217888 464.224738 
L 235.368461 474.160221 
L 236.519033 440.385404 
L 237.669606 471.660605 
L 238.820178 463.036721 
L 239.970751 438.286665 
L 241.121323 468.141098 
L 242.271895 444.056353 
L 243.422468 449.405419 
L 244.57304 456.584632 
L 245.723613 455.447758 
L 246.874185 434.159415 
L 248.024758 453.6593 
L 249.17533 447.184749 
L 250.325903 447.393058 
L 251.476475 461.63751 
L 252.627048 443.483518 
L 253.77762 447.108254 
L 254.928193 477.458372 
L 256.078765 472.880767 
L 257.229338 437.522891 
L 258.37991 485.812353 
L 259.530483 456.451598 
L 260.681055 454.602237 
L 261.831628 477.745348 
L 262.9822 428.668769 
L 264.132773 450.552202 
L 265.283345 474.945852 
L 266.433917 440.990494 
L 267.58449 459.825437 
L 268.735062 469.363565 
L 269.885635 436.075062 
L 271.036207 466.924575 
L 272.18678 444.841696 
L 273.337352 428.316341 
L 274.487925 480.562194 
L 275.638497 451.817628 
L 276.78907 457.863813 
L 277.939642 467.079038 
L 279.090215 448.387033 
L 280.240787 449.248378 
L 281.39136 466.054177 
L 282.541932 454.2281 
L 283.692505 477.085683 
L 284.843077 459.724738 
L 285.99365 452.424033 
L 287.144222 458.051136 
L 288.294795 453.446587 
L 289.445367 458.634416 
L 290.595939 457.602656 
L 291.746512 451.862718 
L 292.897084 454.645732 
L 294.047657 456.024861 
L 295.198229 459.629717 
L 296.348802 447.675142 
L 297.499374 455.111286 
L 298.649947 469.697532 
L 299.800519 450.978468 
L 300.951092 457.397955 
L 302.101664 459.400704 
L 303.252237 439.579071 
L 304.402809 475.929945 
L 305.553382 466.622343 
L 306.703954 445.935309 
L 307.854527 482.264534 
L 309.005099 439.487869 
L 310.155672 439.452557 
L 311.306244 473.363045 
L 312.456816 428.507981 
L 313.607389 454.927068 
L 314.757961 475.380319 
L 315.908534 423.476501 
L 317.059106 464.481801 
L 318.209679 462.291891 
L 319.360251 424.059044 
L 320.510824 469.700445 
L 321.661396 461.400762 
L 322.811969 446.209908 
L 323.962541 481.774713 
L 325.113114 454.712721 
L 326.263686 447.38631 
L 327.414259 457.651715 
L 328.564831 461.887908 
L 329.715404 475.124078 
L 332.016549 462.358742 
L 333.167121 442.695665 
L 334.317694 464.784488 
L 335.468266 457.891389 
L 336.618838 446.216712 
L 337.769411 455.217089 
L 338.919983 455.93173 
L 340.070556 438.340041 
L 341.221128 461.035464 
L 342.371701 451.898129 
L 343.522273 450.526789 
L 344.672846 493.521941 
L 345.823418 437.260852 
L 346.973991 448.99172 
L 348.124563 480.2328 
L 349.275136 443.265386 
L 350.425708 465.475434 
L 351.576281 479.474572 
L 352.726853 442.991826 
L 353.877426 482.216408 
L 355.027998 454.289452 
L 356.178571 429.359549 
L 357.329143 486.197809 
L 358.479716 444.697197 
L 359.630288 454.612173 
L 360.78086 471.576382 
L 361.931433 435.799679 
L 364.232578 460.753292 
L 365.38315 439.60102 
L 366.533723 467.538804 
L 367.684295 471.158393 
L 368.834868 447.095564 
L 369.98544 469.539641 
L 371.136013 443.691869 
L 373.437158 460.576819 
L 374.58773 448.126995 
L 375.738303 458.643809 
L 376.888875 464.217356 
L 378.039448 443.859891 
L 379.19002 438.968595 
L 380.340593 478.320228 
L 381.491165 457.897306 
L 382.641738 457.539396 
L 383.79231 454.94582 
L 384.942882 463.685703 
L 386.093455 439.887624 
L 387.244027 459.330579 
L 388.3946 452.301164 
L 389.545172 446.482212 
L 390.695745 496.463186 
L 391.846317 432.096302 
L 392.99689 458.538785 
L 394.147462 479.754934 
L 395.298035 449.315174 
L 396.448607 473.46204 
L 397.59918 483.539493 
L 398.749752 425.965319 
L 399.900325 467.144702 
L 401.050897 463.109999 
L 402.20147 413.162056 
L 403.352042 500.193431 
L 404.502615 452.606467 
L 405.653187 433.325027 
L 406.80376 478.689364 
L 407.954332 446.135683 
L 409.104904 436.325546 
L 410.255477 478.620911 
L 411.406049 421.314994 
L 412.556622 440.96625 
L 413.707194 474.379018 
L 414.857767 392.969661 
L 416.008339 453.767926 
L 417.158912 463.089885 
L 418.309484 438.604166 
L 419.460057 468.08373 
L 420.610629 457.475682 
L 421.761202 439.332207 
L 422.911774 455.524099 
L 424.062347 445.355671 
L 425.212919 429.118373 
L 426.363492 473.932625 
L 427.514064 448.481073 
L 428.664637 452.083212 
L 429.815209 446.131419 
L 430.965782 449.784464 
L 432.116354 446.287954 
L 433.266926 452.936863 
L 434.417499 465.884529 
L 435.568071 450.652969 
L 436.718644 481.566813 
L 437.869216 433.656084 
L 439.019789 444.051272 
L 440.170361 475.121175 
L 441.320934 459.496915 
L 442.471506 448.141362 
L 443.622079 489.271037 
L 444.772651 461.396279 
L 447.073796 495.024142 
L 448.224369 447.895608 
L 449.374941 512.107541 
L 451.676086 446.518046 
L 452.826659 477.400685 
L 455.127804 443.466732 
L 456.278376 487.412201 
L 457.428948 461.162144 
L 458.579521 477.131093 
L 459.730093 499.958808 
L 460.880666 422.757098 
L 462.031238 481.786964 
L 463.181811 505.298473 
L 464.332383 458.991407 
L 465.482956 478.067672 
L 466.633528 479.272101 
L 467.784101 447.562618 
L 468.934673 483.370218 
L 470.085246 455.847359 
L 471.235818 431.570935 
L 472.386391 502.237692 
L 473.536963 443.542563 
L 474.687536 440.930885 
L 475.838108 469.405171 
L 476.988681 451.754553 
L 478.139253 449.064518 
L 479.289826 466.834462 
L 480.440398 445.644544 
L 481.59097 463.961802 
L 482.741543 484.654697 
L 483.892115 436.468777 
L 485.042688 461.895771 
L 486.19326 470.856863 
L 487.343833 468.520637 
L 488.494405 453.262296 
L 489.644978 469.043102 
L 490.79555 459.297841 
L 491.946123 458.574176 
L 493.096695 479.745959 
L 494.247268 441.211705 
L 495.39784 480.623308 
L 496.548413 470.948155 
L 497.698985 445.479926 
L 498.849558 459.012095 
L 500.00013 470.661484 
L 501.150703 435.451992 
L 502.301275 465.815235 
L 503.451848 462.549148 
L 504.60242 428.389036 
L 505.752992 482.48574 
L 506.903565 440.056367 
L 508.054137 456.189349 
L 509.20471 477.801119 
L 510.355282 455.505654 
L 511.505855 460.507023 
L 512.656427 489.632222 
L 513.807 438.199162 
L 514.957572 460.509025 
L 516.108145 459.149475 
L 517.258717 433.180399 
L 518.40929 493.259253 
L 519.559862 443.70833 
L 520.710435 427.493747 
L 521.861007 470.530387 
L 523.01158 452.899712 
L 524.162152 421.786199 
L 525.312725 470.492936 
L 526.463297 427.151614 
L 527.61387 448.472279 
L 528.764442 480.96136 
L 529.915014 412.997077 
L 531.065587 470.077728 
L 532.216159 481.039859 
L 533.366732 445.662719 
L 534.517304 471.521645 
L 535.667877 465.491736 
L 536.818449 437.112426 
L 537.969022 492.872823 
L 539.119594 463.564557 
L 540.270167 444.646328 
L 541.420739 492.432237 
L 542.571312 443.451459 
L 543.721884 459.256874 
L 544.872457 462.55917 
L 546.023029 461.947304 
L 547.173602 473.984298 
L 548.324174 482.333374 
L 549.474747 470.913573 
L 550.625319 479.29049 
L 551.775892 502.06895 
L 552.926464 484.043034 
L 554.077036 510.919833 
L 555.227609 522.764016 
L 556.378181 507.205094 
L 557.528754 480.4876 
L 558.679326 513.597709 
L 559.829899 484.500631 
L 560.980471 476.959724 
L 562.131044 479.246235 
L 563.281616 436.680333 
L 564.432189 437.896451 
L 565.582761 416.907815 
L 566.733334 369.14111 
L 567.883906 345.987828 
L 569.034479 333.828077 
L 570.185051 255.418546 
L 571.335624 274.670544 
L 572.486196 255.757888 
L 573.636769 195.817886 
L 574.787341 213.572866 
L 575.937914 139.691222 
L 577.088486 132.00258 
L 578.239058 143.031183 
L 579.389631 177.177784 
L 580.540203 319.673928 
L 581.690776 413.950153 
L 582.841348 454.382943 
L 583.991921 441.361877 
L 585.142493 381.020624 
L 586.293066 284.057823 
L 587.443638 353.441288 
L 588.594211 352.060961 
L 589.744783 393.505884 
L 590.895356 419.051864 
L 592.045928 428.907861 
L 593.196501 413.752786 
L 594.347073 459.956325 
L 595.497646 460.592666 
L 596.648218 464.505422 
L 597.798791 472.606943 
L 598.949363 466.328934 
L 600.099936 485.038225 
L 601.250508 492.836747 
L 602.40108 485.566489 
L 603.551653 450.166533 
L 604.702225 490.188707 
L 605.852798 479.471298 
L 607.00337 487.899512 
L 608.153943 521.139551 
L 609.304515 491.800853 
L 610.455088 523.752961 
L 611.60566 534.20997 
L 612.756233 520.684501 
L 613.906805 551.821297 
L 615.057378 574.833793 
L 616.20795 520.906626 
L 617.358523 564.97947 
L 618.509095 559.023295 
L 619.659668 527.946883 
L 620.81024 576.624558 
L 621.960813 527.434657 
L 623.111385 521.186523 
L 624.261958 552.361186 
L 625.41253 516.448025 
L 626.563102 493.780262 
L 627.713675 541.756664 
L 628.864247 483.92482 
L 630.01482 507.428786 
L 631.165392 524.527257 
L 632.315965 475.798486 
L 633.466537 520.749067 
L 634.61711 513.01529 
L 635.767682 497.63855 
L 636.918255 528.400742 
L 638.068827 523.152566 
L 639.2194 522.95636 
L 640.369972 551.312339 
L 641.520545 527.17027 
L 642.671117 529.257652 
L 643.82169 546.811512 
L 644.972262 519.903241 
L 646.122835 533.71337 
L 648.423979 512.750062 
L 649.574552 500.173389 
L 651.875697 488.531101 
L 653.026269 506.181487 
L 654.176842 491.450547 
L 655.327414 488.126779 
L 656.477987 492.963885 
L 657.628559 489.816963 
L 658.779132 497.248736 
L 659.929704 491.417877 
L 661.080277 503.456609 
L 662.230849 506.266415 
L 663.381422 496.854802 
L 664.531994 503.241002 
L 665.682567 488.42303 
L 666.833139 504.935641 
L 667.983712 514.344317 
L 669.134284 490.674094 
L 670.284857 508.802654 
L 671.435429 507.916823 
L 672.586001 469.392359 
L 673.736574 492.33313 
L 674.887146 476.4414 
L 676.037719 469.805632 
L 677.188291 503.386139 
L 678.338864 469.214636 
L 679.489436 460.180179 
L 680.640009 500.387891 
L 681.790581 455.126602 
L 682.941154 482.618972 
L 684.091726 501.205551 
L 685.242299 456.877684 
L 686.392871 485.926083 
L 687.543444 501.751863 
L 688.694016 455.275358 
L 689.844589 498.227898 
L 690.995161 493.276343 
L 692.145734 468.915905 
L 693.296306 503.723625 
L 694.446879 475.536448 
L 695.597451 454.744766 
L 696.748023 489.987107 
L 697.898596 464.6375 
L 699.049168 453.944658 
L 700.199741 478.106228 
L 701.350313 439.985684 
L 702.500886 457.811132 
L 703.651458 482.449741 
L 704.802031 461.059877 
L 705.952603 477.109766 
L 707.103176 468.566789 
L 708.253748 466.481717 
L 709.404321 469.695705 
L 710.554893 455.96634 
L 711.705466 462.03989 
L 712.856038 481.754597 
L 714.006611 491.974554 
L 715.157183 474.120994 
L 716.307756 475.981855 
L 717.458328 472.459216 
L 718.608901 480.142858 
L 719.759473 460.026613 
L 720.910045 474.293536 
L 722.060618 479.210941 
L 723.21119 468.278483 
L 724.361763 464.239424 
L 725.512335 434.989302 
L 726.662908 467.06993 
L 727.81348 465.861323 
L 728.964053 451.977332 
L 730.114625 455.357022 
L 731.265198 462.066367 
L 732.41577 447.778165 
L 733.566343 468.013449 
L 734.716915 455.106416 
L 735.867488 450.794562 
L 737.01806 483.879022 
L 738.168633 444.669951 
L 740.469778 469.858548 
L 741.62035 449.55975 
L 742.770923 460.210998 
L 743.921495 469.426168 
L 745.072067 437.979908 
L 746.22264 476.100076 
L 747.373212 449.429802 
L 748.523785 427.807446 
L 749.674357 474.734669 
L 750.82493 443.277969 
L 751.975502 439.420324 
L 753.126075 468.032125 
L 754.276647 438.527976 
L 755.42722 442.978832 
L 756.577792 477.389455 
L 757.728365 428.325208 
L 758.878937 451.7829 
L 760.02951 478.034286 
L 761.180082 408.30123 
L 762.330655 467.477747 
L 763.481227 453.529686 
L 764.6318 419.633134 
L 765.782372 450.128838 
L 766.932945 448.429291 
L 768.083517 427.420507 
L 769.234089 448.175034 
L 771.535234 409.039371 
L 772.685807 472.999511 
L 773.836379 429.146767 
L 774.986952 442.044165 
L 776.137524 446.407728 
L 777.288097 419.364624 
L 778.438669 434.828932 
L 779.589242 442.697202 
L 780.739814 436.345581 
L 781.890387 435.88608 
L 783.040959 453.027097 
L 784.191532 411.626301 
L 785.342104 434.587414 
L 786.492677 432.369234 
L 787.643249 425.507611 
L 788.793822 431.211165 
L 789.944394 435.072613 
L 791.094967 421.598693 
L 792.245539 421.033393 
L 793.396111 429.73632 
L 794.546684 398.957118 
L 795.697256 444.594887 
L 796.847829 426.101549 
L 797.998401 401.045711 
L 799.148974 415.132616 
L 800.299546 414.041162 
L 801.450119 394.501787 
L 802.600691 424.964044 
L 803.751264 415.42481 
L 804.901836 387.820411 
L 806.052409 436.454477 
L 807.202981 378.254124 
L 808.353554 395.375456 
L 809.504126 423.514619 
L 810.654699 396.029435 
L 811.805271 393.257255 
L 812.955844 430.029815 
L 814.106416 418.720307 
L 815.256989 415.735177 
L 816.407561 423.601905 
L 817.558133 376.242555 
L 818.708706 445.493436 
L 819.859278 404.203629 
L 821.009851 372.412994 
L 822.160423 411.022335 
L 823.310996 385.975899 
L 824.461568 372.203349 
L 825.612141 421.374366 
L 826.762713 372.69652 
L 827.913286 387.468106 
L 829.063858 427.117099 
L 830.214431 347.715428 
L 831.365003 407.408459 
L 832.515576 409.995946 
L 833.666148 366.676867 
L 834.816721 411.308859 
L 835.967293 408.520843 
L 837.117866 411.848914 
L 838.268438 416.237726 
L 840.569583 360.777098 
L 841.720155 432.34203 
L 842.870728 382.101015 
L 844.0213 373.097125 
L 845.171873 402.678883 
L 846.322445 387.022786 
L 847.473018 390.299374 
L 848.62359 412.367843 
L 849.774163 380.248185 
L 850.924735 406.70266 
L 852.075308 420.197024 
L 853.22588 372.181406 
L 854.376453 408.04878 
L 855.527025 417.797097 
L 856.677598 405.476136 
L 857.82817 395.096667 
L 858.978743 407.782738 
L 860.129315 408.22639 
L 861.279888 402.088485 
L 862.43046 421.600969 
L 863.581033 402.150855 
L 864.731605 441.370854 
L 865.882177 417.323783 
L 867.03275 406.773293 
L 868.183322 405.007455 
L 869.333895 431.017519 
L 870.484467 411.432471 
L 871.63504 421.277744 
L 872.785612 416.810167 
L 873.936185 413.579311 
L 875.086757 447.192913 
L 876.23733 403.746788 
L 877.387902 418.923775 
L 878.538475 447.568781 
L 879.689047 427.899353 
L 880.83962 417.966677 
L 881.990192 443.627607 
L 883.140765 406.750954 
L 884.291337 427.282138 
L 885.44191 452.273221 
L 886.592482 405.324264 
L 887.743055 464.227353 
L 888.893627 441.39449 
L 890.044199 410.536411 
L 891.194772 448.260625 
L 892.345344 451.876843 
L 893.495917 426.861406 
L 894.646489 466.780673 
L 895.797062 440.77176 
L 896.947634 422.494904 
L 898.098207 475.694763 
L 899.248779 396.888903 
L 900.399352 460.665189 
L 901.549924 486.316792 
L 902.700497 429.966277 
L 903.851069 446.768182 
L 905.001642 475.314732 
L 906.152214 422.582722 
L 907.302787 469.966764 
L 908.453359 463.578015 
L 909.603932 426.934816 
L 910.754504 487.525966 
L 911.905077 439.740111 
L 913.055649 420.749575 
L 914.206221 454.921462 
L 916.507366 432.973774 
L 917.657939 466.576542 
L 918.808511 421.427547 
L 921.109656 465.417674 
L 922.260229 413.755646 
L 923.410801 458.905476 
L 924.561374 462.36852 
L 925.711946 444.981307 
L 928.013091 455.870429 
L 929.163664 431.052313 
L 930.314236 452.988065 
L 931.464809 452.591135 
L 932.615381 440.158411 
L 933.765954 465.235898 
L 934.916526 445.221321 
L 936.067099 430.699198 
L 937.217671 432.490406 
L 938.368243 452.869577 
L 939.518816 428.34492 
L 940.669388 444.817453 
L 941.819961 433.728217 
L 942.970533 436.557292 
L 944.121106 443.558346 
L 945.271678 430.038237 
L 946.422251 434.456091 
L 947.572823 456.056337 
L 948.723396 452.433891 
L 949.873968 428.228643 
L 951.024541 454.235375 
L 952.175113 432.096525 
L 953.325686 446.493015 
L 954.476258 473.245908 
L 955.626831 433.229816 
L 956.777403 455.254355 
L 957.927976 445.039752 
L 959.078548 423.170362 
L 960.22912 446.536468 
L 961.379693 457.821409 
L 962.530265 410.419886 
L 963.680838 462.667238 
L 964.83141 441.955712 
L 965.981983 426.162535 
L 967.132555 457.394871 
L 968.283128 408.070084 
L 969.4337 442.40844 
L 970.584273 471.040322 
L 971.734845 437.035927 
L 972.885418 433.641884 
L 974.03599 479.687777 
L 975.186563 418.191274 
L 976.337135 466.642582 
L 977.487708 457.972635 
L 978.63828 417.803016 
L 979.788853 469.945373 
L 980.939425 433.672752 
L 982.089998 425.55919 
L 983.24057 467.233498 
L 984.391142 456.197017 
L 985.541715 441.569548 
L 986.692287 471.065635 
L 987.84286 426.473018 
L 988.993432 440.936035 
L 990.144005 465.215914 
L 991.294577 432.063615 
L 992.44515 457.785882 
L 993.595722 444.745533 
L 994.746295 440.195401 
L 995.896867 438.716523 
L 997.04744 457.357029 
L 998.198012 443.09785 
L 999.348585 450.641693 
L 1000.499157 453.082064 
L 1001.64973 445.231823 
L 1002.800302 449.129667 
L 1003.950875 444.344922 
L 1005.101447 440.712436 
L 1006.25202 435.980625 
L 1007.402592 462.235907 
L 1008.553164 430.798255 
L 1009.703737 437.96803 
L 1010.854309 458.226206 
L 1012.004882 428.354724 
L 1013.155454 446.852171 
L 1014.306027 459.956279 
L 1015.456599 441.319139 
L 1016.607172 441.28127 
L 1017.757744 459.897926 
L 1018.908317 431.71023 
L 1020.058889 446.309346 
L 1021.209462 447.916254 
L 1022.360034 449.271265 
L 1023.510607 460.718495 
L 1024.661179 431.941598 
L 1026.962324 460.47825 
L 1028.112897 436.079283 
L 1029.263469 441.046584 
L 1030.414042 458.803399 
L 1031.564614 429.904917 
L 1032.715186 456.543537 
L 1033.865759 445.492288 
L 1035.016331 418.654171 
L 1036.166904 465.597509 
L 1037.317476 444.6892 
L 1038.468049 443.365408 
L 1039.618621 470.829559 
L 1040.769194 444.069584 
L 1041.919766 439.065784 
L 1043.070339 460.437036 
L 1044.220911 432.338565 
L 1045.371484 460.578594 
L 1046.522056 474.430171 
L 1047.672629 433.495225 
L 1048.823201 454.844853 
L 1049.973774 448.807423 
L 1051.124346 428.507312 
L 1052.274919 456.881771 
L 1053.425491 435.361675 
L 1054.576064 428.222111 
L 1055.726636 441.760738 
L 1056.877208 432.036788 
L 1058.027781 436.618062 
L 1059.178353 454.513734 
L 1060.328926 455.409263 
L 1061.479498 447.329781 
L 1062.630071 449.804537 
L 1063.780643 447.345922 
L 1064.931216 447.069154 
L 1066.081788 459.514742 
L 1067.232361 454.185591 
L 1068.382933 439.015121 
L 1069.533506 456.239363 
L 1070.684078 445.633345 
L 1071.834651 423.58399 
L 1072.985223 473.949787 
L 1074.135796 463.478845 
L 1075.286368 436.983441 
L 1076.436941 472.840046 
L 1077.587513 460.005608 
L 1078.738086 435.971008 
L 1079.888658 458.911835 
L 1081.03923 440.489483 
L 1082.189803 453.932648 
L 1083.340375 481.079068 
L 1084.490948 434.417947 
L 1085.64152 456.410099 
L 1086.792093 461.50426 
L 1087.942665 427.200128 
L 1089.093238 451.436813 
L 1090.24381 462.575046 
L 1091.394383 442.021222 
L 1092.544955 460.909786 
L 1094.8461 411.985842 
L 1095.996673 471.267044 
L 1097.147245 433.108495 
L 1098.297818 436.385767 
L 1099.44839 446.394651 
L 1100.598963 427.779021 
L 1101.749535 444.58336 
L 1102.900108 446.459457 
L 1104.05068 423.11066 
L 1105.201252 467.177645 
L 1106.351825 463.463871 
L 1107.502397 434.405296 
L 1108.65297 469.402552 
L 1109.803542 449.492844 
L 1110.954115 447.554149 
L 1112.104687 480.270452 
L 1113.25526 445.704728 
L 1114.405832 462.563487 
L 1115.556405 471.602982 
L 1116.706977 443.775098 
L 1117.85755 442.310715 
L 1119.008122 466.609091 
L 1120.158695 437.432191 
L 1121.309267 458.747192 
L 1122.45984 447.283334 
L 1123.610412 450.546518 
L 1124.760985 458.242771 
L 1127.06213 446.372101 
L 1128.212702 465.61229 
L 1129.363274 463.849255 
L 1130.513847 433.159479 
L 1131.664419 456.267684 
L 1132.814992 458.935173 
L 1133.965564 446.595607 
L 1135.116137 435.825854 
L 1136.266709 452.234102 
L 1137.417282 442.213683 
L 1138.567854 457.293765 
L 1139.718427 464.139627 
L 1140.868999 409.033082 
L 1142.019572 470.836444 
L 1143.170144 452.359886 
L 1144.320717 427.300251 
L 1145.471289 458.143202 
L 1146.621862 461.959687 
L 1147.772434 424.406716 
L 1148.923007 468.185625 
L 1150.073579 455.739674 
L 1151.224152 440.671786 
L 1152.374724 526.097476 
L 1153.525296 419.912786 
L 1154.675869 445.169815 
L 1155.826441 474.843558 
L 1156.977014 429.948664 
L 1158.127586 444.094567 
L 1159.278159 475.074746 
L 1160.428731 432.929478 
L 1161.579304 461.455711 
L 1162.729876 459.266974 
L 1163.880449 420.884279 
L 1165.031021 485.084713 
L 1166.181594 444.523526 
L 1167.332166 436.887242 
L 1168.482739 462.449358 
L 1169.633311 434.600781 
L 1170.783884 447.583158 
L 1171.934456 471.281197 
L 1173.085029 438.309282 
L 1174.235601 455.945927 
L 1175.386174 466.008991 
L 1176.536746 409.915206 
L 1177.687318 460.381141 
L 1178.837891 457.079072 
L 1179.988463 445.752787 
L 1181.139036 453.998693 
L 1182.289608 456.291509 
L 1183.440181 453.97324 
L 1184.590753 456.129342 
L 1185.741326 449.098986 
L 1186.891898 435.059829 
L 1188.042471 481.551498 
L 1189.193043 445.481493 
L 1190.343616 447.92817 
L 1191.494188 451.133583 
L 1192.644761 435.229174 
L 1193.795333 435.586917 
L 1194.945906 458.235696 
L 1196.096478 451.747217 
L 1197.247051 451.306384 
L 1198.397623 469.680104 
L 1199.548196 422.109755 
L 1200.698768 453.493062 
L 1201.84934 478.959282 
L 1202.999913 443.691169 
L 1204.150485 448.213791 
L 1205.301058 476.276722 
L 1206.45163 433.445908 
L 1207.602203 458.557019 
L 1208.752775 475.972243 
L 1209.903348 422.685563 
L 1211.05392 505.009649 
L 1212.204493 456.695711 
L 1213.355065 417.978396 
L 1214.505638 462.41144 
L 1215.65621 447.3949 
L 1216.806783 426.210495 
L 1217.957355 478.760395 
L 1219.107928 440.244892 
L 1220.2585 443.275356 
L 1221.409073 481.594847 
L 1222.559645 407.961191 
L 1223.710218 462.084444 
L 1224.86079 484.118144 
L 1226.011362 439.189056 
L 1227.161935 458.232591 
L 1228.312507 455.157101 
L 1229.46308 426.541522 
L 1230.613652 451.001529 
L 1231.764225 447.581037 
L 1232.914797 443.098823 
L 1234.06537 500.513311 
L 1235.215942 436.430771 
L 1236.366515 434.29609 
L 1237.517087 459.081283 
L 1238.66766 445.910427 
L 1239.818232 447.660543 
L 1240.968805 459.75019 
L 1240.968805 459.75019 
" clip-path="url(#pcb73afa062)" style="fill: none; stroke: #ffa500; stroke-width: 1.5; stroke-linecap: square"/>
   </g>
   <g id="patch_3">
    <path d="M 172.26 628.6248 
L 172.26 84.7584 
" style="fill: none; stroke: #000000; stroke-width: 0.8; stroke-linejoin: miter; stroke-linecap: square"/>
   </g>
   <g id="patch_4">
    <path d="M 1240.272 628.6248 
L 1240.272 84.7584 
" style="fill: none; stroke: #000000; stroke-width: 0.8; stroke-linejoin: miter; stroke-linecap: square"/>
   </g>
   <g id="patch_5">
    <path d="M 172.26 628.6248 
L 1240.272 628.6248 
" style="fill: none; stroke: #000000; stroke-width: 0.8; stroke-linejoin: miter; stroke-linecap: square"/>
   </g>
   <g id="patch_6">
    <path d="M 172.26 84.7584 
L 1240.272 84.7584 
" style="fill: none; stroke: #000000; stroke-width: 0.8; stroke-linejoin: miter; stroke-linecap: square"/>
   </g>
   <g id="text_13">
    <!-- Filtered pulse with learning rate = 0.001 -->
    <g transform="translate(584.903812 78.7584) scale(0.12 -0.12)">
     <defs>
      <path id="DejaVuSans-46" d="M 628 4666 
L 3309 4666 
L 3309 4134 
L 1259 4134 
L 1259 2759 
L 3109 2759 
L 3109 2228 
L 1259 2228 
L 1259 0 
L 628 0 
L 628 4666 
z
" transform="scale(0.015625)"/>
      <path id="DejaVuSans-72" d="M 2631 2963 
Q 2534 3019 2420 3045 
Q 2306 3072 2169 3072 
Q 1681 3072 1420 2755 
Q 1159 2438 1159 1844 
L 1159 0 
L 581 0 
L 581 3500 
L 1159 3500 
L 1159 2956 
Q 1341 3275 1631 3429 
Q 1922 3584 2338 3584 
Q 2397 3584 2469 3576 
Q 2541 3569 2628 3553 
L 2631 2963 
z
" transform="scale(0.015625)"/>
      <path id="DejaVuSans-20" transform="scale(0.015625)"/>
      <path id="DejaVuSans-73" d="M 2834 3397 
L 2834 2853 
Q 2591 2978 2328 3040 
Q 2066 3103 1784 3103 
Q 1356 3103 1142 2972 
Q 928 2841 928 2578 
Q 928 2378 1081 2264 
Q 1234 2150 1697 2047 
L 1894 2003 
Q 2506 1872 2764 1633 
Q 3022 1394 3022 966 
Q 3022 478 2636 193 
Q 2250 -91 1575 -91 
Q 1294 -91 989 -36 
Q 684 19 347 128 
L 347 722 
Q 666 556 975 473 
Q 1284 391 1588 391 
Q 1994 391 2212 530 
Q 2431 669 2431 922 
Q 2431 1156 2273 1281 
Q 2116 1406 1581 1522 
L 1381 1569 
Q 847 1681 609 1914 
Q 372 2147 372 2553 
Q 372 3047 722 3315 
Q 1072 3584 1716 3584 
Q 2034 3584 2315 3537 
Q 2597 3491 2834 3397 
z
" transform="scale(0.015625)"/>
      <path id="DejaVuSans-77" d="M 269 3500 
L 844 3500 
L 1563 769 
L 2278 3500 
L 2956 3500 
L 3675 769 
L 4391 3500 
L 4966 3500 
L 4050 0 
L 3372 0 
L 2619 2869 
L 1863 0 
L 1184 0 
L 269 3500 
z
" transform="scale(0.015625)"/>
      <path id="DejaVuSans-68" d="M 3513 2113 
L 3513 0 
L 2938 0 
L 2938 2094 
Q 2938 2591 2744 2837 
Q 2550 3084 2163 3084 
Q 1697 3084 1428 2787 
Q 1159 2491 1159 1978 
L 1159 0 
L 581 0 
L 581 4863 
L 1159 4863 
L 1159 2956 
Q 1366 3272 1645 3428 
Q 1925 3584 2291 3584 
Q 2894 3584 3203 3211 
Q 3513 2838 3513 2113 
z
" transform="scale(0.015625)"/>
      <path id="DejaVuSans-6e" d="M 3513 2113 
L 3513 0 
L 2938 0 
L 2938 2094 
Q 2938 2591 2744 2837 
Q 2550 3084 2163 3084 
Q 1697 3084 1428 2787 
Q 1159 2491 1159 1978 
L 1159 0 
L 581 0 
L 581 3500 
L 1159 3500 
L 1159 2956 
Q 1366 3272 1645 3428 
Q 1925 3584 2291 3584 
Q 2894 3584 3203 3211 
Q 3513 2838 3513 2113 
z
" transform="scale(0.015625)"/>
      <path id="DejaVuSans-67" d="M 2906 1791 
Q 2906 2416 2648 2759 
Q 2391 3103 1925 3103 
Q 1463 3103 1205 2759 
Q 947 2416 947 1791 
Q 947 1169 1205 825 
Q 1463 481 1925 481 
Q 2391 481 2648 825 
Q 2906 1169 2906 1791 
z
M 3481 434 
Q 3481 -459 3084 -895 
Q 2688 -1331 1869 -1331 
Q 1566 -1331 1297 -1286 
Q 1028 -1241 775 -1147 
L 775 -588 
Q 1028 -725 1275 -790 
Q 1522 -856 1778 -856 
Q 2344 -856 2625 -561 
Q 2906 -266 2906 331 
L 2906 616 
Q 2728 306 2450 153 
Q 2172 0 1784 0 
Q 1141 0 747 490 
Q 353 981 353 1791 
Q 353 2603 747 3093 
Q 1141 3584 1784 3584 
Q 2172 3584 2450 3431 
Q 2728 3278 2906 2969 
L 2906 3500 
L 3481 3500 
L 3481 434 
z
" transform="scale(0.015625)"/>
      <path id="DejaVuSans-3d" d="M 678 2906 
L 4684 2906 
L 4684 2381 
L 678 2381 
L 678 2906 
z
M 678 1631 
L 4684 1631 
L 4684 1100 
L 678 1100 
L 678 1631 
z
" transform="scale(0.015625)"/>
     </defs>
     <use xlink:href="#DejaVuSans-46"/>
     <use xlink:href="#DejaVuSans-69" x="50.269531"/>
     <use xlink:href="#DejaVuSans-6c" x="78.052734"/>
     <use xlink:href="#DejaVuSans-74" x="105.835938"/>
     <use xlink:href="#DejaVuSans-65" x="145.044922"/>
     <use xlink:href="#DejaVuSans-72" x="206.568359"/>
     <use xlink:href="#DejaVuSans-65" x="245.431641"/>
     <use xlink:href="#DejaVuSans-64" x="306.955078"/>
     <use xlink:href="#DejaVuSans-20" x="370.431641"/>
     <use xlink:href="#DejaVuSans-70" x="402.21875"/>
     <use xlink:href="#DejaVuSans-75" x="465.695312"/>
     <use xlink:href="#DejaVuSans-6c" x="529.074219"/>
     <use xlink:href="#DejaVuSans-73" x="556.857422"/>
     <use xlink:href="#DejaVuSans-65" x="608.957031"/>
     <use xlink:href="#DejaVuSans-20" x="670.480469"/>
     <use xlink:href="#DejaVuSans-77" x="702.267578"/>
     <use xlink:href="#DejaVuSans-69" x="784.054688"/>
     <use xlink:href="#DejaVuSans-74" x="811.837891"/>
     <use xlink:href="#DejaVuSans-68" x="851.046875"/>
     <use xlink:href="#DejaVuSans-20" x="914.425781"/>
     <use xlink:href="#DejaVuSans-6c" x="946.212891"/>
     <use xlink:href="#DejaVuSans-65" x="973.996094"/>
     <use xlink:href="#DejaVuSans-61" x="1035.519531"/>
     <use xlink:href="#DejaVuSans-72" x="1096.798828"/>
     <use xlink:href="#DejaVuSans-6e" x="1136.162109"/>
     <use xlink:href="#DejaVuSans-69" x="1199.541016"/>
     <use xlink:href="#DejaVuSans-6e" x="1227.324219"/>
     <use xlink:href="#DejaVuSans-67" x="1290.703125"/>
     <use xlink:href="#DejaVuSans-20" x="1354.179688"/>
     <use xlink:href="#DejaVuSans-72" x="1385.966797"/>
     <use xlink:href="#DejaVuSans-61" x="1427.080078"/>
     <use xlink:href="#DejaVuSans-74" x="1488.359375"/>
     <use xlink:href="#DejaVuSans-65" x="1527.568359"/>
     <use xlink:href="#DejaVuSans-20" x="1589.091797"/>
     <use xlink:href="#DejaVuSans-3d" x="1620.878906"/>
     <use xlink:href="#DejaVuSans-20" x="1704.667969"/>
     <use xlink:href="#DejaVuSans-30" x="1736.455078"/>
     <use xlink:href="#DejaVuSans-2e" x="1800.078125"/>
     <use xlink:href="#DejaVuSans-30" x="1831.865234"/>
     <use xlink:href="#DejaVuSans-30" x="1895.488281"/>
     <use xlink:href="#DejaVuSans-31" x="1959.111328"/>
    </g>
   </g>
   <g id="legend_1">
    <g id="patch_7">
     <path d="M 1097.679813 107.436525 
L 1233.272 107.436525 
Q 1235.272 107.436525 1235.272 105.436525 
L 1235.272 91.7584 
Q 1235.272 89.7584 1233.272 89.7584 
L 1097.679813 89.7584 
Q 1095.679813 89.7584 1095.679813 91.7584 
L 1095.679813 105.436525 
Q 1095.679813 107.436525 1097.679813 107.436525 
z
" style="fill: #ffffff; opacity: 0.8; stroke: #cccccc; stroke-linejoin: miter"/>
    </g>
    <g id="line2d_12">
     <path d="M 1099.679813 97.856838 
L 1109.679813 97.856838 
L 1119.679813 97.856838 
" style="fill: none; stroke: #ffa500; stroke-width: 1.5; stroke-linecap: square"/>
    </g>
    <g id="text_14">
     <!-- Filtered pulse of LMS -->
     <g transform="translate(1127.679813 101.356838) scale(0.1 -0.1)">
      <defs>
       <path id="DejaVuSans-6f" d="M 1959 3097 
Q 1497 3097 1228 2736 
Q 959 2375 959 1747 
Q 959 1119 1226 758 
Q 1494 397 1959 397 
Q 2419 397 2687 759 
Q 2956 1122 2956 1747 
Q 2956 2369 2687 2733 
Q 2419 3097 1959 3097 
z
M 1959 3584 
Q 2709 3584 3137 3096 
Q 3566 2609 3566 1747 
Q 3566 888 3137 398 
Q 2709 -91 1959 -91 
Q 1206 -91 779 398 
Q 353 888 353 1747 
Q 353 2609 779 3096 
Q 1206 3584 1959 3584 
z
" transform="scale(0.015625)"/>
       <path id="DejaVuSans-66" d="M 2375 4863 
L 2375 4384 
L 1825 4384 
Q 1516 4384 1395 4259 
Q 1275 4134 1275 3809 
L 1275 3500 
L 2222 3500 
L 2222 3053 
L 1275 3053 
L 1275 0 
L 697 0 
L 697 3053 
L 147 3053 
L 147 3500 
L 697 3500 
L 697 3744 
Q 697 4328 969 4595 
Q 1241 4863 1831 4863 
L 2375 4863 
z
" transform="scale(0.015625)"/>
       <path id="DejaVuSans-4c" d="M 628 4666 
L 1259 4666 
L 1259 531 
L 3531 531 
L 3531 0 
L 628 0 
L 628 4666 
z
" transform="scale(0.015625)"/>
       <path id="DejaVuSans-4d" d="M 628 4666 
L 1569 4666 
L 2759 1491 
L 3956 4666 
L 4897 4666 
L 4897 0 
L 4281 0 
L 4281 4097 
L 3078 897 
L 2444 897 
L 1241 4097 
L 1241 0 
L 628 0 
L 628 4666 
z
" transform="scale(0.015625)"/>
      </defs>
      <use xlink:href="#DejaVuSans-46"/>
      <use xlink:href="#DejaVuSans-69" x="50.269531"/>
      <use xlink:href="#DejaVuSans-6c" x="78.052734"/>
      <use xlink:href="#DejaVuSans-74" x="105.835938"/>
      <use xlink:href="#DejaVuSans-65" x="145.044922"/>
      <use xlink:href="#DejaVuSans-72" x="206.568359"/>
      <use xlink:href="#DejaVuSans-65" x="245.431641"/>
      <use xlink:href="#DejaVuSans-64" x="306.955078"/>
      <use xlink:href="#DejaVuSans-20" x="370.431641"/>
      <use xlink:href="#DejaVuSans-70" x="402.21875"/>
      <use xlink:href="#DejaVuSans-75" x="465.695312"/>
      <use xlink:href="#DejaVuSans-6c" x="529.074219"/>
      <use xlink:href="#DejaVuSans-73" x="556.857422"/>
      <use xlink:href="#DejaVuSans-65" x="608.957031"/>
      <use xlink:href="#DejaVuSans-20" x="670.480469"/>
      <use xlink:href="#DejaVuSans-6f" x="702.267578"/>
      <use xlink:href="#DejaVuSans-66" x="763.449219"/>
      <use xlink:href="#DejaVuSans-20" x="798.654297"/>
      <use xlink:href="#DejaVuSans-4c" x="830.441406"/>
      <use xlink:href="#DejaVuSans-4d" x="886.154297"/>
      <use xlink:href="#DejaVuSans-53" x="972.433594"/>
     </g>
    </g>
   </g>
  </g>
 </g>
 <defs>
  <clipPath id="pcb73afa062">
   <rect x="172.26" y="84.7584" width="1068.012" height="543.8664"/>
  </clipPath>
 </defs>
</svg>
