<svg width="602" height="188" xmlns="http://www.w3.org/2000/svg" xmlns:xlink="http://www.w3.org/1999/xlink" xml:space="preserve" overflow="hidden"><g><path d="M24.251 49.894 93.2673 49.894 93.2673 111.144 24.251 111.144Z" stroke="#172C51" stroke-width="0.671603" stroke-miterlimit="8" fill="#4472C4" transform="matrix(1.00179 0 0 1 -23.9273 -49.5277)"/><text fill="#FFFFFF" font-family="Calibri,Calibri_MSFontService,sans-serif" font-weight="400" font-size="83" transform="matrix(0.146793 0 0 0.146532 24.6767 35)">S </text><text fill="#FFFFFF" font-family="Calibri,Calibri_MSFontService,sans-serif" font-weight="400" font-size="83" transform="matrix(0.146793 0 0 0.146532 33.0439 35)">(</text><text fill="#FFFFFF" font-family="Calibri,Calibri_MSFontService,sans-serif" font-weight="400" font-size="83" transform="matrix(0.146793 0 0 0.146532 36.7031 35)">τ</text><text fill="#FFFFFF" font-family="Calibri,Calibri_MSFontService,sans-serif" font-weight="400" font-size="83" transform="matrix(0.146793 0 0 0.146532 41.4126 35)">)</text><path d="M119.643 49.894 188.659 49.894 188.659 111.144 119.643 111.144Z" stroke="#172C51" stroke-width="0.671603" stroke-miterlimit="8" fill="#4472C4" transform="matrix(1.00179 0 0 1 -23.9273 -49.5277)"/><text fill="#FFFFFF" font-family="Calibri,Calibri_MSFontService,sans-serif" font-weight="400" font-size="83" transform="matrix(0.146793 0 0 0.146532 101.302 28)">Pre</text><text fill="#FFFFFF" font-family="Calibri,Calibri_MSFontService,sans-serif" font-weight="400" font-size="83" transform="matrix(0.146793 0 0 0.146532 117.628 28)">-</text><text fill="#FFFFFF" font-family="Calibri,Calibri_MSFontService,sans-serif" font-weight="400" font-size="83" transform="matrix(0.146793 0 0 0.146532 121.328 28)">filtering </text><text fill="#FFFFFF" font-family="Calibri,Calibri_MSFontService,sans-serif" font-weight="400" font-size="83" transform="matrix(0.146793 0 0 0.146532 120.581 42)">ECG </text><path d="M258.115 49.894 327.278 49.894 327.278 111.144 258.115 111.144Z" stroke="#172C51" stroke-width="0.671603" stroke-miterlimit="8" fill="#4472C4" transform="matrix(1.00179 0 0 1 -23.9273 -49.5277)"/><text fill="#FFFFFF" font-family="Calibri,Calibri_MSFontService,sans-serif" font-weight="400" font-size="83" transform="matrix(0.146793 0 0 0.146532 247.253 20)">Matched </text><text fill="#FFFFFF" font-family="Calibri,Calibri_MSFontService,sans-serif" font-weight="400" font-size="83" transform="matrix(0.146793 0 0 0.146532 256.569 35)">Filter </text><text fill="#FFFFFF" font-family="Calibri,Calibri_MSFontService,sans-serif" font-weight="400" font-size="83" transform="matrix(0.146793 0 0 0.146532 261.631 49)">FIR</text><path d="M348.672 49.894 417.835 49.894 417.835 111.144 348.672 111.144Z" stroke="#172C51" stroke-width="0.671603" stroke-miterlimit="8" fill="#4472C4" transform="matrix(1.00179 0 0 1 -23.9273 -49.5277)"/><text fill="#FFFFFF" font-family="Calibri,Calibri_MSFontService,sans-serif" font-weight="400" font-size="83" transform="matrix(0.146793 0 0 0.146532 350.306 35)">x </text><text fill="#FFFFFF" font-family="Calibri,Calibri_MSFontService,sans-serif" font-weight="400" font-size="83" transform="matrix(0.146793 0 0 0.146532 358.38 35)">*</text><text fill="#FFFFFF" font-family="Calibri,Calibri_MSFontService,sans-serif" font-weight="400" font-size="83" transform="matrix(0.146793 0 0 0.146532 364.399 35)">x </text><path d="M445.09 49.894 514.106 49.894 514.106 111.144 445.09 111.144Z" stroke="#172C51" stroke-width="0.671603" stroke-miterlimit="8" fill="#4472C4" transform="matrix(1.00179 0 0 1 -23.9273 -49.5277)"/><text fill="#FFFFFF" font-family="Calibri,Calibri_MSFontService,sans-serif" font-weight="400" font-size="83" transform="matrix(0.146793 0 0 0.146532 431.93 35)">Threshold</text><path d="M541.361 49.894 620.634 49.894 620.634 111.144 541.361 111.144Z" stroke="#172C51" stroke-width="0.671603" stroke-miterlimit="8" fill="#4472C4" transform="matrix(1.00179 0 0 1 -23.9273 -49.5277)"/><text fill="#FFFFFF" font-family="Calibri,Calibri_MSFontService,sans-serif" font-weight="400" font-size="83" transform="matrix(0.146793 0 0 0.146532 536.294 20)">Heuristic</text><text fill="#FFFFFF" font-family="Calibri,Calibri_MSFontService,sans-serif" font-weight="400" font-size="83" transform="matrix(0.146793 0 0 0.146532 524.257 35)">(</text><text fill="#FFFFFF" font-family="Calibri,Calibri_MSFontService,sans-serif" font-weight="400" font-size="83" transform="matrix(0.146793 0 0 0.146532 527.927 35)">detect bogus </text><text fill="#FFFFFF" font-family="Calibri,Calibri_MSFontService,sans-serif" font-weight="400" font-size="83" transform="matrix(0.146793 0 0 0.146532 540.683 49)">pulses</text><text fill="#FFFFFF" font-family="Calibri,Calibri_MSFontService,sans-serif" font-weight="400" font-size="83" transform="matrix(0.146793 0 0 0.146532 571.803 49)">) </text><path d="M163.602 175.911 279.802 175.911 279.802 237.161 163.602 237.161Z" stroke="#172C51" stroke-width="0.671603" stroke-miterlimit="8" fill="#4472C4" transform="matrix(1.00179 0 0 1 -23.9273 -49.5277)"/><text fill="#FFFFFF" font-family="Calibri,Calibri_MSFontService,sans-serif" font-weight="400" font-size="83" transform="matrix(0.146793 0 0 0.146532 164.168 154)">time reversed </text><text fill="#FFFFFF" font-family="Calibri,Calibri_MSFontService,sans-serif" font-weight="400" font-size="83" transform="matrix(0.146793 0 0 0.146532 175.898 168)">template</text><path d="M93.1941 80.2779 116.158 80.2779 116.158 80.6138 93.1941 80.6138ZM115.486 78.431 119.516 80.4458 115.486 82.4606Z" fill="#4472C4" transform="matrix(1.00179 0 0 1 -23.9273 -49.5277)"/><path d="M188.586 80.2779 254.635 80.2779 254.635 80.6138 188.586 80.6138ZM253.963 78.431 257.992 80.4458 253.963 82.4606Z" fill="#4472C4" transform="matrix(1.00179 0 0 1 -23.9273 -49.5277)"/><path d="M0-0.1679 47.904-0.1679 47.904 17.6001 47.736 17.4321 92.114 17.4321 92.114 17.768 47.5681 17.768 47.5681 0 47.736 0.1679 0 0.1679ZM91.4424 15.5852 95.4721 17.6001 91.4424 19.6149Z" fill="#4472C4" transform="matrix(1.84025e-16 1 1.00179 -1.83697e-16 180.556 30.9182)"/><path d="M0-0.1679 13.0011-0.1679 13.0011 92.114 12.6653 92.114 12.6653 0 12.8332 0.1679 0 0.1679ZM14.848 91.4423 12.8332 95.4719 10.8184 91.4423Z" fill="#4472C4" transform="matrix(1.00179 0 0 -1 256.301 157.016)"/><path d="M327.205 80.2779 345.341 80.2779 345.341 80.6138 327.205 80.6138ZM344.67 78.431 348.7 80.4458 344.67 82.4606Z" fill="#4472C4" transform="matrix(1.00179 0 0 1 -23.9273 -49.5277)"/><path d="M417.762 80.2779 441.665 80.2779 441.665 80.6138 417.762 80.6138ZM440.994 78.431 445.024 80.4458 440.994 82.4606Z" fill="#4472C4" transform="matrix(1.00179 0 0 1 -23.9273 -49.5277)"/><path d="M514.033 80.2779 537.936 80.2779 537.936 80.6138 514.033 80.6138ZM537.265 78.431 541.295 80.4458 537.265 82.4606Z" fill="#4472C4" transform="matrix(1.00179 0 0 1 -23.9273 -49.5277)"/><path d="M581.166 111.071 581.166 141.892 580.829 141.892 580.829 111.071ZM583.012 141.221 580.998 145.25 578.983 141.221Z" fill="#4472C4" transform="matrix(1.00179 0 0 1 -23.9273 -49.5277)"/><path d="M546.49 145.433 615.506 145.433 615.506 206.536 546.49 206.536Z" stroke="#172C51" stroke-width="0.671603" stroke-miterlimit="8" fill="#4472C4" transform="matrix(1.00179 0 0 1 -23.9273 -49.5277)"/><text fill="#FFFFFF" font-family="Calibri,Calibri_MSFontService,sans-serif" font-weight="400" font-size="83" transform="matrix(0.146793 0 0 0.146532 540.433 130)">Output</text><text font-family="Calibri,Calibri_MSFontService,sans-serif" font-weight="400" font-size="83" transform="matrix(0.146793 0 0 0.146532 147.227 89)">obtain </text><text font-family="Calibri,Calibri_MSFontService,sans-serif" font-weight="400" font-size="83" transform="matrix(0.146793 0 0 0.146532 147.227 103)">template</text><text font-family="Calibri,Calibri_MSFontService,sans-serif" font-weight="400" font-size="83" transform="matrix(0.146793 0 0 0.146532 280.409 102)">coefficients of </text><text font-family="Calibri,Calibri_MSFontService,sans-serif" font-weight="400" font-size="83" transform="matrix(0.146793 0 0 0.146532 280.409 116)">filter </text></g></svg>