<?xml version="1.0" encoding="utf-8" standalone="no"?>
<!DOCTYPE svg PUBLIC "-//W3C//DTD SVG 1.1//EN"
  "http://www.w3.org/Graphics/SVG/1.1/DTD/svg11.dtd">
<svg xmlns:xlink="http://www.w3.org/1999/xlink" width="1378.08pt" height="706.32pt" viewBox="0 0 1378.08 706.32" xmlns="http://www.w3.org/2000/svg" version="1.1">
 <metadata>
  <rdf:RDF xmlns:dc="http://purl.org/dc/elements/1.1/" xmlns:cc="http://creativecommons.org/ns#" xmlns:rdf="http://www.w3.org/1999/02/22-rdf-syntax-ns#">
   <cc:Work>
    <dc:type rdf:resource="http://purl.org/dc/dcmitype/StillImage"/>
    <dc:date>2023-11-05T19:14:08.643634</dc:date>
    <dc:format>image/svg+xml</dc:format>
    <dc:creator>
     <cc:Agent>
      <dc:title>Matplotlib v3.8.0, https://matplotlib.org/</dc:title>
     </cc:Agent>
    </dc:creator>
   </cc:Work>
  </rdf:RDF>
 </metadata>
 <defs>
  <style type="text/css">*{stroke-linejoin: round; stroke-linecap: butt}</style>
 </defs>
 <g id="figure_1">
  <g id="patch_1">
   <path d="M 0 706.32 
L 1378.08 706.32 
L 1378.08 0 
L 0 0 
z
" style="fill: #ffffff"/>
  </g>
  <g id="axes_1">
   <g id="patch_2">
    <path d="M 172.26 628.6248 
L 1240.272 628.6248 
L 1240.272 84.7584 
L 172.26 84.7584 
z
" style="fill: #ffffff"/>
   </g>
   <g id="matplotlib.axis_1">
    <g id="xtick_1">
     <g id="line2d_1">
      <defs>
       <path id="me8c13c3d02" d="M 0 0 
L 0 3.5 
" style="stroke: #000000; stroke-width: 0.8"/>
      </defs>
      <g>
       <use xlink:href="#me8c13c3d02" x="220.806" y="628.6248" style="stroke: #000000; stroke-width: 0.8"/>
      </g>
     </g>
     <g id="text_1">
      <!-- 0 -->
      <g transform="translate(217.62475 643.223238) scale(0.1 -0.1)">
       <defs>
        <path id="DejaVuSans-30" d="M 2034 4250 
Q 1547 4250 1301 3770 
Q 1056 3291 1056 2328 
Q 1056 1369 1301 889 
Q 1547 409 2034 409 
Q 2525 409 2770 889 
Q 3016 1369 3016 2328 
Q 3016 3291 2770 3770 
Q 2525 4250 2034 4250 
z
M 2034 4750 
Q 2819 4750 3233 4129 
Q 3647 3509 3647 2328 
Q 3647 1150 3233 529 
Q 2819 -91 2034 -91 
Q 1250 -91 836 529 
Q 422 1150 422 2328 
Q 422 3509 836 4129 
Q 1250 4750 2034 4750 
z
" transform="scale(0.015625)"/>
       </defs>
       <use xlink:href="#DejaVuSans-30"/>
      </g>
     </g>
    </g>
    <g id="xtick_2">
     <g id="line2d_2">
      <g>
       <use xlink:href="#me8c13c3d02" x="342.231713" y="628.6248" style="stroke: #000000; stroke-width: 0.8"/>
      </g>
     </g>
     <g id="text_2">
      <!-- 250 -->
      <g transform="translate(332.687963 643.223238) scale(0.1 -0.1)">
       <defs>
        <path id="DejaVuSans-32" d="M 1228 531 
L 3431 531 
L 3431 0 
L 469 0 
L 469 531 
Q 828 903 1448 1529 
Q 2069 2156 2228 2338 
Q 2531 2678 2651 2914 
Q 2772 3150 2772 3378 
Q 2772 3750 2511 3984 
Q 2250 4219 1831 4219 
Q 1534 4219 1204 4116 
Q 875 4013 500 3803 
L 500 4441 
Q 881 4594 1212 4672 
Q 1544 4750 1819 4750 
Q 2544 4750 2975 4387 
Q 3406 4025 3406 3419 
Q 3406 3131 3298 2873 
Q 3191 2616 2906 2266 
Q 2828 2175 2409 1742 
Q 1991 1309 1228 531 
z
" transform="scale(0.015625)"/>
        <path id="DejaVuSans-35" d="M 691 4666 
L 3169 4666 
L 3169 4134 
L 1269 4134 
L 1269 2991 
Q 1406 3038 1543 3061 
Q 1681 3084 1819 3084 
Q 2600 3084 3056 2656 
Q 3513 2228 3513 1497 
Q 3513 744 3044 326 
Q 2575 -91 1722 -91 
Q 1428 -91 1123 -41 
Q 819 9 494 109 
L 494 744 
Q 775 591 1075 516 
Q 1375 441 1709 441 
Q 2250 441 2565 725 
Q 2881 1009 2881 1497 
Q 2881 1984 2565 2268 
Q 2250 2553 1709 2553 
Q 1456 2553 1204 2497 
Q 953 2441 691 2322 
L 691 4666 
z
" transform="scale(0.015625)"/>
       </defs>
       <use xlink:href="#DejaVuSans-32"/>
       <use xlink:href="#DejaVuSans-35" x="63.623047"/>
       <use xlink:href="#DejaVuSans-30" x="127.246094"/>
      </g>
     </g>
    </g>
    <g id="xtick_3">
     <g id="line2d_3">
      <g>
       <use xlink:href="#me8c13c3d02" x="463.657426" y="628.6248" style="stroke: #000000; stroke-width: 0.8"/>
      </g>
     </g>
     <g id="text_3">
      <!-- 500 -->
      <g transform="translate(454.113676 643.223238) scale(0.1 -0.1)">
       <use xlink:href="#DejaVuSans-35"/>
       <use xlink:href="#DejaVuSans-30" x="63.623047"/>
       <use xlink:href="#DejaVuSans-30" x="127.246094"/>
      </g>
     </g>
    </g>
    <g id="xtick_4">
     <g id="line2d_4">
      <g>
       <use xlink:href="#me8c13c3d02" x="585.083139" y="628.6248" style="stroke: #000000; stroke-width: 0.8"/>
      </g>
     </g>
     <g id="text_4">
      <!-- 750 -->
      <g transform="translate(575.539389 643.223238) scale(0.1 -0.1)">
       <defs>
        <path id="DejaVuSans-37" d="M 525 4666 
L 3525 4666 
L 3525 4397 
L 1831 0 
L 1172 0 
L 2766 4134 
L 525 4134 
L 525 4666 
z
" transform="scale(0.015625)"/>
       </defs>
       <use xlink:href="#DejaVuSans-37"/>
       <use xlink:href="#DejaVuSans-35" x="63.623047"/>
       <use xlink:href="#DejaVuSans-30" x="127.246094"/>
      </g>
     </g>
    </g>
    <g id="xtick_5">
     <g id="line2d_5">
      <g>
       <use xlink:href="#me8c13c3d02" x="706.508851" y="628.6248" style="stroke: #000000; stroke-width: 0.8"/>
      </g>
     </g>
     <g id="text_5">
      <!-- 1000 -->
      <g transform="translate(693.783851 643.223238) scale(0.1 -0.1)">
       <defs>
        <path id="DejaVuSans-31" d="M 794 531 
L 1825 531 
L 1825 4091 
L 703 3866 
L 703 4441 
L 1819 4666 
L 2450 4666 
L 2450 531 
L 3481 531 
L 3481 0 
L 794 0 
L 794 531 
z
" transform="scale(0.015625)"/>
       </defs>
       <use xlink:href="#DejaVuSans-31"/>
       <use xlink:href="#DejaVuSans-30" x="63.623047"/>
       <use xlink:href="#DejaVuSans-30" x="127.246094"/>
       <use xlink:href="#DejaVuSans-30" x="190.869141"/>
      </g>
     </g>
    </g>
    <g id="xtick_6">
     <g id="line2d_6">
      <g>
       <use xlink:href="#me8c13c3d02" x="827.934564" y="628.6248" style="stroke: #000000; stroke-width: 0.8"/>
      </g>
     </g>
     <g id="text_6">
      <!-- 1250 -->
      <g transform="translate(815.209564 643.223238) scale(0.1 -0.1)">
       <use xlink:href="#DejaVuSans-31"/>
       <use xlink:href="#DejaVuSans-32" x="63.623047"/>
       <use xlink:href="#DejaVuSans-35" x="127.246094"/>
       <use xlink:href="#DejaVuSans-30" x="190.869141"/>
      </g>
     </g>
    </g>
    <g id="xtick_7">
     <g id="line2d_7">
      <g>
       <use xlink:href="#me8c13c3d02" x="949.360277" y="628.6248" style="stroke: #000000; stroke-width: 0.8"/>
      </g>
     </g>
     <g id="text_7">
      <!-- 1500 -->
      <g transform="translate(936.635277 643.223238) scale(0.1 -0.1)">
       <use xlink:href="#DejaVuSans-31"/>
       <use xlink:href="#DejaVuSans-35" x="63.623047"/>
       <use xlink:href="#DejaVuSans-30" x="127.246094"/>
       <use xlink:href="#DejaVuSans-30" x="190.869141"/>
      </g>
     </g>
    </g>
    <g id="xtick_8">
     <g id="line2d_8">
      <g>
       <use xlink:href="#me8c13c3d02" x="1070.78599" y="628.6248" style="stroke: #000000; stroke-width: 0.8"/>
      </g>
     </g>
     <g id="text_8">
      <!-- 1750 -->
      <g transform="translate(1058.06099 643.223238) scale(0.1 -0.1)">
       <use xlink:href="#DejaVuSans-31"/>
       <use xlink:href="#DejaVuSans-37" x="63.623047"/>
       <use xlink:href="#DejaVuSans-35" x="127.246094"/>
       <use xlink:href="#DejaVuSans-30" x="190.869141"/>
      </g>
     </g>
    </g>
    <g id="xtick_9">
     <g id="line2d_9">
      <g>
       <use xlink:href="#me8c13c3d02" x="1192.211703" y="628.6248" style="stroke: #000000; stroke-width: 0.8"/>
      </g>
     </g>
     <g id="text_9">
      <!-- 2000 -->
      <g transform="translate(1179.486703 643.223238) scale(0.1 -0.1)">
       <use xlink:href="#DejaVuSans-32"/>
       <use xlink:href="#DejaVuSans-30" x="63.623047"/>
       <use xlink:href="#DejaVuSans-30" x="127.246094"/>
       <use xlink:href="#DejaVuSans-30" x="190.869141"/>
      </g>
     </g>
    </g>
    <g id="text_10">
     <!-- Sample -->
     <g transform="translate(687.517562 656.901363) scale(0.1 -0.1)">
      <defs>
       <path id="DejaVuSans-53" d="M 3425 4513 
L 3425 3897 
Q 3066 4069 2747 4153 
Q 2428 4238 2131 4238 
Q 1616 4238 1336 4038 
Q 1056 3838 1056 3469 
Q 1056 3159 1242 3001 
Q 1428 2844 1947 2747 
L 2328 2669 
Q 3034 2534 3370 2195 
Q 3706 1856 3706 1288 
Q 3706 609 3251 259 
Q 2797 -91 1919 -91 
Q 1588 -91 1214 -16 
Q 841 59 441 206 
L 441 856 
Q 825 641 1194 531 
Q 1563 422 1919 422 
Q 2459 422 2753 634 
Q 3047 847 3047 1241 
Q 3047 1584 2836 1778 
Q 2625 1972 2144 2069 
L 1759 2144 
Q 1053 2284 737 2584 
Q 422 2884 422 3419 
Q 422 4038 858 4394 
Q 1294 4750 2059 4750 
Q 2388 4750 2728 4690 
Q 3069 4631 3425 4513 
z
" transform="scale(0.015625)"/>
       <path id="DejaVuSans-61" d="M 2194 1759 
Q 1497 1759 1228 1600 
Q 959 1441 959 1056 
Q 959 750 1161 570 
Q 1363 391 1709 391 
Q 2188 391 2477 730 
Q 2766 1069 2766 1631 
L 2766 1759 
L 2194 1759 
z
M 3341 1997 
L 3341 0 
L 2766 0 
L 2766 531 
Q 2569 213 2275 61 
Q 1981 -91 1556 -91 
Q 1019 -91 701 211 
Q 384 513 384 1019 
Q 384 1609 779 1909 
Q 1175 2209 1959 2209 
L 2766 2209 
L 2766 2266 
Q 2766 2663 2505 2880 
Q 2244 3097 1772 3097 
Q 1472 3097 1187 3025 
Q 903 2953 641 2809 
L 641 3341 
Q 956 3463 1253 3523 
Q 1550 3584 1831 3584 
Q 2591 3584 2966 3190 
Q 3341 2797 3341 1997 
z
" transform="scale(0.015625)"/>
       <path id="DejaVuSans-6d" d="M 3328 2828 
Q 3544 3216 3844 3400 
Q 4144 3584 4550 3584 
Q 5097 3584 5394 3201 
Q 5691 2819 5691 2113 
L 5691 0 
L 5113 0 
L 5113 2094 
Q 5113 2597 4934 2840 
Q 4756 3084 4391 3084 
Q 3944 3084 3684 2787 
Q 3425 2491 3425 1978 
L 3425 0 
L 2847 0 
L 2847 2094 
Q 2847 2600 2669 2842 
Q 2491 3084 2119 3084 
Q 1678 3084 1418 2786 
Q 1159 2488 1159 1978 
L 1159 0 
L 581 0 
L 581 3500 
L 1159 3500 
L 1159 2956 
Q 1356 3278 1631 3431 
Q 1906 3584 2284 3584 
Q 2666 3584 2933 3390 
Q 3200 3197 3328 2828 
z
" transform="scale(0.015625)"/>
       <path id="DejaVuSans-70" d="M 1159 525 
L 1159 -1331 
L 581 -1331 
L 581 3500 
L 1159 3500 
L 1159 2969 
Q 1341 3281 1617 3432 
Q 1894 3584 2278 3584 
Q 2916 3584 3314 3078 
Q 3713 2572 3713 1747 
Q 3713 922 3314 415 
Q 2916 -91 2278 -91 
Q 1894 -91 1617 61 
Q 1341 213 1159 525 
z
M 3116 1747 
Q 3116 2381 2855 2742 
Q 2594 3103 2138 3103 
Q 1681 3103 1420 2742 
Q 1159 2381 1159 1747 
Q 1159 1113 1420 752 
Q 1681 391 2138 391 
Q 2594 391 2855 752 
Q 3116 1113 3116 1747 
z
" transform="scale(0.015625)"/>
       <path id="DejaVuSans-6c" d="M 603 4863 
L 1178 4863 
L 1178 0 
L 603 0 
L 603 4863 
z
" transform="scale(0.015625)"/>
       <path id="DejaVuSans-65" d="M 3597 1894 
L 3597 1613 
L 953 1613 
Q 991 1019 1311 708 
Q 1631 397 2203 397 
Q 2534 397 2845 478 
Q 3156 559 3463 722 
L 3463 178 
Q 3153 47 2828 -22 
Q 2503 -91 2169 -91 
Q 1331 -91 842 396 
Q 353 884 353 1716 
Q 353 2575 817 3079 
Q 1281 3584 2069 3584 
Q 2775 3584 3186 3129 
Q 3597 2675 3597 1894 
z
M 3022 2063 
Q 3016 2534 2758 2815 
Q 2500 3097 2075 3097 
Q 1594 3097 1305 2825 
Q 1016 2553 972 2059 
L 3022 2063 
z
" transform="scale(0.015625)"/>
      </defs>
      <use xlink:href="#DejaVuSans-53"/>
      <use xlink:href="#DejaVuSans-61" x="63.476562"/>
      <use xlink:href="#DejaVuSans-6d" x="124.755859"/>
      <use xlink:href="#DejaVuSans-70" x="222.167969"/>
      <use xlink:href="#DejaVuSans-6c" x="285.644531"/>
      <use xlink:href="#DejaVuSans-65" x="313.427734"/>
     </g>
    </g>
   </g>
   <g id="matplotlib.axis_2">
    <g id="ytick_1">
     <g id="line2d_10">
      <defs>
       <path id="mb7a349fd13" d="M 0 0 
L -3.5 0 
" style="stroke: #000000; stroke-width: 0.8"/>
      </defs>
      <g>
       <use xlink:href="#mb7a349fd13" x="172.26" y="593.525531" style="stroke: #000000; stroke-width: 0.8"/>
      </g>
     </g>
     <g id="text_11">
      <!-- 0.0 -->
      <g transform="translate(149.356875 597.32475) scale(0.1 -0.1)">
       <defs>
        <path id="DejaVuSans-2e" d="M 684 794 
L 1344 794 
L 1344 0 
L 684 0 
L 684 794 
z
" transform="scale(0.015625)"/>
       </defs>
       <use xlink:href="#DejaVuSans-30"/>
       <use xlink:href="#DejaVuSans-2e" x="63.623047"/>
       <use xlink:href="#DejaVuSans-30" x="95.410156"/>
      </g>
     </g>
    </g>
    <g id="ytick_2">
     <g id="line2d_11">
      <g>
       <use xlink:href="#mb7a349fd13" x="172.26" y="494.538633" style="stroke: #000000; stroke-width: 0.8"/>
      </g>
     </g>
     <g id="text_12">
      <!-- 0.2 -->
      <g transform="translate(149.356875 498.337852) scale(0.1 -0.1)">
       <use xlink:href="#DejaVuSans-30"/>
       <use xlink:href="#DejaVuSans-2e" x="63.623047"/>
       <use xlink:href="#DejaVuSans-32" x="95.410156"/>
      </g>
     </g>
    </g>
    <g id="ytick_3">
     <g id="line2d_12">
      <g>
       <use xlink:href="#mb7a349fd13" x="172.26" y="395.551735" style="stroke: #000000; stroke-width: 0.8"/>
      </g>
     </g>
     <g id="text_13">
      <!-- 0.4 -->
      <g transform="translate(149.356875 399.350954) scale(0.1 -0.1)">
       <defs>
        <path id="DejaVuSans-34" d="M 2419 4116 
L 825 1625 
L 2419 1625 
L 2419 4116 
z
M 2253 4666 
L 3047 4666 
L 3047 1625 
L 3713 1625 
L 3713 1100 
L 3047 1100 
L 3047 0 
L 2419 0 
L 2419 1100 
L 313 1100 
L 313 1709 
L 2253 4666 
z
" transform="scale(0.015625)"/>
       </defs>
       <use xlink:href="#DejaVuSans-30"/>
       <use xlink:href="#DejaVuSans-2e" x="63.623047"/>
       <use xlink:href="#DejaVuSans-34" x="95.410156"/>
      </g>
     </g>
    </g>
    <g id="ytick_4">
     <g id="line2d_13">
      <g>
       <use xlink:href="#mb7a349fd13" x="172.26" y="296.564837" style="stroke: #000000; stroke-width: 0.8"/>
      </g>
     </g>
     <g id="text_14">
      <!-- 0.6 -->
      <g transform="translate(149.356875 300.364056) scale(0.1 -0.1)">
       <defs>
        <path id="DejaVuSans-36" d="M 2113 2584 
Q 1688 2584 1439 2293 
Q 1191 2003 1191 1497 
Q 1191 994 1439 701 
Q 1688 409 2113 409 
Q 2538 409 2786 701 
Q 3034 994 3034 1497 
Q 3034 2003 2786 2293 
Q 2538 2584 2113 2584 
z
M 3366 4563 
L 3366 3988 
Q 3128 4100 2886 4159 
Q 2644 4219 2406 4219 
Q 1781 4219 1451 3797 
Q 1122 3375 1075 2522 
Q 1259 2794 1537 2939 
Q 1816 3084 2150 3084 
Q 2853 3084 3261 2657 
Q 3669 2231 3669 1497 
Q 3669 778 3244 343 
Q 2819 -91 2113 -91 
Q 1303 -91 875 529 
Q 447 1150 447 2328 
Q 447 3434 972 4092 
Q 1497 4750 2381 4750 
Q 2619 4750 2861 4703 
Q 3103 4656 3366 4563 
z
" transform="scale(0.015625)"/>
       </defs>
       <use xlink:href="#DejaVuSans-30"/>
       <use xlink:href="#DejaVuSans-2e" x="63.623047"/>
       <use xlink:href="#DejaVuSans-36" x="95.410156"/>
      </g>
     </g>
    </g>
    <g id="ytick_5">
     <g id="line2d_14">
      <g>
       <use xlink:href="#mb7a349fd13" x="172.26" y="197.577939" style="stroke: #000000; stroke-width: 0.8"/>
      </g>
     </g>
     <g id="text_15">
      <!-- 0.8 -->
      <g transform="translate(149.356875 201.377158) scale(0.1 -0.1)">
       <defs>
        <path id="DejaVuSans-38" d="M 2034 2216 
Q 1584 2216 1326 1975 
Q 1069 1734 1069 1313 
Q 1069 891 1326 650 
Q 1584 409 2034 409 
Q 2484 409 2743 651 
Q 3003 894 3003 1313 
Q 3003 1734 2745 1975 
Q 2488 2216 2034 2216 
z
M 1403 2484 
Q 997 2584 770 2862 
Q 544 3141 544 3541 
Q 544 4100 942 4425 
Q 1341 4750 2034 4750 
Q 2731 4750 3128 4425 
Q 3525 4100 3525 3541 
Q 3525 3141 3298 2862 
Q 3072 2584 2669 2484 
Q 3125 2378 3379 2068 
Q 3634 1759 3634 1313 
Q 3634 634 3220 271 
Q 2806 -91 2034 -91 
Q 1263 -91 848 271 
Q 434 634 434 1313 
Q 434 1759 690 2068 
Q 947 2378 1403 2484 
z
M 1172 3481 
Q 1172 3119 1398 2916 
Q 1625 2713 2034 2713 
Q 2441 2713 2670 2916 
Q 2900 3119 2900 3481 
Q 2900 3844 2670 4047 
Q 2441 4250 2034 4250 
Q 1625 4250 1398 4047 
Q 1172 3844 1172 3481 
z
" transform="scale(0.015625)"/>
       </defs>
       <use xlink:href="#DejaVuSans-30"/>
       <use xlink:href="#DejaVuSans-2e" x="63.623047"/>
       <use xlink:href="#DejaVuSans-38" x="95.410156"/>
      </g>
     </g>
    </g>
    <g id="ytick_6">
     <g id="line2d_15">
      <g>
       <use xlink:href="#mb7a349fd13" x="172.26" y="98.591041" style="stroke: #000000; stroke-width: 0.8"/>
      </g>
     </g>
     <g id="text_16">
      <!-- 1.0 -->
      <g transform="translate(149.356875 102.39026) scale(0.1 -0.1)">
       <use xlink:href="#DejaVuSans-31"/>
       <use xlink:href="#DejaVuSans-2e" x="63.623047"/>
       <use xlink:href="#DejaVuSans-30" x="95.410156"/>
      </g>
     </g>
    </g>
    <g id="text_17">
     <!-- Amplitude -->
     <g transform="translate(143.277187 382.314256) rotate(-90) scale(0.1 -0.1)">
      <defs>
       <path id="DejaVuSans-41" d="M 2188 4044 
L 1331 1722 
L 3047 1722 
L 2188 4044 
z
M 1831 4666 
L 2547 4666 
L 4325 0 
L 3669 0 
L 3244 1197 
L 1141 1197 
L 716 0 
L 50 0 
L 1831 4666 
z
" transform="scale(0.015625)"/>
       <path id="DejaVuSans-69" d="M 603 3500 
L 1178 3500 
L 1178 0 
L 603 0 
L 603 3500 
z
M 603 4863 
L 1178 4863 
L 1178 4134 
L 603 4134 
L 603 4863 
z
" transform="scale(0.015625)"/>
       <path id="DejaVuSans-74" d="M 1172 4494 
L 1172 3500 
L 2356 3500 
L 2356 3053 
L 1172 3053 
L 1172 1153 
Q 1172 725 1289 603 
Q 1406 481 1766 481 
L 2356 481 
L 2356 0 
L 1766 0 
Q 1100 0 847 248 
Q 594 497 594 1153 
L 594 3053 
L 172 3053 
L 172 3500 
L 594 3500 
L 594 4494 
L 1172 4494 
z
" transform="scale(0.015625)"/>
       <path id="DejaVuSans-75" d="M 544 1381 
L 544 3500 
L 1119 3500 
L 1119 1403 
Q 1119 906 1312 657 
Q 1506 409 1894 409 
Q 2359 409 2629 706 
Q 2900 1003 2900 1516 
L 2900 3500 
L 3475 3500 
L 3475 0 
L 2900 0 
L 2900 538 
Q 2691 219 2414 64 
Q 2138 -91 1772 -91 
Q 1169 -91 856 284 
Q 544 659 544 1381 
z
M 1991 3584 
L 1991 3584 
z
" transform="scale(0.015625)"/>
       <path id="DejaVuSans-64" d="M 2906 2969 
L 2906 4863 
L 3481 4863 
L 3481 0 
L 2906 0 
L 2906 525 
Q 2725 213 2448 61 
Q 2172 -91 1784 -91 
Q 1150 -91 751 415 
Q 353 922 353 1747 
Q 353 2572 751 3078 
Q 1150 3584 1784 3584 
Q 2172 3584 2448 3432 
Q 2725 3281 2906 2969 
z
M 947 1747 
Q 947 1113 1208 752 
Q 1469 391 1925 391 
Q 2381 391 2643 752 
Q 2906 1113 2906 1747 
Q 2906 2381 2643 2742 
Q 2381 3103 1925 3103 
Q 1469 3103 1208 2742 
Q 947 2381 947 1747 
z
" transform="scale(0.015625)"/>
      </defs>
      <use xlink:href="#DejaVuSans-41"/>
      <use xlink:href="#DejaVuSans-6d" x="68.408203"/>
      <use xlink:href="#DejaVuSans-70" x="165.820312"/>
      <use xlink:href="#DejaVuSans-6c" x="229.296875"/>
      <use xlink:href="#DejaVuSans-69" x="257.080078"/>
      <use xlink:href="#DejaVuSans-74" x="284.863281"/>
      <use xlink:href="#DejaVuSans-75" x="324.072266"/>
      <use xlink:href="#DejaVuSans-64" x="387.451172"/>
      <use xlink:href="#DejaVuSans-65" x="450.927734"/>
     </g>
    </g>
   </g>
   <g id="line2d_16">
    <path d="M 220.806 594.020466 
L 221.777406 593.925077 
L 223.720217 593.375611 
L 225.177326 593.075466 
L 226.148731 593.085552 
L 227.60584 593.388816 
L 229.548651 593.857936 
L 230.520057 593.917287 
L 231.977166 593.737442 
L 234.40568 593.284835 
L 235.862788 593.281098 
L 240.234114 593.650811 
L 244.60544 593.549956 
L 247.033954 593.561154 
L 250.919577 593.346437 
L 252.862388 593.618457 
L 254.8052 593.866612 
L 256.262308 593.749529 
L 259.662228 593.096144 
L 260.633634 593.16783 
L 262.090742 593.534302 
L 263.547851 593.927726 
L 264.519257 594.027835 
L 265.490662 593.938118 
L 266.947771 593.536471 
L 268.404879 593.133646 
L 269.376285 593.042709 
L 270.347691 593.142571 
L 272.290502 593.684544 
L 273.747611 593.969212 
L 274.719017 593.955222 
L 276.176125 593.667833 
L 278.118936 593.244493 
L 279.576045 593.226767 
L 282.004559 593.627005 
L 283.461668 593.757664 
L 285.404479 593.641821 
L 287.832993 593.483015 
L 293.661428 593.43368 
L 295.604239 593.497325 
L 299.004159 593.830419 
L 300.461268 593.659237 
L 303.375485 593.159538 
L 304.34689 593.220113 
L 305.803999 593.561998 
L 307.74681 594.0189 
L 308.718216 594.031106 
L 309.689622 593.859498 
L 312.603839 593.076226 
L 313.575245 593.076114 
L 315.032353 593.410839 
L 316.975165 593.979585 
L 317.94657 594.067728 
L 318.917976 593.965075 
L 322.803599 593.159114 
L 324.260707 593.352076 
L 326.689222 593.842929 
L 328.14633 593.850373 
L 332.517656 593.447758 
L 336.888981 593.576973 
L 339.317496 593.562828 
L 343.688821 593.748615 
L 347.574444 593.252236 
L 349.031553 593.479835 
L 351.460067 594.048389 
L 352.431473 594.06707 
L 353.402878 593.903258 
L 356.317096 593.107519 
L 357.288501 593.101532 
L 358.259907 593.296119 
L 361.174124 594.141395 
L 362.14553 594.13855 
L 363.116935 593.938544 
L 366.031153 593.14893 
L 367.002558 593.165255 
L 368.459667 593.48825 
L 370.402478 593.968125 
L 371.373884 594.023633 
L 372.830992 593.840953 
L 375.259507 593.418085 
L 376.716615 593.428317 
L 380.602238 593.723487 
L 384.487861 593.692408 
L 386.916375 593.786577 
L 388.859187 593.585379 
L 390.801998 593.357354 
L 392.259107 593.455991 
L 396.144729 594.109822 
L 397.116135 593.95649 
L 400.516055 593.120782 
L 401.487461 593.216864 
L 402.944569 593.678297 
L 404.401678 594.161263 
L 405.373084 594.280016 
L 406.344489 594.168221 
L 407.801598 593.685525 
L 409.258706 593.212514 
L 410.230112 593.110971 
L 411.201518 593.232353 
L 413.144329 593.859056 
L 414.601438 594.176973 
L 415.572843 594.156967 
L 417.029952 593.837116 
L 418.972763 593.388912 
L 420.429872 593.38193 
L 424.801198 593.886209 
L 429.172523 593.726772 
L 431.601038 593.757137 
L 435.972363 593.55525 
L 439.857986 594.152946 
L 440.829392 594.013701 
L 444.229312 593.174052 
L 445.200717 593.265821 
L 446.657826 593.745843 
L 448.114934 594.268404 
L 449.08634 594.40497 
L 450.057746 594.288999 
L 451.514854 593.753582 
L 452.971963 593.209213 
L 453.943369 593.083862 
L 454.914774 593.218186 
L 456.371883 593.761341 
L 457.828991 594.27791 
L 458.800397 594.384148 
L 459.771803 594.251717 
L 463.171723 593.287004 
L 464.143129 593.318129 
L 465.600237 593.643782 
L 467.543049 594.064935 
L 469.000157 594.059376 
L 472.88578 593.679308 
L 476.771403 593.748789 
L 479.199917 593.63849 
L 480.657026 593.800154 
L 483.08554 594.184988 
L 484.056945 594.148682 
L 485.514054 593.807867 
L 487.456865 593.276618 
L 488.428271 593.245078 
L 489.399677 593.444275 
L 492.799597 594.541304 
L 493.771003 594.42121 
L 494.742408 594.056978 
L 496.68522 593.191629 
L 497.656625 593.036273 
L 498.628031 593.18568 
L 500.08514 593.830768 
L 501.542248 594.468471 
L 502.513654 594.609997 
L 503.48506 594.452522 
L 504.942168 593.838298 
L 506.399277 593.273212 
L 507.370682 593.167628 
L 508.342088 593.322204 
L 511.742008 594.339492 
L 512.713414 594.30027 
L 514.656225 593.853157 
L 516.113334 593.608273 
L 517.570442 593.642304 
L 520.484659 593.896616 
L 524.370282 593.8677 
L 527.284499 594.202124 
L 528.255905 594.110473 
L 529.713014 593.725598 
L 531.170122 593.341654 
L 532.141528 593.295642 
L 533.112933 593.491868 
L 534.570042 594.107553 
L 536.027151 594.634918 
L 536.998556 594.671289 
L 537.969962 594.392458 
L 540.884179 592.998619 
L 541.855585 592.981884 
L 542.82699 593.322371 
L 545.741208 594.842937 
L 546.712613 594.842597 
L 547.684019 594.480159 
L 550.112533 593.134932 
L 551.083939 592.976015 
L 552.055345 593.175643 
L 553.512453 593.908864 
L 554.483859 594.392895 
L 555.455265 594.654338 
L 556.42667 594.613731 
L 557.398076 594.319163 
L 559.340887 593.573827 
L 560.312293 593.418442 
L 561.283699 593.477737 
L 565.169322 594.109075 
L 569.054944 593.989424 
L 571.483459 594.17026 
L 572.940567 593.933715 
L 575.369082 593.340756 
L 576.340487 593.39729 
L 577.311893 593.710776 
L 579.740407 594.801433 
L 580.711813 594.860719 
L 581.683219 594.545284 
L 583.140327 593.605027 
L 584.111733 593.015763 
L 585.083139 592.753107 
L 585.568841 592.792847 
L 586.540247 593.213607 
L 589.454464 595.22064 
L 589.940167 595.295217 
L 590.42587 595.237121 
L 591.397276 594.754252 
L 593.82579 592.856778 
L 594.311493 592.668113 
L 594.797196 592.608056 
L 595.282898 592.681646 
L 596.254304 593.181941 
L 598.682818 594.973206 
L 599.168521 595.132526 
L 599.654224 595.172134 
L 600.62563 594.904603 
L 602.082738 593.966129 
L 603.054144 593.367774 
L 604.02555 593.061844 
L 604.996955 593.13145 
L 605.968361 593.497803 
L 607.911173 594.344376 
L 608.882578 594.488487 
L 609.853984 594.398389 
L 612.282498 593.916791 
L 613.739607 593.949717 
L 615.682418 594.093939 
L 616.653824 593.979833 
L 619.568041 593.355408 
L 620.539447 593.527366 
L 621.510852 593.983999 
L 623.453664 595.048326 
L 623.939367 595.158743 
L 624.42507 595.153752 
L 624.910772 595.023475 
L 625.882178 594.416181 
L 627.824989 592.705203 
L 628.310692 592.435194 
L 628.796395 592.309502 
L 629.282098 592.349498 
L 629.767801 592.559733 
L 630.739207 593.419226 
L 632.682018 595.60944 
L 633.167721 595.924565 
L 633.653424 596.055044 
L 634.139127 595.981964 
L 634.624829 595.707218 
L 635.596235 594.664052 
L 637.053344 592.689848 
L 637.539047 592.186863 
L 638.024749 591.857851 
L 638.510452 591.738132 
L 638.996155 591.84173 
L 639.481858 592.159702 
L 640.453264 593.29519 
L 641.910372 595.328358 
L 642.396075 595.821115 
L 642.881778 596.129556 
L 643.367481 596.224537 
L 643.853184 596.099241 
L 644.338886 595.769684 
L 645.310292 594.661963 
L 646.767401 592.800677 
L 647.253104 592.378487 
L 647.738806 592.131287 
L 648.224509 592.077646 
L 648.710212 592.215152 
L 649.681618 592.956851 
L 651.624429 594.916083 
L 652.110132 595.206777 
L 652.595835 595.353649 
L 653.081538 595.352871 
L 654.052943 594.975522 
L 656.481458 593.550263 
L 657.452863 593.445222 
L 658.424269 593.632424 
L 659.881378 593.983711 
L 660.852783 593.967308 
L 662.309892 593.549988 
L 663.281298 593.320645 
L 663.767001 593.323817 
L 664.252703 593.438104 
L 665.224109 594.011695 
L 667.16692 595.691404 
L 667.652623 595.915111 
L 668.138326 595.953889 
L 668.624029 595.777261 
L 669.109732 595.377882 
L 670.081138 594.013628 
L 671.538246 591.553105 
L 672.023949 590.981735 
L 672.509652 590.678549 
L 672.995355 590.701358 
L 673.481058 591.076335 
L 673.96676 591.792607 
L 674.938166 594.015324 
L 676.395275 597.679011 
L 676.880977 598.464429 
L 677.36668 598.842738 
L 677.852383 598.748307 
L 678.338086 598.161916 
L 678.823789 597.115483 
L 679.795195 594.016781 
L 680.7666 590.573586 
L 681.252303 589.160772 
L 681.738006 588.17179 
L 682.223709 587.72868 
L 682.709412 587.902261 
L 683.195115 588.702434 
L 683.680817 590.074537 
L 684.652223 594.017997 
L 685.623629 598.278583 
L 686.109332 599.98795 
L 686.595035 601.158696 
L 687.080737 601.653189 
L 687.56644 601.398444 
L 688.052143 600.395764 
L 688.537846 598.722951 
L 689.509252 594.018971 
L 690.480657 589.044726 
L 690.96636 587.084489 
L 691.452063 585.766001 
L 691.937766 585.23777 
L 692.423469 585.571731 
L 692.909172 586.754126 
L 693.394874 588.685004 
L 694.36628 594.019703 
L 695.337686 599.560788 
L 695.823389 601.711148 
L 696.309092 603.13469 
L 696.794794 603.677459 
L 697.280497 603.271761 
L 697.7662 601.944302 
L 698.251903 599.814825 
L 699.223309 594.020191 
L 700.194714 588.096155 
L 700.680417 585.829063 
L 701.16612 584.350402 
L 701.651823 583.813769 
L 702.137526 584.279686 
L 702.623229 585.708807 
L 703.108931 587.965209 
L 704.080337 594.020435 
L 705.051743 600.11973 
L 705.537446 602.422995 
L 706.023149 603.9036 
L 706.508851 109.4796 
L 706.994554 603.9036 
L 707.480257 602.422995 
L 707.96596 600.11973 
L 710.394474 585.708807 
L 710.880177 584.279686 
L 711.36588 583.813769 
L 711.851583 584.350402 
L 712.337286 585.829063 
L 712.822988 588.096155 
L 715.251503 601.944302 
L 715.737206 603.271761 
L 716.222908 603.677459 
L 716.708611 603.13469 
L 717.194314 601.711148 
L 718.16572 596.907106 
L 719.622828 588.685004 
L 720.108531 586.754126 
L 720.594234 585.571731 
L 721.079937 585.23777 
L 721.56564 585.766001 
L 722.051343 587.084489 
L 723.022748 591.43826 
L 724.479857 598.722951 
L 724.96556 600.395764 
L 725.451263 601.398444 
L 725.936965 601.653189 
L 726.422668 601.158696 
L 726.908371 599.98795 
L 727.879777 596.216984 
L 729.336885 590.074537 
L 729.822588 588.702434 
L 730.308291 587.902261 
L 730.793994 587.72868 
L 731.279697 588.17179 
L 731.7654 589.160772 
L 732.736805 592.251506 
L 733.708211 595.691473 
L 734.193914 597.115483 
L 734.679617 598.161916 
L 735.16532 598.748307 
L 735.651023 598.842738 
L 736.136725 598.464429 
L 736.622428 597.679011 
L 737.593834 595.322282 
L 738.56524 592.800708 
L 739.050942 591.792607 
L 739.536645 591.076335 
L 740.022348 590.701358 
L 740.508051 590.678549 
L 740.993754 590.981735 
L 741.479457 591.553105 
L 743.907971 595.377882 
L 744.393674 595.777261 
L 744.879377 595.953889 
L 745.36508 595.915111 
L 745.850782 595.691404 
L 746.822188 594.891106 
L 747.793594 594.011695 
L 748.764999 593.438104 
L 749.736405 593.320645 
L 750.707811 593.549988 
L 752.164919 593.967308 
L 753.136325 593.983711 
L 754.593434 593.632424 
L 755.564839 593.445222 
L 756.536245 593.550263 
L 757.507651 594.007124 
L 759.450462 595.217613 
L 759.936165 595.352871 
L 760.421868 595.353649 
L 760.907571 595.206777 
L 761.878976 594.502911 
L 763.821788 592.521346 
L 764.307491 592.215152 
L 764.793194 592.077646 
L 765.278896 592.131287 
L 765.764599 592.378487 
L 766.736005 593.359732 
L 768.678816 595.769684 
L 769.164519 596.099241 
L 769.650222 596.224537 
L 770.135925 596.129556 
L 770.621628 595.821115 
L 771.593034 594.699848 
L 773.050142 592.660912 
L 773.535845 592.159702 
L 774.021548 591.84173 
L 774.507251 591.738132 
L 774.992953 591.857851 
L 775.478656 592.186863 
L 776.450062 593.314099 
L 777.907171 595.253837 
L 778.392873 595.707218 
L 778.878576 595.981964 
L 779.364279 596.055044 
L 779.849982 595.924565 
L 780.335685 595.60944 
L 781.307091 594.587878 
L 782.764199 592.926641 
L 783.249902 592.559733 
L 783.735605 592.349498 
L 784.221308 592.309502 
L 784.707011 592.435194 
L 785.678416 593.084383 
L 787.621228 594.771657 
L 788.592633 595.153752 
L 789.078336 595.158743 
L 790.049742 594.843979 
L 792.478256 593.527366 
L 793.449662 593.355408 
L 794.421068 593.465465 
L 797.335285 594.093939 
L 798.792393 594.004113 
L 800.249502 593.895322 
L 801.70661 594.066471 
L 803.649422 594.468138 
L 804.620827 594.448466 
L 805.592233 594.180855 
L 808.020747 593.13145 
L 808.992153 593.061844 
L 809.963559 593.367774 
L 811.420667 594.30843 
L 812.392073 594.904603 
L 813.363479 595.172134 
L 813.849182 595.132526 
L 814.820587 594.706971 
L 817.734804 592.681646 
L 818.220507 592.608056 
L 818.70621 592.668113 
L 819.677616 593.155644 
L 822.10613 595.050858 
L 822.591833 595.237121 
L 823.077536 595.295217 
L 823.563239 595.22064 
L 824.534644 594.722567 
L 826.963159 592.950531 
L 827.448861 592.792847 
L 827.934564 592.753107 
L 828.90597 593.015763 
L 830.363079 593.945214 
L 831.334484 594.545284 
L 832.30589 594.860719 
L 833.277296 594.801433 
L 834.248701 594.434241 
L 836.191513 593.524859 
L 837.162918 593.33595 
L 838.134324 593.404264 
L 842.019947 594.17501 
L 846.391273 593.9949 
L 848.334084 594.109614 
L 849.791193 593.921583 
L 852.219707 593.423521 
L 853.191113 593.468612 
L 854.162518 593.727148 
L 856.591033 594.613731 
L 857.562438 594.654338 
L 858.533844 594.392895 
L 861.448061 593.033875 
L 862.419467 593.010171 
L 863.390872 593.339329 
L 866.30509 594.842597 
L 867.276495 594.842937 
L 868.247901 594.47928 
L 870.676415 593.112126 
L 871.647821 592.943345 
L 872.619227 593.140165 
L 874.076335 593.888796 
L 875.047741 594.392458 
L 876.019147 594.671289 
L 876.990552 594.634918 
L 877.961958 594.323548 
L 880.390472 593.363959 
L 881.361878 593.289587 
L 882.333284 593.441772 
L 885.247501 594.176369 
L 886.704609 594.146346 
L 890.104529 593.795952 
L 893.990152 593.815262 
L 896.418666 593.590305 
L 897.875775 593.743896 
L 900.789992 594.344404 
L 901.761398 594.281987 
L 903.218506 593.845764 
L 904.675615 593.322204 
L 905.647021 593.167628 
L 906.618426 593.273212 
L 907.589832 593.615055 
L 909.532643 594.452522 
L 910.504049 594.609997 
L 911.475455 594.468471 
L 912.44686 594.076252 
L 914.389672 593.18568 
L 915.361078 593.036273 
L 916.332483 593.191629 
L 917.789592 593.823182 
L 919.2467 594.42121 
L 920.218106 594.541304 
L 921.189512 594.383238 
L 923.132323 593.615672 
L 924.103729 593.317221 
L 925.075135 593.232217 
L 926.04654 593.370387 
L 929.44646 594.187804 
L 930.903569 594.074688 
L 933.817786 593.63849 
L 935.760597 593.713042 
L 937.703409 593.793053 
L 941.589032 593.728888 
L 945.474654 594.064935 
L 946.931763 593.776885 
L 948.874574 593.318129 
L 949.84598 593.287004 
L 950.817386 593.453921 
L 954.217306 594.384148 
L 955.188711 594.27791 
L 956.64582 593.761341 
L 958.102928 593.218186 
L 959.074334 593.083862 
L 960.04574 593.209213 
L 961.502848 593.753582 
L 962.959957 594.288999 
L 963.931363 594.40497 
L 964.902768 594.268404 
L 966.359877 593.745843 
L 967.816985 593.265821 
L 968.788391 593.174052 
L 969.759797 593.301103 
L 973.159717 594.152946 
L 974.131123 594.119283 
L 976.073934 593.730452 
L 977.531043 593.504835 
L 978.988151 593.520098 
L 982.388071 593.778582 
L 986.759397 593.781249 
L 989.187911 593.882683 
L 990.64502 593.707698 
L 993.073534 593.34808 
L 994.044939 593.388912 
L 995.502048 593.700233 
L 997.444859 594.156967 
L 998.416265 594.176973 
L 999.387671 594.003631 
L 1002.301888 593.145279 
L 1003.273294 593.13387 
L 1004.244699 593.339603 
L 1007.158916 594.252354 
L 1008.130322 594.248516 
L 1009.101728 594.027378 
L 1012.015945 593.141777 
L 1012.987351 593.154568 
L 1014.444459 593.511353 
L 1016.387271 594.05435 
L 1017.358676 594.119297 
L 1018.815785 593.907291 
L 1021.244299 593.390278 
L 1022.701408 593.38745 
L 1027.072733 593.779214 
L 1030.958356 593.668672 
L 1033.872573 593.686389 
L 1037.758196 593.418085 
L 1039.215305 593.637133 
L 1041.158116 593.992683 
L 1042.129522 594.016011 
L 1043.58663 593.76663 
L 1046.015145 593.165255 
L 1046.98655 593.14893 
L 1047.957956 593.322249 
L 1050.872173 594.13855 
L 1051.843579 594.141395 
L 1052.814984 593.942404 
L 1055.729202 593.101532 
L 1056.700607 593.107519 
L 1058.157716 593.452917 
L 1060.100527 594.006217 
L 1061.071933 594.081053 
L 1062.043339 593.974104 
L 1065.443259 593.252236 
L 1066.900367 593.336503 
L 1070.300287 593.809094 
L 1072.243099 593.687364 
L 1074.671613 593.538284 
L 1079.528641 593.502816 
L 1081.471453 593.446589 
L 1083.414264 593.657372 
L 1085.357076 593.877996 
L 1086.814184 593.778718 
L 1090.214104 593.159114 
L 1091.18551 593.222425 
L 1092.642618 593.575103 
L 1094.58543 594.0389 
L 1095.556835 594.047594 
L 1096.528241 593.869808 
L 1099.442458 593.076114 
L 1100.413864 593.076226 
L 1101.870972 593.408618 
L 1103.813784 593.966034 
L 1104.78519 594.048984 
L 1105.756595 593.94503 
L 1109.642218 593.159538 
L 1111.099327 593.343491 
L 1113.527841 593.801132 
L 1114.984949 593.802394 
L 1119.356275 593.43368 
L 1123.727601 593.519876 
L 1126.156115 593.512678 
L 1130.041738 593.737621 
L 1131.984549 593.453236 
L 1133.927361 593.197994 
L 1135.384469 593.319185 
L 1138.784389 593.984179 
L 1139.755795 593.910413 
L 1141.212903 593.538873 
L 1142.670012 593.142571 
L 1143.641418 593.042709 
L 1144.612823 593.133646 
L 1146.069932 593.536471 
L 1147.527041 593.938118 
L 1148.498446 594.027835 
L 1149.469852 593.927726 
L 1153.355475 593.096144 
L 1154.812583 593.291134 
L 1157.241098 593.822109 
L 1158.698206 593.838263 
L 1161.12672 593.451437 
L 1162.583829 593.328047 
L 1164.52664 593.440539 
L 1166.955155 593.586682 
L 1172.297886 593.629754 
L 1174.240697 593.627203 
L 1178.612023 593.284835 
L 1180.069132 593.526294 
L 1182.011943 593.888484 
L 1182.983349 593.907389 
L 1184.440457 593.658017 
L 1186.868971 593.085552 
L 1187.840377 593.075466 
L 1189.297486 593.375611 
L 1191.240297 593.925077 
L 1191.726 593.995988 
L 1191.726 593.995988 
" clip-path="url(#ped3f90c1e3)" style="fill: none; stroke: #1f77b4; stroke-width: 1.5; stroke-linecap: square"/>
   </g>
   <g id="line2d_17">
    <path d="M 220.806 593.565126 
L 253.348091 593.54176 
L 258.20512 593.503637 
L 262.090742 593.526376 
L 265.976365 593.555757 
L 271.319097 593.511392 
L 275.690422 593.55398 
L 281.033154 593.517253 
L 286.375885 593.52818 
L 296.575645 593.538328 
L 300.94697 593.530098 
L 304.832593 593.493696 
L 309.689622 593.576969 
L 314.060947 593.465039 
L 319.403679 593.581666 
L 323.775005 593.477644 
L 329.117736 593.564392 
L 333.974764 593.527762 
L 344.174524 593.560093 
L 348.54585 593.490629 
L 352.917176 593.639992 
L 358.259907 593.46811 
L 362.14553 593.684532 
L 368.459667 593.515298 
L 371.373884 593.66581 
L 383.516455 593.564524 
L 389.344889 593.520557 
L 391.773404 593.480361 
L 397.116135 593.675639 
L 401.001758 593.387807 
L 402.944569 593.581171 
L 405.373084 593.805383 
L 406.830192 593.716988 
L 410.230112 593.366155 
L 412.172923 593.523943 
L 414.601438 593.783992 
L 416.544249 593.703633 
L 419.458466 593.453247 
L 421.401278 593.526064 
L 424.315495 593.682563 
L 437.429472 593.671024 
L 439.857986 593.820284 
L 441.800797 593.626624 
L 444.229312 593.35588 
L 445.68642 593.460082 
L 449.08634 593.962655 
L 450.543449 593.836048 
L 453.943369 593.299634 
L 455.400477 593.444795 
L 458.314694 593.963891 
L 459.771803 593.909535 
L 463.657426 593.391809 
L 465.114534 593.518892 
L 468.028751 593.841724 
L 469.971563 593.751544 
L 472.400077 593.610722 
L 481.142728 593.741881 
L 483.571243 593.922547 
L 485.028351 593.782429 
L 487.942568 593.345919 
L 489.399677 593.475426 
L 492.799597 594.162007 
L 493.771003 594.089299 
L 495.228111 593.714147 
L 496.68522 593.312527 
L 497.656625 593.21204 
L 498.628031 593.306814 
L 500.08514 593.723261 
L 501.542248 594.140329 
L 502.513654 594.235643 
L 503.48506 594.135122 
L 505.427871 593.584902 
L 506.884979 593.299436 
L 507.856385 593.317625 
L 509.313494 593.613581 
L 511.256305 594.039776 
L 512.713414 594.055401 
L 517.084739 593.579976 
L 521.941768 593.746199 
L 523.884579 593.737765 
L 528.255905 593.950829 
L 530.198716 593.562074 
L 531.655825 593.351811 
L 532.627231 593.406148 
L 534.084339 593.790216 
L 536.027151 594.355315 
L 536.998556 594.385469 
L 537.969962 594.178421 
L 540.884179 593.124679 
L 541.855585 593.110571 
L 542.82699 593.369948 
L 545.741208 594.544322 
L 546.712613 594.547335 
L 547.684019 594.268515 
L 550.112533 593.219126 
L 551.083939 593.093119 
L 552.055345 593.249354 
L 553.512453 593.8295 
L 554.969562 594.349077 
L 555.940967 594.441259 
L 556.912373 594.298988 
L 560.312293 593.43883 
L 561.769402 593.561544 
L 564.197916 593.978543 
L 565.655025 593.984116 
L 568.569242 593.876121 
L 571.969162 594.029933 
L 573.42627 593.752923 
L 575.369082 593.36947 
L 576.340487 593.416942 
L 577.311893 593.682787 
L 579.740407 594.615441 
L 580.711813 594.668896 
L 581.683219 594.400913 
L 583.140327 593.59402 
L 584.111733 593.085293 
L 585.083139 592.85688 
L 586.054544 593.02661 
L 587.02595 593.553825 
L 588.968761 594.833488 
L 589.940167 595.075247 
L 590.42587 595.026062 
L 591.397276 594.605149 
L 593.82579 592.934686 
L 594.797196 592.713181 
L 595.768601 592.952843 
L 596.740007 593.551929 
L 598.197116 594.579398 
L 599.168521 594.96198 
L 600.139927 594.928656 
L 601.111333 594.519573 
L 603.054144 593.383368 
L 604.02555 593.106852 
L 604.996955 593.169004 
L 605.968361 593.500396 
L 607.911173 594.270619 
L 608.882578 594.403397 
L 609.853984 594.322742 
L 612.768201 593.865123 
L 614.711013 594.014806 
L 616.168121 594.017094 
L 617.62523 593.715118 
L 619.082338 593.391318 
L 620.053744 593.410958 
L 621.02515 593.712392 
L 623.939367 595.05462 
L 624.42507 595.051139 
L 625.396475 594.694935 
L 626.367881 593.96015 
L 627.824989 592.752786 
L 628.310692 592.497674 
L 628.796395 592.378337 
L 629.282098 592.415255 
L 629.767801 592.613069 
L 630.739207 593.424952 
L 632.682018 595.502794 
L 633.167721 595.803377 
L 633.653424 595.928926 
L 634.139127 595.861094 
L 634.624829 595.601281 
L 635.596235 594.610232 
L 637.053344 592.727767 
L 637.539047 592.24677 
L 638.024749 591.931447 
L 638.510452 591.815911 
L 638.996155 591.913971 
L 639.481858 592.217471 
L 640.453264 593.304656 
L 641.910372 595.257472 
L 642.396075 595.732192 
L 642.881778 596.030192 
L 643.367481 596.123099 
L 643.853184 596.00398 
L 644.338886 595.687891 
L 645.310292 594.621816 
L 646.767401 592.82509 
L 647.253104 592.416498 
L 647.738806 592.176742 
L 648.224509 592.124079 
L 648.710212 592.256483 
L 649.681618 592.974194 
L 651.624429 594.876507 
L 652.110132 595.159766 
L 652.595835 595.303436 
L 653.081538 595.303574 
L 654.052943 594.937807 
L 656.481458 593.549678 
L 657.452863 593.44705 
L 658.424269 593.630086 
L 659.881378 593.974287 
L 660.852783 593.958595 
L 662.309892 593.549536 
L 663.281298 593.324268 
L 664.252703 593.439582 
L 665.224109 594.003853 
L 667.16692 595.659682 
L 667.652623 595.880972 
L 668.138326 595.920058 
L 668.624029 595.746681 
L 669.109732 595.353368 
L 670.081138 594.0075 
L 671.538246 591.575921 
L 672.023949 591.010346 
L 672.509652 590.709672 
L 672.995355 590.731353 
L 673.481058 591.101597 
L 673.96676 591.809957 
L 674.938166 594.01071 
L 676.395275 597.643425 
L 676.880977 598.423476 
L 677.36668 598.800088 
L 677.852383 598.707807 
L 678.338086 598.127179 
L 678.823789 597.089511 
L 679.795195 594.013473 
L 680.7666 590.592032 
L 681.252303 589.187019 
L 681.738006 588.20275 
L 682.223709 587.76089 
L 682.709412 587.932259 
L 683.195115 588.727115 
L 683.680817 590.091463 
L 684.652223 594.015784 
L 685.623629 598.259104 
L 686.109332 599.962696 
L 686.595035 601.130285 
L 687.080737 601.624411 
L 687.56644 601.371959 
L 688.052143 600.373836 
L 688.537846 598.707234 
L 689.509252 594.017638 
L 690.480657 589.055471 
L 690.96636 587.099 
L 691.452063 585.78239 
L 691.937766 585.254147 
L 692.423469 585.586401 
L 692.909172 586.765755 
L 693.394874 588.692723 
L 694.36628 594.019029 
L 695.337686 599.553848 
L 695.823389 601.702554 
L 696.309092 603.125517 
L 696.794794 603.66869 
L 697.280497 603.264183 
L 697.7662 601.938445 
L 698.251903 599.810936 
L 699.223309 594.019955 
L 700.194714 588.098082 
L 700.680417 585.831376 
L 701.16612 584.352701 
L 701.651823 583.815761 
L 702.137526 584.281204 
L 702.623229 585.709806 
L 703.108931 587.965743 
L 704.080337 594.020412 
L 705.051743 600.119636 
L 705.537446 602.422949 
L 706.023149 603.903594 
L 706.508851 109.479875 
L 706.994554 603.903547 
L 707.480257 602.422868 
L 707.96596 600.119546 
L 710.394474 585.71009 
L 710.880177 584.281582 
L 711.36588 583.816202 
L 711.851583 584.353159 
L 712.337286 585.831795 
L 712.822988 588.098403 
L 715.251503 601.937756 
L 715.737206 603.263342 
L 716.222908 603.667768 
L 716.708611 603.1246 
L 717.194314 601.701736 
L 718.16572 596.902497 
L 719.622828 588.693316 
L 720.108531 586.766616 
L 720.594234 585.587448 
L 721.079937 585.255275 
L 721.56564 585.783482 
L 722.051343 587.099935 
L 723.022748 591.443899 
L 724.479857 598.706362 
L 724.96556 600.372652 
L 725.451263 601.370567 
L 725.936965 601.622938 
L 726.422668 601.128867 
L 726.908371 599.961466 
L 727.879777 596.204893 
L 729.336885 590.092197 
L 729.822588 588.728163 
L 730.308291 587.933506 
L 730.793994 587.762202 
L 731.279697 588.203985 
L 731.7654 589.188046 
L 732.736805 592.260084 
L 733.708211 595.675803 
L 734.193914 597.088586 
L 734.679617 598.125963 
L 735.16532 598.706415 
L 735.651023 598.798647 
L 736.136725 598.422115 
L 736.622428 597.642262 
L 737.593834 595.305355 
L 738.56524 592.807965 
L 739.050942 591.810481 
L 739.536645 591.102348 
L 740.022348 590.732232 
L 740.508051 590.710571 
L 740.993754 591.01116 
L 741.479457 591.576561 
L 743.907971 595.352726 
L 744.393674 595.745891 
L 744.879377 595.919195 
L 745.36508 595.880112 
L 745.850782 595.658893 
L 746.822188 594.869595 
L 747.793594 594.003668 
L 748.764999 593.439616 
L 749.736405 593.324349 
L 750.707811 593.549526 
L 752.164919 593.958409 
L 753.136325 593.97409 
L 754.593434 593.630039 
L 755.564839 593.447087 
L 756.536245 593.549666 
L 757.507651 593.995055 
L 759.450462 595.171965 
L 759.936165 595.302679 
L 760.421868 595.302532 
L 760.907571 595.158928 
L 761.878976 594.474107 
L 763.821788 592.553019 
L 764.307491 592.257175 
L 764.793194 592.12485 
L 765.278896 592.17749 
L 765.764599 592.417119 
L 766.736005 593.365498 
L 768.678816 595.686621 
L 769.164519 596.002512 
L 769.650222 596.121548 
L 770.135925 596.028685 
L 770.621628 595.730854 
L 771.593034 594.652291 
L 773.050142 592.697482 
L 773.535845 592.218301 
L 774.021548 591.915001 
L 774.507251 591.817012 
L 774.992953 591.932481 
L 775.478656 592.247605 
L 776.450062 593.323959 
L 777.907171 595.169915 
L 778.392873 595.599866 
L 778.878576 595.859491 
L 779.364279 595.927265 
L 779.849982 595.801792 
L 780.335685 595.501409 
L 781.307091 594.531379 
L 782.764199 592.959715 
L 783.249902 592.613734 
L 783.735605 592.41607 
L 784.221308 592.379185 
L 784.707011 592.498438 
L 785.678416 593.110595 
L 787.621228 594.694032 
L 788.592633 595.049947 
L 789.564039 594.948993 
L 790.535445 594.505515 
L 791.992553 593.71224 
L 792.963959 593.411052 
L 793.935365 593.39143 
L 795.392473 593.714957 
L 796.849582 594.01667 
L 798.30669 594.014376 
L 800.249502 593.864818 
L 801.70661 594.0205 
L 803.649422 594.384847 
L 804.620827 594.365333 
L 805.592233 594.120696 
L 808.020747 593.169352 
L 808.992153 593.107265 
L 809.963559 593.383509 
L 811.420667 594.228215 
L 812.392073 594.760785 
L 813.363479 594.997385 
L 814.334884 594.816884 
L 815.30629 594.266857 
L 817.249102 592.953456 
L 818.220507 592.714059 
L 818.70621 592.768 
L 819.677616 593.199448 
L 822.10613 594.862768 
L 823.077536 595.073495 
L 824.048941 594.831996 
L 825.020347 594.245589 
L 826.477456 593.254878 
L 827.448861 592.891281 
L 828.420267 592.926086 
L 829.391673 593.317188 
L 831.334484 594.399847 
L 832.30589 594.667492 
L 833.277296 594.614092 
L 834.248701 594.298884 
L 836.191513 593.524962 
L 837.162918 593.365411 
L 838.134324 593.423372 
L 842.019947 594.066947 
L 846.876975 593.94975 
L 848.819787 593.977906 
L 850.762598 593.65526 
L 852.219707 593.442942 
L 853.191113 593.479582 
L 854.648221 593.838795 
L 856.591033 594.394971 
L 857.562438 594.424711 
L 858.533844 594.214366 
L 861.448061 593.13865 
L 862.419467 593.121256 
L 863.390872 593.379922 
L 866.30509 594.545698 
L 867.276495 594.542679 
L 868.247901 594.259519 
L 870.676415 593.209984 
L 871.647821 593.082629 
L 872.619227 593.23334 
L 874.076335 593.799574 
L 875.533444 594.308408 
L 876.504849 594.398762 
L 877.476255 594.256625 
L 880.876175 593.356269 
L 881.847581 593.390628 
L 883.790392 593.779963 
L 885.247501 593.997018 
L 886.704609 593.972797 
L 890.104529 593.717826 
L 893.990152 593.728432 
L 896.904369 593.582801 
L 898.847181 593.835835 
L 900.789992 594.083335 
L 902.247101 593.964702 
L 905.647021 593.286682 
L 906.618426 593.357846 
L 908.075535 593.732081 
L 909.532643 594.133825 
L 910.504049 594.234124 
L 911.475455 594.139006 
L 912.932563 593.722831 
L 914.389672 593.307293 
L 915.361078 593.21273 
L 916.332483 593.312999 
L 918.275295 593.860794 
L 919.732403 594.146558 
L 920.703809 594.129979 
L 922.160917 593.834488 
L 924.103729 593.397675 
L 925.560837 593.373819 
L 927.503649 593.695998 
L 928.960757 593.899094 
L 930.417866 593.893959 
L 934.789192 593.596346 
L 939.160517 593.639405 
L 941.589032 593.639826 
L 945.474654 593.822463 
L 947.417466 593.589942 
L 949.360277 593.392167 
L 950.817386 593.48725 
L 954.217306 593.975841 
L 955.674414 593.845546 
L 959.074334 593.300271 
L 960.531443 593.440787 
L 963.44566 593.949493 
L 964.902768 593.891568 
L 968.788391 593.356385 
L 970.2455 593.479147 
L 973.159717 593.819388 
L 975.102528 593.721737 
L 978.016745 593.506478 
L 992.102128 593.492061 
L 994.044939 593.469819 
L 999.387671 593.713251 
L 1002.787591 593.366719 
L 1004.244699 593.455061 
L 1007.644619 593.804369 
L 1009.587431 593.647605 
L 1012.015945 593.388317 
L 1013.958756 593.467817 
L 1017.358676 593.729234 
L 1019.787191 593.572177 
L 1022.215705 593.470016 
L 1032.901168 593.586206 
L 1040.18671 593.615119 
L 1042.615225 593.648594 
L 1047.957956 593.471634 
L 1051.843579 593.683161 
L 1058.157716 593.508002 
L 1061.071933 593.656001 
L 1064.471853 593.490791 
L 1066.900367 593.483549 
L 1071.757396 593.570074 
L 1078.557236 593.533813 
L 1083.899967 593.5642 
L 1087.299887 593.555022 
L 1091.671213 593.488832 
L 1096.042538 593.600633 
L 1101.38527 593.484798 
L 1105.756595 593.588192 
L 1111.099327 593.499826 
L 1115.956355 593.547597 
L 1122.270492 593.529403 
L 1190.754594 593.548694 
L 1191.726 593.563168 
L 1191.726 593.563168 
" clip-path="url(#ped3f90c1e3)" style="fill: none; stroke: #ff7f0e; stroke-width: 1.5; stroke-linecap: square"/>
   </g>
   <g id="patch_3">
    <path d="M 172.26 628.6248 
L 172.26 84.7584 
" style="fill: none; stroke: #000000; stroke-width: 0.8; stroke-linejoin: miter; stroke-linecap: square"/>
   </g>
   <g id="patch_4">
    <path d="M 1240.272 628.6248 
L 1240.272 84.7584 
" style="fill: none; stroke: #000000; stroke-width: 0.8; stroke-linejoin: miter; stroke-linecap: square"/>
   </g>
   <g id="patch_5">
    <path d="M 172.26 628.6248 
L 1240.272 628.6248 
" style="fill: none; stroke: #000000; stroke-width: 0.8; stroke-linejoin: miter; stroke-linecap: square"/>
   </g>
   <g id="patch_6">
    <path d="M 172.26 84.7584 
L 1240.272 84.7584 
" style="fill: none; stroke: #000000; stroke-width: 0.8; stroke-linejoin: miter; stroke-linecap: square"/>
   </g>
   <g id="text_18">
    <!-- Filter coefficients -->
    <g transform="translate(655.00725 78.7584) scale(0.12 -0.12)">
     <defs>
      <path id="DejaVuSans-46" d="M 628 4666 
L 3309 4666 
L 3309 4134 
L 1259 4134 
L 1259 2759 
L 3109 2759 
L 3109 2228 
L 1259 2228 
L 1259 0 
L 628 0 
L 628 4666 
z
" transform="scale(0.015625)"/>
      <path id="DejaVuSans-72" d="M 2631 2963 
Q 2534 3019 2420 3045 
Q 2306 3072 2169 3072 
Q 1681 3072 1420 2755 
Q 1159 2438 1159 1844 
L 1159 0 
L 581 0 
L 581 3500 
L 1159 3500 
L 1159 2956 
Q 1341 3275 1631 3429 
Q 1922 3584 2338 3584 
Q 2397 3584 2469 3576 
Q 2541 3569 2628 3553 
L 2631 2963 
z
" transform="scale(0.015625)"/>
      <path id="DejaVuSans-20" transform="scale(0.015625)"/>
      <path id="DejaVuSans-63" d="M 3122 3366 
L 3122 2828 
Q 2878 2963 2633 3030 
Q 2388 3097 2138 3097 
Q 1578 3097 1268 2742 
Q 959 2388 959 1747 
Q 959 1106 1268 751 
Q 1578 397 2138 397 
Q 2388 397 2633 464 
Q 2878 531 3122 666 
L 3122 134 
Q 2881 22 2623 -34 
Q 2366 -91 2075 -91 
Q 1284 -91 818 406 
Q 353 903 353 1747 
Q 353 2603 823 3093 
Q 1294 3584 2113 3584 
Q 2378 3584 2631 3529 
Q 2884 3475 3122 3366 
z
" transform="scale(0.015625)"/>
      <path id="DejaVuSans-6f" d="M 1959 3097 
Q 1497 3097 1228 2736 
Q 959 2375 959 1747 
Q 959 1119 1226 758 
Q 1494 397 1959 397 
Q 2419 397 2687 759 
Q 2956 1122 2956 1747 
Q 2956 2369 2687 2733 
Q 2419 3097 1959 3097 
z
M 1959 3584 
Q 2709 3584 3137 3096 
Q 3566 2609 3566 1747 
Q 3566 888 3137 398 
Q 2709 -91 1959 -91 
Q 1206 -91 779 398 
Q 353 888 353 1747 
Q 353 2609 779 3096 
Q 1206 3584 1959 3584 
z
" transform="scale(0.015625)"/>
      <path id="DejaVuSans-66" d="M 2375 4863 
L 2375 4384 
L 1825 4384 
Q 1516 4384 1395 4259 
Q 1275 4134 1275 3809 
L 1275 3500 
L 2222 3500 
L 2222 3053 
L 1275 3053 
L 1275 0 
L 697 0 
L 697 3053 
L 147 3053 
L 147 3500 
L 697 3500 
L 697 3744 
Q 697 4328 969 4595 
Q 1241 4863 1831 4863 
L 2375 4863 
z
" transform="scale(0.015625)"/>
      <path id="DejaVuSans-6e" d="M 3513 2113 
L 3513 0 
L 2938 0 
L 2938 2094 
Q 2938 2591 2744 2837 
Q 2550 3084 2163 3084 
Q 1697 3084 1428 2787 
Q 1159 2491 1159 1978 
L 1159 0 
L 581 0 
L 581 3500 
L 1159 3500 
L 1159 2956 
Q 1366 3272 1645 3428 
Q 1925 3584 2291 3584 
Q 2894 3584 3203 3211 
Q 3513 2838 3513 2113 
z
" transform="scale(0.015625)"/>
      <path id="DejaVuSans-73" d="M 2834 3397 
L 2834 2853 
Q 2591 2978 2328 3040 
Q 2066 3103 1784 3103 
Q 1356 3103 1142 2972 
Q 928 2841 928 2578 
Q 928 2378 1081 2264 
Q 1234 2150 1697 2047 
L 1894 2003 
Q 2506 1872 2764 1633 
Q 3022 1394 3022 966 
Q 3022 478 2636 193 
Q 2250 -91 1575 -91 
Q 1294 -91 989 -36 
Q 684 19 347 128 
L 347 722 
Q 666 556 975 473 
Q 1284 391 1588 391 
Q 1994 391 2212 530 
Q 2431 669 2431 922 
Q 2431 1156 2273 1281 
Q 2116 1406 1581 1522 
L 1381 1569 
Q 847 1681 609 1914 
Q 372 2147 372 2553 
Q 372 3047 722 3315 
Q 1072 3584 1716 3584 
Q 2034 3584 2315 3537 
Q 2597 3491 2834 3397 
z
" transform="scale(0.015625)"/>
     </defs>
     <use xlink:href="#DejaVuSans-46"/>
     <use xlink:href="#DejaVuSans-69" x="50.269531"/>
     <use xlink:href="#DejaVuSans-6c" x="78.052734"/>
     <use xlink:href="#DejaVuSans-74" x="105.835938"/>
     <use xlink:href="#DejaVuSans-65" x="145.044922"/>
     <use xlink:href="#DejaVuSans-72" x="206.568359"/>
     <use xlink:href="#DejaVuSans-20" x="247.681641"/>
     <use xlink:href="#DejaVuSans-63" x="279.46875"/>
     <use xlink:href="#DejaVuSans-6f" x="334.449219"/>
     <use xlink:href="#DejaVuSans-65" x="395.630859"/>
     <use xlink:href="#DejaVuSans-66" x="457.154297"/>
     <use xlink:href="#DejaVuSans-66" x="492.359375"/>
     <use xlink:href="#DejaVuSans-69" x="527.564453"/>
     <use xlink:href="#DejaVuSans-63" x="555.347656"/>
     <use xlink:href="#DejaVuSans-69" x="610.328125"/>
     <use xlink:href="#DejaVuSans-65" x="638.111328"/>
     <use xlink:href="#DejaVuSans-6e" x="699.634766"/>
     <use xlink:href="#DejaVuSans-74" x="763.013672"/>
     <use xlink:href="#DejaVuSans-73" x="802.222656"/>
    </g>
   </g>
   <g id="legend_1">
    <g id="patch_7">
     <path d="M 983.36575 122.11465 
L 1233.272 122.11465 
Q 1235.272 122.11465 1235.272 120.11465 
L 1235.272 91.7584 
Q 1235.272 89.7584 1233.272 89.7584 
L 983.36575 89.7584 
Q 981.36575 89.7584 981.36575 91.7584 
L 981.36575 120.11465 
Q 981.36575 122.11465 983.36575 122.11465 
z
" style="fill: #ffffff; opacity: 0.8; stroke: #cccccc; stroke-linejoin: miter"/>
    </g>
    <g id="line2d_18">
     <path d="M 985.36575 97.856838 
L 995.36575 97.856838 
L 1005.36575 97.856838 
" style="fill: none; stroke: #1f77b4; stroke-width: 1.5; stroke-linecap: square"/>
    </g>
    <g id="text_19">
     <!-- Filter coefficients without hamming window -->
     <g transform="translate(1013.36575 101.356838) scale(0.1 -0.1)">
      <defs>
       <path id="DejaVuSans-77" d="M 269 3500 
L 844 3500 
L 1563 769 
L 2278 3500 
L 2956 3500 
L 3675 769 
L 4391 3500 
L 4966 3500 
L 4050 0 
L 3372 0 
L 2619 2869 
L 1863 0 
L 1184 0 
L 269 3500 
z
" transform="scale(0.015625)"/>
       <path id="DejaVuSans-68" d="M 3513 2113 
L 3513 0 
L 2938 0 
L 2938 2094 
Q 2938 2591 2744 2837 
Q 2550 3084 2163 3084 
Q 1697 3084 1428 2787 
Q 1159 2491 1159 1978 
L 1159 0 
L 581 0 
L 581 4863 
L 1159 4863 
L 1159 2956 
Q 1366 3272 1645 3428 
Q 1925 3584 2291 3584 
Q 2894 3584 3203 3211 
Q 3513 2838 3513 2113 
z
" transform="scale(0.015625)"/>
       <path id="DejaVuSans-67" d="M 2906 1791 
Q 2906 2416 2648 2759 
Q 2391 3103 1925 3103 
Q 1463 3103 1205 2759 
Q 947 2416 947 1791 
Q 947 1169 1205 825 
Q 1463 481 1925 481 
Q 2391 481 2648 825 
Q 2906 1169 2906 1791 
z
M 3481 434 
Q 3481 -459 3084 -895 
Q 2688 -1331 1869 -1331 
Q 1566 -1331 1297 -1286 
Q 1028 -1241 775 -1147 
L 775 -588 
Q 1028 -725 1275 -790 
Q 1522 -856 1778 -856 
Q 2344 -856 2625 -561 
Q 2906 -266 2906 331 
L 2906 616 
Q 2728 306 2450 153 
Q 2172 0 1784 0 
Q 1141 0 747 490 
Q 353 981 353 1791 
Q 353 2603 747 3093 
Q 1141 3584 1784 3584 
Q 2172 3584 2450 3431 
Q 2728 3278 2906 2969 
L 2906 3500 
L 3481 3500 
L 3481 434 
z
" transform="scale(0.015625)"/>
      </defs>
      <use xlink:href="#DejaVuSans-46"/>
      <use xlink:href="#DejaVuSans-69" x="50.269531"/>
      <use xlink:href="#DejaVuSans-6c" x="78.052734"/>
      <use xlink:href="#DejaVuSans-74" x="105.835938"/>
      <use xlink:href="#DejaVuSans-65" x="145.044922"/>
      <use xlink:href="#DejaVuSans-72" x="206.568359"/>
      <use xlink:href="#DejaVuSans-20" x="247.681641"/>
      <use xlink:href="#DejaVuSans-63" x="279.46875"/>
      <use xlink:href="#DejaVuSans-6f" x="334.449219"/>
      <use xlink:href="#DejaVuSans-65" x="395.630859"/>
      <use xlink:href="#DejaVuSans-66" x="457.154297"/>
      <use xlink:href="#DejaVuSans-66" x="492.359375"/>
      <use xlink:href="#DejaVuSans-69" x="527.564453"/>
      <use xlink:href="#DejaVuSans-63" x="555.347656"/>
      <use xlink:href="#DejaVuSans-69" x="610.328125"/>
      <use xlink:href="#DejaVuSans-65" x="638.111328"/>
      <use xlink:href="#DejaVuSans-6e" x="699.634766"/>
      <use xlink:href="#DejaVuSans-74" x="763.013672"/>
      <use xlink:href="#DejaVuSans-73" x="802.222656"/>
      <use xlink:href="#DejaVuSans-20" x="854.322266"/>
      <use xlink:href="#DejaVuSans-77" x="886.109375"/>
      <use xlink:href="#DejaVuSans-69" x="967.896484"/>
      <use xlink:href="#DejaVuSans-74" x="995.679688"/>
      <use xlink:href="#DejaVuSans-68" x="1034.888672"/>
      <use xlink:href="#DejaVuSans-6f" x="1098.267578"/>
      <use xlink:href="#DejaVuSans-75" x="1159.449219"/>
      <use xlink:href="#DejaVuSans-74" x="1222.828125"/>
      <use xlink:href="#DejaVuSans-20" x="1262.037109"/>
      <use xlink:href="#DejaVuSans-68" x="1293.824219"/>
      <use xlink:href="#DejaVuSans-61" x="1357.203125"/>
      <use xlink:href="#DejaVuSans-6d" x="1418.482422"/>
      <use xlink:href="#DejaVuSans-6d" x="1515.894531"/>
      <use xlink:href="#DejaVuSans-69" x="1613.306641"/>
      <use xlink:href="#DejaVuSans-6e" x="1641.089844"/>
      <use xlink:href="#DejaVuSans-67" x="1704.46875"/>
      <use xlink:href="#DejaVuSans-20" x="1767.945312"/>
      <use xlink:href="#DejaVuSans-77" x="1799.732422"/>
      <use xlink:href="#DejaVuSans-69" x="1881.519531"/>
      <use xlink:href="#DejaVuSans-6e" x="1909.302734"/>
      <use xlink:href="#DejaVuSans-64" x="1972.681641"/>
      <use xlink:href="#DejaVuSans-6f" x="2036.158203"/>
      <use xlink:href="#DejaVuSans-77" x="2097.339844"/>
     </g>
    </g>
    <g id="line2d_19">
     <path d="M 985.36575 112.534963 
L 995.36575 112.534963 
L 1005.36575 112.534963 
" style="fill: none; stroke: #ff7f0e; stroke-width: 1.5; stroke-linecap: square"/>
    </g>
    <g id="text_20">
     <!-- Filter coefficients with hamming window -->
     <g transform="translate(1013.36575 116.034963) scale(0.1 -0.1)">
      <use xlink:href="#DejaVuSans-46"/>
      <use xlink:href="#DejaVuSans-69" x="50.269531"/>
      <use xlink:href="#DejaVuSans-6c" x="78.052734"/>
      <use xlink:href="#DejaVuSans-74" x="105.835938"/>
      <use xlink:href="#DejaVuSans-65" x="145.044922"/>
      <use xlink:href="#DejaVuSans-72" x="206.568359"/>
      <use xlink:href="#DejaVuSans-20" x="247.681641"/>
      <use xlink:href="#DejaVuSans-63" x="279.46875"/>
      <use xlink:href="#DejaVuSans-6f" x="334.449219"/>
      <use xlink:href="#DejaVuSans-65" x="395.630859"/>
      <use xlink:href="#DejaVuSans-66" x="457.154297"/>
      <use xlink:href="#DejaVuSans-66" x="492.359375"/>
      <use xlink:href="#DejaVuSans-69" x="527.564453"/>
      <use xlink:href="#DejaVuSans-63" x="555.347656"/>
      <use xlink:href="#DejaVuSans-69" x="610.328125"/>
      <use xlink:href="#DejaVuSans-65" x="638.111328"/>
      <use xlink:href="#DejaVuSans-6e" x="699.634766"/>
      <use xlink:href="#DejaVuSans-74" x="763.013672"/>
      <use xlink:href="#DejaVuSans-73" x="802.222656"/>
      <use xlink:href="#DejaVuSans-20" x="854.322266"/>
      <use xlink:href="#DejaVuSans-77" x="886.109375"/>
      <use xlink:href="#DejaVuSans-69" x="967.896484"/>
      <use xlink:href="#DejaVuSans-74" x="995.679688"/>
      <use xlink:href="#DejaVuSans-68" x="1034.888672"/>
      <use xlink:href="#DejaVuSans-20" x="1098.267578"/>
      <use xlink:href="#DejaVuSans-68" x="1130.054688"/>
      <use xlink:href="#DejaVuSans-61" x="1193.433594"/>
      <use xlink:href="#DejaVuSans-6d" x="1254.712891"/>
      <use xlink:href="#DejaVuSans-6d" x="1352.125"/>
      <use xlink:href="#DejaVuSans-69" x="1449.537109"/>
      <use xlink:href="#DejaVuSans-6e" x="1477.320312"/>
      <use xlink:href="#DejaVuSans-67" x="1540.699219"/>
      <use xlink:href="#DejaVuSans-20" x="1604.175781"/>
      <use xlink:href="#DejaVuSans-77" x="1635.962891"/>
      <use xlink:href="#DejaVuSans-69" x="1717.75"/>
      <use xlink:href="#DejaVuSans-6e" x="1745.533203"/>
      <use xlink:href="#DejaVuSans-64" x="1808.912109"/>
      <use xlink:href="#DejaVuSans-6f" x="1872.388672"/>
      <use xlink:href="#DejaVuSans-77" x="1933.570312"/>
     </g>
    </g>
   </g>
  </g>
 </g>
 <defs>
  <clipPath id="ped3f90c1e3">
   <rect x="172.26" y="84.7584" width="1068.012" height="543.8664"/>
  </clipPath>
 </defs>
</svg>
