<?xml version="1.0" encoding="utf-8" standalone="no"?>
<!DOCTYPE svg PUBLIC "-//W3C//DTD SVG 1.1//EN"
  "http://www.w3.org/Graphics/SVG/1.1/DTD/svg11.dtd">
<svg xmlns:xlink="http://www.w3.org/1999/xlink" width="1382.4pt" height="698.4pt" viewBox="0 0 1382.4 698.4" xmlns="http://www.w3.org/2000/svg" version="1.1">
 <metadata>
  <rdf:RDF xmlns:dc="http://purl.org/dc/elements/1.1/" xmlns:cc="http://creativecommons.org/ns#" xmlns:rdf="http://www.w3.org/1999/02/22-rdf-syntax-ns#">
   <cc:Work>
    <dc:type rdf:resource="http://purl.org/dc/dcmitype/StillImage"/>
    <dc:date>2023-10-26T17:41:39.378421</dc:date>
    <dc:format>image/svg+xml</dc:format>
    <dc:creator>
     <cc:Agent>
      <dc:title>Matplotlib v3.8.0, https://matplotlib.org/</dc:title>
     </cc:Agent>
    </dc:creator>
   </cc:Work>
  </rdf:RDF>
 </metadata>
 <defs>
  <style type="text/css">*{stroke-linejoin: round; stroke-linecap: butt}</style>
 </defs>
 <g id="figure_1">
  <g id="patch_1">
   <path d="M 0 698.4 
L 1382.4 698.4 
L 1382.4 0 
L 0 0 
z
" style="fill: #ffffff"/>
  </g>
  <g id="axes_1">
   <g id="patch_2">
    <path d="M 172.8 621.576 
L 1244.16 621.576 
L 1244.16 83.808 
L 172.8 83.808 
z
" style="fill: #ffffff"/>
   </g>
   <g id="matplotlib.axis_1">
    <g id="xtick_1">
     <g id="line2d_1">
      <defs>
       <path id="m6d4a0af393" d="M 0 0 
L 0 3.5 
" style="stroke: #000000; stroke-width: 0.8"/>
      </defs>
      <g>
       <use xlink:href="#m6d4a0af393" x="221.498182" y="621.576" style="stroke: #000000; stroke-width: 0.8"/>
      </g>
     </g>
     <g id="text_1">
      <!-- 0 -->
      <g transform="translate(218.316932 636.174437) scale(0.1 -0.1)">
       <defs>
        <path id="DejaVuSans-30" d="M 2034 4250 
Q 1547 4250 1301 3770 
Q 1056 3291 1056 2328 
Q 1056 1369 1301 889 
Q 1547 409 2034 409 
Q 2525 409 2770 889 
Q 3016 1369 3016 2328 
Q 3016 3291 2770 3770 
Q 2525 4250 2034 4250 
z
M 2034 4750 
Q 2819 4750 3233 4129 
Q 3647 3509 3647 2328 
Q 3647 1150 3233 529 
Q 2819 -91 2034 -91 
Q 1250 -91 836 529 
Q 422 1150 422 2328 
Q 422 3509 836 4129 
Q 1250 4750 2034 4750 
z
" transform="scale(0.015625)"/>
       </defs>
       <use xlink:href="#DejaVuSans-30"/>
      </g>
     </g>
    </g>
    <g id="xtick_2">
     <g id="line2d_2">
      <g>
       <use xlink:href="#m6d4a0af393" x="343.855423" y="621.576" style="stroke: #000000; stroke-width: 0.8"/>
      </g>
     </g>
     <g id="text_2">
      <!-- 25 -->
      <g transform="translate(337.492923 636.174437) scale(0.1 -0.1)">
       <defs>
        <path id="DejaVuSans-32" d="M 1228 531 
L 3431 531 
L 3431 0 
L 469 0 
L 469 531 
Q 828 903 1448 1529 
Q 2069 2156 2228 2338 
Q 2531 2678 2651 2914 
Q 2772 3150 2772 3378 
Q 2772 3750 2511 3984 
Q 2250 4219 1831 4219 
Q 1534 4219 1204 4116 
Q 875 4013 500 3803 
L 500 4441 
Q 881 4594 1212 4672 
Q 1544 4750 1819 4750 
Q 2544 4750 2975 4387 
Q 3406 4025 3406 3419 
Q 3406 3131 3298 2873 
Q 3191 2616 2906 2266 
Q 2828 2175 2409 1742 
Q 1991 1309 1228 531 
z
" transform="scale(0.015625)"/>
        <path id="DejaVuSans-35" d="M 691 4666 
L 3169 4666 
L 3169 4134 
L 1269 4134 
L 1269 2991 
Q 1406 3038 1543 3061 
Q 1681 3084 1819 3084 
Q 2600 3084 3056 2656 
Q 3513 2228 3513 1497 
Q 3513 744 3044 326 
Q 2575 -91 1722 -91 
Q 1428 -91 1123 -41 
Q 819 9 494 109 
L 494 744 
Q 775 591 1075 516 
Q 1375 441 1709 441 
Q 2250 441 2565 725 
Q 2881 1009 2881 1497 
Q 2881 1984 2565 2268 
Q 2250 2553 1709 2553 
Q 1456 2553 1204 2497 
Q 953 2441 691 2322 
L 691 4666 
z
" transform="scale(0.015625)"/>
       </defs>
       <use xlink:href="#DejaVuSans-32"/>
       <use xlink:href="#DejaVuSans-35" x="63.623047"/>
      </g>
     </g>
    </g>
    <g id="xtick_3">
     <g id="line2d_3">
      <g>
       <use xlink:href="#m6d4a0af393" x="466.212663" y="621.576" style="stroke: #000000; stroke-width: 0.8"/>
      </g>
     </g>
     <g id="text_3">
      <!-- 50 -->
      <g transform="translate(459.850163 636.174437) scale(0.1 -0.1)">
       <use xlink:href="#DejaVuSans-35"/>
       <use xlink:href="#DejaVuSans-30" x="63.623047"/>
      </g>
     </g>
    </g>
    <g id="xtick_4">
     <g id="line2d_4">
      <g>
       <use xlink:href="#m6d4a0af393" x="588.569904" y="621.576" style="stroke: #000000; stroke-width: 0.8"/>
      </g>
     </g>
     <g id="text_4">
      <!-- 75 -->
      <g transform="translate(582.207404 636.174437) scale(0.1 -0.1)">
       <defs>
        <path id="DejaVuSans-37" d="M 525 4666 
L 3525 4666 
L 3525 4397 
L 1831 0 
L 1172 0 
L 2766 4134 
L 525 4134 
L 525 4666 
z
" transform="scale(0.015625)"/>
       </defs>
       <use xlink:href="#DejaVuSans-37"/>
       <use xlink:href="#DejaVuSans-35" x="63.623047"/>
      </g>
     </g>
    </g>
    <g id="xtick_5">
     <g id="line2d_5">
      <g>
       <use xlink:href="#m6d4a0af393" x="710.927145" y="621.576" style="stroke: #000000; stroke-width: 0.8"/>
      </g>
     </g>
     <g id="text_5">
      <!-- 100 -->
      <g transform="translate(701.383395 636.174437) scale(0.1 -0.1)">
       <defs>
        <path id="DejaVuSans-31" d="M 794 531 
L 1825 531 
L 1825 4091 
L 703 3866 
L 703 4441 
L 1819 4666 
L 2450 4666 
L 2450 531 
L 3481 531 
L 3481 0 
L 794 0 
L 794 531 
z
" transform="scale(0.015625)"/>
       </defs>
       <use xlink:href="#DejaVuSans-31"/>
       <use xlink:href="#DejaVuSans-30" x="63.623047"/>
       <use xlink:href="#DejaVuSans-30" x="127.246094"/>
      </g>
     </g>
    </g>
    <g id="xtick_6">
     <g id="line2d_6">
      <g>
       <use xlink:href="#m6d4a0af393" x="833.284386" y="621.576" style="stroke: #000000; stroke-width: 0.8"/>
      </g>
     </g>
     <g id="text_6">
      <!-- 125 -->
      <g transform="translate(823.740636 636.174437) scale(0.1 -0.1)">
       <use xlink:href="#DejaVuSans-31"/>
       <use xlink:href="#DejaVuSans-32" x="63.623047"/>
       <use xlink:href="#DejaVuSans-35" x="127.246094"/>
      </g>
     </g>
    </g>
    <g id="xtick_7">
     <g id="line2d_7">
      <g>
       <use xlink:href="#m6d4a0af393" x="955.641626" y="621.576" style="stroke: #000000; stroke-width: 0.8"/>
      </g>
     </g>
     <g id="text_7">
      <!-- 150 -->
      <g transform="translate(946.097876 636.174437) scale(0.1 -0.1)">
       <use xlink:href="#DejaVuSans-31"/>
       <use xlink:href="#DejaVuSans-35" x="63.623047"/>
       <use xlink:href="#DejaVuSans-30" x="127.246094"/>
      </g>
     </g>
    </g>
    <g id="xtick_8">
     <g id="line2d_8">
      <g>
       <use xlink:href="#m6d4a0af393" x="1077.998867" y="621.576" style="stroke: #000000; stroke-width: 0.8"/>
      </g>
     </g>
     <g id="text_8">
      <!-- 175 -->
      <g transform="translate(1068.455117 636.174437) scale(0.1 -0.1)">
       <use xlink:href="#DejaVuSans-31"/>
       <use xlink:href="#DejaVuSans-37" x="63.623047"/>
       <use xlink:href="#DejaVuSans-35" x="127.246094"/>
      </g>
     </g>
    </g>
    <g id="xtick_9">
     <g id="line2d_9">
      <g>
       <use xlink:href="#m6d4a0af393" x="1200.356108" y="621.576" style="stroke: #000000; stroke-width: 0.8"/>
      </g>
     </g>
     <g id="text_9">
      <!-- 200 -->
      <g transform="translate(1190.812358 636.174437) scale(0.1 -0.1)">
       <use xlink:href="#DejaVuSans-32"/>
       <use xlink:href="#DejaVuSans-30" x="63.623047"/>
       <use xlink:href="#DejaVuSans-30" x="127.246094"/>
      </g>
     </g>
    </g>
   </g>
   <g id="matplotlib.axis_2">
    <g id="ytick_1">
     <g id="line2d_10">
      <defs>
       <path id="mb5d6d45390" d="M 0 0 
L -3.5 0 
" style="stroke: #000000; stroke-width: 0.8"/>
      </defs>
      <g>
       <use xlink:href="#mb5d6d45390" x="172.8" y="583.167378" style="stroke: #000000; stroke-width: 0.8"/>
      </g>
     </g>
     <g id="text_10">
      <!-- 0.0 -->
      <g transform="translate(149.896875 586.966597) scale(0.1 -0.1)">
       <defs>
        <path id="DejaVuSans-2e" d="M 684 794 
L 1344 794 
L 1344 0 
L 684 0 
L 684 794 
z
" transform="scale(0.015625)"/>
       </defs>
       <use xlink:href="#DejaVuSans-30"/>
       <use xlink:href="#DejaVuSans-2e" x="63.623047"/>
       <use xlink:href="#DejaVuSans-30" x="95.410156"/>
      </g>
     </g>
    </g>
    <g id="ytick_2">
     <g id="line2d_11">
      <g>
       <use xlink:href="#mb5d6d45390" x="172.8" y="485.246681" style="stroke: #000000; stroke-width: 0.8"/>
      </g>
     </g>
     <g id="text_11">
      <!-- 0.2 -->
      <g transform="translate(149.896875 489.0459) scale(0.1 -0.1)">
       <use xlink:href="#DejaVuSans-30"/>
       <use xlink:href="#DejaVuSans-2e" x="63.623047"/>
       <use xlink:href="#DejaVuSans-32" x="95.410156"/>
      </g>
     </g>
    </g>
    <g id="ytick_3">
     <g id="line2d_12">
      <g>
       <use xlink:href="#mb5d6d45390" x="172.8" y="387.325985" style="stroke: #000000; stroke-width: 0.8"/>
      </g>
     </g>
     <g id="text_12">
      <!-- 0.4 -->
      <g transform="translate(149.896875 391.125204) scale(0.1 -0.1)">
       <defs>
        <path id="DejaVuSans-34" d="M 2419 4116 
L 825 1625 
L 2419 1625 
L 2419 4116 
z
M 2253 4666 
L 3047 4666 
L 3047 1625 
L 3713 1625 
L 3713 1100 
L 3047 1100 
L 3047 0 
L 2419 0 
L 2419 1100 
L 313 1100 
L 313 1709 
L 2253 4666 
z
" transform="scale(0.015625)"/>
       </defs>
       <use xlink:href="#DejaVuSans-30"/>
       <use xlink:href="#DejaVuSans-2e" x="63.623047"/>
       <use xlink:href="#DejaVuSans-34" x="95.410156"/>
      </g>
     </g>
    </g>
    <g id="ytick_4">
     <g id="line2d_13">
      <g>
       <use xlink:href="#mb5d6d45390" x="172.8" y="289.405288" style="stroke: #000000; stroke-width: 0.8"/>
      </g>
     </g>
     <g id="text_13">
      <!-- 0.6 -->
      <g transform="translate(149.896875 293.204507) scale(0.1 -0.1)">
       <defs>
        <path id="DejaVuSans-36" d="M 2113 2584 
Q 1688 2584 1439 2293 
Q 1191 2003 1191 1497 
Q 1191 994 1439 701 
Q 1688 409 2113 409 
Q 2538 409 2786 701 
Q 3034 994 3034 1497 
Q 3034 2003 2786 2293 
Q 2538 2584 2113 2584 
z
M 3366 4563 
L 3366 3988 
Q 3128 4100 2886 4159 
Q 2644 4219 2406 4219 
Q 1781 4219 1451 3797 
Q 1122 3375 1075 2522 
Q 1259 2794 1537 2939 
Q 1816 3084 2150 3084 
Q 2853 3084 3261 2657 
Q 3669 2231 3669 1497 
Q 3669 778 3244 343 
Q 2819 -91 2113 -91 
Q 1303 -91 875 529 
Q 447 1150 447 2328 
Q 447 3434 972 4092 
Q 1497 4750 2381 4750 
Q 2619 4750 2861 4703 
Q 3103 4656 3366 4563 
z
" transform="scale(0.015625)"/>
       </defs>
       <use xlink:href="#DejaVuSans-30"/>
       <use xlink:href="#DejaVuSans-2e" x="63.623047"/>
       <use xlink:href="#DejaVuSans-36" x="95.410156"/>
      </g>
     </g>
    </g>
    <g id="ytick_5">
     <g id="line2d_14">
      <g>
       <use xlink:href="#mb5d6d45390" x="172.8" y="191.484592" style="stroke: #000000; stroke-width: 0.8"/>
      </g>
     </g>
     <g id="text_14">
      <!-- 0.8 -->
      <g transform="translate(149.896875 195.283811) scale(0.1 -0.1)">
       <defs>
        <path id="DejaVuSans-38" d="M 2034 2216 
Q 1584 2216 1326 1975 
Q 1069 1734 1069 1313 
Q 1069 891 1326 650 
Q 1584 409 2034 409 
Q 2484 409 2743 651 
Q 3003 894 3003 1313 
Q 3003 1734 2745 1975 
Q 2488 2216 2034 2216 
z
M 1403 2484 
Q 997 2584 770 2862 
Q 544 3141 544 3541 
Q 544 4100 942 4425 
Q 1341 4750 2034 4750 
Q 2731 4750 3128 4425 
Q 3525 4100 3525 3541 
Q 3525 3141 3298 2862 
Q 3072 2584 2669 2484 
Q 3125 2378 3379 2068 
Q 3634 1759 3634 1313 
Q 3634 634 3220 271 
Q 2806 -91 2034 -91 
Q 1263 -91 848 271 
Q 434 634 434 1313 
Q 434 1759 690 2068 
Q 947 2378 1403 2484 
z
M 1172 3481 
Q 1172 3119 1398 2916 
Q 1625 2713 2034 2713 
Q 2441 2713 2670 2916 
Q 2900 3119 2900 3481 
Q 2900 3844 2670 4047 
Q 2441 4250 2034 4250 
Q 1625 4250 1398 4047 
Q 1172 3844 1172 3481 
z
" transform="scale(0.015625)"/>
       </defs>
       <use xlink:href="#DejaVuSans-30"/>
       <use xlink:href="#DejaVuSans-2e" x="63.623047"/>
       <use xlink:href="#DejaVuSans-38" x="95.410156"/>
      </g>
     </g>
    </g>
    <g id="ytick_6">
     <g id="line2d_15">
      <g>
       <use xlink:href="#mb5d6d45390" x="172.8" y="93.563896" style="stroke: #000000; stroke-width: 0.8"/>
      </g>
     </g>
     <g id="text_15">
      <!-- 1.0 -->
      <g transform="translate(149.896875 97.363114) scale(0.1 -0.1)">
       <use xlink:href="#DejaVuSans-31"/>
       <use xlink:href="#DejaVuSans-2e" x="63.623047"/>
       <use xlink:href="#DejaVuSans-30" x="95.410156"/>
      </g>
     </g>
    </g>
   </g>
   <g id="line2d_16">
    <path d="M 221.498182 578.271343 
L 226.392471 578.515567 
L 231.286761 579.222035 
L 236.181051 580.315104 
L 241.07534 581.67828 
L 250.86392 584.626739 
L 255.758209 585.906581 
L 260.652499 586.879471 
L 265.546788 587.454006 
L 270.441078 587.584155 
L 275.335368 587.273217 
L 280.229657 586.572046 
L 285.123947 585.571821 
L 299.806816 582.028705 
L 304.701106 581.091079 
L 309.595395 580.439629 
L 314.489685 580.121338 
L 319.383974 580.141462 
L 324.278264 580.465219 
L 329.172554 581.024385 
L 343.855423 583.167378 
L 348.749712 583.725802 
L 353.644002 584.09583 
L 358.538291 584.256044 
L 363.432581 584.21886 
L 373.22116 583.745549 
L 383.00974 583.219417 
L 387.904029 583.112166 
L 392.798319 583.167378 
L 397.692608 583.391963 
L 407.481188 584.212089 
L 417.269767 585.037497 
L 422.164057 585.225592 
L 427.058346 585.158244 
L 431.952636 584.789642 
L 436.846926 584.113336 
L 441.741215 583.167378 
L 456.424084 579.703826 
L 461.318374 578.803495 
L 466.212663 578.271343 
L 471.106953 578.21845 
L 476.001243 578.708979 
L 480.895532 579.747908 
L 485.789822 581.275172 
L 490.684111 583.167378 
L 500.472691 587.300748 
L 505.36698 589.098462 
L 510.26127 590.421975 
L 515.15556 591.089329 
L 520.049849 590.978386 
L 524.944139 590.044618 
L 529.838429 588.331033 
L 534.732718 585.968708 
L 539.627008 583.167378 
L 544.521297 580.196674 
L 549.415587 577.359705 
L 554.309877 574.961609 
L 559.204166 573.276395 
L 564.098456 572.515709 
L 568.992746 572.803084 
L 573.887035 574.156761 
L 578.781325 576.483292 
L 583.675614 579.583038 
L 598.358483 590.36256 
L 603.252773 593.232321 
L 608.147063 595.182348 
L 613.041352 595.985363 
L 617.935642 595.526229 
L 622.829931 593.817077 
L 627.724221 590.999311 
L 632.618511 587.331966 
L 642.40709 578.916489 
L 647.30138 575.007301 
L 652.195669 571.840759 
L 657.089959 569.748727 
L 661.984249 568.958531 
L 666.878538 569.567938 
L 671.772828 571.533334 
L 676.667117 574.672541 
L 681.561407 578.682101 
L 691.349986 587.682391 
L 696.244276 591.775285 
L 701.138566 595.034672 
L 706.032855 597.132 
L 710.927145 108.252 
L 715.821434 597.132 
L 720.715724 595.034672 
L 725.610014 591.775285 
L 730.504303 587.682391 
L 740.292883 578.682101 
L 745.187172 574.672541 
L 750.081462 571.533334 
L 754.975751 569.567938 
L 759.870041 568.958531 
L 764.764331 569.748727 
L 769.65862 571.840759 
L 774.55291 575.007301 
L 779.4472 578.916489 
L 789.235779 587.331966 
L 794.130069 590.999311 
L 799.024358 593.817077 
L 803.918648 595.526229 
L 808.812937 595.985363 
L 813.707227 595.182348 
L 818.601517 593.232321 
L 823.495806 590.36256 
L 828.390096 586.886134 
L 838.178675 579.583038 
L 843.072965 576.483292 
L 847.967254 574.156761 
L 852.861544 572.803084 
L 857.755834 572.515709 
L 862.650123 573.276395 
L 867.544413 574.961609 
L 872.438703 577.359705 
L 877.332992 580.196674 
L 882.227282 583.167378 
L 887.121571 585.968708 
L 892.015861 588.331033 
L 896.910151 590.044618 
L 901.80444 590.978386 
L 906.69873 591.089329 
L 911.59302 590.421975 
L 916.487309 589.098462 
L 921.381599 587.300748 
L 931.170178 583.167378 
L 936.064468 581.275172 
L 940.958757 579.747908 
L 945.853047 578.708979 
L 950.747337 578.21845 
L 955.641626 578.271343 
L 960.535916 578.803495 
L 965.430206 579.703826 
L 985.007364 584.113336 
L 989.901654 584.789642 
L 994.795943 585.158244 
L 999.690233 585.225592 
L 1004.584523 585.037497 
L 1014.373102 584.212089 
L 1024.161681 583.391963 
L 1029.055971 583.167378 
L 1033.95026 583.112166 
L 1038.84455 583.219417 
L 1048.633129 583.745549 
L 1058.421709 584.21886 
L 1063.315998 584.256044 
L 1068.210288 584.09583 
L 1073.104577 583.725802 
L 1077.998867 583.167378 
L 1097.576026 580.465219 
L 1102.470315 580.141462 
L 1107.364605 580.121338 
L 1112.258894 580.439629 
L 1117.153184 581.091079 
L 1122.047474 582.028705 
L 1131.836053 584.39235 
L 1136.730343 585.571821 
L 1141.624632 586.572046 
L 1146.518922 587.273217 
L 1151.413212 587.584155 
L 1156.307501 587.454006 
L 1161.201791 586.879471 
L 1166.09608 585.906581 
L 1170.99037 584.626739 
L 1185.673239 580.315104 
L 1190.567529 579.222035 
L 1195.461818 578.515567 
L 1195.461818 578.515567 
" clip-path="url(#pfef9cfdcfd)" style="fill: none; stroke: #1f77b4; stroke-width: 1.5; stroke-linecap: square"/>
   </g>
   <g id="line2d_17">
    <path d="M 221.498182 582.775695 
L 236.181051 582.933314 
L 270.441078 583.621153 
L 280.229657 583.550826 
L 294.912526 583.167378 
L 309.595395 582.751911 
L 319.383974 582.656882 
L 329.172554 582.767529 
L 358.538291 583.437753 
L 368.326871 583.40066 
L 387.904029 583.149679 
L 397.692608 583.245199 
L 412.375477 583.748348 
L 422.164057 584.020561 
L 427.058346 584.020582 
L 431.952636 583.885561 
L 436.846926 583.599629 
L 441.741215 583.167378 
L 451.529794 581.99904 
L 461.318374 580.858412 
L 466.212663 580.505742 
L 471.106953 580.405132 
L 476.001243 580.61427 
L 480.895532 581.159738 
L 485.789822 582.029137 
L 490.684111 583.167378 
L 505.36698 587.072832 
L 510.26127 588.045694 
L 515.15556 588.604096 
L 520.049849 588.634928 
L 524.944139 588.074394 
L 529.838429 586.920723 
L 534.732718 585.240513 
L 539.627008 583.167378 
L 549.415587 578.647069 
L 554.309877 576.679606 
L 559.204166 575.228012 
L 564.098456 574.491837 
L 568.992746 574.606539 
L 573.887035 575.623467 
L 578.781325 577.498205 
L 583.675614 580.089192 
L 588.569904 583.167378 
L 593.464194 586.43646 
L 598.358483 589.561904 
L 603.252773 592.205895 
L 608.147063 594.064466 
L 613.041352 594.902664 
L 617.935642 594.583646 
L 622.829931 593.088095 
L 627.724221 590.521371 
L 632.618511 587.107096 
L 647.30138 575.295871 
L 652.195669 572.180463 
L 657.089959 570.084841 
L 661.984249 569.250361 
L 666.878538 569.791878 
L 671.772828 571.682684 
L 676.667117 574.754546 
L 681.561407 578.713133 
L 691.349986 587.669723 
L 696.244276 591.762956 
L 701.138566 595.028551 
L 706.032855 597.1312 
L 710.927145 108.279223 
L 715.821434 597.124797 
L 720.715724 595.017674 
L 725.610014 591.751132 
L 730.504303 587.661463 
L 740.292883 578.7254 
L 745.187172 574.781592 
L 750.081462 571.724911 
L 754.975751 569.847251 
L 759.870041 569.314439 
L 764.764331 570.151174 
L 769.65862 572.241309 
L 774.55291 575.343161 
L 779.4472 579.117861 
L 789.235779 587.077824 
L 794.130069 590.463207 
L 799.024358 593.004848 
L 803.918648 594.482312 
L 808.812937 594.792767 
L 813.707227 593.957058 
L 818.601517 592.112328 
L 823.495806 589.492514 
L 828.390096 586.399339 
L 833.284386 583.167378 
L 838.178675 580.127285 
L 843.072965 577.571296 
L 847.967254 575.724667 
L 852.861544 574.725897 
L 857.755834 574.617419 
L 862.650123 575.347216 
L 867.544413 576.78055 
L 872.438703 578.719893 
L 882.227282 583.167378 
L 887.121571 585.203602 
L 892.015861 586.851725 
L 896.910151 587.981309 
L 901.80444 588.527958 
L 906.69873 588.494452 
L 911.59302 587.944328 
L 916.487309 586.989258 
L 926.275889 584.448428 
L 931.170178 583.167378 
L 936.064468 582.056426 
L 940.958757 581.209214 
L 945.853047 580.678922 
L 950.747337 580.476987 
L 955.641626 580.576846 
L 960.535916 580.921741 
L 970.324495 582.032791 
L 980.113074 583.167378 
L 985.007364 583.586157 
L 989.901654 583.862614 
L 994.795943 583.992644 
L 1004.584523 583.89083 
L 1029.055971 583.167378 
L 1038.84455 583.182755 
L 1063.315998 583.425686 
L 1073.104577 583.288007 
L 1097.576026 582.711503 
L 1107.364605 582.703432 
L 1122.047474 583.01863 
L 1141.624632 583.533264 
L 1151.413212 583.602199 
L 1166.09608 583.409057 
L 1195.461818 582.795233 
L 1195.461818 582.795233 
" clip-path="url(#pfef9cfdcfd)" style="fill: none; stroke: #ff7f0e; stroke-width: 1.5; stroke-linecap: square"/>
   </g>
   <g id="patch_3">
    <path d="M 172.8 621.576 
L 172.8 83.808 
" style="fill: none; stroke: #000000; stroke-width: 0.8; stroke-linejoin: miter; stroke-linecap: square"/>
   </g>
   <g id="patch_4">
    <path d="M 1244.16 621.576 
L 1244.16 83.808 
" style="fill: none; stroke: #000000; stroke-width: 0.8; stroke-linejoin: miter; stroke-linecap: square"/>
   </g>
   <g id="patch_5">
    <path d="M 172.8 621.576 
L 1244.16 621.576 
" style="fill: none; stroke: #000000; stroke-width: 0.8; stroke-linejoin: miter; stroke-linecap: square"/>
   </g>
   <g id="patch_6">
    <path d="M 172.8 83.808 
L 1244.16 83.808 
" style="fill: none; stroke: #000000; stroke-width: 0.8; stroke-linejoin: miter; stroke-linecap: square"/>
   </g>
   <g id="legend_1">
    <g id="patch_7">
     <path d="M 1065.858437 121.16425 
L 1237.16 121.16425 
Q 1239.16 121.16425 1239.16 119.16425 
L 1239.16 90.808 
Q 1239.16 88.808 1237.16 88.808 
L 1065.858437 88.808 
Q 1063.858437 88.808 1063.858437 90.808 
L 1063.858437 119.16425 
Q 1063.858437 121.16425 1065.858437 121.16425 
z
" style="fill: #ffffff; opacity: 0.8; stroke: #cccccc; stroke-linejoin: miter"/>
    </g>
    <g id="line2d_18">
     <path d="M 1067.858437 96.906437 
L 1077.858437 96.906437 
L 1087.858437 96.906437 
" style="fill: none; stroke: #1f77b4; stroke-width: 1.5; stroke-linecap: square"/>
    </g>
    <g id="text_16">
     <!--  Before Frequency response -->
     <g transform="translate(1095.858437 100.406437) scale(0.1 -0.1)">
      <defs>
       <path id="DejaVuSans-20" transform="scale(0.015625)"/>
       <path id="DejaVuSans-42" d="M 1259 2228 
L 1259 519 
L 2272 519 
Q 2781 519 3026 730 
Q 3272 941 3272 1375 
Q 3272 1813 3026 2020 
Q 2781 2228 2272 2228 
L 1259 2228 
z
M 1259 4147 
L 1259 2741 
L 2194 2741 
Q 2656 2741 2882 2914 
Q 3109 3088 3109 3444 
Q 3109 3797 2882 3972 
Q 2656 4147 2194 4147 
L 1259 4147 
z
M 628 4666 
L 2241 4666 
Q 2963 4666 3353 4366 
Q 3744 4066 3744 3513 
Q 3744 3084 3544 2831 
Q 3344 2578 2956 2516 
Q 3422 2416 3680 2098 
Q 3938 1781 3938 1306 
Q 3938 681 3513 340 
Q 3088 0 2303 0 
L 628 0 
L 628 4666 
z
" transform="scale(0.015625)"/>
       <path id="DejaVuSans-65" d="M 3597 1894 
L 3597 1613 
L 953 1613 
Q 991 1019 1311 708 
Q 1631 397 2203 397 
Q 2534 397 2845 478 
Q 3156 559 3463 722 
L 3463 178 
Q 3153 47 2828 -22 
Q 2503 -91 2169 -91 
Q 1331 -91 842 396 
Q 353 884 353 1716 
Q 353 2575 817 3079 
Q 1281 3584 2069 3584 
Q 2775 3584 3186 3129 
Q 3597 2675 3597 1894 
z
M 3022 2063 
Q 3016 2534 2758 2815 
Q 2500 3097 2075 3097 
Q 1594 3097 1305 2825 
Q 1016 2553 972 2059 
L 3022 2063 
z
" transform="scale(0.015625)"/>
       <path id="DejaVuSans-66" d="M 2375 4863 
L 2375 4384 
L 1825 4384 
Q 1516 4384 1395 4259 
Q 1275 4134 1275 3809 
L 1275 3500 
L 2222 3500 
L 2222 3053 
L 1275 3053 
L 1275 0 
L 697 0 
L 697 3053 
L 147 3053 
L 147 3500 
L 697 3500 
L 697 3744 
Q 697 4328 969 4595 
Q 1241 4863 1831 4863 
L 2375 4863 
z
" transform="scale(0.015625)"/>
       <path id="DejaVuSans-6f" d="M 1959 3097 
Q 1497 3097 1228 2736 
Q 959 2375 959 1747 
Q 959 1119 1226 758 
Q 1494 397 1959 397 
Q 2419 397 2687 759 
Q 2956 1122 2956 1747 
Q 2956 2369 2687 2733 
Q 2419 3097 1959 3097 
z
M 1959 3584 
Q 2709 3584 3137 3096 
Q 3566 2609 3566 1747 
Q 3566 888 3137 398 
Q 2709 -91 1959 -91 
Q 1206 -91 779 398 
Q 353 888 353 1747 
Q 353 2609 779 3096 
Q 1206 3584 1959 3584 
z
" transform="scale(0.015625)"/>
       <path id="DejaVuSans-72" d="M 2631 2963 
Q 2534 3019 2420 3045 
Q 2306 3072 2169 3072 
Q 1681 3072 1420 2755 
Q 1159 2438 1159 1844 
L 1159 0 
L 581 0 
L 581 3500 
L 1159 3500 
L 1159 2956 
Q 1341 3275 1631 3429 
Q 1922 3584 2338 3584 
Q 2397 3584 2469 3576 
Q 2541 3569 2628 3553 
L 2631 2963 
z
" transform="scale(0.015625)"/>
       <path id="DejaVuSans-46" d="M 628 4666 
L 3309 4666 
L 3309 4134 
L 1259 4134 
L 1259 2759 
L 3109 2759 
L 3109 2228 
L 1259 2228 
L 1259 0 
L 628 0 
L 628 4666 
z
" transform="scale(0.015625)"/>
       <path id="DejaVuSans-71" d="M 947 1747 
Q 947 1113 1208 752 
Q 1469 391 1925 391 
Q 2381 391 2643 752 
Q 2906 1113 2906 1747 
Q 2906 2381 2643 2742 
Q 2381 3103 1925 3103 
Q 1469 3103 1208 2742 
Q 947 2381 947 1747 
z
M 2906 525 
Q 2725 213 2448 61 
Q 2172 -91 1784 -91 
Q 1150 -91 751 415 
Q 353 922 353 1747 
Q 353 2572 751 3078 
Q 1150 3584 1784 3584 
Q 2172 3584 2448 3432 
Q 2725 3281 2906 2969 
L 2906 3500 
L 3481 3500 
L 3481 -1331 
L 2906 -1331 
L 2906 525 
z
" transform="scale(0.015625)"/>
       <path id="DejaVuSans-75" d="M 544 1381 
L 544 3500 
L 1119 3500 
L 1119 1403 
Q 1119 906 1312 657 
Q 1506 409 1894 409 
Q 2359 409 2629 706 
Q 2900 1003 2900 1516 
L 2900 3500 
L 3475 3500 
L 3475 0 
L 2900 0 
L 2900 538 
Q 2691 219 2414 64 
Q 2138 -91 1772 -91 
Q 1169 -91 856 284 
Q 544 659 544 1381 
z
M 1991 3584 
L 1991 3584 
z
" transform="scale(0.015625)"/>
       <path id="DejaVuSans-6e" d="M 3513 2113 
L 3513 0 
L 2938 0 
L 2938 2094 
Q 2938 2591 2744 2837 
Q 2550 3084 2163 3084 
Q 1697 3084 1428 2787 
Q 1159 2491 1159 1978 
L 1159 0 
L 581 0 
L 581 3500 
L 1159 3500 
L 1159 2956 
Q 1366 3272 1645 3428 
Q 1925 3584 2291 3584 
Q 2894 3584 3203 3211 
Q 3513 2838 3513 2113 
z
" transform="scale(0.015625)"/>
       <path id="DejaVuSans-63" d="M 3122 3366 
L 3122 2828 
Q 2878 2963 2633 3030 
Q 2388 3097 2138 3097 
Q 1578 3097 1268 2742 
Q 959 2388 959 1747 
Q 959 1106 1268 751 
Q 1578 397 2138 397 
Q 2388 397 2633 464 
Q 2878 531 3122 666 
L 3122 134 
Q 2881 22 2623 -34 
Q 2366 -91 2075 -91 
Q 1284 -91 818 406 
Q 353 903 353 1747 
Q 353 2603 823 3093 
Q 1294 3584 2113 3584 
Q 2378 3584 2631 3529 
Q 2884 3475 3122 3366 
z
" transform="scale(0.015625)"/>
       <path id="DejaVuSans-79" d="M 2059 -325 
Q 1816 -950 1584 -1140 
Q 1353 -1331 966 -1331 
L 506 -1331 
L 506 -850 
L 844 -850 
Q 1081 -850 1212 -737 
Q 1344 -625 1503 -206 
L 1606 56 
L 191 3500 
L 800 3500 
L 1894 763 
L 2988 3500 
L 3597 3500 
L 2059 -325 
z
" transform="scale(0.015625)"/>
       <path id="DejaVuSans-73" d="M 2834 3397 
L 2834 2853 
Q 2591 2978 2328 3040 
Q 2066 3103 1784 3103 
Q 1356 3103 1142 2972 
Q 928 2841 928 2578 
Q 928 2378 1081 2264 
Q 1234 2150 1697 2047 
L 1894 2003 
Q 2506 1872 2764 1633 
Q 3022 1394 3022 966 
Q 3022 478 2636 193 
Q 2250 -91 1575 -91 
Q 1294 -91 989 -36 
Q 684 19 347 128 
L 347 722 
Q 666 556 975 473 
Q 1284 391 1588 391 
Q 1994 391 2212 530 
Q 2431 669 2431 922 
Q 2431 1156 2273 1281 
Q 2116 1406 1581 1522 
L 1381 1569 
Q 847 1681 609 1914 
Q 372 2147 372 2553 
Q 372 3047 722 3315 
Q 1072 3584 1716 3584 
Q 2034 3584 2315 3537 
Q 2597 3491 2834 3397 
z
" transform="scale(0.015625)"/>
       <path id="DejaVuSans-70" d="M 1159 525 
L 1159 -1331 
L 581 -1331 
L 581 3500 
L 1159 3500 
L 1159 2969 
Q 1341 3281 1617 3432 
Q 1894 3584 2278 3584 
Q 2916 3584 3314 3078 
Q 3713 2572 3713 1747 
Q 3713 922 3314 415 
Q 2916 -91 2278 -91 
Q 1894 -91 1617 61 
Q 1341 213 1159 525 
z
M 3116 1747 
Q 3116 2381 2855 2742 
Q 2594 3103 2138 3103 
Q 1681 3103 1420 2742 
Q 1159 2381 1159 1747 
Q 1159 1113 1420 752 
Q 1681 391 2138 391 
Q 2594 391 2855 752 
Q 3116 1113 3116 1747 
z
" transform="scale(0.015625)"/>
      </defs>
      <use xlink:href="#DejaVuSans-20"/>
      <use xlink:href="#DejaVuSans-42" x="31.787109"/>
      <use xlink:href="#DejaVuSans-65" x="100.390625"/>
      <use xlink:href="#DejaVuSans-66" x="161.914062"/>
      <use xlink:href="#DejaVuSans-6f" x="197.119141"/>
      <use xlink:href="#DejaVuSans-72" x="258.300781"/>
      <use xlink:href="#DejaVuSans-65" x="297.164062"/>
      <use xlink:href="#DejaVuSans-20" x="358.6875"/>
      <use xlink:href="#DejaVuSans-46" x="390.474609"/>
      <use xlink:href="#DejaVuSans-72" x="440.744141"/>
      <use xlink:href="#DejaVuSans-65" x="479.607422"/>
      <use xlink:href="#DejaVuSans-71" x="541.130859"/>
      <use xlink:href="#DejaVuSans-75" x="604.607422"/>
      <use xlink:href="#DejaVuSans-65" x="667.986328"/>
      <use xlink:href="#DejaVuSans-6e" x="729.509766"/>
      <use xlink:href="#DejaVuSans-63" x="792.888672"/>
      <use xlink:href="#DejaVuSans-79" x="847.869141"/>
      <use xlink:href="#DejaVuSans-20" x="907.048828"/>
      <use xlink:href="#DejaVuSans-72" x="938.835938"/>
      <use xlink:href="#DejaVuSans-65" x="977.699219"/>
      <use xlink:href="#DejaVuSans-73" x="1039.222656"/>
      <use xlink:href="#DejaVuSans-70" x="1091.322266"/>
      <use xlink:href="#DejaVuSans-6f" x="1154.798828"/>
      <use xlink:href="#DejaVuSans-6e" x="1215.980469"/>
      <use xlink:href="#DejaVuSans-73" x="1279.359375"/>
      <use xlink:href="#DejaVuSans-65" x="1331.458984"/>
     </g>
    </g>
    <g id="line2d_19">
     <path d="M 1067.858437 111.584562 
L 1077.858437 111.584562 
L 1087.858437 111.584562 
" style="fill: none; stroke: #ff7f0e; stroke-width: 1.5; stroke-linecap: square"/>
    </g>
    <g id="text_17">
     <!-- After Frequency response -->
     <g transform="translate(1095.858437 115.084562) scale(0.1 -0.1)">
      <defs>
       <path id="DejaVuSans-41" d="M 2188 4044 
L 1331 1722 
L 3047 1722 
L 2188 4044 
z
M 1831 4666 
L 2547 4666 
L 4325 0 
L 3669 0 
L 3244 1197 
L 1141 1197 
L 716 0 
L 50 0 
L 1831 4666 
z
" transform="scale(0.015625)"/>
       <path id="DejaVuSans-74" d="M 1172 4494 
L 1172 3500 
L 2356 3500 
L 2356 3053 
L 1172 3053 
L 1172 1153 
Q 1172 725 1289 603 
Q 1406 481 1766 481 
L 2356 481 
L 2356 0 
L 1766 0 
Q 1100 0 847 248 
Q 594 497 594 1153 
L 594 3053 
L 172 3053 
L 172 3500 
L 594 3500 
L 594 4494 
L 1172 4494 
z
" transform="scale(0.015625)"/>
      </defs>
      <use xlink:href="#DejaVuSans-41"/>
      <use xlink:href="#DejaVuSans-66" x="64.783203"/>
      <use xlink:href="#DejaVuSans-74" x="98.238281"/>
      <use xlink:href="#DejaVuSans-65" x="137.447266"/>
      <use xlink:href="#DejaVuSans-72" x="198.970703"/>
      <use xlink:href="#DejaVuSans-20" x="240.083984"/>
      <use xlink:href="#DejaVuSans-46" x="271.871094"/>
      <use xlink:href="#DejaVuSans-72" x="322.140625"/>
      <use xlink:href="#DejaVuSans-65" x="361.003906"/>
      <use xlink:href="#DejaVuSans-71" x="422.527344"/>
      <use xlink:href="#DejaVuSans-75" x="486.003906"/>
      <use xlink:href="#DejaVuSans-65" x="549.382812"/>
      <use xlink:href="#DejaVuSans-6e" x="610.90625"/>
      <use xlink:href="#DejaVuSans-63" x="674.285156"/>
      <use xlink:href="#DejaVuSans-79" x="729.265625"/>
      <use xlink:href="#DejaVuSans-20" x="788.445312"/>
      <use xlink:href="#DejaVuSans-72" x="820.232422"/>
      <use xlink:href="#DejaVuSans-65" x="859.095703"/>
      <use xlink:href="#DejaVuSans-73" x="920.619141"/>
      <use xlink:href="#DejaVuSans-70" x="972.71875"/>
      <use xlink:href="#DejaVuSans-6f" x="1036.195312"/>
      <use xlink:href="#DejaVuSans-6e" x="1097.376953"/>
      <use xlink:href="#DejaVuSans-73" x="1160.755859"/>
      <use xlink:href="#DejaVuSans-65" x="1212.855469"/>
     </g>
    </g>
   </g>
  </g>
 </g>
 <defs>
  <clipPath id="pfef9cfdcfd">
   <rect x="172.8" y="83.808" width="1071.36" height="537.768"/>
  </clipPath>
 </defs>
</svg>
