<?xml version="1.0" encoding="utf-8" standalone="no"?>
<!DOCTYPE svg PUBLIC "-//W3C//DTD SVG 1.1//EN"
  "http://www.w3.org/Graphics/SVG/1.1/DTD/svg11.dtd">
<svg xmlns:xlink="http://www.w3.org/1999/xlink" width="1378.08pt" height="706.32pt" viewBox="0 0 1378.08 706.32" xmlns="http://www.w3.org/2000/svg" version="1.1">
 <metadata>
  <rdf:RDF xmlns:dc="http://purl.org/dc/elements/1.1/" xmlns:cc="http://creativecommons.org/ns#" xmlns:rdf="http://www.w3.org/1999/02/22-rdf-syntax-ns#">
   <cc:Work>
    <dc:type rdf:resource="http://purl.org/dc/dcmitype/StillImage"/>
    <dc:date>2023-11-05T18:26:42.394204</dc:date>
    <dc:format>image/svg+xml</dc:format>
    <dc:creator>
     <cc:Agent>
      <dc:title>Matplotlib v3.8.0, https://matplotlib.org/</dc:title>
     </cc:Agent>
    </dc:creator>
   </cc:Work>
  </rdf:RDF>
 </metadata>
 <defs>
  <style type="text/css">*{stroke-linejoin: round; stroke-linecap: butt}</style>
 </defs>
 <g id="figure_1">
  <g id="patch_1">
   <path d="M 0 706.32 
L 1378.08 706.32 
L 1378.08 0 
L 0 0 
z
" style="fill: #ffffff"/>
  </g>
  <g id="axes_1">
   <g id="patch_2">
    <path d="M 172.26 628.6248 
L 1240.272 628.6248 
L 1240.272 84.7584 
L 172.26 84.7584 
z
" style="fill: #ffffff"/>
   </g>
   <g id="matplotlib.axis_1">
    <g id="xtick_1">
     <g id="line2d_1">
      <defs>
       <path id="m765922fd9b" d="M 0 0 
L 0 3.5 
" style="stroke: #000000; stroke-width: 0.8"/>
      </defs>
      <g>
       <use xlink:href="#m765922fd9b" x="378.466237" y="628.6248" style="stroke: #000000; stroke-width: 0.8"/>
      </g>
     </g>
     <g id="text_1">
      <!-- 11000 -->
      <g transform="translate(362.559987 643.223238) scale(0.1 -0.1)">
       <defs>
        <path id="DejaVuSans-31" d="M 794 531 
L 1825 531 
L 1825 4091 
L 703 3866 
L 703 4441 
L 1819 4666 
L 2450 4666 
L 2450 531 
L 3481 531 
L 3481 0 
L 794 0 
L 794 531 
z
" transform="scale(0.015625)"/>
        <path id="DejaVuSans-30" d="M 2034 4250 
Q 1547 4250 1301 3770 
Q 1056 3291 1056 2328 
Q 1056 1369 1301 889 
Q 1547 409 2034 409 
Q 2525 409 2770 889 
Q 3016 1369 3016 2328 
Q 3016 3291 2770 3770 
Q 2525 4250 2034 4250 
z
M 2034 4750 
Q 2819 4750 3233 4129 
Q 3647 3509 3647 2328 
Q 3647 1150 3233 529 
Q 2819 -91 2034 -91 
Q 1250 -91 836 529 
Q 422 1150 422 2328 
Q 422 3509 836 4129 
Q 1250 4750 2034 4750 
z
" transform="scale(0.015625)"/>
       </defs>
       <use xlink:href="#DejaVuSans-31"/>
       <use xlink:href="#DejaVuSans-31" x="63.623047"/>
       <use xlink:href="#DejaVuSans-30" x="127.246094"/>
       <use xlink:href="#DejaVuSans-30" x="190.869141"/>
       <use xlink:href="#DejaVuSans-30" x="254.492188"/>
      </g>
     </g>
    </g>
    <g id="xtick_2">
     <g id="line2d_2">
      <g>
       <use xlink:href="#m765922fd9b" x="601.817311" y="628.6248" style="stroke: #000000; stroke-width: 0.8"/>
      </g>
     </g>
     <g id="text_2">
      <!-- 12000 -->
      <g transform="translate(585.911061 643.223238) scale(0.1 -0.1)">
       <defs>
        <path id="DejaVuSans-32" d="M 1228 531 
L 3431 531 
L 3431 0 
L 469 0 
L 469 531 
Q 828 903 1448 1529 
Q 2069 2156 2228 2338 
Q 2531 2678 2651 2914 
Q 2772 3150 2772 3378 
Q 2772 3750 2511 3984 
Q 2250 4219 1831 4219 
Q 1534 4219 1204 4116 
Q 875 4013 500 3803 
L 500 4441 
Q 881 4594 1212 4672 
Q 1544 4750 1819 4750 
Q 2544 4750 2975 4387 
Q 3406 4025 3406 3419 
Q 3406 3131 3298 2873 
Q 3191 2616 2906 2266 
Q 2828 2175 2409 1742 
Q 1991 1309 1228 531 
z
" transform="scale(0.015625)"/>
       </defs>
       <use xlink:href="#DejaVuSans-31"/>
       <use xlink:href="#DejaVuSans-32" x="63.623047"/>
       <use xlink:href="#DejaVuSans-30" x="127.246094"/>
       <use xlink:href="#DejaVuSans-30" x="190.869141"/>
       <use xlink:href="#DejaVuSans-30" x="254.492188"/>
      </g>
     </g>
    </g>
    <g id="xtick_3">
     <g id="line2d_3">
      <g>
       <use xlink:href="#m765922fd9b" x="825.168385" y="628.6248" style="stroke: #000000; stroke-width: 0.8"/>
      </g>
     </g>
     <g id="text_3">
      <!-- 13000 -->
      <g transform="translate(809.262135 643.223238) scale(0.1 -0.1)">
       <defs>
        <path id="DejaVuSans-33" d="M 2597 2516 
Q 3050 2419 3304 2112 
Q 3559 1806 3559 1356 
Q 3559 666 3084 287 
Q 2609 -91 1734 -91 
Q 1441 -91 1130 -33 
Q 819 25 488 141 
L 488 750 
Q 750 597 1062 519 
Q 1375 441 1716 441 
Q 2309 441 2620 675 
Q 2931 909 2931 1356 
Q 2931 1769 2642 2001 
Q 2353 2234 1838 2234 
L 1294 2234 
L 1294 2753 
L 1863 2753 
Q 2328 2753 2575 2939 
Q 2822 3125 2822 3475 
Q 2822 3834 2567 4026 
Q 2313 4219 1838 4219 
Q 1578 4219 1281 4162 
Q 984 4106 628 3988 
L 628 4550 
Q 988 4650 1302 4700 
Q 1616 4750 1894 4750 
Q 2613 4750 3031 4423 
Q 3450 4097 3450 3541 
Q 3450 3153 3228 2886 
Q 3006 2619 2597 2516 
z
" transform="scale(0.015625)"/>
       </defs>
       <use xlink:href="#DejaVuSans-31"/>
       <use xlink:href="#DejaVuSans-33" x="63.623047"/>
       <use xlink:href="#DejaVuSans-30" x="127.246094"/>
       <use xlink:href="#DejaVuSans-30" x="190.869141"/>
       <use xlink:href="#DejaVuSans-30" x="254.492188"/>
      </g>
     </g>
    </g>
    <g id="xtick_4">
     <g id="line2d_4">
      <g>
       <use xlink:href="#m765922fd9b" x="1048.519459" y="628.6248" style="stroke: #000000; stroke-width: 0.8"/>
      </g>
     </g>
     <g id="text_4">
      <!-- 14000 -->
      <g transform="translate(1032.613209 643.223238) scale(0.1 -0.1)">
       <defs>
        <path id="DejaVuSans-34" d="M 2419 4116 
L 825 1625 
L 2419 1625 
L 2419 4116 
z
M 2253 4666 
L 3047 4666 
L 3047 1625 
L 3713 1625 
L 3713 1100 
L 3047 1100 
L 3047 0 
L 2419 0 
L 2419 1100 
L 313 1100 
L 313 1709 
L 2253 4666 
z
" transform="scale(0.015625)"/>
       </defs>
       <use xlink:href="#DejaVuSans-31"/>
       <use xlink:href="#DejaVuSans-34" x="63.623047"/>
       <use xlink:href="#DejaVuSans-30" x="127.246094"/>
       <use xlink:href="#DejaVuSans-30" x="190.869141"/>
       <use xlink:href="#DejaVuSans-30" x="254.492188"/>
      </g>
     </g>
    </g>
    <g id="text_5">
     <!-- Sample -->
     <g transform="translate(687.517562 656.901363) scale(0.1 -0.1)">
      <defs>
       <path id="DejaVuSans-53" d="M 3425 4513 
L 3425 3897 
Q 3066 4069 2747 4153 
Q 2428 4238 2131 4238 
Q 1616 4238 1336 4038 
Q 1056 3838 1056 3469 
Q 1056 3159 1242 3001 
Q 1428 2844 1947 2747 
L 2328 2669 
Q 3034 2534 3370 2195 
Q 3706 1856 3706 1288 
Q 3706 609 3251 259 
Q 2797 -91 1919 -91 
Q 1588 -91 1214 -16 
Q 841 59 441 206 
L 441 856 
Q 825 641 1194 531 
Q 1563 422 1919 422 
Q 2459 422 2753 634 
Q 3047 847 3047 1241 
Q 3047 1584 2836 1778 
Q 2625 1972 2144 2069 
L 1759 2144 
Q 1053 2284 737 2584 
Q 422 2884 422 3419 
Q 422 4038 858 4394 
Q 1294 4750 2059 4750 
Q 2388 4750 2728 4690 
Q 3069 4631 3425 4513 
z
" transform="scale(0.015625)"/>
       <path id="DejaVuSans-61" d="M 2194 1759 
Q 1497 1759 1228 1600 
Q 959 1441 959 1056 
Q 959 750 1161 570 
Q 1363 391 1709 391 
Q 2188 391 2477 730 
Q 2766 1069 2766 1631 
L 2766 1759 
L 2194 1759 
z
M 3341 1997 
L 3341 0 
L 2766 0 
L 2766 531 
Q 2569 213 2275 61 
Q 1981 -91 1556 -91 
Q 1019 -91 701 211 
Q 384 513 384 1019 
Q 384 1609 779 1909 
Q 1175 2209 1959 2209 
L 2766 2209 
L 2766 2266 
Q 2766 2663 2505 2880 
Q 2244 3097 1772 3097 
Q 1472 3097 1187 3025 
Q 903 2953 641 2809 
L 641 3341 
Q 956 3463 1253 3523 
Q 1550 3584 1831 3584 
Q 2591 3584 2966 3190 
Q 3341 2797 3341 1997 
z
" transform="scale(0.015625)"/>
       <path id="DejaVuSans-6d" d="M 3328 2828 
Q 3544 3216 3844 3400 
Q 4144 3584 4550 3584 
Q 5097 3584 5394 3201 
Q 5691 2819 5691 2113 
L 5691 0 
L 5113 0 
L 5113 2094 
Q 5113 2597 4934 2840 
Q 4756 3084 4391 3084 
Q 3944 3084 3684 2787 
Q 3425 2491 3425 1978 
L 3425 0 
L 2847 0 
L 2847 2094 
Q 2847 2600 2669 2842 
Q 2491 3084 2119 3084 
Q 1678 3084 1418 2786 
Q 1159 2488 1159 1978 
L 1159 0 
L 581 0 
L 581 3500 
L 1159 3500 
L 1159 2956 
Q 1356 3278 1631 3431 
Q 1906 3584 2284 3584 
Q 2666 3584 2933 3390 
Q 3200 3197 3328 2828 
z
" transform="scale(0.015625)"/>
       <path id="DejaVuSans-70" d="M 1159 525 
L 1159 -1331 
L 581 -1331 
L 581 3500 
L 1159 3500 
L 1159 2969 
Q 1341 3281 1617 3432 
Q 1894 3584 2278 3584 
Q 2916 3584 3314 3078 
Q 3713 2572 3713 1747 
Q 3713 922 3314 415 
Q 2916 -91 2278 -91 
Q 1894 -91 1617 61 
Q 1341 213 1159 525 
z
M 3116 1747 
Q 3116 2381 2855 2742 
Q 2594 3103 2138 3103 
Q 1681 3103 1420 2742 
Q 1159 2381 1159 1747 
Q 1159 1113 1420 752 
Q 1681 391 2138 391 
Q 2594 391 2855 752 
Q 3116 1113 3116 1747 
z
" transform="scale(0.015625)"/>
       <path id="DejaVuSans-6c" d="M 603 4863 
L 1178 4863 
L 1178 0 
L 603 0 
L 603 4863 
z
" transform="scale(0.015625)"/>
       <path id="DejaVuSans-65" d="M 3597 1894 
L 3597 1613 
L 953 1613 
Q 991 1019 1311 708 
Q 1631 397 2203 397 
Q 2534 397 2845 478 
Q 3156 559 3463 722 
L 3463 178 
Q 3153 47 2828 -22 
Q 2503 -91 2169 -91 
Q 1331 -91 842 396 
Q 353 884 353 1716 
Q 353 2575 817 3079 
Q 1281 3584 2069 3584 
Q 2775 3584 3186 3129 
Q 3597 2675 3597 1894 
z
M 3022 2063 
Q 3016 2534 2758 2815 
Q 2500 3097 2075 3097 
Q 1594 3097 1305 2825 
Q 1016 2553 972 2059 
L 3022 2063 
z
" transform="scale(0.015625)"/>
      </defs>
      <use xlink:href="#DejaVuSans-53"/>
      <use xlink:href="#DejaVuSans-61" x="63.476562"/>
      <use xlink:href="#DejaVuSans-6d" x="124.755859"/>
      <use xlink:href="#DejaVuSans-70" x="222.167969"/>
      <use xlink:href="#DejaVuSans-6c" x="285.644531"/>
      <use xlink:href="#DejaVuSans-65" x="313.427734"/>
     </g>
    </g>
   </g>
   <g id="matplotlib.axis_2">
    <g id="ytick_1">
     <g id="line2d_5">
      <defs>
       <path id="m7a31c92c71" d="M 0 0 
L -3.5 0 
" style="stroke: #000000; stroke-width: 0.8"/>
      </defs>
      <g>
       <use xlink:href="#m7a31c92c71" x="172.26" y="608.321007" style="stroke: #000000; stroke-width: 0.8"/>
      </g>
     </g>
     <g id="text_6">
      <!-- 0 -->
      <g transform="translate(158.8975 612.120226) scale(0.1 -0.1)">
       <use xlink:href="#DejaVuSans-30"/>
      </g>
     </g>
    </g>
    <g id="ytick_2">
     <g id="line2d_6">
      <g>
       <use xlink:href="#m7a31c92c71" x="172.26" y="534.638444" style="stroke: #000000; stroke-width: 0.8"/>
      </g>
     </g>
     <g id="text_7">
      <!-- 100 -->
      <g transform="translate(146.1725 538.437662) scale(0.1 -0.1)">
       <use xlink:href="#DejaVuSans-31"/>
       <use xlink:href="#DejaVuSans-30" x="63.623047"/>
       <use xlink:href="#DejaVuSans-30" x="127.246094"/>
      </g>
     </g>
    </g>
    <g id="ytick_3">
     <g id="line2d_7">
      <g>
       <use xlink:href="#m7a31c92c71" x="172.26" y="460.95588" style="stroke: #000000; stroke-width: 0.8"/>
      </g>
     </g>
     <g id="text_8">
      <!-- 200 -->
      <g transform="translate(146.1725 464.755099) scale(0.1 -0.1)">
       <use xlink:href="#DejaVuSans-32"/>
       <use xlink:href="#DejaVuSans-30" x="63.623047"/>
       <use xlink:href="#DejaVuSans-30" x="127.246094"/>
      </g>
     </g>
    </g>
    <g id="ytick_4">
     <g id="line2d_8">
      <g>
       <use xlink:href="#m7a31c92c71" x="172.26" y="387.273316" style="stroke: #000000; stroke-width: 0.8"/>
      </g>
     </g>
     <g id="text_9">
      <!-- 300 -->
      <g transform="translate(146.1725 391.072535) scale(0.1 -0.1)">
       <use xlink:href="#DejaVuSans-33"/>
       <use xlink:href="#DejaVuSans-30" x="63.623047"/>
       <use xlink:href="#DejaVuSans-30" x="127.246094"/>
      </g>
     </g>
    </g>
    <g id="ytick_5">
     <g id="line2d_9">
      <g>
       <use xlink:href="#m7a31c92c71" x="172.26" y="313.590753" style="stroke: #000000; stroke-width: 0.8"/>
      </g>
     </g>
     <g id="text_10">
      <!-- 400 -->
      <g transform="translate(146.1725 317.389971) scale(0.1 -0.1)">
       <use xlink:href="#DejaVuSans-34"/>
       <use xlink:href="#DejaVuSans-30" x="63.623047"/>
       <use xlink:href="#DejaVuSans-30" x="127.246094"/>
      </g>
     </g>
    </g>
    <g id="ytick_6">
     <g id="line2d_10">
      <g>
       <use xlink:href="#m7a31c92c71" x="172.26" y="239.908189" style="stroke: #000000; stroke-width: 0.8"/>
      </g>
     </g>
     <g id="text_11">
      <!-- 500 -->
      <g transform="translate(146.1725 243.707408) scale(0.1 -0.1)">
       <defs>
        <path id="DejaVuSans-35" d="M 691 4666 
L 3169 4666 
L 3169 4134 
L 1269 4134 
L 1269 2991 
Q 1406 3038 1543 3061 
Q 1681 3084 1819 3084 
Q 2600 3084 3056 2656 
Q 3513 2228 3513 1497 
Q 3513 744 3044 326 
Q 2575 -91 1722 -91 
Q 1428 -91 1123 -41 
Q 819 9 494 109 
L 494 744 
Q 775 591 1075 516 
Q 1375 441 1709 441 
Q 2250 441 2565 725 
Q 2881 1009 2881 1497 
Q 2881 1984 2565 2268 
Q 2250 2553 1709 2553 
Q 1456 2553 1204 2497 
Q 953 2441 691 2322 
L 691 4666 
z
" transform="scale(0.015625)"/>
       </defs>
       <use xlink:href="#DejaVuSans-35"/>
       <use xlink:href="#DejaVuSans-30" x="63.623047"/>
       <use xlink:href="#DejaVuSans-30" x="127.246094"/>
      </g>
     </g>
    </g>
    <g id="ytick_7">
     <g id="line2d_11">
      <g>
       <use xlink:href="#m7a31c92c71" x="172.26" y="166.225626" style="stroke: #000000; stroke-width: 0.8"/>
      </g>
     </g>
     <g id="text_12">
      <!-- 600 -->
      <g transform="translate(146.1725 170.024844) scale(0.1 -0.1)">
       <defs>
        <path id="DejaVuSans-36" d="M 2113 2584 
Q 1688 2584 1439 2293 
Q 1191 2003 1191 1497 
Q 1191 994 1439 701 
Q 1688 409 2113 409 
Q 2538 409 2786 701 
Q 3034 994 3034 1497 
Q 3034 2003 2786 2293 
Q 2538 2584 2113 2584 
z
M 3366 4563 
L 3366 3988 
Q 3128 4100 2886 4159 
Q 2644 4219 2406 4219 
Q 1781 4219 1451 3797 
Q 1122 3375 1075 2522 
Q 1259 2794 1537 2939 
Q 1816 3084 2150 3084 
Q 2853 3084 3261 2657 
Q 3669 2231 3669 1497 
Q 3669 778 3244 343 
Q 2819 -91 2113 -91 
Q 1303 -91 875 529 
Q 447 1150 447 2328 
Q 447 3434 972 4092 
Q 1497 4750 2381 4750 
Q 2619 4750 2861 4703 
Q 3103 4656 3366 4563 
z
" transform="scale(0.015625)"/>
       </defs>
       <use xlink:href="#DejaVuSans-36"/>
       <use xlink:href="#DejaVuSans-30" x="63.623047"/>
       <use xlink:href="#DejaVuSans-30" x="127.246094"/>
      </g>
     </g>
    </g>
    <g id="ytick_8">
     <g id="line2d_12">
      <g>
       <use xlink:href="#m7a31c92c71" x="172.26" y="92.543062" style="stroke: #000000; stroke-width: 0.8"/>
      </g>
     </g>
     <g id="text_13">
      <!-- 700 -->
      <g transform="translate(146.1725 96.342281) scale(0.1 -0.1)">
       <defs>
        <path id="DejaVuSans-37" d="M 525 4666 
L 3525 4666 
L 3525 4397 
L 1831 0 
L 1172 0 
L 2766 4134 
L 525 4134 
L 525 4666 
z
" transform="scale(0.015625)"/>
       </defs>
       <use xlink:href="#DejaVuSans-37"/>
       <use xlink:href="#DejaVuSans-30" x="63.623047"/>
       <use xlink:href="#DejaVuSans-30" x="127.246094"/>
      </g>
     </g>
    </g>
    <g id="text_14">
     <!-- Amplitude -->
     <g transform="translate(140.092812 382.314256) rotate(-90) scale(0.1 -0.1)">
      <defs>
       <path id="DejaVuSans-41" d="M 2188 4044 
L 1331 1722 
L 3047 1722 
L 2188 4044 
z
M 1831 4666 
L 2547 4666 
L 4325 0 
L 3669 0 
L 3244 1197 
L 1141 1197 
L 716 0 
L 50 0 
L 1831 4666 
z
" transform="scale(0.015625)"/>
       <path id="DejaVuSans-69" d="M 603 3500 
L 1178 3500 
L 1178 0 
L 603 0 
L 603 3500 
z
M 603 4863 
L 1178 4863 
L 1178 4134 
L 603 4134 
L 603 4863 
z
" transform="scale(0.015625)"/>
       <path id="DejaVuSans-74" d="M 1172 4494 
L 1172 3500 
L 2356 3500 
L 2356 3053 
L 1172 3053 
L 1172 1153 
Q 1172 725 1289 603 
Q 1406 481 1766 481 
L 2356 481 
L 2356 0 
L 1766 0 
Q 1100 0 847 248 
Q 594 497 594 1153 
L 594 3053 
L 172 3053 
L 172 3500 
L 594 3500 
L 594 4494 
L 1172 4494 
z
" transform="scale(0.015625)"/>
       <path id="DejaVuSans-75" d="M 544 1381 
L 544 3500 
L 1119 3500 
L 1119 1403 
Q 1119 906 1312 657 
Q 1506 409 1894 409 
Q 2359 409 2629 706 
Q 2900 1003 2900 1516 
L 2900 3500 
L 3475 3500 
L 3475 0 
L 2900 0 
L 2900 538 
Q 2691 219 2414 64 
Q 2138 -91 1772 -91 
Q 1169 -91 856 284 
Q 544 659 544 1381 
z
M 1991 3584 
L 1991 3584 
z
" transform="scale(0.015625)"/>
       <path id="DejaVuSans-64" d="M 2906 2969 
L 2906 4863 
L 3481 4863 
L 3481 0 
L 2906 0 
L 2906 525 
Q 2725 213 2448 61 
Q 2172 -91 1784 -91 
Q 1150 -91 751 415 
Q 353 922 353 1747 
Q 353 2572 751 3078 
Q 1150 3584 1784 3584 
Q 2172 3584 2448 3432 
Q 2725 3281 2906 2969 
z
M 947 1747 
Q 947 1113 1208 752 
Q 1469 391 1925 391 
Q 2381 391 2643 752 
Q 2906 1113 2906 1747 
Q 2906 2381 2643 2742 
Q 2381 3103 1925 3103 
Q 1469 3103 1208 2742 
Q 947 2381 947 1747 
z
" transform="scale(0.015625)"/>
      </defs>
      <use xlink:href="#DejaVuSans-41"/>
      <use xlink:href="#DejaVuSans-6d" x="68.408203"/>
      <use xlink:href="#DejaVuSans-70" x="165.820312"/>
      <use xlink:href="#DejaVuSans-6c" x="229.296875"/>
      <use xlink:href="#DejaVuSans-69" x="257.080078"/>
      <use xlink:href="#DejaVuSans-74" x="284.863281"/>
      <use xlink:href="#DejaVuSans-75" x="324.072266"/>
      <use xlink:href="#DejaVuSans-64" x="387.451172"/>
      <use xlink:href="#DejaVuSans-65" x="450.927734"/>
     </g>
    </g>
   </g>
   <g id="line2d_13">
    <path d="M 172.089845 422.646382 
L 1240.378032 422.646382 
L 1240.378032 422.646382 
" clip-path="url(#pd0eb0d3a57)" style="fill: none; stroke: #1f77b4; stroke-width: 1.5; stroke-linecap: square"/>
   </g>
   <g id="line2d_14">
    <path d="M 172.089845 608.321007 
L 207.155964 608.321007 
L 207.379315 422.096546 
L 209.389474 298.065309 
L 209.836176 286.06302 
L 210.059527 282.618591 
L 210.282879 282.70147 
L 210.50623 286.203365 
L 210.952932 299.732993 
L 211.399634 321.428808 
L 212.516389 393.640619 
L 212.963091 421.721578 
L 213.186443 608.321007 
L 324.415277 608.321007 
L 324.638628 409.5079 
L 327.09549 231.928323 
L 327.765543 212.315717 
L 327.988895 210.38192 
L 328.212246 214.597671 
L 328.882299 235.496976 
L 329.329001 267.189864 
L 331.339161 421.400812 
L 331.562512 608.321007 
L 378.019535 608.321007 
L 378.242886 422.613288 
L 378.466237 608.321007 
L 407.725228 608.321007 
L 407.948579 420.276369 
L 408.17193 417.785896 
L 408.395281 416.590351 
L 408.618632 416.214117 
L 408.841983 414.862338 
L 409.288685 410.695983 
L 409.512037 410.974777 
L 409.735388 411.806073 
L 409.958739 411.351384 
L 410.18209 410.513839 
L 410.405441 411.204669 
L 410.852143 414.947228 
L 411.075494 414.891578 
L 411.298845 414.575405 
L 411.522196 415.630748 
L 411.745547 417.249162 
L 411.968898 417.827104 
L 412.192249 417.122595 
L 412.415601 417.703945 
L 412.862303 421.997017 
L 413.085654 608.321007 
L 441.004538 608.321007 
L 441.227889 413.530072 
L 441.897942 375.68517 
L 444.354804 185.266248 
L 444.801506 168.076967 
L 445.248208 159.465974 
L 445.471559 161.204827 
L 446.141613 192.08578 
L 446.588315 221.254079 
L 448.151772 351.683935 
L 449.268528 420.411477 
L 449.491879 608.321007 
L 455.745709 608.321007 
L 455.96906 422.196385 
L 456.415762 418.066006 
L 456.639113 418.990395 
L 456.862464 420.403675 
L 457.085815 419.990332 
L 457.309166 418.746232 
L 457.532517 419.212744 
L 457.755869 422.015828 
L 457.97922 608.321007 
L 482.324487 608.321007 
L 482.547838 422.21377 
L 482.771189 421.337094 
L 482.99454 421.257645 
L 483.217891 419.549016 
L 483.664593 415.0051 
L 483.887944 415.300426 
L 484.111295 414.428184 
L 484.557997 408.107155 
L 484.781348 407.091339 
L 485.0047 406.937892 
L 485.228051 405.179436 
L 485.451402 402.509996 
L 485.674753 401.65406 
L 486.121455 403.942525 
L 486.568157 402.816713 
L 486.791508 404.156694 
L 487.014859 406.376026 
L 487.23821 407.188785 
L 487.461561 407.309819 
L 487.684912 408.918701 
L 488.354966 417.341809 
L 488.578317 418.80478 
L 488.801668 421.43394 
L 489.025019 608.321007 
L 496.172253 608.321007 
L 496.395604 420.962651 
L 496.618955 419.320531 
L 496.842306 420.237189 
L 497.065658 422.258093 
L 497.289009 608.321007 
L 525.431244 608.321007 
L 525.654595 420.254468 
L 525.877946 418.579169 
L 526.101297 418.581028 
L 526.324648 417.925479 
L 526.77135 414.563278 
L 526.994701 415.999824 
L 527.218053 418.460627 
L 527.441404 419.344209 
L 527.664755 418.989007 
L 527.888106 419.852181 
L 528.111457 422.044497 
L 528.334808 608.321007 
L 528.558159 421.940319 
L 528.78151 421.129185 
L 529.004861 608.321007 
L 532.355127 608.321007 
L 532.578478 422.412419 
L 532.801829 421.666446 
L 533.02518 608.321007 
L 533.471883 608.321007 
L 533.695234 422.463687 
L 533.918585 608.321007 
L 557.370448 608.321007 
L 557.593799 420.653985 
L 558.487203 358.450689 
L 560.944065 149.398369 
L 561.390767 135.4598 
L 561.614118 133.322246 
L 561.837469 133.350266 
L 562.06082 138.044905 
L 562.507522 159.622653 
L 562.954224 190.57015 
L 564.964384 366.081486 
L 565.634437 411.164627 
L 565.857788 422.248171 
L 566.081139 608.321007 
L 603.827471 608.321007 
L 604.050822 421.945671 
L 604.274173 422.588843 
L 604.497524 608.321007 
L 604.944226 608.321007 
L 605.167577 421.53872 
L 605.390928 422.503031 
L 605.614279 608.321007 
L 605.837631 608.321007 
L 606.060982 421.738351 
L 606.284333 421.305378 
L 606.507684 422.556989 
L 606.731035 608.321007 
L 606.954386 420.626472 
L 607.177737 418.504191 
L 607.401088 419.152935 
L 607.624439 421.420655 
L 607.84779 422.07649 
L 608.294492 419.467982 
L 608.741195 421.20705 
L 608.964546 419.590636 
L 609.187897 416.891013 
L 609.411248 416.346995 
L 609.634599 417.792812 
L 609.85795 418.406045 
L 610.304652 415.447973 
L 610.751354 415.053408 
L 611.421407 412.1736 
L 611.86811 414.149829 
L 612.314812 413.966478 
L 612.538163 414.887631 
L 613.654918 422.321101 
L 613.878269 608.321007 
L 673.959708 608.321007 
L 674.183059 422.575187 
L 675.299815 341.896173 
L 676.639921 239.306204 
L 677.309974 207.767614 
L 677.533325 201.804887 
L 677.756676 199.805915 
L 677.980027 201.855885 
L 678.203379 206.599085 
L 678.42673 213.788731 
L 678.873432 238.085599 
L 679.766836 300.113735 
L 681.106942 399.167494 
L 681.330294 412.48653 
L 681.553645 608.321007 
L 790.102267 608.321007 
L 790.325618 417.482341 
L 791.889075 318.122129 
L 792.559128 293.653194 
L 792.782479 293.119069 
L 793.229182 294.965667 
L 793.452533 297.540083 
L 793.675884 304.347523 
L 794.569288 350.357852 
L 795.462692 409.761974 
L 795.686043 608.321007 
L 1014.123394 608.321007 
L 1014.346745 420.685357 
L 1014.793447 418.199463 
L 1015.016798 417.689195 
L 1015.240149 417.747235 
L 1015.686851 418.773438 
L 1015.910202 420.631825 
L 1016.133553 608.321007 
L 1027.077756 608.321007 
L 1027.301107 418.758798 
L 1027.747809 411.371083 
L 1027.97116 410.622974 
L 1028.194511 410.755858 
L 1028.641214 409.845069 
L 1028.864565 411.185142 
L 1029.534618 419.972813 
L 1029.757969 608.321007 
L 1036.011799 608.321007 
L 1036.23515 421.397263 
L 1036.681852 412.543595 
L 1037.351905 404.433698 
L 1037.798608 398.669767 
L 1038.021959 397.216114 
L 1038.692012 390.271536 
L 1039.138714 391.815174 
L 1039.362065 392.007633 
L 1039.585416 392.990327 
L 1040.255469 401.79426 
L 1040.478821 402.780959 
L 1040.702172 405.410822 
L 1041.148874 412.249239 
L 1041.372225 413.198798 
L 1041.595576 414.650325 
L 1042.042278 421.348978 
L 1042.265629 421.755838 
L 1042.48898 420.926751 
L 1042.712331 421.597023 
L 1042.935682 608.321007 
L 1043.382384 608.321007 
L 1043.605736 422.125665 
L 1043.829087 608.321007 
L 1044.052438 608.321007 
L 1044.275789 421.716931 
L 1044.49914 420.030553 
L 1044.722491 420.505784 
L 1044.945842 422.629829 
L 1045.169193 608.321007 
L 1045.392544 421.632108 
L 1045.615895 420.911953 
L 1045.839246 608.321007 
L 1054.326587 608.321007 
L 1054.549938 422.310866 
L 1054.773289 608.321007 
L 1055.219991 608.321007 
L 1055.443342 422.336117 
L 1055.666694 608.321007 
L 1240.378032 608.321007 
L 1240.378032 608.321007 
" clip-path="url(#pd0eb0d3a57)" style="fill: none; stroke: #ff7f0e; stroke-width: 1.5; stroke-linecap: square"/>
   </g>
   <g id="line2d_15">
    <path d="M 172.089845 608.321007 
L 207.155964 608.321007 
L 207.379315 422.096546 
L 209.389474 298.065309 
L 209.836176 286.06302 
L 210.059527 282.618591 
L 210.282879 282.70147 
L 210.50623 286.203365 
L 210.952932 299.732993 
L 211.399634 321.428808 
L 212.516389 393.640619 
L 212.963091 421.721578 
L 213.186443 608.321007 
L 324.415277 608.321007 
L 324.638628 409.5079 
L 327.09549 231.928323 
L 327.765543 212.315717 
L 327.988895 210.38192 
L 328.212246 214.597671 
L 328.882299 235.496976 
L 329.329001 267.189864 
L 331.339161 421.400812 
L 331.562512 608.321007 
L 407.725228 608.321007 
L 407.948579 420.276369 
L 408.17193 417.785896 
L 408.395281 416.590351 
L 408.618632 416.214117 
L 408.841983 414.862338 
L 409.288685 410.695983 
L 409.512037 410.974777 
L 409.735388 411.806073 
L 409.958739 411.351384 
L 410.18209 410.513839 
L 410.405441 411.204669 
L 410.852143 414.947228 
L 411.075494 414.891578 
L 411.298845 414.575405 
L 411.522196 415.630748 
L 411.745547 417.249162 
L 411.968898 417.827104 
L 412.192249 417.122595 
L 412.415601 417.703945 
L 412.862303 421.997017 
L 413.085654 608.321007 
L 441.004538 608.321007 
L 441.227889 413.530072 
L 441.897942 375.68517 
L 444.354804 185.266248 
L 444.801506 168.076967 
L 445.248208 159.465974 
L 445.471559 161.204827 
L 446.141613 192.08578 
L 446.588315 221.254079 
L 448.151772 351.683935 
L 449.268528 420.411477 
L 449.491879 608.321007 
L 455.745709 608.321007 
L 455.96906 422.196385 
L 456.415762 418.066006 
L 456.639113 418.990395 
L 456.862464 420.403675 
L 457.085815 419.990332 
L 457.309166 418.746232 
L 457.532517 419.212744 
L 457.755869 422.015828 
L 457.97922 608.321007 
L 482.324487 608.321007 
L 482.547838 422.21377 
L 482.771189 421.337094 
L 482.99454 421.257645 
L 483.217891 419.549016 
L 483.664593 415.0051 
L 483.887944 415.300426 
L 484.111295 414.428184 
L 484.557997 408.107155 
L 484.781348 407.091339 
L 485.0047 406.937892 
L 485.228051 405.179436 
L 485.451402 402.509996 
L 485.674753 401.65406 
L 486.121455 403.942525 
L 486.568157 402.816713 
L 486.791508 404.156694 
L 487.014859 406.376026 
L 487.23821 407.188785 
L 487.461561 407.309819 
L 487.684912 408.918701 
L 488.354966 417.341809 
L 488.578317 418.80478 
L 488.801668 421.43394 
L 489.025019 608.321007 
L 496.172253 608.321007 
L 496.395604 420.962651 
L 496.618955 419.320531 
L 496.842306 420.237189 
L 497.065658 422.258093 
L 497.289009 608.321007 
L 525.431244 608.321007 
L 525.654595 420.254468 
L 525.877946 418.579169 
L 526.101297 418.581028 
L 526.324648 417.925479 
L 526.77135 414.563278 
L 526.994701 415.999824 
L 527.218053 418.460627 
L 527.441404 419.344209 
L 527.664755 418.989007 
L 527.888106 419.852181 
L 528.111457 422.044497 
L 528.334808 608.321007 
L 528.558159 421.940319 
L 528.78151 421.129185 
L 529.004861 608.321007 
L 532.355127 608.321007 
L 532.578478 422.412419 
L 532.801829 421.666446 
L 533.02518 608.321007 
L 557.370448 608.321007 
L 557.593799 420.653985 
L 558.487203 358.450689 
L 560.944065 149.398369 
L 561.390767 135.4598 
L 561.614118 133.322246 
L 561.837469 133.350266 
L 562.06082 138.044905 
L 562.507522 159.622653 
L 562.954224 190.57015 
L 564.964384 366.081486 
L 565.634437 411.164627 
L 565.857788 422.248171 
L 566.081139 608.321007 
L 603.827471 608.321007 
L 604.050822 421.945671 
L 604.274173 422.588843 
L 604.497524 608.321007 
L 604.944226 608.321007 
L 605.167577 421.53872 
L 605.390928 422.503031 
L 605.614279 608.321007 
L 605.837631 608.321007 
L 606.060982 421.738351 
L 606.284333 421.305378 
L 606.507684 422.556989 
L 606.731035 608.321007 
L 606.954386 420.626472 
L 607.177737 418.504191 
L 607.401088 419.152935 
L 607.624439 421.420655 
L 607.84779 422.07649 
L 608.294492 419.467982 
L 608.741195 421.20705 
L 608.964546 419.590636 
L 609.187897 416.891013 
L 609.411248 416.346995 
L 609.634599 417.792812 
L 609.85795 418.406045 
L 610.304652 415.447973 
L 610.751354 415.053408 
L 611.421407 412.1736 
L 611.86811 414.149829 
L 612.314812 413.966478 
L 612.538163 414.887631 
L 613.654918 422.321101 
L 613.878269 608.321007 
L 673.959708 608.321007 
L 674.183059 422.575187 
L 675.299815 341.896173 
L 676.639921 239.306204 
L 677.309974 207.767614 
L 677.533325 201.804887 
L 677.756676 199.805915 
L 677.980027 201.855885 
L 678.203379 206.599085 
L 678.42673 213.788731 
L 678.873432 238.085599 
L 679.766836 300.113735 
L 681.106942 399.167494 
L 681.330294 412.48653 
L 681.553645 608.321007 
L 790.102267 608.321007 
L 790.325618 417.482341 
L 791.889075 318.122129 
L 792.559128 293.653194 
L 792.782479 293.119069 
L 793.229182 294.965667 
L 793.452533 297.540083 
L 793.675884 304.347523 
L 794.569288 350.357852 
L 795.462692 409.761974 
L 795.686043 608.321007 
L 1014.123394 608.321007 
L 1014.346745 420.685357 
L 1014.793447 418.199463 
L 1015.016798 417.689195 
L 1015.240149 417.747235 
L 1015.686851 418.773438 
L 1015.910202 420.631825 
L 1016.133553 608.321007 
L 1027.077756 608.321007 
L 1027.301107 418.758798 
L 1027.747809 411.371083 
L 1027.97116 410.622974 
L 1028.194511 410.755858 
L 1028.641214 409.845069 
L 1028.864565 411.185142 
L 1029.534618 419.972813 
L 1029.757969 608.321007 
L 1036.011799 608.321007 
L 1036.23515 421.397263 
L 1036.681852 412.543595 
L 1037.351905 404.433698 
L 1037.798608 398.669767 
L 1038.021959 397.216114 
L 1038.692012 390.271536 
L 1039.138714 391.815174 
L 1039.362065 392.007633 
L 1039.585416 392.990327 
L 1040.255469 401.79426 
L 1040.478821 402.780959 
L 1040.702172 405.410822 
L 1041.148874 412.249239 
L 1041.372225 413.198798 
L 1041.595576 414.650325 
L 1042.042278 421.348978 
L 1042.265629 421.755838 
L 1042.48898 420.926751 
L 1042.712331 421.597023 
L 1042.935682 608.321007 
L 1044.052438 608.321007 
L 1044.275789 421.716931 
L 1044.49914 420.030553 
L 1044.722491 420.505784 
L 1044.945842 422.629829 
L 1045.169193 608.321007 
L 1045.392544 421.632108 
L 1045.615895 420.911953 
L 1045.839246 608.321007 
L 1240.378032 608.321007 
L 1240.378032 608.321007 
" clip-path="url(#pd0eb0d3a57)" style="fill: none; stroke: #2ca02c; stroke-width: 1.5; stroke-linecap: square"/>
   </g>
   <g id="patch_3">
    <path d="M 172.26 628.6248 
L 172.26 84.7584 
" style="fill: none; stroke: #000000; stroke-width: 0.8; stroke-linejoin: miter; stroke-linecap: square"/>
   </g>
   <g id="patch_4">
    <path d="M 1240.272 628.6248 
L 1240.272 84.7584 
" style="fill: none; stroke: #000000; stroke-width: 0.8; stroke-linejoin: miter; stroke-linecap: square"/>
   </g>
   <g id="patch_5">
    <path d="M 172.26 628.6248 
L 1240.272 628.6248 
" style="fill: none; stroke: #000000; stroke-width: 0.8; stroke-linejoin: miter; stroke-linecap: square"/>
   </g>
   <g id="patch_6">
    <path d="M 172.26 84.7584 
L 1240.272 84.7584 
" style="fill: none; stroke: #000000; stroke-width: 0.8; stroke-linejoin: miter; stroke-linecap: square"/>
   </g>
   <g id="text_15">
    <!-- Matched filter -->
    <g transform="translate(664.594125 78.7584) scale(0.12 -0.12)">
     <defs>
      <path id="DejaVuSans-4d" d="M 628 4666 
L 1569 4666 
L 2759 1491 
L 3956 4666 
L 4897 4666 
L 4897 0 
L 4281 0 
L 4281 4097 
L 3078 897 
L 2444 897 
L 1241 4097 
L 1241 0 
L 628 0 
L 628 4666 
z
" transform="scale(0.015625)"/>
      <path id="DejaVuSans-63" d="M 3122 3366 
L 3122 2828 
Q 2878 2963 2633 3030 
Q 2388 3097 2138 3097 
Q 1578 3097 1268 2742 
Q 959 2388 959 1747 
Q 959 1106 1268 751 
Q 1578 397 2138 397 
Q 2388 397 2633 464 
Q 2878 531 3122 666 
L 3122 134 
Q 2881 22 2623 -34 
Q 2366 -91 2075 -91 
Q 1284 -91 818 406 
Q 353 903 353 1747 
Q 353 2603 823 3093 
Q 1294 3584 2113 3584 
Q 2378 3584 2631 3529 
Q 2884 3475 3122 3366 
z
" transform="scale(0.015625)"/>
      <path id="DejaVuSans-68" d="M 3513 2113 
L 3513 0 
L 2938 0 
L 2938 2094 
Q 2938 2591 2744 2837 
Q 2550 3084 2163 3084 
Q 1697 3084 1428 2787 
Q 1159 2491 1159 1978 
L 1159 0 
L 581 0 
L 581 4863 
L 1159 4863 
L 1159 2956 
Q 1366 3272 1645 3428 
Q 1925 3584 2291 3584 
Q 2894 3584 3203 3211 
Q 3513 2838 3513 2113 
z
" transform="scale(0.015625)"/>
      <path id="DejaVuSans-20" transform="scale(0.015625)"/>
      <path id="DejaVuSans-66" d="M 2375 4863 
L 2375 4384 
L 1825 4384 
Q 1516 4384 1395 4259 
Q 1275 4134 1275 3809 
L 1275 3500 
L 2222 3500 
L 2222 3053 
L 1275 3053 
L 1275 0 
L 697 0 
L 697 3053 
L 147 3053 
L 147 3500 
L 697 3500 
L 697 3744 
Q 697 4328 969 4595 
Q 1241 4863 1831 4863 
L 2375 4863 
z
" transform="scale(0.015625)"/>
      <path id="DejaVuSans-72" d="M 2631 2963 
Q 2534 3019 2420 3045 
Q 2306 3072 2169 3072 
Q 1681 3072 1420 2755 
Q 1159 2438 1159 1844 
L 1159 0 
L 581 0 
L 581 3500 
L 1159 3500 
L 1159 2956 
Q 1341 3275 1631 3429 
Q 1922 3584 2338 3584 
Q 2397 3584 2469 3576 
Q 2541 3569 2628 3553 
L 2631 2963 
z
" transform="scale(0.015625)"/>
     </defs>
     <use xlink:href="#DejaVuSans-4d"/>
     <use xlink:href="#DejaVuSans-61" x="86.279297"/>
     <use xlink:href="#DejaVuSans-74" x="147.558594"/>
     <use xlink:href="#DejaVuSans-63" x="186.767578"/>
     <use xlink:href="#DejaVuSans-68" x="241.748047"/>
     <use xlink:href="#DejaVuSans-65" x="305.126953"/>
     <use xlink:href="#DejaVuSans-64" x="366.650391"/>
     <use xlink:href="#DejaVuSans-20" x="430.126953"/>
     <use xlink:href="#DejaVuSans-66" x="461.914062"/>
     <use xlink:href="#DejaVuSans-69" x="497.119141"/>
     <use xlink:href="#DejaVuSans-6c" x="524.902344"/>
     <use xlink:href="#DejaVuSans-74" x="552.685547"/>
     <use xlink:href="#DejaVuSans-65" x="591.894531"/>
     <use xlink:href="#DejaVuSans-72" x="653.417969"/>
    </g>
   </g>
   <g id="legend_1">
    <g id="patch_7">
     <path d="M 1120.647 136.792775 
L 1233.272 136.792775 
Q 1235.272 136.792775 1235.272 134.792775 
L 1235.272 91.7584 
Q 1235.272 89.7584 1233.272 89.7584 
L 1120.647 89.7584 
Q 1118.647 89.7584 1118.647 91.7584 
L 1118.647 134.792775 
Q 1118.647 136.792775 1120.647 136.792775 
z
" style="fill: #ffffff; opacity: 0.8; stroke: #cccccc; stroke-linejoin: miter"/>
    </g>
    <g id="line2d_16">
     <path d="M 1122.647 97.856837 
L 1132.647 97.856837 
L 1142.647 97.856837 
" style="fill: none; stroke: #1f77b4; stroke-width: 1.5; stroke-linecap: square"/>
    </g>
    <g id="text_16">
     <!-- Threshold -->
     <g transform="translate(1150.647 101.356837) scale(0.1 -0.1)">
      <defs>
       <path id="DejaVuSans-54" d="M -19 4666 
L 3928 4666 
L 3928 4134 
L 2272 4134 
L 2272 0 
L 1638 0 
L 1638 4134 
L -19 4134 
L -19 4666 
z
" transform="scale(0.015625)"/>
       <path id="DejaVuSans-73" d="M 2834 3397 
L 2834 2853 
Q 2591 2978 2328 3040 
Q 2066 3103 1784 3103 
Q 1356 3103 1142 2972 
Q 928 2841 928 2578 
Q 928 2378 1081 2264 
Q 1234 2150 1697 2047 
L 1894 2003 
Q 2506 1872 2764 1633 
Q 3022 1394 3022 966 
Q 3022 478 2636 193 
Q 2250 -91 1575 -91 
Q 1294 -91 989 -36 
Q 684 19 347 128 
L 347 722 
Q 666 556 975 473 
Q 1284 391 1588 391 
Q 1994 391 2212 530 
Q 2431 669 2431 922 
Q 2431 1156 2273 1281 
Q 2116 1406 1581 1522 
L 1381 1569 
Q 847 1681 609 1914 
Q 372 2147 372 2553 
Q 372 3047 722 3315 
Q 1072 3584 1716 3584 
Q 2034 3584 2315 3537 
Q 2597 3491 2834 3397 
z
" transform="scale(0.015625)"/>
       <path id="DejaVuSans-6f" d="M 1959 3097 
Q 1497 3097 1228 2736 
Q 959 2375 959 1747 
Q 959 1119 1226 758 
Q 1494 397 1959 397 
Q 2419 397 2687 759 
Q 2956 1122 2956 1747 
Q 2956 2369 2687 2733 
Q 2419 3097 1959 3097 
z
M 1959 3584 
Q 2709 3584 3137 3096 
Q 3566 2609 3566 1747 
Q 3566 888 3137 398 
Q 2709 -91 1959 -91 
Q 1206 -91 779 398 
Q 353 888 353 1747 
Q 353 2609 779 3096 
Q 1206 3584 1959 3584 
z
" transform="scale(0.015625)"/>
      </defs>
      <use xlink:href="#DejaVuSans-54"/>
      <use xlink:href="#DejaVuSans-68" x="61.083984"/>
      <use xlink:href="#DejaVuSans-72" x="124.462891"/>
      <use xlink:href="#DejaVuSans-65" x="163.326172"/>
      <use xlink:href="#DejaVuSans-73" x="224.849609"/>
      <use xlink:href="#DejaVuSans-68" x="276.949219"/>
      <use xlink:href="#DejaVuSans-6f" x="340.328125"/>
      <use xlink:href="#DejaVuSans-6c" x="401.509766"/>
      <use xlink:href="#DejaVuSans-64" x="429.292969"/>
     </g>
    </g>
    <g id="line2d_17">
     <path d="M 1122.647 112.534963 
L 1132.647 112.534963 
L 1142.647 112.534963 
" style="fill: none; stroke: #ff7f0e; stroke-width: 1.5; stroke-linecap: square"/>
    </g>
    <g id="text_17">
     <!-- Detections -->
     <g transform="translate(1150.647 116.034963) scale(0.1 -0.1)">
      <defs>
       <path id="DejaVuSans-44" d="M 1259 4147 
L 1259 519 
L 2022 519 
Q 2988 519 3436 956 
Q 3884 1394 3884 2338 
Q 3884 3275 3436 3711 
Q 2988 4147 2022 4147 
L 1259 4147 
z
M 628 4666 
L 1925 4666 
Q 3281 4666 3915 4102 
Q 4550 3538 4550 2338 
Q 4550 1131 3912 565 
Q 3275 0 1925 0 
L 628 0 
L 628 4666 
z
" transform="scale(0.015625)"/>
       <path id="DejaVuSans-6e" d="M 3513 2113 
L 3513 0 
L 2938 0 
L 2938 2094 
Q 2938 2591 2744 2837 
Q 2550 3084 2163 3084 
Q 1697 3084 1428 2787 
Q 1159 2491 1159 1978 
L 1159 0 
L 581 0 
L 581 3500 
L 1159 3500 
L 1159 2956 
Q 1366 3272 1645 3428 
Q 1925 3584 2291 3584 
Q 2894 3584 3203 3211 
Q 3513 2838 3513 2113 
z
" transform="scale(0.015625)"/>
      </defs>
      <use xlink:href="#DejaVuSans-44"/>
      <use xlink:href="#DejaVuSans-65" x="77.001953"/>
      <use xlink:href="#DejaVuSans-74" x="138.525391"/>
      <use xlink:href="#DejaVuSans-65" x="177.734375"/>
      <use xlink:href="#DejaVuSans-63" x="239.257812"/>
      <use xlink:href="#DejaVuSans-74" x="294.238281"/>
      <use xlink:href="#DejaVuSans-69" x="333.447266"/>
      <use xlink:href="#DejaVuSans-6f" x="361.230469"/>
      <use xlink:href="#DejaVuSans-6e" x="422.412109"/>
      <use xlink:href="#DejaVuSans-73" x="485.791016"/>
     </g>
    </g>
    <g id="line2d_18">
     <path d="M 1122.647 127.213088 
L 1132.647 127.213088 
L 1142.647 127.213088 
" style="fill: none; stroke: #2ca02c; stroke-width: 1.5; stroke-linecap: square"/>
    </g>
    <g id="text_18">
     <!-- Detections after -->
     <g transform="translate(1150.647 130.713088) scale(0.1 -0.1)">
      <use xlink:href="#DejaVuSans-44"/>
      <use xlink:href="#DejaVuSans-65" x="77.001953"/>
      <use xlink:href="#DejaVuSans-74" x="138.525391"/>
      <use xlink:href="#DejaVuSans-65" x="177.734375"/>
      <use xlink:href="#DejaVuSans-63" x="239.257812"/>
      <use xlink:href="#DejaVuSans-74" x="294.238281"/>
      <use xlink:href="#DejaVuSans-69" x="333.447266"/>
      <use xlink:href="#DejaVuSans-6f" x="361.230469"/>
      <use xlink:href="#DejaVuSans-6e" x="422.412109"/>
      <use xlink:href="#DejaVuSans-73" x="485.791016"/>
      <use xlink:href="#DejaVuSans-20" x="537.890625"/>
      <use xlink:href="#DejaVuSans-61" x="569.677734"/>
      <use xlink:href="#DejaVuSans-66" x="630.957031"/>
      <use xlink:href="#DejaVuSans-74" x="664.412109"/>
      <use xlink:href="#DejaVuSans-65" x="703.621094"/>
      <use xlink:href="#DejaVuSans-72" x="765.144531"/>
     </g>
    </g>
   </g>
  </g>
 </g>
 <defs>
  <clipPath id="pd0eb0d3a57">
   <rect x="172.26" y="84.7584" width="1068.012" height="543.8664"/>
  </clipPath>
 </defs>
</svg>
