<?xml version="1.0" encoding="utf-8" standalone="no"?>
<!DOCTYPE svg PUBLIC "-//W3C//DTD SVG 1.1//EN"
  "http://www.w3.org/Graphics/SVG/1.1/DTD/svg11.dtd">
<svg xmlns:xlink="http://www.w3.org/1999/xlink" width="460.8pt" height="345.6pt" viewBox="0 0 460.8 345.6" xmlns="http://www.w3.org/2000/svg" version="1.1">
 <metadata>
  <rdf:RDF xmlns:dc="http://purl.org/dc/elements/1.1/" xmlns:cc="http://creativecommons.org/ns#" xmlns:rdf="http://www.w3.org/1999/02/22-rdf-syntax-ns#">
   <cc:Work>
    <dc:type rdf:resource="http://purl.org/dc/dcmitype/StillImage"/>
    <dc:date>2023-11-06T11:56:16.738623</dc:date>
    <dc:format>image/svg+xml</dc:format>
    <dc:creator>
     <cc:Agent>
      <dc:title>Matplotlib v3.8.0, https://matplotlib.org/</dc:title>
     </cc:Agent>
    </dc:creator>
   </cc:Work>
  </rdf:RDF>
 </metadata>
 <defs>
  <style type="text/css">*{stroke-linejoin: round; stroke-linecap: butt}</style>
 </defs>
 <g id="figure_1">
  <g id="patch_1">
   <path d="M 0 345.6 
L 460.8 345.6 
L 460.8 0 
L 0 0 
z
" style="fill: #ffffff"/>
  </g>
  <g id="axes_1">
   <g id="patch_2">
    <path d="M 57.6 307.584 
L 414.72 307.584 
L 414.72 41.472 
L 57.6 41.472 
z
" style="fill: #ffffff"/>
   </g>
   <g id="matplotlib.axis_1">
    <g id="xtick_1">
     <g id="line2d_1">
      <defs>
       <path id="mcd55c912d3" d="M 0 0 
L 0 3.5 
" style="stroke: #000000; stroke-width: 0.8"/>
      </defs>
      <g>
       <use xlink:href="#mcd55c912d3" x="112.055724" y="307.584" style="stroke: #000000; stroke-width: 0.8"/>
      </g>
     </g>
     <g id="text_1">
      <!-- 5 -->
      <g transform="translate(108.874474 322.182437) scale(0.1 -0.1)">
       <defs>
        <path id="DejaVuSans-35" d="M 691 4666 
L 3169 4666 
L 3169 4134 
L 1269 4134 
L 1269 2991 
Q 1406 3038 1543 3061 
Q 1681 3084 1819 3084 
Q 2600 3084 3056 2656 
Q 3513 2228 3513 1497 
Q 3513 744 3044 326 
Q 2575 -91 1722 -91 
Q 1428 -91 1123 -41 
Q 819 9 494 109 
L 494 744 
Q 775 591 1075 516 
Q 1375 441 1709 441 
Q 2250 441 2565 725 
Q 2881 1009 2881 1497 
Q 2881 1984 2565 2268 
Q 2250 2553 1709 2553 
Q 1456 2553 1204 2497 
Q 953 2441 691 2322 
L 691 4666 
z
" transform="scale(0.015625)"/>
       </defs>
       <use xlink:href="#DejaVuSans-35"/>
      </g>
     </g>
    </g>
    <g id="xtick_2">
     <g id="line2d_2">
      <g>
       <use xlink:href="#mcd55c912d3" x="168.084742" y="307.584" style="stroke: #000000; stroke-width: 0.8"/>
      </g>
     </g>
     <g id="text_2">
      <!-- 10 -->
      <g transform="translate(161.722242 322.182437) scale(0.1 -0.1)">
       <defs>
        <path id="DejaVuSans-31" d="M 794 531 
L 1825 531 
L 1825 4091 
L 703 3866 
L 703 4441 
L 1819 4666 
L 2450 4666 
L 2450 531 
L 3481 531 
L 3481 0 
L 794 0 
L 794 531 
z
" transform="scale(0.015625)"/>
        <path id="DejaVuSans-30" d="M 2034 4250 
Q 1547 4250 1301 3770 
Q 1056 3291 1056 2328 
Q 1056 1369 1301 889 
Q 1547 409 2034 409 
Q 2525 409 2770 889 
Q 3016 1369 3016 2328 
Q 3016 3291 2770 3770 
Q 2525 4250 2034 4250 
z
M 2034 4750 
Q 2819 4750 3233 4129 
Q 3647 3509 3647 2328 
Q 3647 1150 3233 529 
Q 2819 -91 2034 -91 
Q 1250 -91 836 529 
Q 422 1150 422 2328 
Q 422 3509 836 4129 
Q 1250 4750 2034 4750 
z
" transform="scale(0.015625)"/>
       </defs>
       <use xlink:href="#DejaVuSans-31"/>
       <use xlink:href="#DejaVuSans-30" x="63.623047"/>
      </g>
     </g>
    </g>
    <g id="xtick_3">
     <g id="line2d_3">
      <g>
       <use xlink:href="#mcd55c912d3" x="224.113761" y="307.584" style="stroke: #000000; stroke-width: 0.8"/>
      </g>
     </g>
     <g id="text_3">
      <!-- 15 -->
      <g transform="translate(217.751261 322.182437) scale(0.1 -0.1)">
       <use xlink:href="#DejaVuSans-31"/>
       <use xlink:href="#DejaVuSans-35" x="63.623047"/>
      </g>
     </g>
    </g>
    <g id="xtick_4">
     <g id="line2d_4">
      <g>
       <use xlink:href="#mcd55c912d3" x="280.14278" y="307.584" style="stroke: #000000; stroke-width: 0.8"/>
      </g>
     </g>
     <g id="text_4">
      <!-- 20 -->
      <g transform="translate(273.78028 322.182437) scale(0.1 -0.1)">
       <defs>
        <path id="DejaVuSans-32" d="M 1228 531 
L 3431 531 
L 3431 0 
L 469 0 
L 469 531 
Q 828 903 1448 1529 
Q 2069 2156 2228 2338 
Q 2531 2678 2651 2914 
Q 2772 3150 2772 3378 
Q 2772 3750 2511 3984 
Q 2250 4219 1831 4219 
Q 1534 4219 1204 4116 
Q 875 4013 500 3803 
L 500 4441 
Q 881 4594 1212 4672 
Q 1544 4750 1819 4750 
Q 2544 4750 2975 4387 
Q 3406 4025 3406 3419 
Q 3406 3131 3298 2873 
Q 3191 2616 2906 2266 
Q 2828 2175 2409 1742 
Q 1991 1309 1228 531 
z
" transform="scale(0.015625)"/>
       </defs>
       <use xlink:href="#DejaVuSans-32"/>
       <use xlink:href="#DejaVuSans-30" x="63.623047"/>
      </g>
     </g>
    </g>
    <g id="xtick_5">
     <g id="line2d_5">
      <g>
       <use xlink:href="#mcd55c912d3" x="336.171798" y="307.584" style="stroke: #000000; stroke-width: 0.8"/>
      </g>
     </g>
     <g id="text_5">
      <!-- 25 -->
      <g transform="translate(329.809298 322.182437) scale(0.1 -0.1)">
       <use xlink:href="#DejaVuSans-32"/>
       <use xlink:href="#DejaVuSans-35" x="63.623047"/>
      </g>
     </g>
    </g>
    <g id="xtick_6">
     <g id="line2d_6">
      <g>
       <use xlink:href="#mcd55c912d3" x="392.200817" y="307.584" style="stroke: #000000; stroke-width: 0.8"/>
      </g>
     </g>
     <g id="text_6">
      <!-- 30 -->
      <g transform="translate(385.838317 322.182437) scale(0.1 -0.1)">
       <defs>
        <path id="DejaVuSans-33" d="M 2597 2516 
Q 3050 2419 3304 2112 
Q 3559 1806 3559 1356 
Q 3559 666 3084 287 
Q 2609 -91 1734 -91 
Q 1441 -91 1130 -33 
Q 819 25 488 141 
L 488 750 
Q 750 597 1062 519 
Q 1375 441 1716 441 
Q 2309 441 2620 675 
Q 2931 909 2931 1356 
Q 2931 1769 2642 2001 
Q 2353 2234 1838 2234 
L 1294 2234 
L 1294 2753 
L 1863 2753 
Q 2328 2753 2575 2939 
Q 2822 3125 2822 3475 
Q 2822 3834 2567 4026 
Q 2313 4219 1838 4219 
Q 1578 4219 1281 4162 
Q 984 4106 628 3988 
L 628 4550 
Q 988 4650 1302 4700 
Q 1616 4750 1894 4750 
Q 2613 4750 3031 4423 
Q 3450 4097 3450 3541 
Q 3450 3153 3228 2886 
Q 3006 2619 2597 2516 
z
" transform="scale(0.015625)"/>
       </defs>
       <use xlink:href="#DejaVuSans-33"/>
       <use xlink:href="#DejaVuSans-30" x="63.623047"/>
      </g>
     </g>
    </g>
    <g id="text_7">
     <!-- Time -->
     <g transform="translate(223.926406 335.860562) scale(0.1 -0.1)">
      <defs>
       <path id="DejaVuSans-54" d="M -19 4666 
L 3928 4666 
L 3928 4134 
L 2272 4134 
L 2272 0 
L 1638 0 
L 1638 4134 
L -19 4134 
L -19 4666 
z
" transform="scale(0.015625)"/>
       <path id="DejaVuSans-69" d="M 603 3500 
L 1178 3500 
L 1178 0 
L 603 0 
L 603 3500 
z
M 603 4863 
L 1178 4863 
L 1178 4134 
L 603 4134 
L 603 4863 
z
" transform="scale(0.015625)"/>
       <path id="DejaVuSans-6d" d="M 3328 2828 
Q 3544 3216 3844 3400 
Q 4144 3584 4550 3584 
Q 5097 3584 5394 3201 
Q 5691 2819 5691 2113 
L 5691 0 
L 5113 0 
L 5113 2094 
Q 5113 2597 4934 2840 
Q 4756 3084 4391 3084 
Q 3944 3084 3684 2787 
Q 3425 2491 3425 1978 
L 3425 0 
L 2847 0 
L 2847 2094 
Q 2847 2600 2669 2842 
Q 2491 3084 2119 3084 
Q 1678 3084 1418 2786 
Q 1159 2488 1159 1978 
L 1159 0 
L 581 0 
L 581 3500 
L 1159 3500 
L 1159 2956 
Q 1356 3278 1631 3431 
Q 1906 3584 2284 3584 
Q 2666 3584 2933 3390 
Q 3200 3197 3328 2828 
z
" transform="scale(0.015625)"/>
       <path id="DejaVuSans-65" d="M 3597 1894 
L 3597 1613 
L 953 1613 
Q 991 1019 1311 708 
Q 1631 397 2203 397 
Q 2534 397 2845 478 
Q 3156 559 3463 722 
L 3463 178 
Q 3153 47 2828 -22 
Q 2503 -91 2169 -91 
Q 1331 -91 842 396 
Q 353 884 353 1716 
Q 353 2575 817 3079 
Q 1281 3584 2069 3584 
Q 2775 3584 3186 3129 
Q 3597 2675 3597 1894 
z
M 3022 2063 
Q 3016 2534 2758 2815 
Q 2500 3097 2075 3097 
Q 1594 3097 1305 2825 
Q 1016 2553 972 2059 
L 3022 2063 
z
" transform="scale(0.015625)"/>
      </defs>
      <use xlink:href="#DejaVuSans-54"/>
      <use xlink:href="#DejaVuSans-69" x="57.958984"/>
      <use xlink:href="#DejaVuSans-6d" x="85.742188"/>
      <use xlink:href="#DejaVuSans-65" x="183.154297"/>
     </g>
    </g>
   </g>
   <g id="matplotlib.axis_2">
    <g id="ytick_1">
     <g id="line2d_7">
      <defs>
       <path id="ma95fa962dc" d="M 0 0 
L -3.5 0 
" style="stroke: #000000; stroke-width: 0.8"/>
      </defs>
      <g>
       <use xlink:href="#ma95fa962dc" x="57.6" y="291.712857" style="stroke: #000000; stroke-width: 0.8"/>
      </g>
     </g>
     <g id="text_8">
      <!-- −0.75 -->
      <g transform="translate(19.954687 295.512076) scale(0.1 -0.1)">
       <defs>
        <path id="DejaVuSans-2212" d="M 678 2272 
L 4684 2272 
L 4684 1741 
L 678 1741 
L 678 2272 
z
" transform="scale(0.015625)"/>
        <path id="DejaVuSans-2e" d="M 684 794 
L 1344 794 
L 1344 0 
L 684 0 
L 684 794 
z
" transform="scale(0.015625)"/>
        <path id="DejaVuSans-37" d="M 525 4666 
L 3525 4666 
L 3525 4397 
L 1831 0 
L 1172 0 
L 2766 4134 
L 525 4134 
L 525 4666 
z
" transform="scale(0.015625)"/>
       </defs>
       <use xlink:href="#DejaVuSans-2212"/>
       <use xlink:href="#DejaVuSans-30" x="83.789062"/>
       <use xlink:href="#DejaVuSans-2e" x="147.412109"/>
       <use xlink:href="#DejaVuSans-37" x="179.199219"/>
       <use xlink:href="#DejaVuSans-35" x="242.822266"/>
      </g>
     </g>
    </g>
    <g id="ytick_2">
     <g id="line2d_8">
      <g>
       <use xlink:href="#ma95fa962dc" x="57.6" y="259.665804" style="stroke: #000000; stroke-width: 0.8"/>
      </g>
     </g>
     <g id="text_9">
      <!-- −0.50 -->
      <g transform="translate(19.954687 263.465023) scale(0.1 -0.1)">
       <use xlink:href="#DejaVuSans-2212"/>
       <use xlink:href="#DejaVuSans-30" x="83.789062"/>
       <use xlink:href="#DejaVuSans-2e" x="147.412109"/>
       <use xlink:href="#DejaVuSans-35" x="179.199219"/>
       <use xlink:href="#DejaVuSans-30" x="242.822266"/>
      </g>
     </g>
    </g>
    <g id="ytick_3">
     <g id="line2d_9">
      <g>
       <use xlink:href="#ma95fa962dc" x="57.6" y="227.618751" style="stroke: #000000; stroke-width: 0.8"/>
      </g>
     </g>
     <g id="text_10">
      <!-- −0.25 -->
      <g transform="translate(19.954687 231.417969) scale(0.1 -0.1)">
       <use xlink:href="#DejaVuSans-2212"/>
       <use xlink:href="#DejaVuSans-30" x="83.789062"/>
       <use xlink:href="#DejaVuSans-2e" x="147.412109"/>
       <use xlink:href="#DejaVuSans-32" x="179.199219"/>
       <use xlink:href="#DejaVuSans-35" x="242.822266"/>
      </g>
     </g>
    </g>
    <g id="ytick_4">
     <g id="line2d_10">
      <g>
       <use xlink:href="#ma95fa962dc" x="57.6" y="195.571697" style="stroke: #000000; stroke-width: 0.8"/>
      </g>
     </g>
     <g id="text_11">
      <!-- 0.00 -->
      <g transform="translate(28.334375 199.370916) scale(0.1 -0.1)">
       <use xlink:href="#DejaVuSans-30"/>
       <use xlink:href="#DejaVuSans-2e" x="63.623047"/>
       <use xlink:href="#DejaVuSans-30" x="95.410156"/>
       <use xlink:href="#DejaVuSans-30" x="159.033203"/>
      </g>
     </g>
    </g>
    <g id="ytick_5">
     <g id="line2d_11">
      <g>
       <use xlink:href="#ma95fa962dc" x="57.6" y="163.524644" style="stroke: #000000; stroke-width: 0.8"/>
      </g>
     </g>
     <g id="text_12">
      <!-- 0.25 -->
      <g transform="translate(28.334375 167.323863) scale(0.1 -0.1)">
       <use xlink:href="#DejaVuSans-30"/>
       <use xlink:href="#DejaVuSans-2e" x="63.623047"/>
       <use xlink:href="#DejaVuSans-32" x="95.410156"/>
       <use xlink:href="#DejaVuSans-35" x="159.033203"/>
      </g>
     </g>
    </g>
    <g id="ytick_6">
     <g id="line2d_12">
      <g>
       <use xlink:href="#ma95fa962dc" x="57.6" y="131.477591" style="stroke: #000000; stroke-width: 0.8"/>
      </g>
     </g>
     <g id="text_13">
      <!-- 0.50 -->
      <g transform="translate(28.334375 135.27681) scale(0.1 -0.1)">
       <use xlink:href="#DejaVuSans-30"/>
       <use xlink:href="#DejaVuSans-2e" x="63.623047"/>
       <use xlink:href="#DejaVuSans-35" x="95.410156"/>
       <use xlink:href="#DejaVuSans-30" x="159.033203"/>
      </g>
     </g>
    </g>
    <g id="ytick_7">
     <g id="line2d_13">
      <g>
       <use xlink:href="#ma95fa962dc" x="57.6" y="99.430538" style="stroke: #000000; stroke-width: 0.8"/>
      </g>
     </g>
     <g id="text_14">
      <!-- 0.75 -->
      <g transform="translate(28.334375 103.229757) scale(0.1 -0.1)">
       <use xlink:href="#DejaVuSans-30"/>
       <use xlink:href="#DejaVuSans-2e" x="63.623047"/>
       <use xlink:href="#DejaVuSans-37" x="95.410156"/>
       <use xlink:href="#DejaVuSans-35" x="159.033203"/>
      </g>
     </g>
    </g>
    <g id="ytick_8">
     <g id="line2d_14">
      <g>
       <use xlink:href="#ma95fa962dc" x="57.6" y="67.383485" style="stroke: #000000; stroke-width: 0.8"/>
      </g>
     </g>
     <g id="text_15">
      <!-- 1.00 -->
      <g transform="translate(28.334375 71.182703) scale(0.1 -0.1)">
       <use xlink:href="#DejaVuSans-31"/>
       <use xlink:href="#DejaVuSans-2e" x="63.623047"/>
       <use xlink:href="#DejaVuSans-30" x="95.410156"/>
       <use xlink:href="#DejaVuSans-30" x="159.033203"/>
      </g>
     </g>
    </g>
    <g id="text_16">
     <!-- Amplitude -->
     <g transform="translate(13.875 200.150656) rotate(-90) scale(0.1 -0.1)">
      <defs>
       <path id="DejaVuSans-41" d="M 2188 4044 
L 1331 1722 
L 3047 1722 
L 2188 4044 
z
M 1831 4666 
L 2547 4666 
L 4325 0 
L 3669 0 
L 3244 1197 
L 1141 1197 
L 716 0 
L 50 0 
L 1831 4666 
z
" transform="scale(0.015625)"/>
       <path id="DejaVuSans-70" d="M 1159 525 
L 1159 -1331 
L 581 -1331 
L 581 3500 
L 1159 3500 
L 1159 2969 
Q 1341 3281 1617 3432 
Q 1894 3584 2278 3584 
Q 2916 3584 3314 3078 
Q 3713 2572 3713 1747 
Q 3713 922 3314 415 
Q 2916 -91 2278 -91 
Q 1894 -91 1617 61 
Q 1341 213 1159 525 
z
M 3116 1747 
Q 3116 2381 2855 2742 
Q 2594 3103 2138 3103 
Q 1681 3103 1420 2742 
Q 1159 2381 1159 1747 
Q 1159 1113 1420 752 
Q 1681 391 2138 391 
Q 2594 391 2855 752 
Q 3116 1113 3116 1747 
z
" transform="scale(0.015625)"/>
       <path id="DejaVuSans-6c" d="M 603 4863 
L 1178 4863 
L 1178 0 
L 603 0 
L 603 4863 
z
" transform="scale(0.015625)"/>
       <path id="DejaVuSans-74" d="M 1172 4494 
L 1172 3500 
L 2356 3500 
L 2356 3053 
L 1172 3053 
L 1172 1153 
Q 1172 725 1289 603 
Q 1406 481 1766 481 
L 2356 481 
L 2356 0 
L 1766 0 
Q 1100 0 847 248 
Q 594 497 594 1153 
L 594 3053 
L 172 3053 
L 172 3500 
L 594 3500 
L 594 4494 
L 1172 4494 
z
" transform="scale(0.015625)"/>
       <path id="DejaVuSans-75" d="M 544 1381 
L 544 3500 
L 1119 3500 
L 1119 1403 
Q 1119 906 1312 657 
Q 1506 409 1894 409 
Q 2359 409 2629 706 
Q 2900 1003 2900 1516 
L 2900 3500 
L 3475 3500 
L 3475 0 
L 2900 0 
L 2900 538 
Q 2691 219 2414 64 
Q 2138 -91 1772 -91 
Q 1169 -91 856 284 
Q 544 659 544 1381 
z
M 1991 3584 
L 1991 3584 
z
" transform="scale(0.015625)"/>
       <path id="DejaVuSans-64" d="M 2906 2969 
L 2906 4863 
L 3481 4863 
L 3481 0 
L 2906 0 
L 2906 525 
Q 2725 213 2448 61 
Q 2172 -91 1784 -91 
Q 1150 -91 751 415 
Q 353 922 353 1747 
Q 353 2572 751 3078 
Q 1150 3584 1784 3584 
Q 2172 3584 2448 3432 
Q 2725 3281 2906 2969 
z
M 947 1747 
Q 947 1113 1208 752 
Q 1469 391 1925 391 
Q 2381 391 2643 752 
Q 2906 1113 2906 1747 
Q 2906 2381 2643 2742 
Q 2381 3103 1925 3103 
Q 1469 3103 1208 2742 
Q 947 2381 947 1747 
z
" transform="scale(0.015625)"/>
      </defs>
      <use xlink:href="#DejaVuSans-41"/>
      <use xlink:href="#DejaVuSans-6d" x="68.408203"/>
      <use xlink:href="#DejaVuSans-70" x="165.820312"/>
      <use xlink:href="#DejaVuSans-6c" x="229.296875"/>
      <use xlink:href="#DejaVuSans-69" x="257.080078"/>
      <use xlink:href="#DejaVuSans-74" x="284.863281"/>
      <use xlink:href="#DejaVuSans-75" x="324.072266"/>
      <use xlink:href="#DejaVuSans-64" x="387.451172"/>
      <use xlink:href="#DejaVuSans-65" x="450.927734"/>
     </g>
    </g>
   </g>
   <g id="line2d_15">
    <path d="M 73.832727 249.078098 
L 73.888756 245.091189 
L 73.93358 255.13794 
L 73.989609 250.35293 
L 74.101667 243.630997 
L 74.202519 250.685707 
L 74.314577 236.460789 
L 74.370606 240.53038 
L 74.415429 240.383861 
L 74.527487 230.775129 
L 74.583516 234.06508 
L 74.639545 235.525784 
L 74.684368 234.233647 
L 74.740397 230.204692 
L 74.897279 243.242586 
L 74.953308 234.369783 
L 75.973036 252.672624 
L 76.085094 244.259888 
L 76.185946 253.164482 
L 76.230769 244.664322 
L 76.286798 247.491513 
L 76.398856 251.317418 
L 76.454885 246.465366 
L 76.667796 254.066543 
L 76.723825 245.145156 
L 76.768648 252.189996 
L 76.824677 255.243311 
L 76.936735 247.532533 
L 76.992764 248.921196 
L 77.037587 249.200262 
L 77.093616 261.600677 
L 77.149645 244.509471 
L 77.205674 257.555057 
L 77.418584 257.094092 
L 77.474613 257.999742 
L 77.575466 278.327188 
L 77.631495 277.554597 
L 77.732347 272.170949 
L 77.945257 173.354501 
L 78.001286 176.795585 
L 78.214197 270.805103 
L 78.371078 263.503759 
L 78.427107 267.416063 
L 78.483136 260.024218 
L 78.539165 261.953707 
L 78.640017 262.640411 
L 78.696046 264.931904 
L 78.752075 260.064597 
L 78.796898 261.958194 
L 78.852927 269.078793 
L 78.964985 251.540338 
L 79.009809 258.515187 
L 79.065838 260.560558 
L 79.390806 245.608813 
L 79.435629 246.550868 
L 79.603716 233.823188 
L 79.715774 245.150155 
L 79.760597 226.06152 
L 79.816626 232.738716 
L 80.040743 251.818378 
L 80.141595 231.42248 
L 80.20883 250.544059 
L 80.376917 238.178896 
L 80.42174 242.336168 
L 80.477769 230.871014 
L 80.522592 241.580114 
L 80.578621 234.504893 
L 80.63465 243.701116 
L 80.690679 241.801238 
L 80.746708 226.691053 
L 80.791531 234.193524 
L 80.948413 243.475248 
L 81.004442 226.070237 
L 81.049265 236.25197 
L 81.105294 249.11694 
L 81.161323 237.520521 
L 81.32941 230.399409 
L 81.385439 234.192627 
L 81.430262 223.787077 
L 81.486291 226.77117 
L 81.54232 233.819984 
L 81.587143 228.384034 
L 81.643172 219.152945 
L 81.744025 232.200838 
L 82.225874 226.248419 
L 82.539637 230.807817 
L 82.595666 240.952889 
L 82.651695 239.06019 
L 82.707724 240.346687 
L 82.763753 239.67857 
L 82.808576 236.223384 
L 82.920634 242.814053 
L 82.965457 242.556908 
L 83.021486 233.007783 
L 83.06631 233.833315 
L 83.122339 243.170929 
L 83.167162 236.24492 
L 83.223191 230.735134 
L 83.503336 243.840584 
L 83.592982 222.026412 
L 83.761069 130.395042 
L 83.805893 134.823816 
L 84.018803 234.890355 
L 84.074832 227.715533 
L 84.130861 215.902092 
L 84.175684 222.737087 
L 84.287742 221.230235 
L 84.343771 214.554449 
L 84.444623 223.727469 
L 84.556681 215.269996 
L 84.601505 218.940665 
L 84.657534 216.591488 
L 84.713563 219.160251 
L 84.870444 209.233356 
L 84.971296 211.219889 
L 85.083354 207.653693 
L 85.139383 214.34563 
L 85.195412 207.8711 
L 85.240235 209.528702 
L 85.296264 204.058526 
L 85.352293 209.288477 
L 85.509175 195.808077 
L 85.565204 210.192717 
L 85.621233 210.034276 
L 85.666056 201.511811 
L 85.722085 203.281193 
L 85.834143 211.468318 
L 85.934995 197.102008 
L 85.991024 205.265418 
L 86.035848 204.13044 
L 86.192729 176.434607 
L 86.304787 206.984935 
L 86.360816 195.81205 
L 86.461668 196.010101 
L 86.517697 198.903566 
L 86.573726 209.744827 
L 86.674578 209.230408 
L 86.786636 217.603918 
L 86.83146 206.047238 
L 86.932312 206.408473 
L 87.04437 209.73611 
L 87.100399 215.934651 
L 87.47019 217.709417 
L 87.515014 203.920724 
L 87.571043 215.637255 
L 87.627072 209.109526 
L 88.198568 201.905862 
L 88.72524 223.593897 
L 88.781269 206.368862 
L 88.826093 218.955919 
L 88.926945 221.21075 
L 88.982974 219.674158 
L 89.027797 211.208224 
L 89.083826 214.595341 
L 89.408794 210.050556 
L 89.565676 117.844518 
L 89.823409 231.446963 
L 89.879438 229.053946 
L 90.047525 225.807579 
L 90.092348 214.666485 
L 90.148377 230.762182 
L 90.204407 217.909519 
L 90.305259 226.656442 
L 90.484552 212.401528 
L 90.59661 215.180007 
L 90.652639 220.76081 
L 90.697462 215.555983 
L 90.742285 216.621868 
L 90.854343 209.903781 
L 90.899166 212.577018 
L 91.011224 219.844777 
L 91.067253 215.909398 
L 91.134488 229.571057 
L 91.23534 227.58978 
L 91.381016 210.738158 
L 91.437045 234.633979 
L 91.493074 222.272533 
L 91.649955 225.544409 
L 91.705984 222.135372 
L 91.762013 223.177029 
L 91.862865 229.242895 
L 91.918894 225.530693 
L 91.963718 218.906439 
L 92.019747 226.65375 
L 92.06457 226.704256 
L 92.131805 231.51016 
L 92.288686 224.442375 
L 92.389538 229.485043 
L 92.434361 223.841941 
L 92.479185 224.255605 
L 92.535214 234.031238 
L 92.591243 233.871515 
L 92.647272 227.053825 
L 92.703301 232.416323 
L 92.748124 237.179669 
L 92.804153 234.663847 
L 92.860182 224.583895 
L 92.905005 231.857038 
L 92.961034 241.241825 
L 93.017063 240.981859 
L 93.117915 231.754359 
L 93.274797 235.64846 
L 93.554942 217.497138 
L 93.599765 220.838235 
L 94.720345 250.023615 
L 94.753963 246.619449 
L 95.493546 229.283916 
L 95.69525 249.733397 
L 95.751279 243.864684 
L 95.863337 259.419811 
L 95.908161 257.290348 
L 95.952984 249.732115 
L 96.009013 252.903619 
L 99.953456 275.903661 
L 105.73565 282.496637 
L 108.906893 270.19967 
L 108.962922 267.819087 
L 109.063774 258.486088 
L 109.119803 269.139426 
L 109.164626 260.71605 
L 109.220655 260.49531 
L 109.377537 267.188401 
L 109.489595 260.673107 
L 109.747328 273.581275 
L 109.971444 257.34893 
L 110.083502 266.965866 
L 110.800674 252.149103 
L 110.957555 260.165353 
L 111.002378 253.664288 
L 111.529051 271.937518 
L 112.044518 270.52796 
L 112.089341 279.939026 
L 112.134164 266.872032 
L 112.190193 268.736915 
L 112.291046 295.488 
L 112.347075 288.278695 
L 112.571191 206.360274 
L 112.660837 169.601663 
L 112.929776 283.552139 
L 113.075452 262.566703 
L 113.18751 278.372951 
L 113.456449 281.540994 
L 113.523684 256.806566 
L 113.635742 267.100208 
L 113.691771 261.019343 
L 113.7478 264.014845 
L 113.792623 262.878841 
L 113.848652 268.836132 
L 113.994328 255.090638 
L 114.050357 264.749877 
L 114.09518 259.440962 
L 114.151209 256.059869 
L 114.319296 271.246327 
L 114.375325 267.463365 
L 114.521001 260.118821 
L 114.565824 257.107295 
L 114.733911 273.52154 
L 114.823557 255.134607 
L 114.92441 257.010898 
L 114.991644 268.385038 
L 115.036468 260.259059 
L 115.081291 245.50998 
L 115.13732 259.184329 
L 115.294201 252.981301 
L 115.462288 262.698993 
L 115.56314 260.569659 
L 115.720022 264.794614 
L 115.776051 247.920174 
L 115.820874 264.915496 
L 115.865697 268.486178 
L 115.921726 256.573135 
L 116.482016 261.244698 
L 116.627692 255.917837 
L 116.784573 269.729989 
L 116.95266 250.872862 
L 117.311246 257.126908 
L 117.625008 266.324669 
L 117.681037 261.546966 
L 117.893948 276.21721 
L 118.443032 152.649028 
L 118.655942 256.959238 
L 118.700765 251.614943 
L 118.756794 261.762322 
L 118.801618 255.231005 
L 118.90247 249.358574 
L 118.969705 269.789853 
L 119.025734 269.093021 
L 119.272261 258.50929 
L 119.32829 261.023445 
L 119.440348 273.614092 
L 119.709288 247.094386 
L 119.787728 258.201125 
L 119.81014 250.28076 
L 119.922198 249.421515 
L 120.034256 255.904249 
L 120.135108 264.691166 
L 120.247166 254.690178 
L 120.29199 255.135376 
L 120.348019 267.258007 
L 120.404048 257.694782 
L 120.460077 253.790425 
L 120.560929 265.449912 
L 120.71781 249.02849 
L 120.818662 253.06911 
L 120.874691 243.301938 
L 120.975544 258.427634 
L 121.087602 240.97968 
L 121.266894 266.354665 
L 121.311718 253.409835 
L 121.367747 257.486476 
L 121.423776 267.707563 
L 121.468599 266.862547 
L 121.569451 255.342015 
L 121.726332 267.247624 
L 121.782361 259.134848 
L 121.83839 263.040743 
L 121.939243 267.097644 
L 122.163359 244.591126 
L 122.219388 245.075934 
L 122.264211 236.856378 
L 122.331446 256.563777 
L 122.376269 243.656891 
L 122.488327 244.179386 
L 122.53315 245.774688 
L 122.589179 259.89603 
L 122.690032 244.23143 
L 123.059823 272.045196 
L 123.395997 238.571408 
L 123.57529 268.332609 
L 123.620113 261.216625 
L 123.889053 282.145145 
L 124.202815 147.494836 
L 124.258844 154.972183 
L 124.426931 252.098597 
L 124.471754 249.915552 
L 124.527783 241.383857 
L 124.583812 248.449848 
L 124.628636 250.544956 
L 124.740694 242.618951 
L 124.796723 257.096528 
L 124.897575 255.565448 
L 124.942398 249.774673 
L 124.998427 251.819019 
L 125.054456 264.736801 
L 125.099279 255.332017 
L 125.166514 250.090657 
L 125.267366 262.451718 
L 125.31219 259.254192 
L 125.368219 253.234345 
L 125.424248 254.318817 
L 125.469071 258.377897 
L 125.760422 247.131689 
L 125.861274 225.877698 
L 125.962126 244.600869 
L 126.006949 223.021921 
L 126.062978 248.133223 
L 126.119007 239.070573 
L 126.175036 249.191673 
L 126.231065 245.871214 
L 126.275889 240.956862 
L 126.331918 246.361662 
L 126.387947 250.677631 
L 126.500005 238.240682 
L 126.544828 243.829688 
L 126.64568 247.918636 
L 126.701709 236.098914 
L 126.746532 241.557552 
L 126.85859 245.609582 
L 126.970649 234.976626 
L 127.015472 246.824934 
L 127.071501 242.748805 
L 127.183559 234.767679 
L 127.228382 241.287075 
L 127.329234 229.514911 
L 127.766261 257.112807 
L 128.147258 239.423219 
L 128.192081 248.959524 
L 128.819606 239.686133 
L 129.178192 244.005819 
L 129.379896 244.030303 
L 129.42472 246.249113 
L 129.940187 209.753288 
L 129.996216 178.112847 
L 130.343595 251.755822 
L 130.399624 245.781226 
L 130.511683 237.299909 
L 130.668564 246.990297 
L 130.75821 238.114545 
L 130.859062 254.39009 
L 130.915091 231.508237 
L 130.97112 238.701647 
L 131.027149 239.17197 
L 131.184031 245.630092 
L 131.228854 240.41155 
L 131.284883 242.559984 
L 131.329706 244.659579 
L 131.643469 239.673442 
L 131.688292 229.359162 
L 131.833967 234.202626 
L 131.990849 235.719989 
L 132.035672 240.88559 
L 132.181347 243.583311 
L 132.349434 217.583536 
L 132.49511 236.60718 
L 132.618374 228.922809 
L 132.831284 239.937382 
L 132.943342 252.823245 
L 133.044194 251.692497 
L 133.089017 249.025029 
L 133.201075 250.985026 
L 133.738954 235.256461 
L 133.851012 249.614182 
L 133.996687 240.778809 
L 134.579389 240.782655 
L 135.162091 255.725939 
L 135.946497 171.006221 
L 135.968909 152.22934 
L 136.036144 179.215266 
L 136.249054 266.834345 
L 136.517993 253.517 
L 136.618846 254.960143 
L 136.663669 261.562989 
L 136.842962 240.578835 
L 136.898991 244.879422 
L 136.943814 245.359358 
L 137.044666 240.535636 
L 137.212753 256.898477 
L 137.268782 250.181927 
L 137.313605 250.181543 
L 137.369634 264.0683 
L 137.414458 254.987447 
L 137.526516 252.693391 
L 137.571339 256.684787 
L 137.627368 254.965655 
L 137.851484 235.372215 
L 138.019571 245.836988 
L 138.064394 234.550272 
L 138.120423 248.626748 
L 138.176452 233.676157 
L 138.232481 247.248853 
L 138.333334 249.43177 
L 138.389363 240.031728 
L 138.434186 244.457298 
L 138.490215 252.485213 
L 138.546244 247.261672 
L 138.602273 236.555392 
L 138.747948 255.429183 
L 138.860006 235.13622 
L 138.904829 248.561628 
L 138.972064 246.888516 
L 139.072917 239.048909 
L 140.37279 233.915356 
L 140.944286 252.772867 
L 142.031249 228.362114 
L 142.132101 258.640042 
L 142.232953 255.007957 
L 142.445863 238.761127 
L 142.625156 261.059466 
L 142.66998 255.272922 
L 142.726009 262.750269 
L 142.782038 259.66606 
L 142.938919 248.513429 
L 142.983742 259.384815 
L 143.039771 247.878257 
L 143.30871 229.451201 
L 143.409563 250.044253 
L 143.454386 235.934705 
L 144.160351 235.687301 
L 144.272409 234.486178 
L 144.328438 244.929672 
L 144.384468 237.615893 
L 144.440497 238.34413 
L 144.586172 248.345503 
L 144.642201 241.455899 
L 144.69823 243.804051 
L 144.743053 258.367386 
L 144.799082 251.528544 
L 144.91114 238.163641 
L 146.244631 241.945706 
L 147.600533 259.461216 
L 148.127206 263.285454 
L 148.183235 259.94205 
L 148.295293 237.844453 
L 148.340116 250.979899 
L 148.508203 236.914704 
L 148.609056 236.893424 
L 148.833172 258.300471 
L 149.034876 259.461216 
L 149.359844 230.305447 
L 149.404668 237.966616 
L 149.471902 236.950468 
L 149.617578 226.988706 
L 149.673607 231.415942 
L 149.808077 230.787051 
L 149.908929 231.677061 
L 149.998575 244.059017 
L 150.110633 229.858327 
L 150.166662 230.651043 
L 150.211485 234.528736 
L 150.469219 217.081423 
L 150.6261 228.613748 
L 150.682129 220.234469 
L 150.726952 222.435204 
L 150.872628 235.717682 
L 152.150089 219.564942 
L 152.78882 248.921709 
L 152.900878 240.021345 
L 152.968113 224.25099 
L 153.528403 254.653004 
L 153.730108 213.773783 
L 153.999047 199.74589 
L 154.133517 231.991251 
L 154.189546 231.69129 
L 154.245575 221.147938 
L 154.290398 222.995515 
L 154.458485 236.299656 
L 154.503308 227.147787 
L 154.559337 232.618219 
L 154.648984 232.662829 
L 154.749836 223.720804 
L 154.850688 229.095992 
L 154.895511 226.021654 
L 155.007569 220.437647 
L 155.119627 241.263489 
L 155.164451 219.001939 
L 155.265303 221.864382 
L 155.310126 226.449418 
L 155.366155 222.53737 
L 155.422184 220.41624 
L 155.478213 231.138543 
L 155.511831 224.929618 
L 155.702329 231.925234 
L 155.814387 215.948496 
L 155.91524 217.575076 
L 156.016092 223.056789 
L 156.072121 214.959396 
L 156.12815 215.620975 
L 156.285031 220.717482 
L 156.329854 209.072352 
L 156.374677 213.912354 
L 156.497941 227.216496 
L 156.565176 213.252698 
L 156.710852 233.514768 
L 156.766881 233.921765 
L 156.867733 239.229783 
L 156.968585 236.073148 
L 158.089165 225.358023 
L 158.593427 229.187262 
L 158.694279 241.523583 
L 158.795131 229.878709 
L 158.907189 241.740477 
L 158.952012 236.014694 
L 159.355421 249.452023 
L 159.400244 246.353971 
L 159.445068 234.468103 
L 159.557126 270.192235 
L 159.601949 263.078046 
L 159.915711 137.108258 
L 159.960535 167.830486 
L 160.162239 241.916351 
L 160.352738 220.753759 
L 160.464796 242.64305 
L 160.520825 240.081593 
L 160.610471 229.245844 
L 160.6665 238.178255 
L 160.767353 237.407331 
L 161.058703 226.874234 
L 161.114732 232.033296 
L 161.159556 231.355181 
L 161.260408 222.052819 
L 161.372466 234.093281 
L 161.473318 226.229447 
L 161.529347 228.668228 
L 161.630199 235.596544 
L 162.011197 203.967641 
L 162.078432 224.843732 
L 162.134461 222.807591 
L 162.179284 217.957461 
L 162.280136 217.582511 
L 162.336165 229.266354 
L 162.392194 221.563011 
L 162.437017 226.900769 
L 162.493046 227.133815 
L 162.53787 230.228919 
L 162.593899 220.789267 
L 162.649928 227.663745 
L 164.061859 231.413763 
L 170.056964 216.384592 
L 176.063275 223.862964 
L 182.047174 217.495215 
L 187.963838 228.261743 
L 190.339469 237.268503 
L 190.384292 227.469924 
L 190.529967 247.175529 
L 192.042751 228.911529 
L 192.087574 236.508347 
L 192.143603 225.210607 
L 192.188426 228.351346 
L 193.846885 238.948281 
L 195.875136 230.283912 
L 195.919959 224.365718 
L 199.685109 222.194595 
L 201.971093 216.067198 
L 202.083151 191.845907 
L 202.184003 202.583465 
L 202.228826 201.557959 
L 203.74161 181.746214 
L 205.512127 186.007575 
L 207.842934 165.877154 
L 207.943786 171.373224 
L 209.557422 159.322122 
L 209.613451 157.344947 
L 209.658274 149.527902 
L 209.815155 168.22787 
L 211.283116 170.400532 
L 217.031693 186.474693 
L 221.8726 203.058274 
L 222.018276 195.383133 
L 222.085511 181.618154 
L 222.119128 203.978152 
L 222.186363 187.179215 
L 222.43289 188.003209 
L 223.082827 202.775234 
L 223.116444 210.232071 
L 223.318149 211.024146 
L 223.620706 228.650794 
L 223.912057 119.795927 
L 223.968086 121.683755 
L 224.158584 224.081397 
L 224.214613 217.779152 
L 224.315465 203.510906 
L 224.371494 209.692398 
L 224.505964 212.185787 
L 224.662845 215.077201 
L 224.718874 197.515672 
L 224.763698 204.794968 
L 224.853344 220.956809 
L 224.909373 206.219139 
L 225.010225 206.660619 
L 225.055049 213.716483 
L 225.099872 211.1399 
L 225.155901 208.805977 
L 225.312782 212.376788 
L 225.458457 204.790609 
L 225.548104 213.603677 
L 225.660162 195.605667 
L 225.716191 204.01866 
L 225.749808 206.964425 
L 225.805837 193.152914 
L 225.90669 199.240829 
L 225.951513 210.24912 
L 225.996336 208.83969 
L 226.052365 195.881016 
L 226.097188 204.239784 
L 226.142011 208.79444 
L 226.19804 199.580271 
L 226.25407 165.71051 
L 226.298893 196.656298 
L 226.343716 204.692545 
L 226.500597 194.321221 
L 226.54542 198.842292 
L 226.948829 202.201976 
L 227.038476 213.147071 
L 227.094505 207.893405 
L 227.195357 198.990605 
L 227.251386 200.71025 
L 227.296209 207.129403 
L 227.542737 206.354377 
L 227.58756 205.359765 
L 227.688412 200.387472 
L 227.744441 204.797788 
L 227.789265 202.869837 
L 227.834088 197.215583 
L 227.93494 199.633726 
L 227.990969 197.936898 
L 228.14785 210.129392 
L 228.181468 201.517836 
L 228.517642 217.698265 
L 228.84261 226.513768 
L 228.876228 218.332412 
L 229.414106 236.002773 
L 234.311042 208.157729 
L 240.104443 212.980426 
L 245.897843 226.432625 
L 251.724861 222.610181 
L 257.663937 228.533117 
L 263.625425 218.526874 
L 269.609324 228.222261 
L 275.559606 223.549031 
L 281.532299 233.818189 
L 283.941547 228.237643 
L 283.98637 226.687335 
L 284.042399 235.783571 
L 285.734476 216.422536 
L 285.779299 218.378047 
L 285.824122 229.637587 
L 285.969798 222.393286 
L 287.493787 213.801728 
L 289.847006 242.773289 
L 289.903035 241.857897 
L 289.947858 239.11108 
L 290.015093 220.321509 
L 290.059916 225.90872 
L 291.606317 235.23031 
L 291.65114 236.37862 
L 293.410451 242.580366 
L 299.226263 219.24806 
L 303.271558 223.374311 
L 304.997252 221.389829 
L 306.902239 206.558581 
L 306.947062 214.271153 
L 307.003091 209.431023 
L 307.047914 205.226705 
L 307.137561 207.176064 
L 307.283236 203.294396 
L 307.428912 212.650854 
L 307.473735 205.718948 
L 307.507352 211.4073 
L 308.986518 216.023101 
L 309.031342 216.5779 
L 309.087371 196.198666 
L 310.74583 214.178858 
L 316.438378 212.581504 
L 322.108515 212.684183 
L 333.33673 165.814086 
L 338.995661 171.230935 
L 343.847774 144.838008 
L 343.903803 138.855335 
L 344.430476 128.982151 
L 344.744238 137.440266 
L 345.11403 142.321288 
L 345.730349 134.543981 
L 350.235082 136.731898 
L 350.268699 138.27413 
L 350.593668 120.587105 
L 356.162952 158.47326 
L 356.196569 151.907331 
L 356.521538 152.558655 
L 356.868918 153.902709 
L 357.003387 151.197938 
L 357.048211 151.58481 
L 357.10424 154.636715 
L 357.205092 175.489219 
L 357.350767 168.76344 
L 357.586089 176.869294 
L 357.821411 178.246291 
L 357.87744 175.278734 
L 358.157585 195.90973 
L 358.35929 101.291959 
L 358.448936 53.568 
L 358.695464 171.743047 
L 358.829933 156.685034 
L 358.975609 173.335145 
L 359.076461 178.024526 
L 359.311783 173.481792 
L 359.356606 169.382974 
L 359.401429 170.576662 
L 359.502282 185.871311 
L 359.558311 180.259103 
L 359.726398 175.586258 
L 359.782427 175.663427 
L 359.82725 165.195065 
L 359.883279 182.482527 
L 359.928102 182.463684 
L 360.107395 173.399623 
L 360.163424 186.985138 
L 360.208247 184.528155 
L 360.264276 181.217438 
L 360.309099 183.173974 
L 360.365128 186.950399 
L 360.409952 183.707237 
L 360.465981 163.18674 
L 360.533216 174.162471 
L 360.634068 185.650443 
L 360.690097 179.701869 
L 360.746126 173.985828 
L 360.790949 183.413174 
L 360.846978 166.901763 
L 360.936624 171.686003 
L 361.026271 175.630226 
L 361.171946 165.862541 
L 361.541738 182.493167 
L 361.597767 165.582706 
L 361.653796 178.607141 
L 361.698619 177.86224 
L 361.754648 191.243679 
L 361.788266 178.799936 
L 361.877912 172.778295 
L 361.933941 182.243456 
L 362.12444 181.878248 
L 362.785582 194.51876 
L 362.830405 185.71005 
L 363.03211 188.085506 
L 363.088139 178.917741 
L 363.132962 187.151527 
L 363.177785 187.072691 
L 363.312255 206.342456 
L 363.424313 186.702611 
L 363.603606 192.125614 
L 363.838928 189.711061 
L 363.894957 189.923468 
L 364.029426 190.566204 
L 364.074249 192.108437 
L 364.119073 213.774936 
L 364.50007 98.713453 
L 364.544893 108.514339 
L 364.701775 212.848392 
L 364.825038 195.919472 
L 364.869862 199.203141 
L 365.082772 217.850937 
L 365.127595 209.566005 
L 365.306888 211.808273 
L 365.609445 195.659122 
L 365.676679 192.540431 
L 365.710297 201.862149 
L 365.88959 191.293416 
L 366.046471 210.686626 
L 366.136117 197.325056 
L 366.23697 204.512184 
L 366.371439 193.078309 
L 366.472291 210.686498 
L 366.517115 207.655359 
L 366.606761 201.921372 
L 366.707613 205.797912 
L 366.808466 199.037779 
L 366.853289 205.442062 
L 366.942935 202.463609 
L 366.998964 190.103188 
L 367.043787 195.549265 
L 367.133434 206.641262 
L 367.234286 194.183035 
L 367.279109 197.133671 
L 367.335138 203.08327 
L 367.379962 193.901533 
L 367.514431 197.011507 
L 367.559254 205.924947 
L 367.648901 204.28465 
L 367.70493 195.61823 
L 367.749753 199.492334 
L 367.973869 209.413973 
L 368.175574 196.052788 
L 368.859128 201.66256 
L 369.049626 193.740529 
L 369.09445 203.923288 
L 369.150479 198.432217 
L 369.195302 198.396966 
L 369.240125 195.93588 
L 369.374595 215.676096 
L 369.430624 201.089559 
L 369.486653 210.200408 
L 369.710769 199.872027 
L 369.946091 210.534979 
L 370.136589 230.924981 
L 371.458874 217.655194 
L 371.503697 214.121045 
L 371.548521 218.290238 
L 374.271531 222.493658 
L 374.607705 208.654715 
L 380.670045 210.130161 
L 386.676356 221.179985 
L 392.604226 167.110069 
L 394.699711 157.858084 
L 394.867798 182.060147 
L 395.013474 164.765634 
L 395.181561 185.802474 
L 395.23759 170.741128 
L 396.739167 179.654952 
L 396.828814 167.890478 
L 396.884843 168.936238 
L 396.929666 180.121557 
L 397.05293 162.367233 
L 397.108959 179.874025 
L 398.487273 176.61907 
L 398.487273 176.61907 
" clip-path="url(#p2664b8b647)" style="fill: none; stroke: #1f77b4; stroke-width: 1.5; stroke-linecap: square"/>
   </g>
   <g id="patch_3">
    <path d="M 57.6 307.584 
L 57.6 41.472 
" style="fill: none; stroke: #000000; stroke-width: 0.8; stroke-linejoin: miter; stroke-linecap: square"/>
   </g>
   <g id="patch_4">
    <path d="M 414.72 307.584 
L 414.72 41.472 
" style="fill: none; stroke: #000000; stroke-width: 0.8; stroke-linejoin: miter; stroke-linecap: square"/>
   </g>
   <g id="patch_5">
    <path d="M 57.6 307.584 
L 414.72 307.584 
" style="fill: none; stroke: #000000; stroke-width: 0.8; stroke-linejoin: miter; stroke-linecap: square"/>
   </g>
   <g id="patch_6">
    <path d="M 57.6 41.472 
L 414.72 41.472 
" style="fill: none; stroke: #000000; stroke-width: 0.8; stroke-linejoin: miter; stroke-linecap: square"/>
   </g>
   <g id="text_17">
    <!-- Detected R peaks -->
    <g transform="translate(182.89125 35.472) scale(0.12 -0.12)">
     <defs>
      <path id="DejaVuSans-44" d="M 1259 4147 
L 1259 519 
L 2022 519 
Q 2988 519 3436 956 
Q 3884 1394 3884 2338 
Q 3884 3275 3436 3711 
Q 2988 4147 2022 4147 
L 1259 4147 
z
M 628 4666 
L 1925 4666 
Q 3281 4666 3915 4102 
Q 4550 3538 4550 2338 
Q 4550 1131 3912 565 
Q 3275 0 1925 0 
L 628 0 
L 628 4666 
z
" transform="scale(0.015625)"/>
      <path id="DejaVuSans-63" d="M 3122 3366 
L 3122 2828 
Q 2878 2963 2633 3030 
Q 2388 3097 2138 3097 
Q 1578 3097 1268 2742 
Q 959 2388 959 1747 
Q 959 1106 1268 751 
Q 1578 397 2138 397 
Q 2388 397 2633 464 
Q 2878 531 3122 666 
L 3122 134 
Q 2881 22 2623 -34 
Q 2366 -91 2075 -91 
Q 1284 -91 818 406 
Q 353 903 353 1747 
Q 353 2603 823 3093 
Q 1294 3584 2113 3584 
Q 2378 3584 2631 3529 
Q 2884 3475 3122 3366 
z
" transform="scale(0.015625)"/>
      <path id="DejaVuSans-20" transform="scale(0.015625)"/>
      <path id="DejaVuSans-52" d="M 2841 2188 
Q 3044 2119 3236 1894 
Q 3428 1669 3622 1275 
L 4263 0 
L 3584 0 
L 2988 1197 
Q 2756 1666 2539 1819 
Q 2322 1972 1947 1972 
L 1259 1972 
L 1259 0 
L 628 0 
L 628 4666 
L 2053 4666 
Q 2853 4666 3247 4331 
Q 3641 3997 3641 3322 
Q 3641 2881 3436 2590 
Q 3231 2300 2841 2188 
z
M 1259 4147 
L 1259 2491 
L 2053 2491 
Q 2509 2491 2742 2702 
Q 2975 2913 2975 3322 
Q 2975 3731 2742 3939 
Q 2509 4147 2053 4147 
L 1259 4147 
z
" transform="scale(0.015625)"/>
      <path id="DejaVuSans-61" d="M 2194 1759 
Q 1497 1759 1228 1600 
Q 959 1441 959 1056 
Q 959 750 1161 570 
Q 1363 391 1709 391 
Q 2188 391 2477 730 
Q 2766 1069 2766 1631 
L 2766 1759 
L 2194 1759 
z
M 3341 1997 
L 3341 0 
L 2766 0 
L 2766 531 
Q 2569 213 2275 61 
Q 1981 -91 1556 -91 
Q 1019 -91 701 211 
Q 384 513 384 1019 
Q 384 1609 779 1909 
Q 1175 2209 1959 2209 
L 2766 2209 
L 2766 2266 
Q 2766 2663 2505 2880 
Q 2244 3097 1772 3097 
Q 1472 3097 1187 3025 
Q 903 2953 641 2809 
L 641 3341 
Q 956 3463 1253 3523 
Q 1550 3584 1831 3584 
Q 2591 3584 2966 3190 
Q 3341 2797 3341 1997 
z
" transform="scale(0.015625)"/>
      <path id="DejaVuSans-6b" d="M 581 4863 
L 1159 4863 
L 1159 1991 
L 2875 3500 
L 3609 3500 
L 1753 1863 
L 3688 0 
L 2938 0 
L 1159 1709 
L 1159 0 
L 581 0 
L 581 4863 
z
" transform="scale(0.015625)"/>
      <path id="DejaVuSans-73" d="M 2834 3397 
L 2834 2853 
Q 2591 2978 2328 3040 
Q 2066 3103 1784 3103 
Q 1356 3103 1142 2972 
Q 928 2841 928 2578 
Q 928 2378 1081 2264 
Q 1234 2150 1697 2047 
L 1894 2003 
Q 2506 1872 2764 1633 
Q 3022 1394 3022 966 
Q 3022 478 2636 193 
Q 2250 -91 1575 -91 
Q 1294 -91 989 -36 
Q 684 19 347 128 
L 347 722 
Q 666 556 975 473 
Q 1284 391 1588 391 
Q 1994 391 2212 530 
Q 2431 669 2431 922 
Q 2431 1156 2273 1281 
Q 2116 1406 1581 1522 
L 1381 1569 
Q 847 1681 609 1914 
Q 372 2147 372 2553 
Q 372 3047 722 3315 
Q 1072 3584 1716 3584 
Q 2034 3584 2315 3537 
Q 2597 3491 2834 3397 
z
" transform="scale(0.015625)"/>
     </defs>
     <use xlink:href="#DejaVuSans-44"/>
     <use xlink:href="#DejaVuSans-65" x="77.001953"/>
     <use xlink:href="#DejaVuSans-74" x="138.525391"/>
     <use xlink:href="#DejaVuSans-65" x="177.734375"/>
     <use xlink:href="#DejaVuSans-63" x="239.257812"/>
     <use xlink:href="#DejaVuSans-74" x="294.238281"/>
     <use xlink:href="#DejaVuSans-65" x="333.447266"/>
     <use xlink:href="#DejaVuSans-64" x="394.970703"/>
     <use xlink:href="#DejaVuSans-20" x="458.447266"/>
     <use xlink:href="#DejaVuSans-52" x="490.234375"/>
     <use xlink:href="#DejaVuSans-20" x="559.716797"/>
     <use xlink:href="#DejaVuSans-70" x="591.503906"/>
     <use xlink:href="#DejaVuSans-65" x="654.980469"/>
     <use xlink:href="#DejaVuSans-61" x="716.503906"/>
     <use xlink:href="#DejaVuSans-6b" x="777.783203"/>
     <use xlink:href="#DejaVuSans-73" x="835.693359"/>
    </g>
   </g>
   <g id="legend_1">
    <g id="patch_7">
     <path d="M 64.6 64.150125 
L 136.35625 64.150125 
Q 138.35625 64.150125 138.35625 62.150125 
L 138.35625 48.472 
Q 138.35625 46.472 136.35625 46.472 
L 64.6 46.472 
Q 62.6 46.472 62.6 48.472 
L 62.6 62.150125 
Q 62.6 64.150125 64.6 64.150125 
z
" style="fill: #ffffff; opacity: 0.8; stroke: #cccccc; stroke-linejoin: miter"/>
    </g>
    <g id="line2d_16">
     <path d="M 66.6 54.570438 
L 76.6 54.570438 
L 86.6 54.570438 
" style="fill: none; stroke: #1f77b4; stroke-width: 1.5; stroke-linecap: square"/>
    </g>
    <g id="text_18">
     <!-- R peaks -->
     <g transform="translate(94.6 58.070438) scale(0.1 -0.1)">
      <use xlink:href="#DejaVuSans-52"/>
      <use xlink:href="#DejaVuSans-20" x="69.482422"/>
      <use xlink:href="#DejaVuSans-70" x="101.269531"/>
      <use xlink:href="#DejaVuSans-65" x="164.746094"/>
      <use xlink:href="#DejaVuSans-61" x="226.269531"/>
      <use xlink:href="#DejaVuSans-6b" x="287.548828"/>
      <use xlink:href="#DejaVuSans-73" x="345.458984"/>
     </g>
    </g>
   </g>
  </g>
 </g>
 <defs>
  <clipPath id="p2664b8b647">
   <rect x="57.6" y="41.472" width="357.12" height="266.112"/>
  </clipPath>
 </defs>
</svg>
