<?xml version="1.0" encoding="utf-8" standalone="no"?>
<!DOCTYPE svg PUBLIC "-//W3C//DTD SVG 1.1//EN"
  "http://www.w3.org/Graphics/SVG/1.1/DTD/svg11.dtd">
<svg xmlns:xlink="http://www.w3.org/1999/xlink" width="1378.08pt" height="706.32pt" viewBox="0 0 1378.08 706.32" xmlns="http://www.w3.org/2000/svg" version="1.1">
 <metadata>
  <rdf:RDF xmlns:dc="http://purl.org/dc/elements/1.1/" xmlns:cc="http://creativecommons.org/ns#" xmlns:rdf="http://www.w3.org/1999/02/22-rdf-syntax-ns#">
   <cc:Work>
    <dc:type rdf:resource="http://purl.org/dc/dcmitype/StillImage"/>
    <dc:date>2023-11-05T18:28:05.040725</dc:date>
    <dc:format>image/svg+xml</dc:format>
    <dc:creator>
     <cc:Agent>
      <dc:title>Matplotlib v3.8.0, https://matplotlib.org/</dc:title>
     </cc:Agent>
    </dc:creator>
   </cc:Work>
  </rdf:RDF>
 </metadata>
 <defs>
  <style type="text/css">*{stroke-linejoin: round; stroke-linecap: butt}</style>
 </defs>
 <g id="figure_1">
  <g id="patch_1">
   <path d="M 0 706.32 
L 1378.08 706.32 
L 1378.08 0 
L 0 0 
z
" style="fill: #ffffff"/>
  </g>
  <g id="axes_1">
   <g id="patch_2">
    <path d="M 172.26 628.6248 
L 1240.272 628.6248 
L 1240.272 84.7584 
L 172.26 84.7584 
z
" style="fill: #ffffff"/>
   </g>
   <g id="matplotlib.axis_1">
    <g id="xtick_1">
     <g id="line2d_1">
      <defs>
       <path id="m7b5fa9f9a3" d="M 0 0 
L 0 3.5 
" style="stroke: #000000; stroke-width: 0.8"/>
      </defs>
      <g>
       <use xlink:href="#m7b5fa9f9a3" x="197.504243" y="628.6248" style="stroke: #000000; stroke-width: 0.8"/>
      </g>
     </g>
     <g id="text_1">
      <!-- 21000 -->
      <g transform="translate(181.597993 643.223238) scale(0.1 -0.1)">
       <defs>
        <path id="DejaVuSans-32" d="M 1228 531 
L 3431 531 
L 3431 0 
L 469 0 
L 469 531 
Q 828 903 1448 1529 
Q 2069 2156 2228 2338 
Q 2531 2678 2651 2914 
Q 2772 3150 2772 3378 
Q 2772 3750 2511 3984 
Q 2250 4219 1831 4219 
Q 1534 4219 1204 4116 
Q 875 4013 500 3803 
L 500 4441 
Q 881 4594 1212 4672 
Q 1544 4750 1819 4750 
Q 2544 4750 2975 4387 
Q 3406 4025 3406 3419 
Q 3406 3131 3298 2873 
Q 3191 2616 2906 2266 
Q 2828 2175 2409 1742 
Q 1991 1309 1228 531 
z
" transform="scale(0.015625)"/>
        <path id="DejaVuSans-31" d="M 794 531 
L 1825 531 
L 1825 4091 
L 703 3866 
L 703 4441 
L 1819 4666 
L 2450 4666 
L 2450 531 
L 3481 531 
L 3481 0 
L 794 0 
L 794 531 
z
" transform="scale(0.015625)"/>
        <path id="DejaVuSans-30" d="M 2034 4250 
Q 1547 4250 1301 3770 
Q 1056 3291 1056 2328 
Q 1056 1369 1301 889 
Q 1547 409 2034 409 
Q 2525 409 2770 889 
Q 3016 1369 3016 2328 
Q 3016 3291 2770 3770 
Q 2525 4250 2034 4250 
z
M 2034 4750 
Q 2819 4750 3233 4129 
Q 3647 3509 3647 2328 
Q 3647 1150 3233 529 
Q 2819 -91 2034 -91 
Q 1250 -91 836 529 
Q 422 1150 422 2328 
Q 422 3509 836 4129 
Q 1250 4750 2034 4750 
z
" transform="scale(0.015625)"/>
       </defs>
       <use xlink:href="#DejaVuSans-32"/>
       <use xlink:href="#DejaVuSans-31" x="63.623047"/>
       <use xlink:href="#DejaVuSans-30" x="127.246094"/>
       <use xlink:href="#DejaVuSans-30" x="190.869141"/>
       <use xlink:href="#DejaVuSans-30" x="254.492188"/>
      </g>
     </g>
    </g>
    <g id="xtick_2">
     <g id="line2d_2">
      <g>
       <use xlink:href="#m7b5fa9f9a3" x="376.185102" y="628.6248" style="stroke: #000000; stroke-width: 0.8"/>
      </g>
     </g>
     <g id="text_2">
      <!-- 22000 -->
      <g transform="translate(360.278852 643.223238) scale(0.1 -0.1)">
       <use xlink:href="#DejaVuSans-32"/>
       <use xlink:href="#DejaVuSans-32" x="63.623047"/>
       <use xlink:href="#DejaVuSans-30" x="127.246094"/>
       <use xlink:href="#DejaVuSans-30" x="190.869141"/>
       <use xlink:href="#DejaVuSans-30" x="254.492188"/>
      </g>
     </g>
    </g>
    <g id="xtick_3">
     <g id="line2d_3">
      <g>
       <use xlink:href="#m7b5fa9f9a3" x="554.865961" y="628.6248" style="stroke: #000000; stroke-width: 0.8"/>
      </g>
     </g>
     <g id="text_3">
      <!-- 23000 -->
      <g transform="translate(538.959711 643.223238) scale(0.1 -0.1)">
       <defs>
        <path id="DejaVuSans-33" d="M 2597 2516 
Q 3050 2419 3304 2112 
Q 3559 1806 3559 1356 
Q 3559 666 3084 287 
Q 2609 -91 1734 -91 
Q 1441 -91 1130 -33 
Q 819 25 488 141 
L 488 750 
Q 750 597 1062 519 
Q 1375 441 1716 441 
Q 2309 441 2620 675 
Q 2931 909 2931 1356 
Q 2931 1769 2642 2001 
Q 2353 2234 1838 2234 
L 1294 2234 
L 1294 2753 
L 1863 2753 
Q 2328 2753 2575 2939 
Q 2822 3125 2822 3475 
Q 2822 3834 2567 4026 
Q 2313 4219 1838 4219 
Q 1578 4219 1281 4162 
Q 984 4106 628 3988 
L 628 4550 
Q 988 4650 1302 4700 
Q 1616 4750 1894 4750 
Q 2613 4750 3031 4423 
Q 3450 4097 3450 3541 
Q 3450 3153 3228 2886 
Q 3006 2619 2597 2516 
z
" transform="scale(0.015625)"/>
       </defs>
       <use xlink:href="#DejaVuSans-32"/>
       <use xlink:href="#DejaVuSans-33" x="63.623047"/>
       <use xlink:href="#DejaVuSans-30" x="127.246094"/>
       <use xlink:href="#DejaVuSans-30" x="190.869141"/>
       <use xlink:href="#DejaVuSans-30" x="254.492188"/>
      </g>
     </g>
    </g>
    <g id="xtick_4">
     <g id="line2d_4">
      <g>
       <use xlink:href="#m7b5fa9f9a3" x="733.546821" y="628.6248" style="stroke: #000000; stroke-width: 0.8"/>
      </g>
     </g>
     <g id="text_4">
      <!-- 24000 -->
      <g transform="translate(717.640571 643.223238) scale(0.1 -0.1)">
       <defs>
        <path id="DejaVuSans-34" d="M 2419 4116 
L 825 1625 
L 2419 1625 
L 2419 4116 
z
M 2253 4666 
L 3047 4666 
L 3047 1625 
L 3713 1625 
L 3713 1100 
L 3047 1100 
L 3047 0 
L 2419 0 
L 2419 1100 
L 313 1100 
L 313 1709 
L 2253 4666 
z
" transform="scale(0.015625)"/>
       </defs>
       <use xlink:href="#DejaVuSans-32"/>
       <use xlink:href="#DejaVuSans-34" x="63.623047"/>
       <use xlink:href="#DejaVuSans-30" x="127.246094"/>
       <use xlink:href="#DejaVuSans-30" x="190.869141"/>
       <use xlink:href="#DejaVuSans-30" x="254.492188"/>
      </g>
     </g>
    </g>
    <g id="xtick_5">
     <g id="line2d_5">
      <g>
       <use xlink:href="#m7b5fa9f9a3" x="912.22768" y="628.6248" style="stroke: #000000; stroke-width: 0.8"/>
      </g>
     </g>
     <g id="text_5">
      <!-- 25000 -->
      <g transform="translate(896.32143 643.223238) scale(0.1 -0.1)">
       <defs>
        <path id="DejaVuSans-35" d="M 691 4666 
L 3169 4666 
L 3169 4134 
L 1269 4134 
L 1269 2991 
Q 1406 3038 1543 3061 
Q 1681 3084 1819 3084 
Q 2600 3084 3056 2656 
Q 3513 2228 3513 1497 
Q 3513 744 3044 326 
Q 2575 -91 1722 -91 
Q 1428 -91 1123 -41 
Q 819 9 494 109 
L 494 744 
Q 775 591 1075 516 
Q 1375 441 1709 441 
Q 2250 441 2565 725 
Q 2881 1009 2881 1497 
Q 2881 1984 2565 2268 
Q 2250 2553 1709 2553 
Q 1456 2553 1204 2497 
Q 953 2441 691 2322 
L 691 4666 
z
" transform="scale(0.015625)"/>
       </defs>
       <use xlink:href="#DejaVuSans-32"/>
       <use xlink:href="#DejaVuSans-35" x="63.623047"/>
       <use xlink:href="#DejaVuSans-30" x="127.246094"/>
       <use xlink:href="#DejaVuSans-30" x="190.869141"/>
       <use xlink:href="#DejaVuSans-30" x="254.492188"/>
      </g>
     </g>
    </g>
    <g id="xtick_6">
     <g id="line2d_6">
      <g>
       <use xlink:href="#m7b5fa9f9a3" x="1090.908539" y="628.6248" style="stroke: #000000; stroke-width: 0.8"/>
      </g>
     </g>
     <g id="text_6">
      <!-- 26000 -->
      <g transform="translate(1075.002289 643.223238) scale(0.1 -0.1)">
       <defs>
        <path id="DejaVuSans-36" d="M 2113 2584 
Q 1688 2584 1439 2293 
Q 1191 2003 1191 1497 
Q 1191 994 1439 701 
Q 1688 409 2113 409 
Q 2538 409 2786 701 
Q 3034 994 3034 1497 
Q 3034 2003 2786 2293 
Q 2538 2584 2113 2584 
z
M 3366 4563 
L 3366 3988 
Q 3128 4100 2886 4159 
Q 2644 4219 2406 4219 
Q 1781 4219 1451 3797 
Q 1122 3375 1075 2522 
Q 1259 2794 1537 2939 
Q 1816 3084 2150 3084 
Q 2853 3084 3261 2657 
Q 3669 2231 3669 1497 
Q 3669 778 3244 343 
Q 2819 -91 2113 -91 
Q 1303 -91 875 529 
Q 447 1150 447 2328 
Q 447 3434 972 4092 
Q 1497 4750 2381 4750 
Q 2619 4750 2861 4703 
Q 3103 4656 3366 4563 
z
" transform="scale(0.015625)"/>
       </defs>
       <use xlink:href="#DejaVuSans-32"/>
       <use xlink:href="#DejaVuSans-36" x="63.623047"/>
       <use xlink:href="#DejaVuSans-30" x="127.246094"/>
       <use xlink:href="#DejaVuSans-30" x="190.869141"/>
       <use xlink:href="#DejaVuSans-30" x="254.492188"/>
      </g>
     </g>
    </g>
    <g id="text_7">
     <!-- Sample -->
     <g transform="translate(687.517562 656.901363) scale(0.1 -0.1)">
      <defs>
       <path id="DejaVuSans-53" d="M 3425 4513 
L 3425 3897 
Q 3066 4069 2747 4153 
Q 2428 4238 2131 4238 
Q 1616 4238 1336 4038 
Q 1056 3838 1056 3469 
Q 1056 3159 1242 3001 
Q 1428 2844 1947 2747 
L 2328 2669 
Q 3034 2534 3370 2195 
Q 3706 1856 3706 1288 
Q 3706 609 3251 259 
Q 2797 -91 1919 -91 
Q 1588 -91 1214 -16 
Q 841 59 441 206 
L 441 856 
Q 825 641 1194 531 
Q 1563 422 1919 422 
Q 2459 422 2753 634 
Q 3047 847 3047 1241 
Q 3047 1584 2836 1778 
Q 2625 1972 2144 2069 
L 1759 2144 
Q 1053 2284 737 2584 
Q 422 2884 422 3419 
Q 422 4038 858 4394 
Q 1294 4750 2059 4750 
Q 2388 4750 2728 4690 
Q 3069 4631 3425 4513 
z
" transform="scale(0.015625)"/>
       <path id="DejaVuSans-61" d="M 2194 1759 
Q 1497 1759 1228 1600 
Q 959 1441 959 1056 
Q 959 750 1161 570 
Q 1363 391 1709 391 
Q 2188 391 2477 730 
Q 2766 1069 2766 1631 
L 2766 1759 
L 2194 1759 
z
M 3341 1997 
L 3341 0 
L 2766 0 
L 2766 531 
Q 2569 213 2275 61 
Q 1981 -91 1556 -91 
Q 1019 -91 701 211 
Q 384 513 384 1019 
Q 384 1609 779 1909 
Q 1175 2209 1959 2209 
L 2766 2209 
L 2766 2266 
Q 2766 2663 2505 2880 
Q 2244 3097 1772 3097 
Q 1472 3097 1187 3025 
Q 903 2953 641 2809 
L 641 3341 
Q 956 3463 1253 3523 
Q 1550 3584 1831 3584 
Q 2591 3584 2966 3190 
Q 3341 2797 3341 1997 
z
" transform="scale(0.015625)"/>
       <path id="DejaVuSans-6d" d="M 3328 2828 
Q 3544 3216 3844 3400 
Q 4144 3584 4550 3584 
Q 5097 3584 5394 3201 
Q 5691 2819 5691 2113 
L 5691 0 
L 5113 0 
L 5113 2094 
Q 5113 2597 4934 2840 
Q 4756 3084 4391 3084 
Q 3944 3084 3684 2787 
Q 3425 2491 3425 1978 
L 3425 0 
L 2847 0 
L 2847 2094 
Q 2847 2600 2669 2842 
Q 2491 3084 2119 3084 
Q 1678 3084 1418 2786 
Q 1159 2488 1159 1978 
L 1159 0 
L 581 0 
L 581 3500 
L 1159 3500 
L 1159 2956 
Q 1356 3278 1631 3431 
Q 1906 3584 2284 3584 
Q 2666 3584 2933 3390 
Q 3200 3197 3328 2828 
z
" transform="scale(0.015625)"/>
       <path id="DejaVuSans-70" d="M 1159 525 
L 1159 -1331 
L 581 -1331 
L 581 3500 
L 1159 3500 
L 1159 2969 
Q 1341 3281 1617 3432 
Q 1894 3584 2278 3584 
Q 2916 3584 3314 3078 
Q 3713 2572 3713 1747 
Q 3713 922 3314 415 
Q 2916 -91 2278 -91 
Q 1894 -91 1617 61 
Q 1341 213 1159 525 
z
M 3116 1747 
Q 3116 2381 2855 2742 
Q 2594 3103 2138 3103 
Q 1681 3103 1420 2742 
Q 1159 2381 1159 1747 
Q 1159 1113 1420 752 
Q 1681 391 2138 391 
Q 2594 391 2855 752 
Q 3116 1113 3116 1747 
z
" transform="scale(0.015625)"/>
       <path id="DejaVuSans-6c" d="M 603 4863 
L 1178 4863 
L 1178 0 
L 603 0 
L 603 4863 
z
" transform="scale(0.015625)"/>
       <path id="DejaVuSans-65" d="M 3597 1894 
L 3597 1613 
L 953 1613 
Q 991 1019 1311 708 
Q 1631 397 2203 397 
Q 2534 397 2845 478 
Q 3156 559 3463 722 
L 3463 178 
Q 3153 47 2828 -22 
Q 2503 -91 2169 -91 
Q 1331 -91 842 396 
Q 353 884 353 1716 
Q 353 2575 817 3079 
Q 1281 3584 2069 3584 
Q 2775 3584 3186 3129 
Q 3597 2675 3597 1894 
z
M 3022 2063 
Q 3016 2534 2758 2815 
Q 2500 3097 2075 3097 
Q 1594 3097 1305 2825 
Q 1016 2553 972 2059 
L 3022 2063 
z
" transform="scale(0.015625)"/>
      </defs>
      <use xlink:href="#DejaVuSans-53"/>
      <use xlink:href="#DejaVuSans-61" x="63.476562"/>
      <use xlink:href="#DejaVuSans-6d" x="124.755859"/>
      <use xlink:href="#DejaVuSans-70" x="222.167969"/>
      <use xlink:href="#DejaVuSans-6c" x="285.644531"/>
      <use xlink:href="#DejaVuSans-65" x="313.427734"/>
     </g>
    </g>
   </g>
   <g id="matplotlib.axis_2">
    <g id="ytick_1">
     <g id="line2d_7">
      <defs>
       <path id="m075c819813" d="M 0 0 
L -3.5 0 
" style="stroke: #000000; stroke-width: 0.8"/>
      </defs>
      <g>
       <use xlink:href="#m075c819813" x="172.26" y="586.01652" style="stroke: #000000; stroke-width: 0.8"/>
      </g>
     </g>
     <g id="text_8">
      <!-- 0 -->
      <g transform="translate(158.8975 589.815739) scale(0.1 -0.1)">
       <use xlink:href="#DejaVuSans-30"/>
      </g>
     </g>
    </g>
    <g id="ytick_2">
     <g id="line2d_8">
      <g>
       <use xlink:href="#m075c819813" x="172.26" y="513.873592" style="stroke: #000000; stroke-width: 0.8"/>
      </g>
     </g>
     <g id="text_9">
      <!-- 100 -->
      <g transform="translate(146.1725 517.672811) scale(0.1 -0.1)">
       <use xlink:href="#DejaVuSans-31"/>
       <use xlink:href="#DejaVuSans-30" x="63.623047"/>
       <use xlink:href="#DejaVuSans-30" x="127.246094"/>
      </g>
     </g>
    </g>
    <g id="ytick_3">
     <g id="line2d_9">
      <g>
       <use xlink:href="#m075c819813" x="172.26" y="441.730665" style="stroke: #000000; stroke-width: 0.8"/>
      </g>
     </g>
     <g id="text_10">
      <!-- 200 -->
      <g transform="translate(146.1725 445.529883) scale(0.1 -0.1)">
       <use xlink:href="#DejaVuSans-32"/>
       <use xlink:href="#DejaVuSans-30" x="63.623047"/>
       <use xlink:href="#DejaVuSans-30" x="127.246094"/>
      </g>
     </g>
    </g>
    <g id="ytick_4">
     <g id="line2d_10">
      <g>
       <use xlink:href="#m075c819813" x="172.26" y="369.587737" style="stroke: #000000; stroke-width: 0.8"/>
      </g>
     </g>
     <g id="text_11">
      <!-- 300 -->
      <g transform="translate(146.1725 373.386955) scale(0.1 -0.1)">
       <use xlink:href="#DejaVuSans-33"/>
       <use xlink:href="#DejaVuSans-30" x="63.623047"/>
       <use xlink:href="#DejaVuSans-30" x="127.246094"/>
      </g>
     </g>
    </g>
    <g id="ytick_5">
     <g id="line2d_11">
      <g>
       <use xlink:href="#m075c819813" x="172.26" y="297.444809" style="stroke: #000000; stroke-width: 0.8"/>
      </g>
     </g>
     <g id="text_12">
      <!-- 400 -->
      <g transform="translate(146.1725 301.244027) scale(0.1 -0.1)">
       <use xlink:href="#DejaVuSans-34"/>
       <use xlink:href="#DejaVuSans-30" x="63.623047"/>
       <use xlink:href="#DejaVuSans-30" x="127.246094"/>
      </g>
     </g>
    </g>
    <g id="ytick_6">
     <g id="line2d_12">
      <g>
       <use xlink:href="#m075c819813" x="172.26" y="225.301881" style="stroke: #000000; stroke-width: 0.8"/>
      </g>
     </g>
     <g id="text_13">
      <!-- 500 -->
      <g transform="translate(146.1725 229.101099) scale(0.1 -0.1)">
       <use xlink:href="#DejaVuSans-35"/>
       <use xlink:href="#DejaVuSans-30" x="63.623047"/>
       <use xlink:href="#DejaVuSans-30" x="127.246094"/>
      </g>
     </g>
    </g>
    <g id="ytick_7">
     <g id="line2d_13">
      <g>
       <use xlink:href="#m075c819813" x="172.26" y="153.158953" style="stroke: #000000; stroke-width: 0.8"/>
      </g>
     </g>
     <g id="text_14">
      <!-- 600 -->
      <g transform="translate(146.1725 156.958172) scale(0.1 -0.1)">
       <use xlink:href="#DejaVuSans-36"/>
       <use xlink:href="#DejaVuSans-30" x="63.623047"/>
       <use xlink:href="#DejaVuSans-30" x="127.246094"/>
      </g>
     </g>
    </g>
    <g id="text_15">
     <!-- Amplitude -->
     <g transform="translate(140.092812 382.314256) rotate(-90) scale(0.1 -0.1)">
      <defs>
       <path id="DejaVuSans-41" d="M 2188 4044 
L 1331 1722 
L 3047 1722 
L 2188 4044 
z
M 1831 4666 
L 2547 4666 
L 4325 0 
L 3669 0 
L 3244 1197 
L 1141 1197 
L 716 0 
L 50 0 
L 1831 4666 
z
" transform="scale(0.015625)"/>
       <path id="DejaVuSans-69" d="M 603 3500 
L 1178 3500 
L 1178 0 
L 603 0 
L 603 3500 
z
M 603 4863 
L 1178 4863 
L 1178 4134 
L 603 4134 
L 603 4863 
z
" transform="scale(0.015625)"/>
       <path id="DejaVuSans-74" d="M 1172 4494 
L 1172 3500 
L 2356 3500 
L 2356 3053 
L 1172 3053 
L 1172 1153 
Q 1172 725 1289 603 
Q 1406 481 1766 481 
L 2356 481 
L 2356 0 
L 1766 0 
Q 1100 0 847 248 
Q 594 497 594 1153 
L 594 3053 
L 172 3053 
L 172 3500 
L 594 3500 
L 594 4494 
L 1172 4494 
z
" transform="scale(0.015625)"/>
       <path id="DejaVuSans-75" d="M 544 1381 
L 544 3500 
L 1119 3500 
L 1119 1403 
Q 1119 906 1312 657 
Q 1506 409 1894 409 
Q 2359 409 2629 706 
Q 2900 1003 2900 1516 
L 2900 3500 
L 3475 3500 
L 3475 0 
L 2900 0 
L 2900 538 
Q 2691 219 2414 64 
Q 2138 -91 1772 -91 
Q 1169 -91 856 284 
Q 544 659 544 1381 
z
M 1991 3584 
L 1991 3584 
z
" transform="scale(0.015625)"/>
       <path id="DejaVuSans-64" d="M 2906 2969 
L 2906 4863 
L 3481 4863 
L 3481 0 
L 2906 0 
L 2906 525 
Q 2725 213 2448 61 
Q 2172 -91 1784 -91 
Q 1150 -91 751 415 
Q 353 922 353 1747 
Q 353 2572 751 3078 
Q 1150 3584 1784 3584 
Q 2172 3584 2448 3432 
Q 2725 3281 2906 2969 
z
M 947 1747 
Q 947 1113 1208 752 
Q 1469 391 1925 391 
Q 2381 391 2643 752 
Q 2906 1113 2906 1747 
Q 2906 2381 2643 2742 
Q 2381 3103 1925 3103 
Q 1469 3103 1208 2742 
Q 947 2381 947 1747 
z
" transform="scale(0.015625)"/>
      </defs>
      <use xlink:href="#DejaVuSans-41"/>
      <use xlink:href="#DejaVuSans-6d" x="68.408203"/>
      <use xlink:href="#DejaVuSans-70" x="165.820312"/>
      <use xlink:href="#DejaVuSans-6c" x="229.296875"/>
      <use xlink:href="#DejaVuSans-69" x="257.080078"/>
      <use xlink:href="#DejaVuSans-74" x="284.863281"/>
      <use xlink:href="#DejaVuSans-75" x="324.072266"/>
      <use xlink:href="#DejaVuSans-64" x="387.451172"/>
      <use xlink:href="#DejaVuSans-65" x="450.927734"/>
     </g>
    </g>
   </g>
   <g id="line2d_14">
    <path d="M 172.131561 404.221663 
L 1240.285737 404.221663 
L 1240.285737 404.221663 
" clip-path="url(#p33af311638)" style="fill: none; stroke: #1f77b4; stroke-width: 1.5; stroke-linecap: square"/>
   </g>
   <g id="line2d_15">
    <path d="M 172.131561 586.01652 
L 173.382327 586.01652 
L 173.561008 404.163626 
L 173.739689 403.243461 
L 173.91837 403.676139 
L 174.097051 403.040943 
L 174.454412 399.663247 
L 174.990455 397.702788 
L 175.169136 397.568345 
L 175.526497 399.399607 
L 175.883859 402.206047 
L 176.06254 403.916832 
L 176.241221 586.01652 
L 181.065604 586.01652 
L 181.244285 403.648928 
L 181.422966 403.018551 
L 181.601647 403.242915 
L 181.780328 403.035621 
L 182.137689 401.749185 
L 182.31637 401.635814 
L 182.495051 401.747291 
L 182.673732 401.493485 
L 182.852413 400.925292 
L 183.209774 398.716778 
L 183.388455 399.052288 
L 183.567136 399.960066 
L 183.745817 399.407051 
L 184.103179 396.711398 
L 184.46054 399.58696 
L 184.817902 397.934526 
L 185.353945 402.784426 
L 185.532626 402.307902 
L 185.711306 403.525317 
L 185.889987 586.01652 
L 206.616967 586.01652 
L 206.795648 403.02709 
L 206.974329 400.841076 
L 207.15301 400.383395 
L 207.33169 399.124572 
L 207.689052 393.996894 
L 207.867733 393.149073 
L 208.046414 393.213676 
L 208.225095 392.843771 
L 208.582456 391.760038 
L 208.939818 391.495388 
L 209.118499 391.89157 
L 209.475861 393.918337 
L 209.654542 394.06556 
L 209.833222 394.507298 
L 210.190584 396.837008 
L 210.547946 396.063176 
L 211.083988 399.999302 
L 211.262669 399.219466 
L 211.44135 399.864803 
L 211.620031 401.722443 
L 211.798712 402.099903 
L 212.156074 398.872123 
L 212.513435 400.515481 
L 212.692116 399.754568 
L 212.870797 398.502268 
L 213.049478 398.464287 
L 213.228159 399.216128 
L 213.40684 398.787849 
L 213.764201 396.288455 
L 213.942882 396.490074 
L 214.121563 396.430875 
L 214.657606 393.165057 
L 215.193648 395.15137 
L 215.55101 397.292557 
L 216.087052 402.16394 
L 216.265733 404.075489 
L 216.444414 586.01652 
L 233.061734 586.01652 
L 233.240415 400.750451 
L 234.133819 325.044016 
L 236.099309 123.126006 
L 236.45667 109.765319 
L 236.635351 109.914863 
L 236.814032 113.818157 
L 236.992713 120.616997 
L 237.350075 148.886561 
L 239.672926 387.243838 
L 239.851607 399.673081 
L 240.030288 586.01652 
L 244.497309 586.01652 
L 244.67599 404.156456 
L 244.854671 402.649451 
L 245.033352 402.98542 
L 245.212033 402.242901 
L 245.569394 399.414806 
L 245.926756 402.394798 
L 246.105437 402.407836 
L 246.284118 402.741242 
L 246.462799 586.01652 
L 257.18365 586.01652 
L 257.362331 403.996995 
L 257.719693 400.847171 
L 257.898374 401.117945 
L 258.077054 400.997521 
L 258.434416 398.937827 
L 258.970459 401.58071 
L 259.14914 401.105367 
L 259.32782 402.449783 
L 259.506501 586.01652 
L 264.688246 586.01652 
L 264.866927 402.79471 
L 265.224289 396.206609 
L 265.760331 392.478101 
L 266.117693 387.862097 
L 266.296374 387.828186 
L 266.475055 387.025462 
L 266.832416 383.917384 
L 267.189778 387.585837 
L 267.368459 387.491749 
L 267.54714 386.887517 
L 267.725821 387.846174 
L 267.904502 389.605747 
L 268.083183 390.128014 
L 268.261863 389.19921 
L 268.440544 389.071049 
L 268.797906 391.755049 
L 268.976587 391.638799 
L 269.155268 391.354805 
L 269.69131 393.888303 
L 269.869991 394.036398 
L 270.227353 394.498058 
L 270.584715 393.958759 
L 271.120757 395.467371 
L 271.299438 395.441234 
L 271.478119 395.885819 
L 271.6568 396.022222 
L 272.192842 393.638633 
L 272.371523 394.624715 
L 272.550204 394.522852 
L 272.728885 393.106824 
L 272.907566 392.604878 
L 273.264927 394.49981 
L 273.622289 390.543113 
L 273.80097 391.005043 
L 273.979651 392.27846 
L 274.158332 391.23841 
L 274.337013 388.416933 
L 274.515693 387.415318 
L 274.694374 388.480664 
L 274.873055 388.746453 
L 275.230417 384.68897 
L 275.409098 384.93797 
L 275.587779 386.115996 
L 275.766459 386.286771 
L 275.94514 385.954489 
L 276.481183 387.649777 
L 276.659864 387.981778 
L 277.731949 392.925425 
L 278.089311 393.178951 
L 278.446672 396.2974 
L 278.625353 396.591652 
L 278.804034 396.03133 
L 278.982715 396.479903 
L 279.340077 399.179475 
L 279.518757 398.66575 
L 279.697438 398.587483 
L 280.0548 402.105344 
L 280.233481 401.510807 
L 280.412162 399.668409 
L 280.590843 399.358596 
L 280.769524 400.466582 
L 280.948204 400.022271 
L 281.305566 396.745607 
L 281.662928 399.368874 
L 281.841609 398.650014 
L 282.02029 397.370853 
L 282.19897 397.934152 
L 282.377651 399.616895 
L 282.556332 399.90153 
L 282.735013 399.500326 
L 282.913694 400.260056 
L 283.271056 403.896365 
L 283.449736 586.01652 
L 286.844673 586.01652 
L 287.023354 403.394035 
L 287.202034 401.988347 
L 287.380715 402.497249 
L 287.559396 586.01652 
L 287.738077 586.01652 
L 287.916758 404.042725 
L 288.095439 403.272939 
L 288.27412 586.01652 
L 288.631481 586.01652 
L 288.810162 402.993029 
L 288.988843 402.988713 
L 289.167524 586.01652 
L 289.346205 586.01652 
L 289.524886 403.328887 
L 290.41829 400.107094 
L 290.775652 400.654321 
L 291.133013 400.554754 
L 291.490375 401.23318 
L 291.669056 400.779413 
L 291.847737 401.076597 
L 292.205098 402.774267 
L 292.383779 402.545557 
L 292.56246 402.758131 
L 292.741141 403.892367 
L 292.919822 586.01652 
L 293.098503 403.973395 
L 293.277184 402.789956 
L 293.455865 403.019674 
L 293.634545 586.01652 
L 297.386843 586.01652 
L 297.565524 403.508135 
L 298.637609 390.144508 
L 298.994971 387.638825 
L 299.531014 380.40219 
L 299.709695 380.086834 
L 300.067056 378.228445 
L 300.245737 378.433015 
L 300.603099 380.847492 
L 300.78178 380.532885 
L 300.960461 380.724475 
L 301.317822 384.26286 
L 301.496503 384.623175 
L 301.675184 384.716477 
L 301.853865 386.533 
L 302.211227 391.567287 
L 302.568588 393.640556 
L 302.92595 396.832146 
L 303.461993 398.622632 
L 303.998035 402.260692 
L 304.355397 403.998856 
L 304.534078 586.01652 
L 324.903696 586.01652 
L 325.082377 403.778404 
L 325.618419 360.712344 
L 327.762589 163.736269 
L 328.119951 153.347281 
L 328.298632 153.955996 
L 328.477313 158.35335 
L 328.834675 175.386391 
L 329.370717 219.867623 
L 331.157526 394.01192 
L 331.336207 586.01652 
L 417.103019 586.01652 
L 417.2817 402.496521 
L 418.532466 307.295333 
L 418.711147 299.782374 
L 418.889828 297.163174 
L 419.068509 297.542411 
L 419.247189 299.122882 
L 419.42587 303.16672 
L 419.783232 321.154369 
L 420.319275 355.662288 
L 420.855317 401.005499 
L 421.033998 586.01652 
L 1038.197686 586.01652 
L 1038.376366 401.806685 
L 1038.912409 396.883003 
L 1039.269771 391.175136 
L 1039.448452 390.861195 
L 1039.627132 390.001378 
L 1040.341856 381.365006 
L 1042.486026 356.538102 
L 1042.664707 355.909881 
L 1043.022069 354.036954 
L 1043.37943 354.013453 
L 1043.736792 352.617833 
L 1043.915473 353.182629 
L 1044.094154 354.276753 
L 1044.272835 354.61136 
L 1044.451516 354.444648 
L 1044.808877 355.846163 
L 1044.987558 355.584975 
L 1045.34492 353.921272 
L 1045.702282 356.384645 
L 1045.880963 355.635265 
L 1046.238324 353.385209 
L 1046.417005 352.848156 
L 1046.595686 351.519403 
L 1046.953048 348.153613 
L 1047.131729 348.447291 
L 1047.310409 347.815271 
L 1047.667771 344.459439 
L 1047.846452 344.17682 
L 1048.025133 344.132154 
L 1048.382495 342.07528 
L 1048.561175 342.477704 
L 1048.739856 343.158487 
L 1048.918537 341.843126 
L 1049.990622 326.58739 
L 1050.347984 323.014764 
L 1050.705346 318.747064 
L 1050.884027 317.19497 
L 1051.241388 309.00091 
L 1051.59875 301.973489 
L 1052.313473 291.685963 
L 1052.492154 291.251283 
L 1052.849516 286.447741 
L 1053.028197 286.909743 
L 1053.74292 298.01831 
L 1054.457644 324.911838 
L 1055.172367 371.255655 
L 1055.529729 399.170228 
L 1055.70841 586.01652 
L 1060.354112 586.01652 
L 1060.532793 401.63036 
L 1061.96224 298.461634 
L 1062.498282 278.907614 
L 1062.855644 268.704141 
L 1063.391687 264.074293 
L 1063.570368 262.537587 
L 1063.749048 262.294526 
L 1063.927729 262.545435 
L 1064.10641 262.108503 
L 1064.285091 262.081186 
L 1064.821134 267.796498 
L 1064.999814 267.985251 
L 1065.178495 269.227763 
L 1065.535857 272.543165 
L 1065.714538 272.276828 
L 1065.893219 272.471097 
L 1066.25058 276.032501 
L 1066.607942 274.828784 
L 1066.965304 277.558346 
L 1067.143985 276.958252 
L 1067.322666 275.457557 
L 1067.501346 275.098732 
L 1067.680027 275.692463 
L 1067.858708 274.586001 
L 1068.037389 272.024212 
L 1068.21607 271.229946 
L 1068.573432 273.381629 
L 1068.930793 269.889794 
L 1069.109474 270.048139 
L 1069.288155 271.144529 
L 1069.466836 270.074692 
L 1069.824198 266.071022 
L 1070.002878 265.499254 
L 1071.253645 251.126692 
L 1071.432325 250.967973 
L 1071.611006 249.201351 
L 1072.147049 240.079736 
L 1072.32573 237.523783 
L 1072.861772 225.27585 
L 1073.040453 222.441748 
L 1073.576496 207.660602 
L 1073.755177 204.763351 
L 1075.005943 174.142757 
L 1075.184623 174.155627 
L 1075.363304 176.648446 
L 1075.541985 177.326372 
L 1075.720666 177.108076 
L 1075.899347 179.61919 
L 1076.256709 187.053683 
L 1076.435389 187.230251 
L 1076.61407 189.174426 
L 1077.150113 201.385545 
L 1077.328794 204.126024 
L 1077.686155 214.202638 
L 1077.864836 215.844058 
L 1078.043517 216.312457 
L 1078.400879 221.225596 
L 1078.57956 221.068566 
L 1078.758241 219.109023 
L 1078.936921 218.821076 
L 1079.115602 220.323189 
L 1079.294283 220.431399 
L 1079.651645 217.113044 
L 1079.830326 218.116606 
L 1080.009007 218.233441 
L 1080.187687 216.307637 
L 1080.366368 215.633245 
L 1080.72373 219.293199 
L 1081.081092 215.669204 
L 1081.438453 217.148955 
L 1081.974496 210.488763 
L 1082.153177 211.415287 
L 1082.331858 208.801598 
L 1082.510539 204.145098 
L 1082.689219 202.597459 
L 1082.8679 204.237313 
L 1083.046581 203.802806 
L 1083.403943 196.766886 
L 1083.761305 198.989414 
L 1084.118666 192.547865 
L 1084.297347 192.588454 
L 1084.476028 194.97718 
L 1084.654709 194.749808 
L 1084.83339 191.992177 
L 1085.012071 192.21611 
L 1085.369432 197.333794 
L 1085.548113 196.650743 
L 1085.726794 196.799227 
L 1086.084156 201.045172 
L 1086.441518 199.111015 
L 1086.798879 201.888341 
L 1086.97756 201.014418 
L 1087.156241 199.098766 
L 1087.334922 198.746628 
L 1087.513603 198.705564 
L 1088.764369 184.134042 
L 1088.94305 185.044092 
L 1089.12173 184.048741 
L 1089.479092 175.949522 
L 1089.657773 177.149974 
L 1089.836454 179.252796 
L 1090.193816 175.533448 
L 1090.372496 177.349524 
L 1090.551177 180.73806 
L 1090.729858 181.02515 
L 1090.908539 178.13218 
L 1091.08722 177.940582 
L 1091.444582 183.648726 
L 1091.801943 181.038503 
L 1092.159305 185.271337 
L 1092.337986 183.585069 
L 1092.516667 180.594157 
L 1092.695348 179.790363 
L 1092.874028 179.690932 
L 1093.410071 173.636464 
L 1093.588752 174.155692 
L 1093.767433 173.034692 
L 1094.124794 169.536321 
L 1094.303475 168.892342 
L 1094.482156 166.908091 
L 1094.660837 163.673175 
L 1094.839518 162.608444 
L 1095.018199 163.526963 
L 1095.19688 162.902828 
L 1095.554241 159.093452 
L 1095.911603 161.36413 
L 1096.268965 156.852156 
L 1096.447646 157.913211 
L 1096.626327 160.447913 
L 1096.805007 160.000596 
L 1097.162369 155.367855 
L 1097.34105 156.987516 
L 1097.519731 157.054883 
L 1097.877093 149.565297 
L 1098.055773 150.343929 
L 1098.234454 151.913076 
L 1098.413135 150.208277 
L 1098.770497 144.717788 
L 1098.949178 145.039133 
L 1099.127859 143.904555 
L 1099.48522 137.409564 
L 1100.021263 133.226355 
L 1100.557305 128.104522 
L 1100.914667 123.606141 
L 1101.093348 122.777444 
L 1101.272029 121.284657 
L 1101.629391 116.150047 
L 1101.986752 114.601056 
L 1102.344114 106.030609 
L 1102.522795 105.081217 
L 1102.701476 105.207341 
L 1103.237518 94.860815 
L 1103.416199 95.786264 
L 1103.59488 94.689922 
L 1103.952242 85.457225 
L 1104.130923 86.228043 
L 1104.309603 88.103488 
L 1104.488284 86.790697 
L 1104.666965 84.264095 
L 1104.845646 85.411961 
L 1105.203008 92.212245 
L 1105.560369 89.017084 
L 1105.917731 91.411098 
L 1106.096412 90.461613 
L 1106.453774 86.30166 
L 1106.632455 86.141045 
L 1107.168497 82.234407 
L 1107.70454 76.427769 
L 1107.883221 75.659476 
L 1108.061901 73.668258 
L 1108.419263 66.567059 
L 1108.597944 65.49299 
L 1108.776625 63.246832 
L 1109.133987 52.774252 
L 1109.312668 53.092497 
L 1109.491348 56.867655 
L 1109.670029 57.36184 
L 1109.84871 53.859776 
L 1110.027391 52.767898 
L 1110.384753 60.247063 
L 1110.563434 59.105421 
L 1110.742114 56.456568 
L 1110.920795 58.064049 
L 1111.099476 62.441834 
L 1111.278157 63.778421 
L 1111.635519 58.848468 
L 1111.99288 63.664465 
L 1112.171561 62.113231 
L 1112.350242 59.566849 
L 1112.528923 59.991649 
L 1112.707604 62.367348 
L 1112.886285 61.74586 
L 1113.243646 55.569102 
L 1113.422327 55.567903 
L 1113.601008 55.019973 
L 1113.95837 52.248149 
L 1114.137051 51.867702 
L 1114.673093 49.08328 
L 1114.851774 49.573352 
L 1115.209136 46.178078 
L 1115.387817 47.090752 
L 1115.566498 49.728032 
L 1115.745178 49.922471 
L 1115.923859 47.35846 
L 1116.10254 47.188834 
L 1116.459902 53.085592 
L 1116.817264 45.539932 
L 1116.995944 45.548037 
L 1117.174625 47.625881 
L 1117.353306 45.799745 
L 1117.710668 35.589382 
L 1118.06803 39.507134 
L 1118.425391 31.575555 
L 1118.604072 31.751345 
L 1118.782753 35.17444 
L 1118.961434 34.962923 
L 1119.140115 31.575389 
L 1119.318796 30.677016 
L 1119.676157 35.289769 
L 1120.033519 31.799048 
L 1120.2122 33.262441 
L 1120.390881 35.714103 
L 1120.569562 35.614325 
L 1120.926923 32.898897 
L 1121.284285 32.664643 
L 1121.462966 32.914889 
L 1121.641647 33.832626 
L 1121.820328 33.654795 
L 1121.999009 32.546825 
L 1122.177689 32.626512 
L 1122.535051 36.66771 
L 1122.713732 36.579973 
L 1122.892413 36.746365 
L 1123.249775 43.401548 
L 1123.428455 44.362241 
L 1123.607136 42.388333 
L 1123.785817 42.624911 
L 1124.143179 48.410377 
L 1124.500541 42.306537 
L 1124.679221 43.880587 
L 1124.857902 47.348646 
L 1125.036583 46.778463 
L 1125.215264 42.71447 
L 1125.393945 42.070302 
L 1125.751307 47.942235 
L 1126.108668 42.009742 
L 1126.287349 42.759068 
L 1126.46603 44.517023 
L 1126.644711 42.67298 
L 1127.002073 36.305999 
L 1127.359434 39.955361 
L 1127.716796 40.062609 
L 1127.895477 40.494943 
L 1128.074158 40.632544 
L 1128.252839 40.200055 
L 1128.431519 39.432126 
L 1128.6102 39.607436 
L 1128.788881 39.206041 
L 1129.146243 36.734955 
L 1129.324924 35.678228 
L 1129.860966 28.770943 
L 1130.039647 29.700556 
L 1130.218328 28.640973 
L 1130.57569 20.234457 
L 1130.933051 19.425696 
L 1131.797711 -1 
M 1149.923779 -1 
L 1150.587946 92.043202 
L 1151.48135 210.601564 
L 1152.196074 273.140348 
L 1152.553435 288.647961 
L 1152.910797 295.376394 
L 1153.089478 294.822175 
L 1153.44684 280.873239 
L 1153.804201 259.053259 
L 1154.340244 203.722523 
L 1155.054967 111.883565 
L 1155.927707 -1 
M 1174.345293 -1 
L 1174.3525 -0.713749 
L 1174.531181 -0.169551 
L 1174.637912 -1 
M 1174.752104 -1 
L 1175.067224 3.816474 
L 1175.245905 2.87047 
L 1175.424585 -0.123937 
L 1175.603266 -0.66796 
L 1175.781947 0.446135 
L 1175.966535 -1 
M 1180.674485 -1 
L 1180.785011 1.826206 
L 1181.321054 25.585721 
L 1181.499735 28.199411 
L 1182.214458 47.063569 
L 1182.57182 54.708137 
L 1182.750501 55.615279 
L 1182.929181 54.433931 
L 1183.286543 55.113502 
L 1183.465224 53.371418 
L 1183.643905 50.083928 
L 1183.822586 49.203465 
L 1184.001267 49.873725 
L 1184.179948 47.406303 
L 1184.537309 38.961051 
L 1184.71599 40.280835 
L 1184.894671 40.194562 
L 1185.252033 33.381838 
L 1185.609394 36.707546 
L 1185.966756 29.926491 
L 1186.145437 31.165788 
L 1186.502799 36.827234 
L 1186.68148 35.545628 
L 1186.86016 36.52198 
L 1187.217522 43.318802 
L 1187.396203 43.48444 
L 1187.574884 43.474059 
L 1187.932246 48.525744 
L 1188.110926 48.394522 
L 1188.289607 46.925278 
L 1188.468288 47.02632 
L 1188.82565 49.13139 
L 1189.004331 49.299795 
L 1189.361692 51.394274 
L 1189.719054 50.338228 
L 1190.076416 52.934579 
L 1190.255097 52.701939 
L 1190.433778 51.999416 
L 1190.96982 57.395175 
L 1191.148501 56.139904 
L 1191.327182 57.122185 
L 1191.684544 63.623753 
L 1192.041905 62.445454 
L 1192.399267 68.797615 
L 1192.577948 68.679685 
L 1192.756629 65.554047 
L 1192.93531 65.470377 
L 1193.292671 70.464565 
L 1193.650033 68.836092 
L 1194.186076 73.394413 
L 1194.543437 71.547512 
L 1194.722118 72.432352 
L 1194.900799 72.570357 
L 1195.258161 70.783789 
L 1195.436842 71.269387 
L 1195.794203 73.151862 
L 1195.972884 73.001253 
L 1197.044969 64.435364 
L 1197.402331 60.080817 
L 1197.581012 58.850026 
L 1198.117055 47.979474 
L 1198.295735 48.921531 
L 1198.474416 49.223082 
L 1198.653097 47.010689 
L 1199.010459 41.369102 
L 1199.18914 40.447964 
L 1199.367821 38.511633 
L 1199.725182 33.744966 
L 1200.261225 39.223619 
L 1200.439906 39.02268 
L 1200.618587 40.001426 
L 1201.154629 48.045113 
L 1201.33331 49.807759 
L 1202.048033 63.99414 
L 1202.226714 65.928602 
L 1202.584076 73.047324 
L 1202.762757 74.792462 
L 1202.941438 75.044684 
L 1203.120119 75.874414 
L 1203.47748 79.623564 
L 1203.656161 79.021668 
L 1204.013523 76.793372 
L 1204.192204 77.169258 
L 1204.549565 77.283385 
L 1204.728246 77.893407 
L 1205.264289 81.766174 
L 1205.44297 82.393889 
L 1206.515055 90.29687 
L 1206.693736 90.987997 
L 1207.051097 94.034729 
L 1207.229778 93.652557 
L 1207.408459 92.714121 
L 1207.58714 94.0482 
L 1207.944502 98.533978 
L 1208.301863 97.680225 
L 1208.659225 100.26266 
L 1208.837906 99.413041 
L 1209.016587 97.938509 
L 1209.195268 98.488289 
L 1209.55263 102.444256 
L 1209.909991 99.594504 
L 1210.267353 101.754573 
L 1210.624715 100.141591 
L 1211.160757 104.615195 
L 1211.339438 104.495418 
L 1211.518119 105.471604 
L 1212.411523 113.970045 
L 1212.590204 114.968854 
L 1212.768885 114.745748 
L 1212.947566 115.215888 
L 1213.304928 120.086532 
L 1213.483608 120.851459 
L 1213.662289 122.22281 
L 1214.019651 127.415611 
L 1214.377013 125.952352 
L 1214.734374 129.435462 
L 1215.091736 125.932862 
L 1215.270417 127.678679 
L 1215.449098 131.667958 
L 1215.627779 133.165082 
L 1215.80646 132.206023 
L 1215.98514 132.394597 
L 1216.342502 137.091315 
L 1216.699864 134.672503 
L 1217.235906 140.954031 
L 1217.414587 140.747639 
L 1217.593268 143.363707 
L 1217.95063 150.670655 
L 1218.307992 154.491077 
L 1218.665353 160.881683 
L 1218.844034 161.090143 
L 1219.022715 162.326891 
L 1219.380077 168.298848 
L 1219.737438 170.931838 
L 1220.0948 177.110142 
L 1220.273481 177.48712 
L 1220.452162 177.34092 
L 1220.809524 180.942926 
L 1221.166885 176.466598 
L 1221.345566 177.051107 
L 1221.524247 178.723395 
L 1221.702928 177.292655 
L 1221.881609 173.909545 
L 1222.06029 174.004 
L 1222.238971 176.763806 
L 1222.417651 177.677684 
L 1222.596332 176.080398 
L 1222.775013 176.266534 
L 1223.132375 181.290629 
L 1223.489737 176.245047 
L 1223.847098 180.598023 
L 1224.025779 179.106411 
L 1224.20446 176.148441 
L 1224.383141 176.795981 
L 1224.561822 179.812051 
L 1224.740503 180.717994 
L 1225.097864 178.177404 
L 1225.455226 182.121121 
L 1225.812588 181.375824 
L 1226.169949 182.853144 
L 1226.34863 182.118366 
L 1226.527311 182.031278 
L 1226.884673 184.822628 
L 1227.242035 183.41855 
L 1227.420715 184.01908 
L 1227.599396 184.080345 
L 1228.135439 176.229102 
L 1228.31412 176.362721 
L 1228.850162 168.459431 
L 1229.028843 169.48339 
L 1229.207524 167.693899 
L 1229.564886 160.555537 
L 1229.922247 162.161989 
L 1230.279609 154.603553 
L 1230.45829 154.748462 
L 1230.636971 156.09626 
L 1230.815652 154.621835 
L 1230.994333 151.970862 
L 1231.173013 151.471531 
L 1231.351694 152.991906 
L 1231.530375 152.990327 
L 1231.887737 150.044402 
L 1232.066418 149.953947 
L 1232.245099 148.833431 
L 1232.60246 144.139613 
L 1232.959822 143.713923 
L 1233.138503 142.75574 
L 1233.317184 142.688526 
L 1233.495865 143.739278 
L 1233.674546 143.958777 
L 1233.853226 143.056544 
L 1234.031907 143.226962 
L 1234.389269 146.102139 
L 1234.56795 145.327613 
L 1234.746631 145.201878 
L 1235.103992 149.545179 
L 1235.282673 149.427099 
L 1235.461354 148.934295 
L 1235.640035 151.562768 
L 1235.997397 158.516054 
L 1236.176078 157.538946 
L 1236.354758 157.265567 
L 1236.71212 160.907302 
L 1236.890801 160.46242 
L 1237.069482 160.502155 
L 1237.426844 165.509102 
L 1237.605524 166.035349 
L 1237.784205 165.424371 
L 1237.962886 166.235063 
L 1239.034971 176.499737 
L 1239.571014 182.632217 
L 1239.749695 183.031906 
L 1239.928376 184.060464 
L 1240.285737 188.497252 
L 1240.285737 188.497252 
" clip-path="url(#p33af311638)" style="fill: none; stroke: #ff7f0e; stroke-width: 1.5; stroke-linecap: square"/>
   </g>
   <g id="line2d_16">
    <path d="M 172.131561 586.01652 
L 173.382327 586.01652 
L 173.561008 404.163626 
L 173.739689 403.243461 
L 173.91837 403.676139 
L 174.097051 403.040943 
L 174.454412 399.663247 
L 174.990455 397.702788 
L 175.169136 397.568345 
L 175.526497 399.399607 
L 175.883859 402.206047 
L 176.06254 403.916832 
L 176.241221 586.01652 
L 181.065604 586.01652 
L 181.244285 403.648928 
L 181.422966 403.018551 
L 181.601647 403.242915 
L 181.780328 403.035621 
L 182.137689 401.749185 
L 182.31637 401.635814 
L 182.495051 401.747291 
L 182.673732 401.493485 
L 182.852413 400.925292 
L 183.209774 398.716778 
L 183.388455 399.052288 
L 183.567136 399.960066 
L 183.745817 399.407051 
L 184.103179 396.711398 
L 184.46054 399.58696 
L 184.817902 397.934526 
L 185.353945 402.784426 
L 185.532626 402.307902 
L 185.711306 403.525317 
L 185.889987 586.01652 
L 206.616967 586.01652 
L 206.795648 403.02709 
L 206.974329 400.841076 
L 207.15301 400.383395 
L 207.33169 399.124572 
L 207.689052 393.996894 
L 207.867733 393.149073 
L 208.046414 393.213676 
L 208.225095 392.843771 
L 208.582456 391.760038 
L 208.939818 391.495388 
L 209.118499 391.89157 
L 209.475861 393.918337 
L 209.654542 394.06556 
L 209.833222 394.507298 
L 210.190584 396.837008 
L 210.547946 396.063176 
L 211.083988 399.999302 
L 211.262669 399.219466 
L 211.44135 399.864803 
L 211.620031 401.722443 
L 211.798712 402.099903 
L 212.156074 398.872123 
L 212.513435 400.515481 
L 212.692116 399.754568 
L 212.870797 398.502268 
L 213.049478 398.464287 
L 213.228159 399.216128 
L 213.40684 398.787849 
L 213.764201 396.288455 
L 213.942882 396.490074 
L 214.121563 396.430875 
L 214.657606 393.165057 
L 215.193648 395.15137 
L 215.55101 397.292557 
L 216.087052 402.16394 
L 216.265733 404.075489 
L 216.444414 586.01652 
L 233.061734 586.01652 
L 233.240415 400.750451 
L 234.133819 325.044016 
L 236.099309 123.126006 
L 236.45667 109.765319 
L 236.635351 109.914863 
L 236.814032 113.818157 
L 236.992713 120.616997 
L 237.350075 148.886561 
L 239.672926 387.243838 
L 239.851607 399.673081 
L 240.030288 586.01652 
L 244.497309 586.01652 
L 244.67599 404.156456 
L 244.854671 402.649451 
L 245.033352 402.98542 
L 245.212033 402.242901 
L 245.569394 399.414806 
L 245.926756 402.394798 
L 246.105437 402.407836 
L 246.284118 402.741242 
L 246.462799 586.01652 
L 257.18365 586.01652 
L 257.362331 403.996995 
L 257.719693 400.847171 
L 257.898374 401.117945 
L 258.077054 400.997521 
L 258.434416 398.937827 
L 258.970459 401.58071 
L 259.14914 401.105367 
L 259.32782 402.449783 
L 259.506501 586.01652 
L 264.688246 586.01652 
L 264.866927 402.79471 
L 265.224289 396.206609 
L 265.760331 392.478101 
L 266.117693 387.862097 
L 266.296374 387.828186 
L 266.475055 387.025462 
L 266.832416 383.917384 
L 267.189778 387.585837 
L 267.368459 387.491749 
L 267.54714 386.887517 
L 267.725821 387.846174 
L 267.904502 389.605747 
L 268.083183 390.128014 
L 268.261863 389.19921 
L 268.440544 389.071049 
L 268.797906 391.755049 
L 268.976587 391.638799 
L 269.155268 391.354805 
L 269.69131 393.888303 
L 269.869991 394.036398 
L 270.227353 394.498058 
L 270.584715 393.958759 
L 271.120757 395.467371 
L 271.299438 395.441234 
L 271.478119 395.885819 
L 271.6568 396.022222 
L 272.192842 393.638633 
L 272.371523 394.624715 
L 272.550204 394.522852 
L 272.728885 393.106824 
L 272.907566 392.604878 
L 273.264927 394.49981 
L 273.622289 390.543113 
L 273.80097 391.005043 
L 273.979651 392.27846 
L 274.158332 391.23841 
L 274.337013 388.416933 
L 274.515693 387.415318 
L 274.694374 388.480664 
L 274.873055 388.746453 
L 275.230417 384.68897 
L 275.409098 384.93797 
L 275.587779 386.115996 
L 275.766459 386.286771 
L 275.94514 385.954489 
L 276.481183 387.649777 
L 276.659864 387.981778 
L 277.731949 392.925425 
L 278.089311 393.178951 
L 278.446672 396.2974 
L 278.625353 396.591652 
L 278.804034 396.03133 
L 278.982715 396.479903 
L 279.340077 399.179475 
L 279.518757 398.66575 
L 279.697438 398.587483 
L 280.0548 402.105344 
L 280.233481 401.510807 
L 280.412162 399.668409 
L 280.590843 399.358596 
L 280.769524 400.466582 
L 280.948204 400.022271 
L 281.305566 396.745607 
L 281.662928 399.368874 
L 281.841609 398.650014 
L 282.02029 397.370853 
L 282.19897 397.934152 
L 282.377651 399.616895 
L 282.556332 399.90153 
L 282.735013 399.500326 
L 282.913694 400.260056 
L 283.271056 403.896365 
L 283.449736 586.01652 
L 286.844673 586.01652 
L 287.023354 403.394035 
L 287.202034 401.988347 
L 287.380715 402.497249 
L 287.559396 586.01652 
L 287.738077 586.01652 
L 287.916758 404.042725 
L 288.095439 403.272939 
L 288.27412 586.01652 
L 288.631481 586.01652 
L 288.810162 402.993029 
L 288.988843 402.988713 
L 289.167524 586.01652 
L 289.346205 586.01652 
L 289.524886 403.328887 
L 290.41829 400.107094 
L 290.775652 400.654321 
L 291.133013 400.554754 
L 291.490375 401.23318 
L 291.669056 400.779413 
L 291.847737 401.076597 
L 292.205098 402.774267 
L 292.383779 402.545557 
L 292.56246 402.758131 
L 292.741141 403.892367 
L 292.919822 586.01652 
L 293.098503 403.973395 
L 293.277184 402.789956 
L 293.455865 403.019674 
L 293.634545 586.01652 
L 297.386843 586.01652 
L 297.565524 403.508135 
L 298.637609 390.144508 
L 298.994971 387.638825 
L 299.531014 380.40219 
L 299.709695 380.086834 
L 300.067056 378.228445 
L 300.245737 378.433015 
L 300.603099 380.847492 
L 300.78178 380.532885 
L 300.960461 380.724475 
L 301.317822 384.26286 
L 301.496503 384.623175 
L 301.675184 384.716477 
L 301.853865 386.533 
L 302.211227 391.567287 
L 302.568588 393.640556 
L 302.92595 396.832146 
L 303.461993 398.622632 
L 303.998035 402.260692 
L 304.355397 403.998856 
L 304.534078 586.01652 
L 324.903696 586.01652 
L 325.082377 403.778404 
L 325.618419 360.712344 
L 327.762589 163.736269 
L 328.119951 153.347281 
L 328.298632 153.955996 
L 328.477313 158.35335 
L 328.834675 175.386391 
L 329.370717 219.867623 
L 331.157526 394.01192 
L 331.336207 586.01652 
L 417.103019 586.01652 
L 417.2817 402.496521 
L 418.532466 307.295333 
L 418.711147 299.782374 
L 418.889828 297.163174 
L 419.068509 297.542411 
L 419.247189 299.122882 
L 419.42587 303.16672 
L 419.783232 321.154369 
L 420.319275 355.662288 
L 420.855317 401.005499 
L 421.033998 586.01652 
L 1038.197686 586.01652 
L 1038.376366 401.806685 
L 1038.912409 396.883003 
L 1039.269771 391.175136 
L 1039.448452 390.861195 
L 1039.627132 390.001378 
L 1040.341856 381.365006 
L 1042.486026 356.538102 
L 1042.664707 355.909881 
L 1043.022069 354.036954 
L 1043.37943 354.013453 
L 1043.736792 352.617833 
L 1043.915473 353.182629 
L 1044.094154 354.276753 
L 1044.272835 354.61136 
L 1044.451516 354.444648 
L 1044.808877 355.846163 
L 1044.987558 355.584975 
L 1045.34492 353.921272 
L 1045.702282 356.384645 
L 1045.880963 355.635265 
L 1046.238324 353.385209 
L 1046.417005 352.848156 
L 1046.595686 351.519403 
L 1046.953048 348.153613 
L 1047.131729 348.447291 
L 1047.310409 347.815271 
L 1047.667771 344.459439 
L 1047.846452 344.17682 
L 1048.025133 344.132154 
L 1048.382495 342.07528 
L 1048.561175 342.477704 
L 1048.739856 343.158487 
L 1048.918537 341.843126 
L 1049.990622 326.58739 
L 1050.347984 323.014764 
L 1050.705346 318.747064 
L 1050.884027 317.19497 
L 1051.241388 309.00091 
L 1051.59875 301.973489 
L 1052.313473 291.685963 
L 1052.492154 291.251283 
L 1052.849516 286.447741 
L 1053.028197 286.909743 
L 1053.74292 298.01831 
L 1054.457644 324.911838 
L 1055.172367 371.255655 
L 1055.529729 399.170228 
L 1055.70841 586.01652 
L 1060.354112 586.01652 
L 1060.532793 401.63036 
L 1061.96224 298.461634 
L 1062.498282 278.907614 
L 1062.855644 268.704141 
L 1063.391687 264.074293 
L 1063.570368 262.537587 
L 1063.749048 262.294526 
L 1063.927729 262.545435 
L 1064.10641 262.108503 
L 1064.285091 262.081186 
L 1064.821134 267.796498 
L 1064.999814 267.985251 
L 1065.178495 269.227763 
L 1065.535857 272.543165 
L 1065.714538 272.276828 
L 1065.893219 272.471097 
L 1066.25058 276.032501 
L 1066.607942 274.828784 
L 1066.965304 277.558346 
L 1067.143985 276.958252 
L 1067.322666 275.457557 
L 1067.501346 275.098732 
L 1067.680027 275.692463 
L 1067.858708 274.586001 
L 1068.037389 272.024212 
L 1068.21607 271.229946 
L 1068.573432 273.381629 
L 1068.930793 269.889794 
L 1069.109474 270.048139 
L 1069.288155 271.144529 
L 1069.466836 270.074692 
L 1069.824198 266.071022 
L 1070.002878 265.499254 
L 1071.253645 251.126692 
L 1071.432325 250.967973 
L 1071.611006 249.201351 
L 1072.147049 240.079736 
L 1072.32573 237.523783 
L 1072.861772 225.27585 
L 1073.040453 222.441748 
L 1073.576496 207.660602 
L 1073.755177 204.763351 
L 1075.005943 174.142757 
L 1075.184623 174.155627 
L 1075.363304 176.648446 
L 1075.541985 177.326372 
L 1075.720666 177.108076 
L 1075.899347 179.61919 
L 1076.256709 187.053683 
L 1076.435389 187.230251 
L 1076.61407 189.174426 
L 1077.150113 201.385545 
L 1077.328794 204.126024 
L 1077.686155 214.202638 
L 1077.864836 215.844058 
L 1078.043517 216.312457 
L 1078.400879 221.225596 
L 1078.57956 221.068566 
L 1078.758241 219.109023 
L 1078.936921 218.821076 
L 1079.115602 220.323189 
L 1079.294283 220.431399 
L 1079.651645 217.113044 
L 1079.830326 218.116606 
L 1080.009007 218.233441 
L 1080.187687 216.307637 
L 1080.366368 215.633245 
L 1080.72373 219.293199 
L 1081.081092 215.669204 
L 1081.438453 217.148955 
L 1081.974496 210.488763 
L 1082.153177 211.415287 
L 1082.331858 208.801598 
L 1082.510539 204.145098 
L 1082.689219 202.597459 
L 1082.8679 204.237313 
L 1083.046581 203.802806 
L 1083.403943 196.766886 
L 1083.761305 198.989414 
L 1084.118666 192.547865 
L 1084.297347 192.588454 
L 1084.476028 194.97718 
L 1084.654709 194.749808 
L 1084.83339 191.992177 
L 1085.012071 192.21611 
L 1085.369432 197.333794 
L 1085.548113 196.650743 
L 1085.726794 196.799227 
L 1086.084156 201.045172 
L 1086.441518 199.111015 
L 1086.798879 201.888341 
L 1086.97756 201.014418 
L 1087.156241 199.098766 
L 1087.334922 198.746628 
L 1087.513603 198.705564 
L 1088.764369 184.134042 
L 1088.94305 185.044092 
L 1089.12173 184.048741 
L 1089.479092 175.949522 
L 1089.657773 177.149974 
L 1089.836454 179.252796 
L 1090.193816 175.533448 
L 1090.372496 177.349524 
L 1090.551177 180.73806 
L 1090.729858 181.02515 
L 1090.908539 178.13218 
L 1091.08722 177.940582 
L 1091.444582 183.648726 
L 1091.801943 181.038503 
L 1092.159305 185.271337 
L 1092.337986 183.585069 
L 1092.516667 180.594157 
L 1092.695348 179.790363 
L 1092.874028 179.690932 
L 1093.410071 173.636464 
L 1093.588752 174.155692 
L 1093.767433 173.034692 
L 1094.124794 169.536321 
L 1094.303475 168.892342 
L 1094.482156 166.908091 
L 1094.660837 163.673175 
L 1094.839518 162.608444 
L 1095.018199 163.526963 
L 1095.19688 162.902828 
L 1095.554241 159.093452 
L 1095.911603 161.36413 
L 1096.268965 156.852156 
L 1096.447646 157.913211 
L 1096.626327 160.447913 
L 1096.805007 160.000596 
L 1097.162369 155.367855 
L 1097.34105 156.987516 
L 1097.519731 157.054883 
L 1097.877093 149.565297 
L 1098.055773 150.343929 
L 1098.234454 151.913076 
L 1098.413135 150.208277 
L 1098.770497 144.717788 
L 1098.949178 145.039133 
L 1099.127859 143.904555 
L 1099.48522 137.409564 
L 1100.021263 133.226355 
L 1100.557305 128.104522 
L 1100.914667 123.606141 
L 1101.093348 122.777444 
L 1101.272029 121.284657 
L 1101.629391 116.150047 
L 1101.986752 114.601056 
L 1102.344114 106.030609 
L 1102.522795 105.081217 
L 1102.701476 105.207341 
L 1103.237518 94.860815 
L 1103.416199 95.786264 
L 1103.59488 94.689922 
L 1103.952242 85.457225 
L 1104.130923 86.228043 
L 1104.309603 88.103488 
L 1104.488284 86.790697 
L 1104.666965 84.264095 
L 1104.845646 85.411961 
L 1105.203008 92.212245 
L 1105.560369 89.017084 
L 1105.917731 91.411098 
L 1106.096412 90.461613 
L 1106.453774 86.30166 
L 1106.632455 86.141045 
L 1107.168497 82.234407 
L 1107.70454 76.427769 
L 1107.883221 75.659476 
L 1108.061901 73.668258 
L 1108.419263 66.567059 
L 1108.597944 65.49299 
L 1108.776625 63.246832 
L 1109.133987 52.774252 
L 1109.312668 53.092497 
L 1109.491348 56.867655 
L 1109.670029 57.36184 
L 1109.84871 53.859776 
L 1110.027391 52.767898 
L 1110.384753 60.247063 
L 1110.563434 59.105421 
L 1110.742114 56.456568 
L 1110.920795 58.064049 
L 1111.099476 62.441834 
L 1111.278157 63.778421 
L 1111.635519 58.848468 
L 1111.99288 63.664465 
L 1112.171561 62.113231 
L 1112.350242 59.566849 
L 1112.528923 59.991649 
L 1112.707604 62.367348 
L 1112.886285 61.74586 
L 1113.243646 55.569102 
L 1113.422327 55.567903 
L 1113.601008 55.019973 
L 1113.95837 52.248149 
L 1114.137051 51.867702 
L 1114.673093 49.08328 
L 1114.851774 49.573352 
L 1115.209136 46.178078 
L 1115.387817 47.090752 
L 1115.566498 49.728032 
L 1115.745178 49.922471 
L 1115.923859 47.35846 
L 1116.10254 47.188834 
L 1116.459902 53.085592 
L 1116.817264 45.539932 
L 1116.995944 45.548037 
L 1117.174625 47.625881 
L 1117.353306 45.799745 
L 1117.710668 35.589382 
L 1118.06803 39.507134 
L 1118.425391 31.575555 
L 1118.604072 31.751345 
L 1118.782753 35.17444 
L 1118.961434 34.962923 
L 1119.140115 31.575389 
L 1119.318796 30.677016 
L 1119.676157 35.289769 
L 1120.033519 31.799048 
L 1120.2122 33.262441 
L 1120.390881 35.714103 
L 1120.569562 35.614325 
L 1120.926923 32.898897 
L 1121.284285 32.664643 
L 1121.462966 32.914889 
L 1121.641647 33.832626 
L 1121.820328 33.654795 
L 1121.999009 32.546825 
L 1122.177689 32.626512 
L 1122.535051 36.66771 
L 1122.713732 36.579973 
L 1122.892413 36.746365 
L 1123.249775 43.401548 
L 1123.428455 44.362241 
L 1123.607136 42.388333 
L 1123.785817 42.624911 
L 1124.143179 48.410377 
L 1124.500541 42.306537 
L 1124.679221 43.880587 
L 1124.857902 47.348646 
L 1125.036583 46.778463 
L 1125.215264 42.71447 
L 1125.393945 42.070302 
L 1125.751307 47.942235 
L 1126.108668 42.009742 
L 1126.287349 42.759068 
L 1126.46603 44.517023 
L 1126.644711 42.67298 
L 1127.002073 36.305999 
L 1127.359434 39.955361 
L 1127.716796 40.062609 
L 1127.895477 40.494943 
L 1128.074158 40.632544 
L 1128.252839 40.200055 
L 1128.431519 39.432126 
L 1128.6102 39.607436 
L 1128.788881 39.206041 
L 1129.146243 36.734955 
L 1129.324924 35.678228 
L 1129.860966 28.770943 
L 1130.039647 29.700556 
L 1130.218328 28.640973 
L 1130.57569 20.234457 
L 1130.933051 19.425696 
L 1131.797711 -1 
M 1149.923779 -1 
L 1150.587946 92.043202 
L 1151.48135 210.601564 
L 1152.196074 273.140348 
L 1152.553435 288.647961 
L 1152.910797 295.376394 
L 1153.089478 294.822175 
L 1153.44684 280.873239 
L 1153.804201 259.053259 
L 1154.340244 203.722523 
L 1155.054967 111.883565 
L 1155.927707 -1 
M 1174.345293 -1 
L 1174.3525 -0.713749 
L 1174.531181 -0.169551 
L 1174.637912 -1 
M 1174.752104 -1 
L 1175.067224 3.816474 
L 1175.245905 2.87047 
L 1175.424585 -0.123937 
L 1175.603266 -0.66796 
L 1175.781947 0.446135 
L 1175.966535 -1 
M 1180.674485 -1 
L 1180.785011 1.826206 
L 1181.321054 25.585721 
L 1181.499735 28.199411 
L 1182.214458 47.063569 
L 1182.57182 54.708137 
L 1182.750501 55.615279 
L 1182.929181 54.433931 
L 1183.286543 55.113502 
L 1183.465224 53.371418 
L 1183.643905 50.083928 
L 1183.822586 49.203465 
L 1184.001267 49.873725 
L 1184.179948 47.406303 
L 1184.537309 38.961051 
L 1184.71599 40.280835 
L 1184.894671 40.194562 
L 1185.252033 33.381838 
L 1185.609394 36.707546 
L 1185.966756 29.926491 
L 1186.145437 31.165788 
L 1186.502799 36.827234 
L 1186.68148 35.545628 
L 1186.86016 36.52198 
L 1187.217522 43.318802 
L 1187.396203 43.48444 
L 1187.574884 43.474059 
L 1187.932246 48.525744 
L 1188.110926 48.394522 
L 1188.289607 46.925278 
L 1188.468288 47.02632 
L 1188.82565 49.13139 
L 1189.004331 49.299795 
L 1189.361692 51.394274 
L 1189.719054 50.338228 
L 1190.076416 52.934579 
L 1190.255097 52.701939 
L 1190.433778 51.999416 
L 1190.96982 57.395175 
L 1191.148501 56.139904 
L 1191.327182 57.122185 
L 1191.684544 63.623753 
L 1192.041905 62.445454 
L 1192.399267 68.797615 
L 1192.577948 68.679685 
L 1192.756629 65.554047 
L 1192.93531 65.470377 
L 1193.292671 70.464565 
L 1193.650033 68.836092 
L 1194.186076 73.394413 
L 1194.543437 71.547512 
L 1194.722118 72.432352 
L 1194.900799 72.570357 
L 1195.258161 70.783789 
L 1195.436842 71.269387 
L 1195.794203 73.151862 
L 1195.972884 73.001253 
L 1197.044969 64.435364 
L 1197.402331 60.080817 
L 1197.581012 58.850026 
L 1198.117055 47.979474 
L 1198.295735 48.921531 
L 1198.474416 49.223082 
L 1198.653097 47.010689 
L 1199.010459 41.369102 
L 1199.18914 40.447964 
L 1199.367821 38.511633 
L 1199.725182 33.744966 
L 1200.261225 39.223619 
L 1200.439906 39.02268 
L 1200.618587 40.001426 
L 1201.154629 48.045113 
L 1201.33331 49.807759 
L 1202.048033 63.99414 
L 1202.226714 65.928602 
L 1202.584076 73.047324 
L 1202.762757 74.792462 
L 1202.941438 75.044684 
L 1203.120119 75.874414 
L 1203.47748 79.623564 
L 1203.656161 79.021668 
L 1204.013523 76.793372 
L 1204.192204 77.169258 
L 1204.549565 77.283385 
L 1204.728246 77.893407 
L 1205.264289 81.766174 
L 1205.44297 82.393889 
L 1206.515055 90.29687 
L 1206.693736 90.987997 
L 1207.051097 94.034729 
L 1207.229778 93.652557 
L 1207.408459 92.714121 
L 1207.58714 94.0482 
L 1207.944502 98.533978 
L 1208.301863 97.680225 
L 1208.659225 100.26266 
L 1208.837906 99.413041 
L 1209.016587 97.938509 
L 1209.195268 98.488289 
L 1209.55263 102.444256 
L 1209.909991 99.594504 
L 1210.267353 101.754573 
L 1210.624715 100.141591 
L 1211.160757 104.615195 
L 1211.339438 104.495418 
L 1211.518119 105.471604 
L 1212.411523 113.970045 
L 1212.590204 114.968854 
L 1212.768885 114.745748 
L 1212.947566 115.215888 
L 1213.304928 120.086532 
L 1213.483608 120.851459 
L 1213.662289 122.22281 
L 1214.019651 127.415611 
L 1214.377013 125.952352 
L 1214.734374 129.435462 
L 1215.091736 125.932862 
L 1215.270417 127.678679 
L 1215.449098 131.667958 
L 1215.627779 133.165082 
L 1215.80646 132.206023 
L 1215.98514 132.394597 
L 1216.342502 137.091315 
L 1216.699864 134.672503 
L 1217.235906 140.954031 
L 1217.414587 140.747639 
L 1217.593268 143.363707 
L 1217.95063 150.670655 
L 1218.307992 154.491077 
L 1218.665353 160.881683 
L 1218.844034 161.090143 
L 1219.022715 162.326891 
L 1219.380077 168.298848 
L 1219.737438 170.931838 
L 1220.0948 177.110142 
L 1220.273481 177.48712 
L 1220.452162 177.34092 
L 1220.809524 180.942926 
L 1221.166885 176.466598 
L 1221.345566 177.051107 
L 1221.524247 178.723395 
L 1221.702928 177.292655 
L 1221.881609 173.909545 
L 1222.06029 174.004 
L 1222.238971 176.763806 
L 1222.417651 177.677684 
L 1222.596332 176.080398 
L 1222.775013 176.266534 
L 1223.132375 181.290629 
L 1223.489737 176.245047 
L 1223.847098 180.598023 
L 1224.025779 179.106411 
L 1224.20446 176.148441 
L 1224.383141 176.795981 
L 1224.561822 179.812051 
L 1224.740503 180.717994 
L 1225.097864 178.177404 
L 1225.455226 182.121121 
L 1225.812588 181.375824 
L 1226.169949 182.853144 
L 1226.34863 182.118366 
L 1226.527311 182.031278 
L 1226.884673 184.822628 
L 1227.242035 183.41855 
L 1227.420715 184.01908 
L 1227.599396 184.080345 
L 1228.135439 176.229102 
L 1228.31412 176.362721 
L 1228.850162 168.459431 
L 1229.028843 169.48339 
L 1229.207524 167.693899 
L 1229.564886 160.555537 
L 1229.922247 162.161989 
L 1230.279609 154.603553 
L 1230.45829 154.748462 
L 1230.636971 156.09626 
L 1230.815652 154.621835 
L 1230.994333 151.970862 
L 1231.173013 151.471531 
L 1231.351694 152.991906 
L 1231.530375 152.990327 
L 1231.887737 150.044402 
L 1232.066418 149.953947 
L 1232.245099 148.833431 
L 1232.60246 144.139613 
L 1232.959822 143.713923 
L 1233.138503 142.75574 
L 1233.317184 142.688526 
L 1233.495865 143.739278 
L 1233.674546 143.958777 
L 1233.853226 143.056544 
L 1234.031907 143.226962 
L 1234.389269 146.102139 
L 1234.56795 145.327613 
L 1234.746631 145.201878 
L 1235.103992 149.545179 
L 1235.282673 149.427099 
L 1235.461354 148.934295 
L 1235.640035 151.562768 
L 1235.997397 158.516054 
L 1236.176078 157.538946 
L 1236.354758 157.265567 
L 1236.71212 160.907302 
L 1236.890801 160.46242 
L 1237.069482 160.502155 
L 1237.426844 165.509102 
L 1237.605524 166.035349 
L 1237.784205 165.424371 
L 1237.962886 166.235063 
L 1239.034971 176.499737 
L 1239.571014 182.632217 
L 1239.749695 183.031906 
L 1239.928376 184.060464 
L 1240.285737 188.497252 
L 1240.285737 188.497252 
" clip-path="url(#p33af311638)" style="fill: none; stroke: #2ca02c; stroke-width: 1.5; stroke-linecap: square"/>
   </g>
   <g id="patch_3">
    <path d="M 172.26 628.6248 
L 172.26 84.7584 
" style="fill: none; stroke: #000000; stroke-width: 0.8; stroke-linejoin: miter; stroke-linecap: square"/>
   </g>
   <g id="patch_4">
    <path d="M 1240.272 628.6248 
L 1240.272 84.7584 
" style="fill: none; stroke: #000000; stroke-width: 0.8; stroke-linejoin: miter; stroke-linecap: square"/>
   </g>
   <g id="patch_5">
    <path d="M 172.26 628.6248 
L 1240.272 628.6248 
" style="fill: none; stroke: #000000; stroke-width: 0.8; stroke-linejoin: miter; stroke-linecap: square"/>
   </g>
   <g id="patch_6">
    <path d="M 172.26 84.7584 
L 1240.272 84.7584 
" style="fill: none; stroke: #000000; stroke-width: 0.8; stroke-linejoin: miter; stroke-linecap: square"/>
   </g>
   <g id="text_16">
    <!-- Matched filter -->
    <g transform="translate(664.594125 78.7584) scale(0.12 -0.12)">
     <defs>
      <path id="DejaVuSans-4d" d="M 628 4666 
L 1569 4666 
L 2759 1491 
L 3956 4666 
L 4897 4666 
L 4897 0 
L 4281 0 
L 4281 4097 
L 3078 897 
L 2444 897 
L 1241 4097 
L 1241 0 
L 628 0 
L 628 4666 
z
" transform="scale(0.015625)"/>
      <path id="DejaVuSans-63" d="M 3122 3366 
L 3122 2828 
Q 2878 2963 2633 3030 
Q 2388 3097 2138 3097 
Q 1578 3097 1268 2742 
Q 959 2388 959 1747 
Q 959 1106 1268 751 
Q 1578 397 2138 397 
Q 2388 397 2633 464 
Q 2878 531 3122 666 
L 3122 134 
Q 2881 22 2623 -34 
Q 2366 -91 2075 -91 
Q 1284 -91 818 406 
Q 353 903 353 1747 
Q 353 2603 823 3093 
Q 1294 3584 2113 3584 
Q 2378 3584 2631 3529 
Q 2884 3475 3122 3366 
z
" transform="scale(0.015625)"/>
      <path id="DejaVuSans-68" d="M 3513 2113 
L 3513 0 
L 2938 0 
L 2938 2094 
Q 2938 2591 2744 2837 
Q 2550 3084 2163 3084 
Q 1697 3084 1428 2787 
Q 1159 2491 1159 1978 
L 1159 0 
L 581 0 
L 581 4863 
L 1159 4863 
L 1159 2956 
Q 1366 3272 1645 3428 
Q 1925 3584 2291 3584 
Q 2894 3584 3203 3211 
Q 3513 2838 3513 2113 
z
" transform="scale(0.015625)"/>
      <path id="DejaVuSans-20" transform="scale(0.015625)"/>
      <path id="DejaVuSans-66" d="M 2375 4863 
L 2375 4384 
L 1825 4384 
Q 1516 4384 1395 4259 
Q 1275 4134 1275 3809 
L 1275 3500 
L 2222 3500 
L 2222 3053 
L 1275 3053 
L 1275 0 
L 697 0 
L 697 3053 
L 147 3053 
L 147 3500 
L 697 3500 
L 697 3744 
Q 697 4328 969 4595 
Q 1241 4863 1831 4863 
L 2375 4863 
z
" transform="scale(0.015625)"/>
      <path id="DejaVuSans-72" d="M 2631 2963 
Q 2534 3019 2420 3045 
Q 2306 3072 2169 3072 
Q 1681 3072 1420 2755 
Q 1159 2438 1159 1844 
L 1159 0 
L 581 0 
L 581 3500 
L 1159 3500 
L 1159 2956 
Q 1341 3275 1631 3429 
Q 1922 3584 2338 3584 
Q 2397 3584 2469 3576 
Q 2541 3569 2628 3553 
L 2631 2963 
z
" transform="scale(0.015625)"/>
     </defs>
     <use xlink:href="#DejaVuSans-4d"/>
     <use xlink:href="#DejaVuSans-61" x="86.279297"/>
     <use xlink:href="#DejaVuSans-74" x="147.558594"/>
     <use xlink:href="#DejaVuSans-63" x="186.767578"/>
     <use xlink:href="#DejaVuSans-68" x="241.748047"/>
     <use xlink:href="#DejaVuSans-65" x="305.126953"/>
     <use xlink:href="#DejaVuSans-64" x="366.650391"/>
     <use xlink:href="#DejaVuSans-20" x="430.126953"/>
     <use xlink:href="#DejaVuSans-66" x="461.914062"/>
     <use xlink:href="#DejaVuSans-69" x="497.119141"/>
     <use xlink:href="#DejaVuSans-6c" x="524.902344"/>
     <use xlink:href="#DejaVuSans-74" x="552.685547"/>
     <use xlink:href="#DejaVuSans-65" x="591.894531"/>
     <use xlink:href="#DejaVuSans-72" x="653.417969"/>
    </g>
   </g>
   <g id="legend_1">
    <g id="patch_7">
     <path d="M 1120.647 623.6248 
L 1233.272 623.6248 
Q 1235.272 623.6248 1235.272 621.6248 
L 1235.272 578.590425 
Q 1235.272 576.590425 1233.272 576.590425 
L 1120.647 576.590425 
Q 1118.647 576.590425 1118.647 578.590425 
L 1118.647 621.6248 
Q 1118.647 623.6248 1120.647 623.6248 
z
" style="fill: #ffffff; opacity: 0.8; stroke: #cccccc; stroke-linejoin: miter"/>
    </g>
    <g id="line2d_17">
     <path d="M 1122.647 584.688863 
L 1132.647 584.688863 
L 1142.647 584.688863 
" style="fill: none; stroke: #1f77b4; stroke-width: 1.5; stroke-linecap: square"/>
    </g>
    <g id="text_17">
     <!-- Threshold -->
     <g transform="translate(1150.647 588.188863) scale(0.1 -0.1)">
      <defs>
       <path id="DejaVuSans-54" d="M -19 4666 
L 3928 4666 
L 3928 4134 
L 2272 4134 
L 2272 0 
L 1638 0 
L 1638 4134 
L -19 4134 
L -19 4666 
z
" transform="scale(0.015625)"/>
       <path id="DejaVuSans-73" d="M 2834 3397 
L 2834 2853 
Q 2591 2978 2328 3040 
Q 2066 3103 1784 3103 
Q 1356 3103 1142 2972 
Q 928 2841 928 2578 
Q 928 2378 1081 2264 
Q 1234 2150 1697 2047 
L 1894 2003 
Q 2506 1872 2764 1633 
Q 3022 1394 3022 966 
Q 3022 478 2636 193 
Q 2250 -91 1575 -91 
Q 1294 -91 989 -36 
Q 684 19 347 128 
L 347 722 
Q 666 556 975 473 
Q 1284 391 1588 391 
Q 1994 391 2212 530 
Q 2431 669 2431 922 
Q 2431 1156 2273 1281 
Q 2116 1406 1581 1522 
L 1381 1569 
Q 847 1681 609 1914 
Q 372 2147 372 2553 
Q 372 3047 722 3315 
Q 1072 3584 1716 3584 
Q 2034 3584 2315 3537 
Q 2597 3491 2834 3397 
z
" transform="scale(0.015625)"/>
       <path id="DejaVuSans-6f" d="M 1959 3097 
Q 1497 3097 1228 2736 
Q 959 2375 959 1747 
Q 959 1119 1226 758 
Q 1494 397 1959 397 
Q 2419 397 2687 759 
Q 2956 1122 2956 1747 
Q 2956 2369 2687 2733 
Q 2419 3097 1959 3097 
z
M 1959 3584 
Q 2709 3584 3137 3096 
Q 3566 2609 3566 1747 
Q 3566 888 3137 398 
Q 2709 -91 1959 -91 
Q 1206 -91 779 398 
Q 353 888 353 1747 
Q 353 2609 779 3096 
Q 1206 3584 1959 3584 
z
" transform="scale(0.015625)"/>
      </defs>
      <use xlink:href="#DejaVuSans-54"/>
      <use xlink:href="#DejaVuSans-68" x="61.083984"/>
      <use xlink:href="#DejaVuSans-72" x="124.462891"/>
      <use xlink:href="#DejaVuSans-65" x="163.326172"/>
      <use xlink:href="#DejaVuSans-73" x="224.849609"/>
      <use xlink:href="#DejaVuSans-68" x="276.949219"/>
      <use xlink:href="#DejaVuSans-6f" x="340.328125"/>
      <use xlink:href="#DejaVuSans-6c" x="401.509766"/>
      <use xlink:href="#DejaVuSans-64" x="429.292969"/>
     </g>
    </g>
    <g id="line2d_18">
     <path d="M 1122.647 599.366988 
L 1132.647 599.366988 
L 1142.647 599.366988 
" style="fill: none; stroke: #ff7f0e; stroke-width: 1.5; stroke-linecap: square"/>
    </g>
    <g id="text_18">
     <!-- Detections -->
     <g transform="translate(1150.647 602.866988) scale(0.1 -0.1)">
      <defs>
       <path id="DejaVuSans-44" d="M 1259 4147 
L 1259 519 
L 2022 519 
Q 2988 519 3436 956 
Q 3884 1394 3884 2338 
Q 3884 3275 3436 3711 
Q 2988 4147 2022 4147 
L 1259 4147 
z
M 628 4666 
L 1925 4666 
Q 3281 4666 3915 4102 
Q 4550 3538 4550 2338 
Q 4550 1131 3912 565 
Q 3275 0 1925 0 
L 628 0 
L 628 4666 
z
" transform="scale(0.015625)"/>
       <path id="DejaVuSans-6e" d="M 3513 2113 
L 3513 0 
L 2938 0 
L 2938 2094 
Q 2938 2591 2744 2837 
Q 2550 3084 2163 3084 
Q 1697 3084 1428 2787 
Q 1159 2491 1159 1978 
L 1159 0 
L 581 0 
L 581 3500 
L 1159 3500 
L 1159 2956 
Q 1366 3272 1645 3428 
Q 1925 3584 2291 3584 
Q 2894 3584 3203 3211 
Q 3513 2838 3513 2113 
z
" transform="scale(0.015625)"/>
      </defs>
      <use xlink:href="#DejaVuSans-44"/>
      <use xlink:href="#DejaVuSans-65" x="77.001953"/>
      <use xlink:href="#DejaVuSans-74" x="138.525391"/>
      <use xlink:href="#DejaVuSans-65" x="177.734375"/>
      <use xlink:href="#DejaVuSans-63" x="239.257812"/>
      <use xlink:href="#DejaVuSans-74" x="294.238281"/>
      <use xlink:href="#DejaVuSans-69" x="333.447266"/>
      <use xlink:href="#DejaVuSans-6f" x="361.230469"/>
      <use xlink:href="#DejaVuSans-6e" x="422.412109"/>
      <use xlink:href="#DejaVuSans-73" x="485.791016"/>
     </g>
    </g>
    <g id="line2d_19">
     <path d="M 1122.647 614.045113 
L 1132.647 614.045113 
L 1142.647 614.045113 
" style="fill: none; stroke: #2ca02c; stroke-width: 1.5; stroke-linecap: square"/>
    </g>
    <g id="text_19">
     <!-- Detections after -->
     <g transform="translate(1150.647 617.545113) scale(0.1 -0.1)">
      <use xlink:href="#DejaVuSans-44"/>
      <use xlink:href="#DejaVuSans-65" x="77.001953"/>
      <use xlink:href="#DejaVuSans-74" x="138.525391"/>
      <use xlink:href="#DejaVuSans-65" x="177.734375"/>
      <use xlink:href="#DejaVuSans-63" x="239.257812"/>
      <use xlink:href="#DejaVuSans-74" x="294.238281"/>
      <use xlink:href="#DejaVuSans-69" x="333.447266"/>
      <use xlink:href="#DejaVuSans-6f" x="361.230469"/>
      <use xlink:href="#DejaVuSans-6e" x="422.412109"/>
      <use xlink:href="#DejaVuSans-73" x="485.791016"/>
      <use xlink:href="#DejaVuSans-20" x="537.890625"/>
      <use xlink:href="#DejaVuSans-61" x="569.677734"/>
      <use xlink:href="#DejaVuSans-66" x="630.957031"/>
      <use xlink:href="#DejaVuSans-74" x="664.412109"/>
      <use xlink:href="#DejaVuSans-65" x="703.621094"/>
      <use xlink:href="#DejaVuSans-72" x="765.144531"/>
     </g>
    </g>
   </g>
  </g>
 </g>
 <defs>
  <clipPath id="p33af311638">
   <rect x="172.26" y="84.7584" width="1068.012" height="543.8664"/>
  </clipPath>
 </defs>
</svg>
