<?xml version="1.0" encoding="utf-8" standalone="no"?>
<!DOCTYPE svg PUBLIC "-//W3C//DTD SVG 1.1//EN"
  "http://www.w3.org/Graphics/SVG/1.1/DTD/svg11.dtd">
<svg xmlns:xlink="http://www.w3.org/1999/xlink" width="1378.08pt" height="706.32pt" viewBox="0 0 1378.08 706.32" xmlns="http://www.w3.org/2000/svg" version="1.1">
 <metadata>
  <rdf:RDF xmlns:dc="http://purl.org/dc/elements/1.1/" xmlns:cc="http://creativecommons.org/ns#" xmlns:rdf="http://www.w3.org/1999/02/22-rdf-syntax-ns#">
   <cc:Work>
    <dc:type rdf:resource="http://purl.org/dc/dcmitype/StillImage"/>
    <dc:date>2023-11-05T19:04:25.982435</dc:date>
    <dc:format>image/svg+xml</dc:format>
    <dc:creator>
     <cc:Agent>
      <dc:title>Matplotlib v3.8.0, https://matplotlib.org/</dc:title>
     </cc:Agent>
    </dc:creator>
   </cc:Work>
  </rdf:RDF>
 </metadata>
 <defs>
  <style type="text/css">*{stroke-linejoin: round; stroke-linecap: butt}</style>
 </defs>
 <g id="figure_1">
  <g id="patch_1">
   <path d="M 0 706.32 
L 1378.08 706.32 
L 1378.08 0 
L 0 0 
z
" style="fill: #ffffff"/>
  </g>
  <g id="axes_1">
   <g id="patch_2">
    <path d="M 172.26 628.6248 
L 1240.272 628.6248 
L 1240.272 84.7584 
L 172.26 84.7584 
z
" style="fill: #ffffff"/>
   </g>
   <g id="matplotlib.axis_1">
    <g id="xtick_1">
     <g id="line2d_1">
      <defs>
       <path id="meaa37bc19b" d="M 0 0 
L 0 3.5 
" style="stroke: #000000; stroke-width: 0.8"/>
      </defs>
      <g>
       <use xlink:href="#meaa37bc19b" x="201.972672" y="628.6248" style="stroke: #000000; stroke-width: 0.8"/>
      </g>
     </g>
     <g id="text_1">
      <!-- 19000 -->
      <g transform="translate(186.066422 643.223238) scale(0.1 -0.1)">
       <defs>
        <path id="DejaVuSans-31" d="M 794 531 
L 1825 531 
L 1825 4091 
L 703 3866 
L 703 4441 
L 1819 4666 
L 2450 4666 
L 2450 531 
L 3481 531 
L 3481 0 
L 794 0 
L 794 531 
z
" transform="scale(0.015625)"/>
        <path id="DejaVuSans-39" d="M 703 97 
L 703 672 
Q 941 559 1184 500 
Q 1428 441 1663 441 
Q 2288 441 2617 861 
Q 2947 1281 2994 2138 
Q 2813 1869 2534 1725 
Q 2256 1581 1919 1581 
Q 1219 1581 811 2004 
Q 403 2428 403 3163 
Q 403 3881 828 4315 
Q 1253 4750 1959 4750 
Q 2769 4750 3195 4129 
Q 3622 3509 3622 2328 
Q 3622 1225 3098 567 
Q 2575 -91 1691 -91 
Q 1453 -91 1209 -44 
Q 966 3 703 97 
z
M 1959 2075 
Q 2384 2075 2632 2365 
Q 2881 2656 2881 3163 
Q 2881 3666 2632 3958 
Q 2384 4250 1959 4250 
Q 1534 4250 1286 3958 
Q 1038 3666 1038 3163 
Q 1038 2656 1286 2365 
Q 1534 2075 1959 2075 
z
" transform="scale(0.015625)"/>
        <path id="DejaVuSans-30" d="M 2034 4250 
Q 1547 4250 1301 3770 
Q 1056 3291 1056 2328 
Q 1056 1369 1301 889 
Q 1547 409 2034 409 
Q 2525 409 2770 889 
Q 3016 1369 3016 2328 
Q 3016 3291 2770 3770 
Q 2525 4250 2034 4250 
z
M 2034 4750 
Q 2819 4750 3233 4129 
Q 3647 3509 3647 2328 
Q 3647 1150 3233 529 
Q 2819 -91 2034 -91 
Q 1250 -91 836 529 
Q 422 1150 422 2328 
Q 422 3509 836 4129 
Q 1250 4750 2034 4750 
z
" transform="scale(0.015625)"/>
       </defs>
       <use xlink:href="#DejaVuSans-31"/>
       <use xlink:href="#DejaVuSans-39" x="63.623047"/>
       <use xlink:href="#DejaVuSans-30" x="127.246094"/>
       <use xlink:href="#DejaVuSans-30" x="190.869141"/>
       <use xlink:href="#DejaVuSans-30" x="254.492188"/>
      </g>
     </g>
    </g>
    <g id="xtick_2">
     <g id="line2d_2">
      <g>
       <use xlink:href="#meaa37bc19b" x="412.185447" y="628.6248" style="stroke: #000000; stroke-width: 0.8"/>
      </g>
     </g>
     <g id="text_2">
      <!-- 20000 -->
      <g transform="translate(396.279197 643.223238) scale(0.1 -0.1)">
       <defs>
        <path id="DejaVuSans-32" d="M 1228 531 
L 3431 531 
L 3431 0 
L 469 0 
L 469 531 
Q 828 903 1448 1529 
Q 2069 2156 2228 2338 
Q 2531 2678 2651 2914 
Q 2772 3150 2772 3378 
Q 2772 3750 2511 3984 
Q 2250 4219 1831 4219 
Q 1534 4219 1204 4116 
Q 875 4013 500 3803 
L 500 4441 
Q 881 4594 1212 4672 
Q 1544 4750 1819 4750 
Q 2544 4750 2975 4387 
Q 3406 4025 3406 3419 
Q 3406 3131 3298 2873 
Q 3191 2616 2906 2266 
Q 2828 2175 2409 1742 
Q 1991 1309 1228 531 
z
" transform="scale(0.015625)"/>
       </defs>
       <use xlink:href="#DejaVuSans-32"/>
       <use xlink:href="#DejaVuSans-30" x="63.623047"/>
       <use xlink:href="#DejaVuSans-30" x="127.246094"/>
       <use xlink:href="#DejaVuSans-30" x="190.869141"/>
       <use xlink:href="#DejaVuSans-30" x="254.492188"/>
      </g>
     </g>
    </g>
    <g id="xtick_3">
     <g id="line2d_3">
      <g>
       <use xlink:href="#meaa37bc19b" x="622.398223" y="628.6248" style="stroke: #000000; stroke-width: 0.8"/>
      </g>
     </g>
     <g id="text_3">
      <!-- 21000 -->
      <g transform="translate(606.491973 643.223238) scale(0.1 -0.1)">
       <use xlink:href="#DejaVuSans-32"/>
       <use xlink:href="#DejaVuSans-31" x="63.623047"/>
       <use xlink:href="#DejaVuSans-30" x="127.246094"/>
       <use xlink:href="#DejaVuSans-30" x="190.869141"/>
       <use xlink:href="#DejaVuSans-30" x="254.492188"/>
      </g>
     </g>
    </g>
    <g id="xtick_4">
     <g id="line2d_4">
      <g>
       <use xlink:href="#meaa37bc19b" x="832.610998" y="628.6248" style="stroke: #000000; stroke-width: 0.8"/>
      </g>
     </g>
     <g id="text_4">
      <!-- 22000 -->
      <g transform="translate(816.704748 643.223238) scale(0.1 -0.1)">
       <use xlink:href="#DejaVuSans-32"/>
       <use xlink:href="#DejaVuSans-32" x="63.623047"/>
       <use xlink:href="#DejaVuSans-30" x="127.246094"/>
       <use xlink:href="#DejaVuSans-30" x="190.869141"/>
       <use xlink:href="#DejaVuSans-30" x="254.492188"/>
      </g>
     </g>
    </g>
    <g id="xtick_5">
     <g id="line2d_5">
      <g>
       <use xlink:href="#meaa37bc19b" x="1042.823774" y="628.6248" style="stroke: #000000; stroke-width: 0.8"/>
      </g>
     </g>
     <g id="text_5">
      <!-- 23000 -->
      <g transform="translate(1026.917524 643.223238) scale(0.1 -0.1)">
       <defs>
        <path id="DejaVuSans-33" d="M 2597 2516 
Q 3050 2419 3304 2112 
Q 3559 1806 3559 1356 
Q 3559 666 3084 287 
Q 2609 -91 1734 -91 
Q 1441 -91 1130 -33 
Q 819 25 488 141 
L 488 750 
Q 750 597 1062 519 
Q 1375 441 1716 441 
Q 2309 441 2620 675 
Q 2931 909 2931 1356 
Q 2931 1769 2642 2001 
Q 2353 2234 1838 2234 
L 1294 2234 
L 1294 2753 
L 1863 2753 
Q 2328 2753 2575 2939 
Q 2822 3125 2822 3475 
Q 2822 3834 2567 4026 
Q 2313 4219 1838 4219 
Q 1578 4219 1281 4162 
Q 984 4106 628 3988 
L 628 4550 
Q 988 4650 1302 4700 
Q 1616 4750 1894 4750 
Q 2613 4750 3031 4423 
Q 3450 4097 3450 3541 
Q 3450 3153 3228 2886 
Q 3006 2619 2597 2516 
z
" transform="scale(0.015625)"/>
       </defs>
       <use xlink:href="#DejaVuSans-32"/>
       <use xlink:href="#DejaVuSans-33" x="63.623047"/>
       <use xlink:href="#DejaVuSans-30" x="127.246094"/>
       <use xlink:href="#DejaVuSans-30" x="190.869141"/>
       <use xlink:href="#DejaVuSans-30" x="254.492188"/>
      </g>
     </g>
    </g>
    <g id="text_6">
     <!-- Sample -->
     <g transform="translate(687.517562 656.901363) scale(0.1 -0.1)">
      <defs>
       <path id="DejaVuSans-53" d="M 3425 4513 
L 3425 3897 
Q 3066 4069 2747 4153 
Q 2428 4238 2131 4238 
Q 1616 4238 1336 4038 
Q 1056 3838 1056 3469 
Q 1056 3159 1242 3001 
Q 1428 2844 1947 2747 
L 2328 2669 
Q 3034 2534 3370 2195 
Q 3706 1856 3706 1288 
Q 3706 609 3251 259 
Q 2797 -91 1919 -91 
Q 1588 -91 1214 -16 
Q 841 59 441 206 
L 441 856 
Q 825 641 1194 531 
Q 1563 422 1919 422 
Q 2459 422 2753 634 
Q 3047 847 3047 1241 
Q 3047 1584 2836 1778 
Q 2625 1972 2144 2069 
L 1759 2144 
Q 1053 2284 737 2584 
Q 422 2884 422 3419 
Q 422 4038 858 4394 
Q 1294 4750 2059 4750 
Q 2388 4750 2728 4690 
Q 3069 4631 3425 4513 
z
" transform="scale(0.015625)"/>
       <path id="DejaVuSans-61" d="M 2194 1759 
Q 1497 1759 1228 1600 
Q 959 1441 959 1056 
Q 959 750 1161 570 
Q 1363 391 1709 391 
Q 2188 391 2477 730 
Q 2766 1069 2766 1631 
L 2766 1759 
L 2194 1759 
z
M 3341 1997 
L 3341 0 
L 2766 0 
L 2766 531 
Q 2569 213 2275 61 
Q 1981 -91 1556 -91 
Q 1019 -91 701 211 
Q 384 513 384 1019 
Q 384 1609 779 1909 
Q 1175 2209 1959 2209 
L 2766 2209 
L 2766 2266 
Q 2766 2663 2505 2880 
Q 2244 3097 1772 3097 
Q 1472 3097 1187 3025 
Q 903 2953 641 2809 
L 641 3341 
Q 956 3463 1253 3523 
Q 1550 3584 1831 3584 
Q 2591 3584 2966 3190 
Q 3341 2797 3341 1997 
z
" transform="scale(0.015625)"/>
       <path id="DejaVuSans-6d" d="M 3328 2828 
Q 3544 3216 3844 3400 
Q 4144 3584 4550 3584 
Q 5097 3584 5394 3201 
Q 5691 2819 5691 2113 
L 5691 0 
L 5113 0 
L 5113 2094 
Q 5113 2597 4934 2840 
Q 4756 3084 4391 3084 
Q 3944 3084 3684 2787 
Q 3425 2491 3425 1978 
L 3425 0 
L 2847 0 
L 2847 2094 
Q 2847 2600 2669 2842 
Q 2491 3084 2119 3084 
Q 1678 3084 1418 2786 
Q 1159 2488 1159 1978 
L 1159 0 
L 581 0 
L 581 3500 
L 1159 3500 
L 1159 2956 
Q 1356 3278 1631 3431 
Q 1906 3584 2284 3584 
Q 2666 3584 2933 3390 
Q 3200 3197 3328 2828 
z
" transform="scale(0.015625)"/>
       <path id="DejaVuSans-70" d="M 1159 525 
L 1159 -1331 
L 581 -1331 
L 581 3500 
L 1159 3500 
L 1159 2969 
Q 1341 3281 1617 3432 
Q 1894 3584 2278 3584 
Q 2916 3584 3314 3078 
Q 3713 2572 3713 1747 
Q 3713 922 3314 415 
Q 2916 -91 2278 -91 
Q 1894 -91 1617 61 
Q 1341 213 1159 525 
z
M 3116 1747 
Q 3116 2381 2855 2742 
Q 2594 3103 2138 3103 
Q 1681 3103 1420 2742 
Q 1159 2381 1159 1747 
Q 1159 1113 1420 752 
Q 1681 391 2138 391 
Q 2594 391 2855 752 
Q 3116 1113 3116 1747 
z
" transform="scale(0.015625)"/>
       <path id="DejaVuSans-6c" d="M 603 4863 
L 1178 4863 
L 1178 0 
L 603 0 
L 603 4863 
z
" transform="scale(0.015625)"/>
       <path id="DejaVuSans-65" d="M 3597 1894 
L 3597 1613 
L 953 1613 
Q 991 1019 1311 708 
Q 1631 397 2203 397 
Q 2534 397 2845 478 
Q 3156 559 3463 722 
L 3463 178 
Q 3153 47 2828 -22 
Q 2503 -91 2169 -91 
Q 1331 -91 842 396 
Q 353 884 353 1716 
Q 353 2575 817 3079 
Q 1281 3584 2069 3584 
Q 2775 3584 3186 3129 
Q 3597 2675 3597 1894 
z
M 3022 2063 
Q 3016 2534 2758 2815 
Q 2500 3097 2075 3097 
Q 1594 3097 1305 2825 
Q 1016 2553 972 2059 
L 3022 2063 
z
" transform="scale(0.015625)"/>
      </defs>
      <use xlink:href="#DejaVuSans-53"/>
      <use xlink:href="#DejaVuSans-61" x="63.476562"/>
      <use xlink:href="#DejaVuSans-6d" x="124.755859"/>
      <use xlink:href="#DejaVuSans-70" x="222.167969"/>
      <use xlink:href="#DejaVuSans-6c" x="285.644531"/>
      <use xlink:href="#DejaVuSans-65" x="313.427734"/>
     </g>
    </g>
   </g>
   <g id="matplotlib.axis_2">
    <g id="ytick_1">
     <g id="line2d_6">
      <defs>
       <path id="m3bac7cec36" d="M 0 0 
L -3.5 0 
" style="stroke: #000000; stroke-width: 0.8"/>
      </defs>
      <g>
       <use xlink:href="#m3bac7cec36" x="172.26" y="588.985553" style="stroke: #000000; stroke-width: 0.8"/>
      </g>
     </g>
     <g id="text_7">
      <!-- 0 -->
      <g transform="translate(158.8975 592.784772) scale(0.1 -0.1)">
       <use xlink:href="#DejaVuSans-30"/>
      </g>
     </g>
    </g>
    <g id="ytick_2">
     <g id="line2d_7">
      <g>
       <use xlink:href="#m3bac7cec36" x="172.26" y="519.409764" style="stroke: #000000; stroke-width: 0.8"/>
      </g>
     </g>
     <g id="text_8">
      <!-- 25 -->
      <g transform="translate(152.535 523.208983) scale(0.1 -0.1)">
       <defs>
        <path id="DejaVuSans-35" d="M 691 4666 
L 3169 4666 
L 3169 4134 
L 1269 4134 
L 1269 2991 
Q 1406 3038 1543 3061 
Q 1681 3084 1819 3084 
Q 2600 3084 3056 2656 
Q 3513 2228 3513 1497 
Q 3513 744 3044 326 
Q 2575 -91 1722 -91 
Q 1428 -91 1123 -41 
Q 819 9 494 109 
L 494 744 
Q 775 591 1075 516 
Q 1375 441 1709 441 
Q 2250 441 2565 725 
Q 2881 1009 2881 1497 
Q 2881 1984 2565 2268 
Q 2250 2553 1709 2553 
Q 1456 2553 1204 2497 
Q 953 2441 691 2322 
L 691 4666 
z
" transform="scale(0.015625)"/>
       </defs>
       <use xlink:href="#DejaVuSans-32"/>
       <use xlink:href="#DejaVuSans-35" x="63.623047"/>
      </g>
     </g>
    </g>
    <g id="ytick_3">
     <g id="line2d_8">
      <g>
       <use xlink:href="#m3bac7cec36" x="172.26" y="449.833976" style="stroke: #000000; stroke-width: 0.8"/>
      </g>
     </g>
     <g id="text_9">
      <!-- 50 -->
      <g transform="translate(152.535 453.633194) scale(0.1 -0.1)">
       <use xlink:href="#DejaVuSans-35"/>
       <use xlink:href="#DejaVuSans-30" x="63.623047"/>
      </g>
     </g>
    </g>
    <g id="ytick_4">
     <g id="line2d_9">
      <g>
       <use xlink:href="#m3bac7cec36" x="172.26" y="380.258187" style="stroke: #000000; stroke-width: 0.8"/>
      </g>
     </g>
     <g id="text_10">
      <!-- 75 -->
      <g transform="translate(152.535 384.057405) scale(0.1 -0.1)">
       <defs>
        <path id="DejaVuSans-37" d="M 525 4666 
L 3525 4666 
L 3525 4397 
L 1831 0 
L 1172 0 
L 2766 4134 
L 525 4134 
L 525 4666 
z
" transform="scale(0.015625)"/>
       </defs>
       <use xlink:href="#DejaVuSans-37"/>
       <use xlink:href="#DejaVuSans-35" x="63.623047"/>
      </g>
     </g>
    </g>
    <g id="ytick_5">
     <g id="line2d_10">
      <g>
       <use xlink:href="#m3bac7cec36" x="172.26" y="310.682398" style="stroke: #000000; stroke-width: 0.8"/>
      </g>
     </g>
     <g id="text_11">
      <!-- 100 -->
      <g transform="translate(146.1725 314.481617) scale(0.1 -0.1)">
       <use xlink:href="#DejaVuSans-31"/>
       <use xlink:href="#DejaVuSans-30" x="63.623047"/>
       <use xlink:href="#DejaVuSans-30" x="127.246094"/>
      </g>
     </g>
    </g>
    <g id="ytick_6">
     <g id="line2d_11">
      <g>
       <use xlink:href="#m3bac7cec36" x="172.26" y="241.106609" style="stroke: #000000; stroke-width: 0.8"/>
      </g>
     </g>
     <g id="text_12">
      <!-- 125 -->
      <g transform="translate(146.1725 244.905828) scale(0.1 -0.1)">
       <use xlink:href="#DejaVuSans-31"/>
       <use xlink:href="#DejaVuSans-32" x="63.623047"/>
       <use xlink:href="#DejaVuSans-35" x="127.246094"/>
      </g>
     </g>
    </g>
    <g id="ytick_7">
     <g id="line2d_12">
      <g>
       <use xlink:href="#m3bac7cec36" x="172.26" y="171.53082" style="stroke: #000000; stroke-width: 0.8"/>
      </g>
     </g>
     <g id="text_13">
      <!-- 150 -->
      <g transform="translate(146.1725 175.330039) scale(0.1 -0.1)">
       <use xlink:href="#DejaVuSans-31"/>
       <use xlink:href="#DejaVuSans-35" x="63.623047"/>
       <use xlink:href="#DejaVuSans-30" x="127.246094"/>
      </g>
     </g>
    </g>
    <g id="ytick_8">
     <g id="line2d_13">
      <g>
       <use xlink:href="#m3bac7cec36" x="172.26" y="101.955032" style="stroke: #000000; stroke-width: 0.8"/>
      </g>
     </g>
     <g id="text_14">
      <!-- 175 -->
      <g transform="translate(146.1725 105.75425) scale(0.1 -0.1)">
       <use xlink:href="#DejaVuSans-31"/>
       <use xlink:href="#DejaVuSans-37" x="63.623047"/>
       <use xlink:href="#DejaVuSans-35" x="127.246094"/>
      </g>
     </g>
    </g>
    <g id="text_15">
     <!-- Amplitude -->
     <g transform="translate(140.092812 382.314256) rotate(-90) scale(0.1 -0.1)">
      <defs>
       <path id="DejaVuSans-41" d="M 2188 4044 
L 1331 1722 
L 3047 1722 
L 2188 4044 
z
M 1831 4666 
L 2547 4666 
L 4325 0 
L 3669 0 
L 3244 1197 
L 1141 1197 
L 716 0 
L 50 0 
L 1831 4666 
z
" transform="scale(0.015625)"/>
       <path id="DejaVuSans-69" d="M 603 3500 
L 1178 3500 
L 1178 0 
L 603 0 
L 603 3500 
z
M 603 4863 
L 1178 4863 
L 1178 4134 
L 603 4134 
L 603 4863 
z
" transform="scale(0.015625)"/>
       <path id="DejaVuSans-74" d="M 1172 4494 
L 1172 3500 
L 2356 3500 
L 2356 3053 
L 1172 3053 
L 1172 1153 
Q 1172 725 1289 603 
Q 1406 481 1766 481 
L 2356 481 
L 2356 0 
L 1766 0 
Q 1100 0 847 248 
Q 594 497 594 1153 
L 594 3053 
L 172 3053 
L 172 3500 
L 594 3500 
L 594 4494 
L 1172 4494 
z
" transform="scale(0.015625)"/>
       <path id="DejaVuSans-75" d="M 544 1381 
L 544 3500 
L 1119 3500 
L 1119 1403 
Q 1119 906 1312 657 
Q 1506 409 1894 409 
Q 2359 409 2629 706 
Q 2900 1003 2900 1516 
L 2900 3500 
L 3475 3500 
L 3475 0 
L 2900 0 
L 2900 538 
Q 2691 219 2414 64 
Q 2138 -91 1772 -91 
Q 1169 -91 856 284 
Q 544 659 544 1381 
z
M 1991 3584 
L 1991 3584 
z
" transform="scale(0.015625)"/>
       <path id="DejaVuSans-64" d="M 2906 2969 
L 2906 4863 
L 3481 4863 
L 3481 0 
L 2906 0 
L 2906 525 
Q 2725 213 2448 61 
Q 2172 -91 1784 -91 
Q 1150 -91 751 415 
Q 353 922 353 1747 
Q 353 2572 751 3078 
Q 1150 3584 1784 3584 
Q 2172 3584 2448 3432 
Q 2725 3281 2906 2969 
z
M 947 1747 
Q 947 1113 1208 752 
Q 1469 391 1925 391 
Q 2381 391 2643 752 
Q 2906 1113 2906 1747 
Q 2906 2381 2643 2742 
Q 2381 3103 1925 3103 
Q 1469 3103 1208 2742 
Q 947 2381 947 1747 
z
" transform="scale(0.015625)"/>
      </defs>
      <use xlink:href="#DejaVuSans-41"/>
      <use xlink:href="#DejaVuSans-6d" x="68.408203"/>
      <use xlink:href="#DejaVuSans-70" x="165.820312"/>
      <use xlink:href="#DejaVuSans-6c" x="229.296875"/>
      <use xlink:href="#DejaVuSans-69" x="257.080078"/>
      <use xlink:href="#DejaVuSans-74" x="284.863281"/>
      <use xlink:href="#DejaVuSans-75" x="324.072266"/>
      <use xlink:href="#DejaVuSans-64" x="387.451172"/>
      <use xlink:href="#DejaVuSans-65" x="450.927734"/>
     </g>
    </g>
   </g>
   <g id="line2d_14">
    <path d="M 172.122458 536.578794 
L 1240.423783 536.578794 
L 1240.423783 536.578794 
" clip-path="url(#p6132a36562)" style="fill: none; stroke: #1f77b4; stroke-width: 1.5; stroke-linecap: square"/>
   </g>
   <g id="line2d_15">
    <path d="M 172.122458 588.985553 
L 211.011821 588.985553 
L 211.222034 533.05352 
L 211.642459 498.672853 
L 212.48331 402.739448 
L 213.113949 320.001911 
L 213.9548 237.035774 
L 214.375225 220.023542 
L 214.585438 216.599155 
L 214.795651 222.885844 
L 215.426289 274.128397 
L 216.26714 374.145152 
L 217.318204 495.498852 
L 217.73863 529.595041 
L 217.948843 588.985553 
L 322.845018 588.985553 
L 323.05523 526.873083 
L 323.685869 460.828702 
L 324.316507 375.873497 
L 325.367571 231.11281 
L 325.787996 196.791936 
L 325.998209 189.126455 
L 326.208422 186.595276 
L 326.418635 189.856709 
L 326.628848 201.012192 
L 327.049273 241.95303 
L 327.890124 354.135538 
L 328.730975 462.411735 
L 329.361614 520.080402 
L 329.571826 534.622938 
L 329.782039 588.985553 
L 434.468001 588.985553 
L 434.678214 533.524055 
L 435.308852 479.879089 
L 435.939491 397.109343 
L 437.831406 134.833948 
L 438.041619 122.899227 
L 438.251831 117.724584 
L 438.462044 122.73132 
L 438.88247 154.58563 
L 439.302895 205.620747 
L 440.984597 464.966597 
L 441.615236 527.273222 
L 441.825449 588.985553 
L 483.027153 588.985553 
L 483.237365 535.582846 
L 483.447578 535.245075 
L 483.657791 588.985553 
L 483.868004 588.985553 
L 484.078216 536.503864 
L 484.288429 535.236914 
L 484.498642 536.162832 
L 484.708855 588.985553 
L 484.919068 588.985553 
L 485.12928 536.425278 
L 485.339493 536.143944 
L 485.549706 588.985553 
L 516.240771 588.985553 
L 516.450984 536.039855 
L 516.871409 533.769283 
L 517.081622 533.518026 
L 517.291835 534.117305 
L 517.502048 534.293512 
L 517.922473 532.687869 
L 518.342899 533.43519 
L 518.763324 532.157603 
L 519.814388 536.318397 
L 520.024601 588.985553 
L 520.234814 588.985553 
L 520.445027 536.562678 
L 520.655239 536.124764 
L 520.865452 536.251261 
L 521.075665 535.906522 
L 521.285878 534.659717 
L 521.49609 534.591069 
L 521.706303 535.992542 
L 521.916516 588.985553 
L 546.301198 588.985553 
L 546.511411 531.96092 
L 547.142049 479.345169 
L 547.9829 366.547645 
L 549.033964 203.830033 
L 549.45439 157.924259 
L 550.085028 122.392964 
L 550.295241 124.118758 
L 550.925879 167.469849 
L 551.346305 222.452526 
L 552.817794 426.007268 
L 553.448432 494.528553 
L 554.079071 535.731101 
L 554.289283 588.985553 
L 593.599072 588.985553 
L 593.809285 536.063834 
L 594.019498 533.448318 
L 594.229711 532.67718 
L 594.650136 535.334023 
L 594.860349 534.670321 
L 595.070562 533.597318 
L 595.280775 533.55757 
L 595.490987 533.921323 
L 595.7012 533.693513 
L 596.121626 532.681221 
L 596.331839 532.886635 
L 596.752264 534.987513 
L 596.962477 535.140908 
L 597.17269 534.693578 
L 597.382902 534.589924 
L 597.593115 535.715947 
L 597.803328 588.985553 
L 598.013541 588.985553 
L 598.223754 535.695926 
L 598.433966 535.712879 
L 598.644179 588.985553 
L 599.064605 588.985553 
L 599.274817 536.092297 
L 599.48503 588.985553 
L 626.812691 588.985553 
L 627.022904 535.936213 
L 627.233117 533.795333 
L 627.653542 535.793593 
L 628.073968 533.450117 
L 628.28418 533.996598 
L 628.494393 536.153884 
L 628.704606 588.985553 
L 657.293543 588.985553 
L 657.503756 528.0045 
L 657.924182 496.305765 
L 658.765033 397.019958 
L 660.026309 224.377869 
L 660.446735 186.972778 
L 660.867161 171.701391 
L 661.077373 169.321755 
L 661.287586 178.776008 
L 662.128437 264.80839 
L 663.599927 459.263294 
L 664.230565 515.346609 
L 664.440778 528.180165 
L 664.650991 588.985553 
L 698.285035 588.985553 
L 698.495247 535.572053 
L 698.70546 588.985553 
L 699.336099 588.985553 
L 699.546311 535.87958 
L 699.756524 588.985553 
L 700.17695 588.985553 
L 700.387162 535.616375 
L 700.597375 588.985553 
L 766.604187 588.985553 
L 766.814399 534.540271 
L 767.445038 480.020911 
L 768.285889 371.462427 
L 769.547166 194.424179 
L 769.757378 176.3901 
L 769.967591 168.493501 
L 770.177804 166.565176 
L 770.388017 166.934009 
L 770.598229 173.006987 
L 771.018655 211.074723 
L 771.649293 288.005842 
L 772.490144 411.747961 
L 773.120783 484.261594 
L 773.751421 532.616755 
L 773.961634 588.985553 
L 845.223765 588.985553 
L 845.433977 536.386558 
L 845.854403 535.472585 
L 846.064616 535.214277 
L 846.274829 535.479617 
L 846.485041 536.427132 
L 846.695254 588.985553 
L 874.653553 588.985553 
L 874.863766 532.019499 
L 875.284192 501.346449 
L 875.704617 454.198631 
L 876.335255 362.809021 
L 877.596532 148.061032 
L 878.22717 83.514543 
L 878.437383 73.764765 
L 878.647596 74.089932 
L 878.857809 81.959319 
L 879.068022 95.565169 
L 879.488447 151.360638 
L 881.380362 458.477728 
L 881.800788 500.902835 
L 882.221213 532.097997 
L 882.431426 588.985553 
L 912.702066 588.985553 
L 912.912278 535.539577 
L 913.332704 530.410661 
L 913.542917 530.268151 
L 913.75313 529.339061 
L 913.963342 526.882423 
L 914.173555 525.958828 
L 914.593981 530.095926 
L 914.804193 530.1166 
L 915.014406 529.601582 
L 915.224619 530.753745 
L 915.434832 532.722785 
L 915.645045 533.345392 
L 915.855257 532.40309 
L 916.06547 532.252529 
L 916.485896 534.880178 
L 916.696108 534.607834 
L 916.906321 534.131055 
L 917.116534 534.850694 
L 917.326747 536.060109 
L 918.167598 536.52005 
L 918.588023 536.018185 
L 918.798236 588.985553 
L 920.269726 588.985553 
L 920.479938 536.506505 
L 920.690151 588.985553 
L 920.900364 588.985553 
L 921.110577 535.520526 
L 921.320789 534.783854 
L 921.531002 535.90543 
L 921.741215 536.30779 
L 922.161641 531.831402 
L 922.371853 532.224972 
L 922.582066 533.532771 
L 922.792279 532.460574 
L 923.002492 529.529161 
L 923.212704 528.576678 
L 923.422917 529.8875 
L 923.63313 530.346991 
L 924.053556 526.269608 
L 924.263768 526.650442 
L 924.473981 527.986463 
L 924.684194 528.161479 
L 924.894407 527.725524 
L 925.314832 529.066772 
L 925.525045 529.011433 
L 925.735258 529.12418 
L 925.945471 529.823898 
L 926.365896 531.802614 
L 926.576109 532.096443 
L 927.206747 533.66462 
L 927.41696 533.906055 
L 927.627173 535.544495 
L 927.837385 588.985553 
L 950.540365 588.985553 
L 950.750578 534.984495 
L 951.171004 530.568628 
L 951.591429 524.910153 
L 952.011855 521.915196 
L 952.642493 513.553155 
L 952.852706 513.25937 
L 953.273131 511.196166 
L 953.483344 511.488386 
L 953.90377 514.3311 
L 954.113982 513.862944 
L 954.324195 513.94366 
L 954.744621 517.69764 
L 954.954834 517.878945 
L 955.165046 517.745679 
L 955.375259 519.631824 
L 955.795685 525.039038 
L 956.005897 525.844985 
L 956.426323 529.268661 
L 956.636536 530.781524 
L 957.056961 531.726865 
L 957.6876 535.851627 
L 957.897812 588.985553 
L 982.492707 588.985553 
L 982.70292 528.548153 
L 983.123345 495.770436 
L 983.964197 396.464031 
L 985.856112 116.127711 
L 986.276537 94.318366 
L 986.48675 95.60818 
L 986.696963 104.830511 
L 987.117388 140.02742 
L 987.748027 228.409906 
L 989.429729 473.844404 
L 990.060367 528.030929 
L 990.27058 588.985553 
L 1090.121648 588.985553 
L 1090.331861 520.213517 
L 1090.752287 476.985524 
L 1091.80335 330.764798 
L 1092.644201 225.561236 
L 1092.854414 208.376379 
L 1093.064627 201.998163 
L 1093.27484 202.239414 
L 1093.485053 205.041184 
L 1093.695265 213.285376 
L 1094.115691 251.554402 
L 1094.746329 323.631096 
L 1095.797393 467.628228 
L 1096.428031 527.788142 
L 1096.638244 588.985553 
L 1196.699525 588.985553 
L 1196.909738 529.62594 
L 1197.960802 433.817679 
L 1198.59144 379.171493 
L 1199.011866 351.943921 
L 1199.222079 345.659324 
L 1199.432291 345.371629 
L 1199.852717 352.020261 
L 1200.06293 361.719089 
L 1200.903781 431.954008 
L 1201.954845 524.890631 
L 1202.165058 588.985553 
L 1240.423783 588.985553 
L 1240.423783 588.985553 
" clip-path="url(#p6132a36562)" style="fill: none; stroke: #ff7f0e; stroke-width: 1.5; stroke-linecap: square"/>
   </g>
   <g id="line2d_16">
    <path d="M 172.122458 588.985553 
L 211.011821 588.985553 
L 211.222034 533.05352 
L 211.642459 498.672853 
L 212.48331 402.739448 
L 213.113949 320.001911 
L 213.9548 237.035774 
L 214.375225 220.023542 
L 214.585438 216.599155 
L 214.795651 222.885844 
L 215.426289 274.128397 
L 216.26714 374.145152 
L 217.318204 495.498852 
L 217.73863 529.595041 
L 217.948843 588.985553 
L 322.845018 588.985553 
L 323.05523 526.873083 
L 323.685869 460.828702 
L 324.316507 375.873497 
L 325.367571 231.11281 
L 325.787996 196.791936 
L 325.998209 189.126455 
L 326.208422 186.595276 
L 326.418635 189.856709 
L 326.628848 201.012192 
L 327.049273 241.95303 
L 327.890124 354.135538 
L 328.730975 462.411735 
L 329.361614 520.080402 
L 329.571826 534.622938 
L 329.782039 588.985553 
L 434.468001 588.985553 
L 434.678214 533.524055 
L 435.308852 479.879089 
L 435.939491 397.109343 
L 437.831406 134.833948 
L 438.041619 122.899227 
L 438.251831 117.724584 
L 438.462044 122.73132 
L 438.88247 154.58563 
L 439.302895 205.620747 
L 440.984597 464.966597 
L 441.615236 527.273222 
L 441.825449 588.985553 
L 483.027153 588.985553 
L 483.237365 535.582846 
L 483.447578 535.245075 
L 483.657791 588.985553 
L 483.868004 588.985553 
L 484.078216 536.503864 
L 484.288429 535.236914 
L 484.498642 536.162832 
L 484.708855 588.985553 
L 484.919068 588.985553 
L 485.12928 536.425278 
L 485.339493 536.143944 
L 485.549706 588.985553 
L 516.240771 588.985553 
L 516.450984 536.039855 
L 516.871409 533.769283 
L 517.081622 533.518026 
L 517.291835 534.117305 
L 517.502048 534.293512 
L 517.922473 532.687869 
L 518.342899 533.43519 
L 518.763324 532.157603 
L 519.814388 536.318397 
L 520.024601 588.985553 
L 520.234814 588.985553 
L 520.445027 536.562678 
L 520.655239 536.124764 
L 520.865452 536.251261 
L 521.075665 535.906522 
L 521.285878 534.659717 
L 521.49609 534.591069 
L 521.706303 535.992542 
L 521.916516 588.985553 
L 546.301198 588.985553 
L 546.511411 531.96092 
L 547.142049 479.345169 
L 547.9829 366.547645 
L 549.033964 203.830033 
L 549.45439 157.924259 
L 550.085028 122.392964 
L 550.295241 124.118758 
L 550.925879 167.469849 
L 551.346305 222.452526 
L 552.817794 426.007268 
L 553.448432 494.528553 
L 554.079071 535.731101 
L 554.289283 588.985553 
L 593.599072 588.985553 
L 593.809285 536.063834 
L 594.019498 533.448318 
L 594.229711 532.67718 
L 594.650136 535.334023 
L 594.860349 534.670321 
L 595.070562 533.597318 
L 595.280775 533.55757 
L 595.490987 533.921323 
L 595.7012 533.693513 
L 596.121626 532.681221 
L 596.331839 532.886635 
L 596.752264 534.987513 
L 596.962477 535.140908 
L 597.17269 534.693578 
L 597.382902 534.589924 
L 597.593115 535.715947 
L 597.803328 588.985553 
L 598.013541 588.985553 
L 598.223754 535.695926 
L 598.433966 535.712879 
L 598.644179 588.985553 
L 626.812691 588.985553 
L 627.022904 535.936213 
L 627.233117 533.795333 
L 627.653542 535.793593 
L 628.073968 533.450117 
L 628.28418 533.996598 
L 628.494393 536.153884 
L 628.704606 588.985553 
L 657.293543 588.985553 
L 657.503756 528.0045 
L 657.924182 496.305765 
L 658.765033 397.019958 
L 660.026309 224.377869 
L 660.446735 186.972778 
L 660.867161 171.701391 
L 661.077373 169.321755 
L 661.287586 178.776008 
L 662.128437 264.80839 
L 663.599927 459.263294 
L 664.230565 515.346609 
L 664.440778 528.180165 
L 664.650991 588.985553 
L 766.604187 588.985553 
L 766.814399 534.540271 
L 767.445038 480.020911 
L 768.285889 371.462427 
L 769.547166 194.424179 
L 769.757378 176.3901 
L 769.967591 168.493501 
L 770.177804 166.565176 
L 770.388017 166.934009 
L 770.598229 173.006987 
L 771.018655 211.074723 
L 771.649293 288.005842 
L 772.490144 411.747961 
L 773.120783 484.261594 
L 773.751421 532.616755 
L 773.961634 588.985553 
L 845.223765 588.985553 
L 845.433977 536.386558 
L 845.854403 535.472585 
L 846.064616 535.214277 
L 846.274829 535.479617 
L 846.485041 536.427132 
L 846.695254 588.985553 
L 874.653553 588.985553 
L 874.863766 532.019499 
L 875.284192 501.346449 
L 875.704617 454.198631 
L 876.335255 362.809021 
L 877.596532 148.061032 
L 878.22717 83.514543 
L 878.437383 73.764765 
L 878.647596 74.089932 
L 878.857809 81.959319 
L 879.068022 95.565169 
L 879.488447 151.360638 
L 881.380362 458.477728 
L 881.800788 500.902835 
L 882.221213 532.097997 
L 882.431426 588.985553 
L 912.702066 588.985553 
L 912.912278 535.539577 
L 913.332704 530.410661 
L 913.542917 530.268151 
L 913.75313 529.339061 
L 913.963342 526.882423 
L 914.173555 525.958828 
L 914.593981 530.095926 
L 914.804193 530.1166 
L 915.014406 529.601582 
L 915.224619 530.753745 
L 915.434832 532.722785 
L 915.645045 533.345392 
L 915.855257 532.40309 
L 916.06547 532.252529 
L 916.485896 534.880178 
L 916.696108 534.607834 
L 916.906321 534.131055 
L 917.116534 534.850694 
L 917.326747 536.060109 
L 918.167598 536.52005 
L 918.588023 536.018185 
L 918.798236 588.985553 
L 920.900364 588.985553 
L 921.110577 535.520526 
L 921.320789 534.783854 
L 921.531002 535.90543 
L 921.741215 536.30779 
L 922.161641 531.831402 
L 922.371853 532.224972 
L 922.582066 533.532771 
L 922.792279 532.460574 
L 923.002492 529.529161 
L 923.212704 528.576678 
L 923.422917 529.8875 
L 923.63313 530.346991 
L 924.053556 526.269608 
L 924.263768 526.650442 
L 924.473981 527.986463 
L 924.684194 528.161479 
L 924.894407 527.725524 
L 925.314832 529.066772 
L 925.525045 529.011433 
L 925.735258 529.12418 
L 925.945471 529.823898 
L 926.365896 531.802614 
L 926.576109 532.096443 
L 927.206747 533.66462 
L 927.41696 533.906055 
L 927.627173 535.544495 
L 927.837385 588.985553 
L 950.540365 588.985553 
L 950.750578 534.984495 
L 951.171004 530.568628 
L 951.591429 524.910153 
L 952.011855 521.915196 
L 952.642493 513.553155 
L 952.852706 513.25937 
L 953.273131 511.196166 
L 953.483344 511.488386 
L 953.90377 514.3311 
L 954.113982 513.862944 
L 954.324195 513.94366 
L 954.744621 517.69764 
L 954.954834 517.878945 
L 955.165046 517.745679 
L 955.375259 519.631824 
L 955.795685 525.039038 
L 956.005897 525.844985 
L 956.426323 529.268661 
L 956.636536 530.781524 
L 957.056961 531.726865 
L 957.6876 535.851627 
L 957.897812 588.985553 
L 982.492707 588.985553 
L 982.70292 528.548153 
L 983.123345 495.770436 
L 983.964197 396.464031 
L 985.856112 116.127711 
L 986.276537 94.318366 
L 986.48675 95.60818 
L 986.696963 104.830511 
L 987.117388 140.02742 
L 987.748027 228.409906 
L 989.429729 473.844404 
L 990.060367 528.030929 
L 990.27058 588.985553 
L 1090.121648 588.985553 
L 1090.331861 520.213517 
L 1090.752287 476.985524 
L 1091.80335 330.764798 
L 1092.644201 225.561236 
L 1092.854414 208.376379 
L 1093.064627 201.998163 
L 1093.27484 202.239414 
L 1093.485053 205.041184 
L 1093.695265 213.285376 
L 1094.115691 251.554402 
L 1094.746329 323.631096 
L 1095.797393 467.628228 
L 1096.428031 527.788142 
L 1096.638244 588.985553 
L 1196.699525 588.985553 
L 1196.909738 529.62594 
L 1197.960802 433.817679 
L 1198.59144 379.171493 
L 1199.011866 351.943921 
L 1199.222079 345.659324 
L 1199.432291 345.371629 
L 1199.852717 352.020261 
L 1200.06293 361.719089 
L 1200.903781 431.954008 
L 1201.954845 524.890631 
L 1202.165058 588.985553 
L 1240.423783 588.985553 
L 1240.423783 588.985553 
" clip-path="url(#p6132a36562)" style="fill: none; stroke: #2ca02c; stroke-width: 1.5; stroke-linecap: square"/>
   </g>
   <g id="patch_3">
    <path d="M 172.26 628.6248 
L 172.26 84.7584 
" style="fill: none; stroke: #000000; stroke-width: 0.8; stroke-linejoin: miter; stroke-linecap: square"/>
   </g>
   <g id="patch_4">
    <path d="M 1240.272 628.6248 
L 1240.272 84.7584 
" style="fill: none; stroke: #000000; stroke-width: 0.8; stroke-linejoin: miter; stroke-linecap: square"/>
   </g>
   <g id="patch_5">
    <path d="M 172.26 628.6248 
L 1240.272 628.6248 
" style="fill: none; stroke: #000000; stroke-width: 0.8; stroke-linejoin: miter; stroke-linecap: square"/>
   </g>
   <g id="patch_6">
    <path d="M 172.26 84.7584 
L 1240.272 84.7584 
" style="fill: none; stroke: #000000; stroke-width: 0.8; stroke-linejoin: miter; stroke-linecap: square"/>
   </g>
   <g id="text_16">
    <!-- Matched filter -->
    <g transform="translate(664.594125 78.7584) scale(0.12 -0.12)">
     <defs>
      <path id="DejaVuSans-4d" d="M 628 4666 
L 1569 4666 
L 2759 1491 
L 3956 4666 
L 4897 4666 
L 4897 0 
L 4281 0 
L 4281 4097 
L 3078 897 
L 2444 897 
L 1241 4097 
L 1241 0 
L 628 0 
L 628 4666 
z
" transform="scale(0.015625)"/>
      <path id="DejaVuSans-63" d="M 3122 3366 
L 3122 2828 
Q 2878 2963 2633 3030 
Q 2388 3097 2138 3097 
Q 1578 3097 1268 2742 
Q 959 2388 959 1747 
Q 959 1106 1268 751 
Q 1578 397 2138 397 
Q 2388 397 2633 464 
Q 2878 531 3122 666 
L 3122 134 
Q 2881 22 2623 -34 
Q 2366 -91 2075 -91 
Q 1284 -91 818 406 
Q 353 903 353 1747 
Q 353 2603 823 3093 
Q 1294 3584 2113 3584 
Q 2378 3584 2631 3529 
Q 2884 3475 3122 3366 
z
" transform="scale(0.015625)"/>
      <path id="DejaVuSans-68" d="M 3513 2113 
L 3513 0 
L 2938 0 
L 2938 2094 
Q 2938 2591 2744 2837 
Q 2550 3084 2163 3084 
Q 1697 3084 1428 2787 
Q 1159 2491 1159 1978 
L 1159 0 
L 581 0 
L 581 4863 
L 1159 4863 
L 1159 2956 
Q 1366 3272 1645 3428 
Q 1925 3584 2291 3584 
Q 2894 3584 3203 3211 
Q 3513 2838 3513 2113 
z
" transform="scale(0.015625)"/>
      <path id="DejaVuSans-20" transform="scale(0.015625)"/>
      <path id="DejaVuSans-66" d="M 2375 4863 
L 2375 4384 
L 1825 4384 
Q 1516 4384 1395 4259 
Q 1275 4134 1275 3809 
L 1275 3500 
L 2222 3500 
L 2222 3053 
L 1275 3053 
L 1275 0 
L 697 0 
L 697 3053 
L 147 3053 
L 147 3500 
L 697 3500 
L 697 3744 
Q 697 4328 969 4595 
Q 1241 4863 1831 4863 
L 2375 4863 
z
" transform="scale(0.015625)"/>
      <path id="DejaVuSans-72" d="M 2631 2963 
Q 2534 3019 2420 3045 
Q 2306 3072 2169 3072 
Q 1681 3072 1420 2755 
Q 1159 2438 1159 1844 
L 1159 0 
L 581 0 
L 581 3500 
L 1159 3500 
L 1159 2956 
Q 1341 3275 1631 3429 
Q 1922 3584 2338 3584 
Q 2397 3584 2469 3576 
Q 2541 3569 2628 3553 
L 2631 2963 
z
" transform="scale(0.015625)"/>
     </defs>
     <use xlink:href="#DejaVuSans-4d"/>
     <use xlink:href="#DejaVuSans-61" x="86.279297"/>
     <use xlink:href="#DejaVuSans-74" x="147.558594"/>
     <use xlink:href="#DejaVuSans-63" x="186.767578"/>
     <use xlink:href="#DejaVuSans-68" x="241.748047"/>
     <use xlink:href="#DejaVuSans-65" x="305.126953"/>
     <use xlink:href="#DejaVuSans-64" x="366.650391"/>
     <use xlink:href="#DejaVuSans-20" x="430.126953"/>
     <use xlink:href="#DejaVuSans-66" x="461.914062"/>
     <use xlink:href="#DejaVuSans-69" x="497.119141"/>
     <use xlink:href="#DejaVuSans-6c" x="524.902344"/>
     <use xlink:href="#DejaVuSans-74" x="552.685547"/>
     <use xlink:href="#DejaVuSans-65" x="591.894531"/>
     <use xlink:href="#DejaVuSans-72" x="653.417969"/>
    </g>
   </g>
   <g id="legend_1">
    <g id="patch_7">
     <path d="M 1120.647 136.792775 
L 1233.272 136.792775 
Q 1235.272 136.792775 1235.272 134.792775 
L 1235.272 91.7584 
Q 1235.272 89.7584 1233.272 89.7584 
L 1120.647 89.7584 
Q 1118.647 89.7584 1118.647 91.7584 
L 1118.647 134.792775 
Q 1118.647 136.792775 1120.647 136.792775 
z
" style="fill: #ffffff; opacity: 0.8; stroke: #cccccc; stroke-linejoin: miter"/>
    </g>
    <g id="line2d_17">
     <path d="M 1122.647 97.856837 
L 1132.647 97.856837 
L 1142.647 97.856837 
" style="fill: none; stroke: #1f77b4; stroke-width: 1.5; stroke-linecap: square"/>
    </g>
    <g id="text_17">
     <!-- Threshold -->
     <g transform="translate(1150.647 101.356837) scale(0.1 -0.1)">
      <defs>
       <path id="DejaVuSans-54" d="M -19 4666 
L 3928 4666 
L 3928 4134 
L 2272 4134 
L 2272 0 
L 1638 0 
L 1638 4134 
L -19 4134 
L -19 4666 
z
" transform="scale(0.015625)"/>
       <path id="DejaVuSans-73" d="M 2834 3397 
L 2834 2853 
Q 2591 2978 2328 3040 
Q 2066 3103 1784 3103 
Q 1356 3103 1142 2972 
Q 928 2841 928 2578 
Q 928 2378 1081 2264 
Q 1234 2150 1697 2047 
L 1894 2003 
Q 2506 1872 2764 1633 
Q 3022 1394 3022 966 
Q 3022 478 2636 193 
Q 2250 -91 1575 -91 
Q 1294 -91 989 -36 
Q 684 19 347 128 
L 347 722 
Q 666 556 975 473 
Q 1284 391 1588 391 
Q 1994 391 2212 530 
Q 2431 669 2431 922 
Q 2431 1156 2273 1281 
Q 2116 1406 1581 1522 
L 1381 1569 
Q 847 1681 609 1914 
Q 372 2147 372 2553 
Q 372 3047 722 3315 
Q 1072 3584 1716 3584 
Q 2034 3584 2315 3537 
Q 2597 3491 2834 3397 
z
" transform="scale(0.015625)"/>
       <path id="DejaVuSans-6f" d="M 1959 3097 
Q 1497 3097 1228 2736 
Q 959 2375 959 1747 
Q 959 1119 1226 758 
Q 1494 397 1959 397 
Q 2419 397 2687 759 
Q 2956 1122 2956 1747 
Q 2956 2369 2687 2733 
Q 2419 3097 1959 3097 
z
M 1959 3584 
Q 2709 3584 3137 3096 
Q 3566 2609 3566 1747 
Q 3566 888 3137 398 
Q 2709 -91 1959 -91 
Q 1206 -91 779 398 
Q 353 888 353 1747 
Q 353 2609 779 3096 
Q 1206 3584 1959 3584 
z
" transform="scale(0.015625)"/>
      </defs>
      <use xlink:href="#DejaVuSans-54"/>
      <use xlink:href="#DejaVuSans-68" x="61.083984"/>
      <use xlink:href="#DejaVuSans-72" x="124.462891"/>
      <use xlink:href="#DejaVuSans-65" x="163.326172"/>
      <use xlink:href="#DejaVuSans-73" x="224.849609"/>
      <use xlink:href="#DejaVuSans-68" x="276.949219"/>
      <use xlink:href="#DejaVuSans-6f" x="340.328125"/>
      <use xlink:href="#DejaVuSans-6c" x="401.509766"/>
      <use xlink:href="#DejaVuSans-64" x="429.292969"/>
     </g>
    </g>
    <g id="line2d_18">
     <path d="M 1122.647 112.534963 
L 1132.647 112.534963 
L 1142.647 112.534963 
" style="fill: none; stroke: #ff7f0e; stroke-width: 1.5; stroke-linecap: square"/>
    </g>
    <g id="text_18">
     <!-- Detections -->
     <g transform="translate(1150.647 116.034963) scale(0.1 -0.1)">
      <defs>
       <path id="DejaVuSans-44" d="M 1259 4147 
L 1259 519 
L 2022 519 
Q 2988 519 3436 956 
Q 3884 1394 3884 2338 
Q 3884 3275 3436 3711 
Q 2988 4147 2022 4147 
L 1259 4147 
z
M 628 4666 
L 1925 4666 
Q 3281 4666 3915 4102 
Q 4550 3538 4550 2338 
Q 4550 1131 3912 565 
Q 3275 0 1925 0 
L 628 0 
L 628 4666 
z
" transform="scale(0.015625)"/>
       <path id="DejaVuSans-6e" d="M 3513 2113 
L 3513 0 
L 2938 0 
L 2938 2094 
Q 2938 2591 2744 2837 
Q 2550 3084 2163 3084 
Q 1697 3084 1428 2787 
Q 1159 2491 1159 1978 
L 1159 0 
L 581 0 
L 581 3500 
L 1159 3500 
L 1159 2956 
Q 1366 3272 1645 3428 
Q 1925 3584 2291 3584 
Q 2894 3584 3203 3211 
Q 3513 2838 3513 2113 
z
" transform="scale(0.015625)"/>
      </defs>
      <use xlink:href="#DejaVuSans-44"/>
      <use xlink:href="#DejaVuSans-65" x="77.001953"/>
      <use xlink:href="#DejaVuSans-74" x="138.525391"/>
      <use xlink:href="#DejaVuSans-65" x="177.734375"/>
      <use xlink:href="#DejaVuSans-63" x="239.257812"/>
      <use xlink:href="#DejaVuSans-74" x="294.238281"/>
      <use xlink:href="#DejaVuSans-69" x="333.447266"/>
      <use xlink:href="#DejaVuSans-6f" x="361.230469"/>
      <use xlink:href="#DejaVuSans-6e" x="422.412109"/>
      <use xlink:href="#DejaVuSans-73" x="485.791016"/>
     </g>
    </g>
    <g id="line2d_19">
     <path d="M 1122.647 127.213088 
L 1132.647 127.213088 
L 1142.647 127.213088 
" style="fill: none; stroke: #2ca02c; stroke-width: 1.5; stroke-linecap: square"/>
    </g>
    <g id="text_19">
     <!-- Detections after -->
     <g transform="translate(1150.647 130.713088) scale(0.1 -0.1)">
      <use xlink:href="#DejaVuSans-44"/>
      <use xlink:href="#DejaVuSans-65" x="77.001953"/>
      <use xlink:href="#DejaVuSans-74" x="138.525391"/>
      <use xlink:href="#DejaVuSans-65" x="177.734375"/>
      <use xlink:href="#DejaVuSans-63" x="239.257812"/>
      <use xlink:href="#DejaVuSans-74" x="294.238281"/>
      <use xlink:href="#DejaVuSans-69" x="333.447266"/>
      <use xlink:href="#DejaVuSans-6f" x="361.230469"/>
      <use xlink:href="#DejaVuSans-6e" x="422.412109"/>
      <use xlink:href="#DejaVuSans-73" x="485.791016"/>
      <use xlink:href="#DejaVuSans-20" x="537.890625"/>
      <use xlink:href="#DejaVuSans-61" x="569.677734"/>
      <use xlink:href="#DejaVuSans-66" x="630.957031"/>
      <use xlink:href="#DejaVuSans-74" x="664.412109"/>
      <use xlink:href="#DejaVuSans-65" x="703.621094"/>
      <use xlink:href="#DejaVuSans-72" x="765.144531"/>
     </g>
    </g>
   </g>
  </g>
 </g>
 <defs>
  <clipPath id="p6132a36562">
   <rect x="172.26" y="84.7584" width="1068.012" height="543.8664"/>
  </clipPath>
 </defs>
</svg>
